<?xml version="1.0" encoding="utf-8" standalone="no"?>
<!DOCTYPE svg PUBLIC "-//W3C//DTD SVG 1.1//EN"
  "http://www.w3.org/Graphics/SVG/1.1/DTD/svg11.dtd">
<svg xmlns:xlink="http://www.w3.org/1999/xlink" width="507.718786pt" height="337.59625pt" viewBox="0 0 507.718786 337.59625" xmlns="http://www.w3.org/2000/svg" version="1.1">
 <metadata>
  <rdf:RDF xmlns:dc="http://purl.org/dc/elements/1.1/" xmlns:cc="http://creativecommons.org/ns#" xmlns:rdf="http://www.w3.org/1999/02/22-rdf-syntax-ns#">
   <cc:Work>
    <dc:type rdf:resource="http://purl.org/dc/dcmitype/StillImage"/>
    <dc:date>2026-07-14T21:39:32.762940</dc:date>
    <dc:format>image/svg+xml</dc:format>
    <dc:creator>
     <cc:Agent>
      <dc:title>Matplotlib v3.10.5, https://matplotlib.org/</dc:title>
     </cc:Agent>
    </dc:creator>
   </cc:Work>
  </rdf:RDF>
 </metadata>
 <defs>
  <style type="text/css">*{stroke-linejoin: round; stroke-linecap: butt}</style>
 </defs>
 <g id="figure_1">
  <g id="patch_1">
   <path d="M 0 337.59625 
L 507.718786 337.59625 
L 507.718786 0 
L 0 0 
z
" style="fill: #ffffff"/>
  </g>
  <g id="axes_1">
   <g id="patch_2">
    <path d="M 56.2 300.04 
L 500.518786 300.04 
L 500.518786 7.2 
L 56.2 7.2 
z
" style="fill: #ffffff"/>
   </g>
   <g id="matplotlib.axis_1">
    <g id="xtick_1">
     <g id="line2d_1">
      <path d="M 76.396308 300.04 
L 76.396308 7.2 
" clip-path="url(#pcc55215a8a)" style="fill: none; stroke: #b0b0b0; stroke-opacity: 0.25; stroke-width: 0.8; stroke-linecap: square"/>
     </g>
     <g id="line2d_2">
      <defs>
       <path id="m484bd1d624" d="M 0 0 
L 0 3.5 
" style="stroke: #000000; stroke-width: 0.8"/>
      </defs>
      <g>
       <use xlink:href="#m484bd1d624" x="76.396308" y="300.04" style="stroke: #000000; stroke-width: 0.8"/>
      </g>
     </g>
     <g id="text_1">
      <text style="font-size: 10px; font-family: 'DejaVu Serif', serif; text-anchor: middle" x="76.396308" y="314.638437" transform="rotate(-0 76.396308 314.638437)">0.00</text>
     </g>
    </g>
    <g id="xtick_2">
     <g id="line2d_3">
      <path d="M 134.526778 300.04 
L 134.526778 7.2 
" clip-path="url(#pcc55215a8a)" style="fill: none; stroke: #b0b0b0; stroke-opacity: 0.25; stroke-width: 0.8; stroke-linecap: square"/>
     </g>
     <g id="line2d_4">
      <g>
       <use xlink:href="#m484bd1d624" x="134.526778" y="300.04" style="stroke: #000000; stroke-width: 0.8"/>
      </g>
     </g>
     <g id="text_2">
      <text style="font-size: 10px; font-family: 'DejaVu Serif', serif; text-anchor: middle" x="134.526778" y="314.638437" transform="rotate(-0 134.526778 314.638437)">0.25</text>
     </g>
    </g>
    <g id="xtick_3">
     <g id="line2d_5">
      <path d="M 192.657247 300.04 
L 192.657247 7.2 
" clip-path="url(#pcc55215a8a)" style="fill: none; stroke: #b0b0b0; stroke-opacity: 0.25; stroke-width: 0.8; stroke-linecap: square"/>
     </g>
     <g id="line2d_6">
      <g>
       <use xlink:href="#m484bd1d624" x="192.657247" y="300.04" style="stroke: #000000; stroke-width: 0.8"/>
      </g>
     </g>
     <g id="text_3">
      <text style="font-size: 10px; font-family: 'DejaVu Serif', serif; text-anchor: middle" x="192.657247" y="314.638437" transform="rotate(-0 192.657247 314.638437)">0.50</text>
     </g>
    </g>
    <g id="xtick_4">
     <g id="line2d_7">
      <path d="M 250.787716 300.04 
L 250.787716 7.2 
" clip-path="url(#pcc55215a8a)" style="fill: none; stroke: #b0b0b0; stroke-opacity: 0.25; stroke-width: 0.8; stroke-linecap: square"/>
     </g>
     <g id="line2d_8">
      <g>
       <use xlink:href="#m484bd1d624" x="250.787716" y="300.04" style="stroke: #000000; stroke-width: 0.8"/>
      </g>
     </g>
     <g id="text_4">
      <text style="font-size: 10px; font-family: 'DejaVu Serif', serif; text-anchor: middle" x="250.787716" y="314.638437" transform="rotate(-0 250.787716 314.638437)">0.75</text>
     </g>
    </g>
    <g id="xtick_5">
     <g id="line2d_9">
      <path d="M 308.918186 300.04 
L 308.918186 7.2 
" clip-path="url(#pcc55215a8a)" style="fill: none; stroke: #b0b0b0; stroke-opacity: 0.25; stroke-width: 0.8; stroke-linecap: square"/>
     </g>
     <g id="line2d_10">
      <g>
       <use xlink:href="#m484bd1d624" x="308.918186" y="300.04" style="stroke: #000000; stroke-width: 0.8"/>
      </g>
     </g>
     <g id="text_5">
      <text style="font-size: 10px; font-family: 'DejaVu Serif', serif; text-anchor: middle" x="308.918186" y="314.638437" transform="rotate(-0 308.918186 314.638437)">1.00</text>
     </g>
    </g>
    <g id="xtick_6">
     <g id="line2d_11">
      <path d="M 367.048655 300.04 
L 367.048655 7.2 
" clip-path="url(#pcc55215a8a)" style="fill: none; stroke: #b0b0b0; stroke-opacity: 0.25; stroke-width: 0.8; stroke-linecap: square"/>
     </g>
     <g id="line2d_12">
      <g>
       <use xlink:href="#m484bd1d624" x="367.048655" y="300.04" style="stroke: #000000; stroke-width: 0.8"/>
      </g>
     </g>
     <g id="text_6">
      <text style="font-size: 10px; font-family: 'DejaVu Serif', serif; text-anchor: middle" x="367.048655" y="314.638437" transform="rotate(-0 367.048655 314.638437)">1.25</text>
     </g>
    </g>
    <g id="xtick_7">
     <g id="line2d_13">
      <path d="M 425.179124 300.04 
L 425.179124 7.2 
" clip-path="url(#pcc55215a8a)" style="fill: none; stroke: #b0b0b0; stroke-opacity: 0.25; stroke-width: 0.8; stroke-linecap: square"/>
     </g>
     <g id="line2d_14">
      <g>
       <use xlink:href="#m484bd1d624" x="425.179124" y="300.04" style="stroke: #000000; stroke-width: 0.8"/>
      </g>
     </g>
     <g id="text_7">
      <text style="font-size: 10px; font-family: 'DejaVu Serif', serif; text-anchor: middle" x="425.179124" y="314.638437" transform="rotate(-0 425.179124 314.638437)">1.50</text>
     </g>
    </g>
    <g id="xtick_8">
     <g id="line2d_15">
      <path d="M 483.309594 300.04 
L 483.309594 7.2 
" clip-path="url(#pcc55215a8a)" style="fill: none; stroke: #b0b0b0; stroke-opacity: 0.25; stroke-width: 0.8; stroke-linecap: square"/>
     </g>
     <g id="line2d_16">
      <g>
       <use xlink:href="#m484bd1d624" x="483.309594" y="300.04" style="stroke: #000000; stroke-width: 0.8"/>
      </g>
     </g>
     <g id="text_8">
      <text style="font-size: 10px; font-family: 'DejaVu Serif', serif; text-anchor: middle" x="483.309594" y="314.638437" transform="rotate(-0 483.309594 314.638437)">1.75</text>
     </g>
    </g>
    <g id="text_9">
     <text style="font-size: 10px; font-family: 'DejaVu Serif', serif; text-anchor: middle" x="278.359393" y="328.316562" transform="rotate(-0 278.359393 328.316562)">Time (s)</text>
    </g>
   </g>
   <g id="matplotlib.axis_2">
    <g id="ytick_1">
     <g id="line2d_17">
      <path d="M 56.2 273.802 
L 500.518786 273.802 
" clip-path="url(#pcc55215a8a)" style="fill: none; stroke: #b0b0b0; stroke-opacity: 0.25; stroke-width: 0.8; stroke-linecap: square"/>
     </g>
     <g id="line2d_18">
      <defs>
       <path id="m53bebe09d8" d="M 0 0 
L -3.5 0 
" style="stroke: #000000; stroke-width: 0.8"/>
      </defs>
      <g>
       <use xlink:href="#m53bebe09d8" x="56.2" y="273.802" style="stroke: #000000; stroke-width: 0.8"/>
      </g>
     </g>
     <g id="text_10">
      <!-- $\mathdefault{10^{-15}}$ -->
      <g transform="translate(21.3 277.601219)">
       <text>
        <tspan x="0" y="-0.173438" style="font-size: 10px; font-family: 'DejaVu Serif'">1</tspan>
        <tspan x="6.362305" y="-0.173438" style="font-size: 10px; font-family: 'DejaVu Serif'">0</tspan>
        <tspan x="12.815391" y="-3.804688" style="font-size: 7px; font-family: 'DejaVu Serif'">−</tspan>
        <tspan x="18.680625" y="-3.804688" style="font-size: 7px; font-family: 'DejaVu Serif'">1</tspan>
        <tspan x="23.134238" y="-3.804688" style="font-size: 7px; font-family: 'DejaVu Serif'">5</tspan>
       </text>
      </g>
     </g>
    </g>
    <g id="ytick_2">
     <g id="line2d_19">
      <path d="M 56.2 234.242983 
L 500.518786 234.242983 
" clip-path="url(#pcc55215a8a)" style="fill: none; stroke: #b0b0b0; stroke-opacity: 0.25; stroke-width: 0.8; stroke-linecap: square"/>
     </g>
     <g id="line2d_20">
      <g>
       <use xlink:href="#m53bebe09d8" x="56.2" y="234.242983" style="stroke: #000000; stroke-width: 0.8"/>
      </g>
     </g>
     <g id="text_11">
      <!-- $\mathdefault{10^{-13}}$ -->
      <g transform="translate(21.3 238.042202)">
       <text>
        <tspan x="0" y="-0.173438" style="font-size: 10px; font-family: 'DejaVu Serif'">1</tspan>
        <tspan x="6.362305" y="-0.173438" style="font-size: 10px; font-family: 'DejaVu Serif'">0</tspan>
        <tspan x="12.815391" y="-3.804688" style="font-size: 7px; font-family: 'DejaVu Serif'">−</tspan>
        <tspan x="18.680625" y="-3.804688" style="font-size: 7px; font-family: 'DejaVu Serif'">1</tspan>
        <tspan x="23.134238" y="-3.804688" style="font-size: 7px; font-family: 'DejaVu Serif'">3</tspan>
       </text>
      </g>
     </g>
    </g>
    <g id="ytick_3">
     <g id="line2d_21">
      <path d="M 56.2 194.683966 
L 500.518786 194.683966 
" clip-path="url(#pcc55215a8a)" style="fill: none; stroke: #b0b0b0; stroke-opacity: 0.25; stroke-width: 0.8; stroke-linecap: square"/>
     </g>
     <g id="line2d_22">
      <g>
       <use xlink:href="#m53bebe09d8" x="56.2" y="194.683966" style="stroke: #000000; stroke-width: 0.8"/>
      </g>
     </g>
     <g id="text_12">
      <!-- $\mathdefault{10^{-11}}$ -->
      <g transform="translate(21.3 198.483185)">
       <text>
        <tspan x="0" y="-0.173438" style="font-size: 10px; font-family: 'DejaVu Serif'">1</tspan>
        <tspan x="6.362305" y="-0.173438" style="font-size: 10px; font-family: 'DejaVu Serif'">0</tspan>
        <tspan x="12.815391" y="-3.804688" style="font-size: 7px; font-family: 'DejaVu Serif'">−</tspan>
        <tspan x="18.680625" y="-3.804688" style="font-size: 7px; font-family: 'DejaVu Serif'">1</tspan>
        <tspan x="23.134238" y="-3.804688" style="font-size: 7px; font-family: 'DejaVu Serif'">1</tspan>
       </text>
      </g>
     </g>
    </g>
    <g id="ytick_4">
     <g id="line2d_23">
      <path d="M 56.2 155.124949 
L 500.518786 155.124949 
" clip-path="url(#pcc55215a8a)" style="fill: none; stroke: #b0b0b0; stroke-opacity: 0.25; stroke-width: 0.8; stroke-linecap: square"/>
     </g>
     <g id="line2d_24">
      <g>
       <use xlink:href="#m53bebe09d8" x="56.2" y="155.124949" style="stroke: #000000; stroke-width: 0.8"/>
      </g>
     </g>
     <g id="text_13">
      <!-- $\mathdefault{10^{-9}}$ -->
      <g transform="translate(25.8 158.924168)">
       <text>
        <tspan x="0" y="-0.173438" style="font-size: 10px; font-family: 'DejaVu Serif'">1</tspan>
        <tspan x="6.362305" y="-0.173438" style="font-size: 10px; font-family: 'DejaVu Serif'">0</tspan>
        <tspan x="12.815391" y="-3.804688" style="font-size: 7px; font-family: 'DejaVu Serif'">−</tspan>
        <tspan x="18.680625" y="-3.804688" style="font-size: 7px; font-family: 'DejaVu Serif'">9</tspan>
       </text>
      </g>
     </g>
    </g>
    <g id="ytick_5">
     <g id="line2d_25">
      <path d="M 56.2 115.565932 
L 500.518786 115.565932 
" clip-path="url(#pcc55215a8a)" style="fill: none; stroke: #b0b0b0; stroke-opacity: 0.25; stroke-width: 0.8; stroke-linecap: square"/>
     </g>
     <g id="line2d_26">
      <g>
       <use xlink:href="#m53bebe09d8" x="56.2" y="115.565932" style="stroke: #000000; stroke-width: 0.8"/>
      </g>
     </g>
     <g id="text_14">
      <!-- $\mathdefault{10^{-7}}$ -->
      <g transform="translate(25.8 119.365151)">
       <text>
        <tspan x="0" y="-0.260938" style="font-size: 10px; font-family: 'DejaVu Serif'">1</tspan>
        <tspan x="6.362305" y="-0.260938" style="font-size: 10px; font-family: 'DejaVu Serif'">0</tspan>
        <tspan x="12.815391" y="-3.892188" style="font-size: 7px; font-family: 'DejaVu Serif'">−</tspan>
        <tspan x="18.680625" y="-3.892188" style="font-size: 7px; font-family: 'DejaVu Serif'">7</tspan>
       </text>
      </g>
     </g>
    </g>
    <g id="ytick_6">
     <g id="line2d_27">
      <path d="M 56.2 76.006915 
L 500.518786 76.006915 
" clip-path="url(#pcc55215a8a)" style="fill: none; stroke: #b0b0b0; stroke-opacity: 0.25; stroke-width: 0.8; stroke-linecap: square"/>
     </g>
     <g id="line2d_28">
      <g>
       <use xlink:href="#m53bebe09d8" x="56.2" y="76.006915" style="stroke: #000000; stroke-width: 0.8"/>
      </g>
     </g>
     <g id="text_15">
      <!-- $\mathdefault{10^{-5}}$ -->
      <g transform="translate(25.8 79.806134)">
       <text>
        <tspan x="0" y="-0.260938" style="font-size: 10px; font-family: 'DejaVu Serif'">1</tspan>
        <tspan x="6.362305" y="-0.260938" style="font-size: 10px; font-family: 'DejaVu Serif'">0</tspan>
        <tspan x="12.815391" y="-3.892188" style="font-size: 7px; font-family: 'DejaVu Serif'">−</tspan>
        <tspan x="18.680625" y="-3.892188" style="font-size: 7px; font-family: 'DejaVu Serif'">5</tspan>
       </text>
      </g>
     </g>
    </g>
    <g id="ytick_7">
     <g id="line2d_29">
      <path d="M 56.2 36.447898 
L 500.518786 36.447898 
" clip-path="url(#pcc55215a8a)" style="fill: none; stroke: #b0b0b0; stroke-opacity: 0.25; stroke-width: 0.8; stroke-linecap: square"/>
     </g>
     <g id="line2d_30">
      <g>
       <use xlink:href="#m53bebe09d8" x="56.2" y="36.447898" style="stroke: #000000; stroke-width: 0.8"/>
      </g>
     </g>
     <g id="text_16">
      <!-- $\mathdefault{10^{-3}}$ -->
      <g transform="translate(25.8 40.247117)">
       <text>
        <tspan x="0" y="-0.173438" style="font-size: 10px; font-family: 'DejaVu Serif'">1</tspan>
        <tspan x="6.362305" y="-0.173438" style="font-size: 10px; font-family: 'DejaVu Serif'">0</tspan>
        <tspan x="12.815391" y="-3.804688" style="font-size: 7px; font-family: 'DejaVu Serif'">−</tspan>
        <tspan x="18.680625" y="-3.804688" style="font-size: 7px; font-family: 'DejaVu Serif'">3</tspan>
       </text>
      </g>
     </g>
    </g>
    <g id="text_17">
     <!-- Primal Residual $\|D \mathbf{x}-\mathbf{y}\|$ -->
     <g transform="translate(14.9 216.87) rotate(-90)">
      <text>
       <tspan x="0" y="-0.359375" style="font-size: 10px; font-family: 'DejaVu Serif'">P</tspan>
       <tspan x="6.728516" y="-0.359375" style="font-size: 10px; font-family: 'DejaVu Serif'">r</tspan>
       <tspan x="11.508789" y="-0.359375" style="font-size: 10px; font-family: 'DejaVu Serif'">i</tspan>
       <tspan x="14.707031" y="-0.359375" style="font-size: 10px; font-family: 'DejaVu Serif'">m</tspan>
       <tspan x="24.189453" y="-0.359375" style="font-size: 10px; font-family: 'DejaVu Serif'">a</tspan>
       <tspan x="30.151367" y="-0.359375" style="font-size: 10px; font-family: 'DejaVu Serif'">l</tspan>
       <tspan x="33.349609" y="-0.359375" style="font-size: 10px; font-family: 'DejaVu Serif'"> </tspan>
       <tspan x="36.52832" y="-0.359375" style="font-size: 10px; font-family: 'DejaVu Serif'">R</tspan>
       <tspan x="44.057617" y="-0.359375" style="font-size: 10px; font-family: 'DejaVu Serif'">e</tspan>
       <tspan x="49.975586" y="-0.359375" style="font-size: 10px; font-family: 'DejaVu Serif'">s</tspan>
       <tspan x="55.107422" y="-0.359375" style="font-size: 10px; font-family: 'DejaVu Serif'">i</tspan>
       <tspan x="58.305664" y="-0.359375" style="font-size: 10px; font-family: 'DejaVu Serif'">d</tspan>
       <tspan x="64.707031" y="-0.359375" style="font-size: 10px; font-family: 'DejaVu Serif'">u</tspan>
       <tspan x="71.147461" y="-0.359375" style="font-size: 10px; font-family: 'DejaVu Serif'">a</tspan>
       <tspan x="77.109375" y="-0.359375" style="font-size: 10px; font-family: 'DejaVu Serif'">l</tspan>
       <tspan x="80.307617" y="-0.359375" style="font-size: 10px; font-family: 'DejaVu Serif'"> </tspan>
       <tspan x="83.486328" y="-0.359375" style="font-size: 10px; font-family: 'DejaVu Sans'">‖</tspan>
       <tspan x="104.584961" y="-0.359375" style="font-size: 10px; font-family: 'DejaVu Sans'">−</tspan>
       <tspan x="121.430664" y="-0.359375" style="font-size: 10px; font-family: 'DejaVu Sans'">‖</tspan>
       <tspan x="88.486328" y="-0.359375" style="font-style: oblique; font-size: 10px; font-family: 'DejaVu Sans'">D</tspan>
       <tspan x="96.186523" y="-0.359375" style="font-weight: 700; font-size: 10px; font-family: 'DejaVu Sans'">x</tspan>
       <tspan x="114.912109" y="-0.359375" style="font-weight: 700; font-size: 10px; font-family: 'DejaVu Sans'">y</tspan>
      </text>
     </g>
    </g>
   </g>
   <g id="line2d_31">
    <path d="M 76.396308 286.729091 
L 78.426088 20.693027 
L 82.485648 26.636887 
L 84.515427 32.055133 
L 86.545207 36.656248 
L 88.574987 39.743884 
L 90.604767 38.56829 
L 92.634546 43.534246 
L 94.664326 42.50593 
L 96.694106 48.057962 
L 98.723886 48.510721 
L 100.753665 55.594153 
L 102.783445 56.214737 
L 104.813225 60.614183 
L 106.843005 63.497318 
L 108.872784 62.569411 
L 110.902564 67.694133 
L 112.932344 66.089627 
L 114.962124 68.292304 
L 116.991903 70.83591 
L 119.021683 70.451163 
L 121.051463 74.768761 
L 123.081243 73.331484 
L 129.170582 79.364113 
L 131.200362 76.513689 
L 133.230141 33.1605 
L 135.259921 39.897393 
L 137.289701 43.429265 
L 139.319481 49.560921 
L 141.34926 53.143307 
L 143.37904 58.175699 
L 145.40882 64.664966 
L 147.4386 64.548137 
L 149.468379 70.067386 
L 151.498159 69.15063 
L 153.527939 72.347633 
L 155.557719 74.344609 
L 157.587498 75.361257 
L 159.617278 74.865309 
L 161.647058 78.69251 
L 163.676838 79.033615 
L 165.706617 80.506638 
L 167.736397 82.613321 
L 169.766177 81.364177 
L 171.795957 78.994663 
L 173.825736 79.475437 
L 175.855516 36.131396 
L 177.885296 35.640994 
L 179.915076 43.616509 
L 181.944855 50.837444 
L 183.974635 53.988215 
L 186.004415 59.495478 
L 188.034195 61.83834 
L 190.063974 63.382165 
L 192.093754 68.74894 
L 194.123534 69.79735 
L 196.153313 71.614419 
L 198.183093 71.787654 
L 200.212873 73.664459 
L 202.242653 73.70389 
L 204.272432 75.861264 
L 206.302212 76.282205 
L 208.331992 77.925407 
L 210.361772 78.542298 
L 212.391551 79.379188 
L 214.421331 80.352803 
L 216.451111 80.882335 
L 218.480891 82.106928 
L 220.51067 83.141377 
L 222.54045 83.794834 
L 224.57023 85.073538 
L 226.60001 85.709371 
L 228.629789 87.051205 
L 232.689349 88.22381 
L 234.719129 89.649704 
L 236.748908 90.686541 
L 238.778688 92.015951 
L 240.808468 92.778793 
L 244.868027 94.642241 
L 246.897807 95.808496 
L 250.957367 97.55601 
L 252.987146 98.542678 
L 255.016926 99.672775 
L 259.076486 101.552442 
L 261.106265 102.281964 
L 263.136045 103.268473 
L 265.165825 104.50508 
L 267.195605 105.350329 
L 269.225384 106.406778 
L 273.284944 107.917891 
L 277.344503 109.923621 
L 279.374283 110.972591 
L 281.404063 111.635617 
L 285.463622 113.521738 
L 287.493402 114.839801 
L 289.523182 115.512391 
L 291.552962 116.672839 
L 293.582741 117.54288 
L 295.612521 118.949598 
L 297.642301 119.527687 
L 299.672081 120.637917 
L 307.7912 124.167806 
L 309.820979 125.247664 
L 311.850759 126.136066 
L 319.969878 130.501694 
L 321.999658 131.108782 
L 324.029438 131.920436 
L 326.059217 133.118683 
L 328.088997 134.04967 
L 330.118777 135.112686 
L 332.148556 135.93868 
L 338.237896 139.044384 
L 340.267675 140.273803 
L 342.297455 140.867031 
L 344.327235 141.781669 
L 348.386794 144.154954 
L 350.416574 145.122138 
L 352.446354 145.63425 
L 354.476134 146.582134 
L 358.535693 149.112801 
L 360.565473 149.879531 
L 364.625032 151.793907 
L 366.654812 153.039743 
L 372.744151 155.531748 
L 374.773931 156.995201 
L 378.833491 159.016308 
L 380.86327 159.873218 
L 384.92283 161.864014 
L 386.95261 162.807476 
L 388.982389 164.026488 
L 391.012169 164.787888 
L 393.041949 165.83097 
L 395.071729 166.729224 
L 397.101508 167.401082 
L 405.220627 171.334282 
L 411.309967 174.46998 
L 413.339746 175.322646 
L 421.458865 179.34697 
L 423.488645 180.179481 
L 427.548205 182.475177 
L 429.577984 183.252432 
L 431.607764 183.828288 
L 433.637544 185.078544 
L 435.667324 186.1298 
L 437.697103 187.009134 
L 439.726883 188.372207 
L 441.756663 188.925529 
L 445.816222 191.374557 
L 447.846002 191.628008 
L 449.875782 192.953073 
L 451.905562 193.764934 
L 457.994901 196.816298 
L 460.02468 197.926912 
L 462.05446 198.488384 
L 464.08424 199.957904 
L 466.11402 200.616209 
L 468.143799 202.099765 
L 470.173579 202.71022 
L 472.203359 203.547391 
L 474.233139 204.618418 
L 476.262918 205.247971 
L 478.292698 206.532982 
L 480.322478 207.223658 
L 480.322478 207.223658 
" clip-path="url(#pcc55215a8a)" style="fill: none; stroke: #1f77b4; stroke-width: 1.9; stroke-linecap: square"/>
   </g>
   <g id="line2d_32">
    <path d="M 76.396308 286.729091 
L 78.426088 24.157385 
L 80.455868 20.510909 
L 82.485648 23.757341 
L 84.515427 27.346514 
L 86.545207 28.489503 
L 88.574987 36.94047 
L 90.604767 37.614754 
L 92.634546 45.786533 
L 94.664326 41.382855 
L 96.694106 48.725791 
L 98.723886 53.182394 
L 100.753665 49.995251 
L 104.813225 45.15072 
L 106.843005 43.863857 
L 108.872784 42.932062 
L 110.902564 45.821823 
L 112.932344 56.701853 
L 114.962124 56.321958 
L 116.991903 53.207561 
L 119.021683 43.831085 
L 121.051463 28.712367 
L 123.081243 40.073805 
L 125.111022 40.525481 
L 127.140802 45.815562 
L 129.170582 56.953852 
L 131.200362 55.37927 
L 133.230141 51.2936 
L 135.259921 50.878549 
L 137.289701 47.481767 
L 139.319481 45.99966 
L 141.34926 45.632229 
L 143.37904 48.684001 
L 145.40882 46.930867 
L 147.4386 43.190146 
L 149.468379 45.57933 
L 151.498159 44.734661 
L 153.527939 40.9864 
L 155.557719 33.842578 
L 157.587498 37.188174 
L 159.617278 35.051143 
L 161.647058 40.624348 
L 163.676838 40.45412 
L 165.706617 38.03666 
L 171.795957 37.926963 
L 173.825736 37.489562 
L 175.855516 38.466435 
L 177.885296 48.473644 
L 179.915076 59.709308 
L 181.944855 61.887755 
L 183.974635 63.310734 
L 186.004415 63.731974 
L 188.034195 62.430139 
L 190.063974 60.693426 
L 192.093754 60.363448 
L 194.123534 62.671175 
L 196.153313 58.571296 
L 198.183093 58.378255 
L 200.212873 69.525741 
L 202.242653 78.302726 
L 204.272432 80.225336 
L 206.302212 79.459016 
L 208.331992 80.398665 
L 210.361772 84.095947 
L 212.391551 87.136627 
L 214.421331 85.749931 
L 218.480891 81.184799 
L 220.51067 82.337789 
L 222.54045 80.238024 
L 224.57023 77.463812 
L 226.60001 77.64342 
L 228.629789 77.152086 
L 230.659569 78.937347 
L 232.689349 76.678731 
L 234.719129 75.560901 
L 236.748908 78.767454 
L 238.778688 76.682087 
L 240.808468 74.262898 
L 244.868027 75.292854 
L 246.897807 75.938348 
L 248.927587 76.122283 
L 250.957367 78.174361 
L 252.987146 83.844781 
L 255.016926 94.524179 
L 257.046706 103.168752 
L 259.076486 106.220005 
L 261.106265 105.505779 
L 263.136045 107.297063 
L 267.195605 104.546326 
L 269.225384 104.856869 
L 271.255164 103.988317 
L 275.314724 104.910476 
L 277.344503 104.367167 
L 279.374283 103.271351 
L 281.404063 102.392554 
L 283.433843 105.328168 
L 285.463622 117.436079 
L 287.493402 125.953155 
L 289.523182 127.102771 
L 291.552962 125.842087 
L 293.582741 124.818556 
L 295.612521 124.674509 
L 297.642301 123.222911 
L 299.672081 121.526867 
L 303.73164 123.005542 
L 305.76142 128.215371 
L 307.7912 141.136549 
L 309.820979 143.39723 
L 311.850759 140.585179 
L 313.880539 138.32016 
L 315.910319 138.538689 
L 317.940098 137.118035 
L 319.969878 136.410359 
L 321.999658 136.427018 
L 324.029438 135.830305 
L 326.059217 132.794094 
L 328.088997 136.662658 
L 330.118777 136.90473 
L 332.148556 143.738959 
L 334.178336 156.150402 
L 336.208116 158.58326 
L 338.237896 156.763849 
L 340.267675 157.705494 
L 342.297455 154.266712 
L 344.327235 153.689078 
L 348.386794 154.295849 
L 350.416574 153.409731 
L 352.446354 153.462305 
L 356.505913 153.281225 
L 358.535693 152.898719 
L 360.565473 153.237625 
L 362.595253 158.600354 
L 364.625032 168.730514 
L 366.654812 177.850957 
L 368.684592 181.907287 
L 370.714372 178.532548 
L 372.744151 176.203522 
L 376.803711 175.46124 
L 378.833491 173.486666 
L 380.86327 174.688559 
L 382.89305 174.371943 
L 384.92283 173.466318 
L 388.982389 171.894025 
L 391.012169 172.036203 
L 393.041949 173.736502 
L 395.071729 173.451866 
L 397.101508 173.46503 
L 399.131288 173.293065 
L 401.161068 173.547287 
L 403.190848 173.640542 
L 405.220627 171.607464 
L 407.250407 170.648937 
L 409.280187 170.980854 
L 411.309967 170.991183 
L 413.339746 170.500857 
L 415.369526 170.85976 
L 417.399306 171.057506 
L 419.429086 168.766059 
L 421.458865 171.600424 
L 423.488645 171.660246 
L 425.518425 173.04878 
L 427.548205 185.159773 
L 429.577984 198.280417 
L 431.607764 203.95329 
L 433.637544 208.557628 
L 435.667324 214.692659 
L 437.697103 216.061266 
L 439.726883 215.561564 
L 441.756663 218.901995 
L 443.786443 228.484782 
L 445.816222 230.040184 
L 447.846002 230.77378 
L 449.875782 229.231921 
L 451.905562 229.962663 
L 453.935341 228.334256 
L 455.965121 225.747626 
L 457.994901 225.658873 
L 460.02468 226.482233 
L 462.05446 226.965616 
L 464.08424 233.069734 
L 466.11402 242.114667 
L 468.143799 246.396145 
L 470.173579 245.410429 
L 474.233139 242.781861 
L 476.262918 241.529772 
L 478.292698 238.759302 
L 480.322478 239.9163 
L 480.322478 239.9163 
" clip-path="url(#pcc55215a8a)" style="fill: none; stroke-dasharray: 7.03,3.04; stroke-dashoffset: 0; stroke: #ff7f0e; stroke-width: 1.9"/>
   </g>
   <g id="patch_3">
    <path d="M 56.2 300.04 
L 56.2 7.2 
" style="fill: none; stroke: #000000; stroke-width: 0.8; stroke-linejoin: miter; stroke-linecap: square"/>
   </g>
   <g id="patch_4">
    <path d="M 500.518786 300.04 
L 500.518786 7.2 
" style="fill: none; stroke: #000000; stroke-width: 0.8; stroke-linejoin: miter; stroke-linecap: square"/>
   </g>
   <g id="patch_5">
    <path d="M 56.2 300.04 
L 500.518786 300.04 
" style="fill: none; stroke: #000000; stroke-width: 0.8; stroke-linejoin: miter; stroke-linecap: square"/>
   </g>
   <g id="patch_6">
    <path d="M 56.2 7.2 
L 500.518786 7.2 
" style="fill: none; stroke: #000000; stroke-width: 0.8; stroke-linejoin: miter; stroke-linecap: square"/>
   </g>
   <g id="legend_1">
    <g id="patch_7">
     <path d="M 308.11449 24.208594 
L 495.268786 24.208594 
Q 496.768786 24.208594 496.768786 22.708594 
L 496.768786 12.45 
Q 496.768786 10.95 495.268786 10.95 
L 308.11449 10.95 
Q 306.61449 10.95 306.61449 12.45 
L 306.61449 22.708594 
Q 306.61449 24.208594 308.11449 24.208594 
z
" style="fill: #ffffff; opacity: 0.8; stroke: #cccccc; stroke-linejoin: miter"/>
    </g>
    <g id="line2d_33">
     <path d="M 309.61449 17.023828 
L 317.11449 17.023828 
L 324.61449 17.023828 
" style="fill: none; stroke: #1f77b4; stroke-width: 1.9; stroke-linecap: square"/>
    </g>
    <g id="text_18">
     <text style="font-size: 7.5px; font-family: 'DejaVu Serif', serif; text-anchor: start" x="330.61449" y="19.648828" transform="rotate(-0 330.61449 19.648828)">SPIDER-ADMM</text>
    </g>
    <g id="line2d_34">
     <path d="M 405.218396 17.023828 
L 412.718396 17.023828 
L 420.218396 17.023828 
" style="fill: none; stroke-dasharray: 7.03,3.04; stroke-dashoffset: 0; stroke: #ff7f0e; stroke-width: 1.9"/>
    </g>
    <g id="text_19">
     <text style="font-size: 7.5px; font-family: 'DejaVu Serif', serif; text-anchor: start" x="426.218396" y="19.648828" transform="rotate(-0 426.218396 19.648828)">AIL-SVRG-ADMM</text>
    </g>
   </g>
  </g>
 </g>
 <defs>
  <clipPath id="pcc55215a8a">
   <rect x="56.2" y="7.2" width="444.318786" height="292.84"/>
  </clipPath>
 </defs>
</svg>
