<?xml version="1.0" encoding="utf-8" standalone="no"?>
<!DOCTYPE svg PUBLIC "-//W3C//DTD SVG 1.1//EN"
  "http://www.w3.org/Graphics/SVG/1.1/DTD/svg11.dtd">
<svg xmlns:xlink="http://www.w3.org/1999/xlink" width="507.728911pt" height="337.59625pt" viewBox="0 0 507.728911 337.59625" xmlns="http://www.w3.org/2000/svg" version="1.1">
 <metadata>
  <rdf:RDF xmlns:dc="http://purl.org/dc/elements/1.1/" xmlns:cc="http://creativecommons.org/ns#" xmlns:rdf="http://www.w3.org/1999/02/22-rdf-syntax-ns#">
   <cc:Work>
    <dc:type rdf:resource="http://purl.org/dc/dcmitype/StillImage"/>
    <dc:date>2026-07-14T21:39:33.333279</dc:date>
    <dc:format>image/svg+xml</dc:format>
    <dc:creator>
     <cc:Agent>
      <dc:title>Matplotlib v3.10.5, https://matplotlib.org/</dc:title>
     </cc:Agent>
    </dc:creator>
   </cc:Work>
  </rdf:RDF>
 </metadata>
 <defs>
  <style type="text/css">*{stroke-linejoin: round; stroke-linecap: butt}</style>
 </defs>
 <g id="figure_1">
  <g id="patch_1">
   <path d="M 0 337.59625 
L 507.728911 337.59625 
L 507.728911 0 
L 0 0 
z
" style="fill: #ffffff"/>
  </g>
  <g id="axes_1">
   <g id="patch_2">
    <path d="M 55.778125 300.04 
L 500.528911 300.04 
L 500.528911 7.2 
L 55.778125 7.2 
z
" style="fill: #ffffff"/>
   </g>
   <g id="matplotlib.axis_1">
    <g id="xtick_1">
     <g id="line2d_1">
      <path d="M 75.99407 300.04 
L 75.99407 7.2 
" clip-path="url(#p506029f3b1)" style="fill: none; stroke: #b0b0b0; stroke-opacity: 0.25; stroke-width: 0.8; stroke-linecap: square"/>
     </g>
     <g id="line2d_2">
      <defs>
       <path id="mdcb27fb6d8" d="M 0 0 
L 0 3.5 
" style="stroke: #000000; stroke-width: 0.8"/>
      </defs>
      <g>
       <use xlink:href="#mdcb27fb6d8" x="75.99407" y="300.04" style="stroke: #000000; stroke-width: 0.8"/>
      </g>
     </g>
     <g id="text_1">
      <text style="font-size: 10px; font-family: 'DejaVu Serif', serif; text-anchor: middle" x="75.99407" y="314.638437" transform="rotate(-0 75.99407 314.638437)">0</text>
     </g>
    </g>
    <g id="xtick_2">
     <g id="line2d_3">
      <path d="M 126.533932 300.04 
L 126.533932 7.2 
" clip-path="url(#p506029f3b1)" style="fill: none; stroke: #b0b0b0; stroke-opacity: 0.25; stroke-width: 0.8; stroke-linecap: square"/>
     </g>
     <g id="line2d_4">
      <g>
       <use xlink:href="#mdcb27fb6d8" x="126.533932" y="300.04" style="stroke: #000000; stroke-width: 0.8"/>
      </g>
     </g>
     <g id="text_2">
      <text style="font-size: 10px; font-family: 'DejaVu Serif', serif; text-anchor: middle" x="126.533932" y="314.638437" transform="rotate(-0 126.533932 314.638437)">500</text>
     </g>
    </g>
    <g id="xtick_3">
     <g id="line2d_5">
      <path d="M 177.073794 300.04 
L 177.073794 7.2 
" clip-path="url(#p506029f3b1)" style="fill: none; stroke: #b0b0b0; stroke-opacity: 0.25; stroke-width: 0.8; stroke-linecap: square"/>
     </g>
     <g id="line2d_6">
      <g>
       <use xlink:href="#mdcb27fb6d8" x="177.073794" y="300.04" style="stroke: #000000; stroke-width: 0.8"/>
      </g>
     </g>
     <g id="text_3">
      <text style="font-size: 10px; font-family: 'DejaVu Serif', serif; text-anchor: middle" x="177.073794" y="314.638437" transform="rotate(-0 177.073794 314.638437)">1000</text>
     </g>
    </g>
    <g id="xtick_4">
     <g id="line2d_7">
      <path d="M 227.613656 300.04 
L 227.613656 7.2 
" clip-path="url(#p506029f3b1)" style="fill: none; stroke: #b0b0b0; stroke-opacity: 0.25; stroke-width: 0.8; stroke-linecap: square"/>
     </g>
     <g id="line2d_8">
      <g>
       <use xlink:href="#mdcb27fb6d8" x="227.613656" y="300.04" style="stroke: #000000; stroke-width: 0.8"/>
      </g>
     </g>
     <g id="text_4">
      <text style="font-size: 10px; font-family: 'DejaVu Serif', serif; text-anchor: middle" x="227.613656" y="314.638437" transform="rotate(-0 227.613656 314.638437)">1500</text>
     </g>
    </g>
    <g id="xtick_5">
     <g id="line2d_9">
      <path d="M 278.153518 300.04 
L 278.153518 7.2 
" clip-path="url(#p506029f3b1)" style="fill: none; stroke: #b0b0b0; stroke-opacity: 0.25; stroke-width: 0.8; stroke-linecap: square"/>
     </g>
     <g id="line2d_10">
      <g>
       <use xlink:href="#mdcb27fb6d8" x="278.153518" y="300.04" style="stroke: #000000; stroke-width: 0.8"/>
      </g>
     </g>
     <g id="text_5">
      <text style="font-size: 10px; font-family: 'DejaVu Serif', serif; text-anchor: middle" x="278.153518" y="314.638437" transform="rotate(-0 278.153518 314.638437)">2000</text>
     </g>
    </g>
    <g id="xtick_6">
     <g id="line2d_11">
      <path d="M 328.69338 300.04 
L 328.69338 7.2 
" clip-path="url(#p506029f3b1)" style="fill: none; stroke: #b0b0b0; stroke-opacity: 0.25; stroke-width: 0.8; stroke-linecap: square"/>
     </g>
     <g id="line2d_12">
      <g>
       <use xlink:href="#mdcb27fb6d8" x="328.69338" y="300.04" style="stroke: #000000; stroke-width: 0.8"/>
      </g>
     </g>
     <g id="text_6">
      <text style="font-size: 10px; font-family: 'DejaVu Serif', serif; text-anchor: middle" x="328.69338" y="314.638437" transform="rotate(-0 328.69338 314.638437)">2500</text>
     </g>
    </g>
    <g id="xtick_7">
     <g id="line2d_13">
      <path d="M 379.233242 300.04 
L 379.233242 7.2 
" clip-path="url(#p506029f3b1)" style="fill: none; stroke: #b0b0b0; stroke-opacity: 0.25; stroke-width: 0.8; stroke-linecap: square"/>
     </g>
     <g id="line2d_14">
      <g>
       <use xlink:href="#mdcb27fb6d8" x="379.233242" y="300.04" style="stroke: #000000; stroke-width: 0.8"/>
      </g>
     </g>
     <g id="text_7">
      <text style="font-size: 10px; font-family: 'DejaVu Serif', serif; text-anchor: middle" x="379.233242" y="314.638437" transform="rotate(-0 379.233242 314.638437)">3000</text>
     </g>
    </g>
    <g id="xtick_8">
     <g id="line2d_15">
      <path d="M 429.773104 300.04 
L 429.773104 7.2 
" clip-path="url(#p506029f3b1)" style="fill: none; stroke: #b0b0b0; stroke-opacity: 0.25; stroke-width: 0.8; stroke-linecap: square"/>
     </g>
     <g id="line2d_16">
      <g>
       <use xlink:href="#mdcb27fb6d8" x="429.773104" y="300.04" style="stroke: #000000; stroke-width: 0.8"/>
      </g>
     </g>
     <g id="text_8">
      <text style="font-size: 10px; font-family: 'DejaVu Serif', serif; text-anchor: middle" x="429.773104" y="314.638437" transform="rotate(-0 429.773104 314.638437)">3500</text>
     </g>
    </g>
    <g id="xtick_9">
     <g id="line2d_17">
      <path d="M 480.312967 300.04 
L 480.312967 7.2 
" clip-path="url(#p506029f3b1)" style="fill: none; stroke: #b0b0b0; stroke-opacity: 0.25; stroke-width: 0.8; stroke-linecap: square"/>
     </g>
     <g id="line2d_18">
      <g>
       <use xlink:href="#mdcb27fb6d8" x="480.312967" y="300.04" style="stroke: #000000; stroke-width: 0.8"/>
      </g>
     </g>
     <g id="text_9">
      <text style="font-size: 10px; font-family: 'DejaVu Serif', serif; text-anchor: middle" x="480.312967" y="314.638437" transform="rotate(-0 480.312967 314.638437)">4000</text>
     </g>
    </g>
    <g id="text_10">
     <text style="font-size: 10px; font-family: 'DejaVu Serif', serif; text-anchor: middle" x="278.153518" y="328.316562" transform="rotate(-0 278.153518 328.316562)">Iterations</text>
    </g>
   </g>
   <g id="matplotlib.axis_2">
    <g id="ytick_1">
     <g id="line2d_19">
      <path d="M 55.778125 275.365089 
L 500.528911 275.365089 
" clip-path="url(#p506029f3b1)" style="fill: none; stroke: #b0b0b0; stroke-opacity: 0.25; stroke-width: 0.8; stroke-linecap: square"/>
     </g>
     <g id="line2d_20">
      <defs>
       <path id="m76c3171b08" d="M 0 0 
L -3.5 0 
" style="stroke: #000000; stroke-width: 0.8"/>
      </defs>
      <g>
       <use xlink:href="#m76c3171b08" x="55.778125" y="275.365089" style="stroke: #000000; stroke-width: 0.8"/>
      </g>
     </g>
     <g id="text_11">
      <!-- $\mathdefault{10^{-15}}$ -->
      <g transform="translate(20.878125 279.164308)">
       <text>
        <tspan x="0" y="-0.173438" style="font-size: 10px; font-family: 'DejaVu Serif'">1</tspan>
        <tspan x="6.362305" y="-0.173438" style="font-size: 10px; font-family: 'DejaVu Serif'">0</tspan>
        <tspan x="12.815391" y="-3.804688" style="font-size: 7px; font-family: 'DejaVu Serif'">−</tspan>
        <tspan x="18.680625" y="-3.804688" style="font-size: 7px; font-family: 'DejaVu Serif'">1</tspan>
        <tspan x="23.134238" y="-3.804688" style="font-size: 7px; font-family: 'DejaVu Serif'">5</tspan>
       </text>
      </g>
     </g>
    </g>
    <g id="ytick_2">
     <g id="line2d_21">
      <path d="M 55.778125 240.589382 
L 500.528911 240.589382 
" clip-path="url(#p506029f3b1)" style="fill: none; stroke: #b0b0b0; stroke-opacity: 0.25; stroke-width: 0.8; stroke-linecap: square"/>
     </g>
     <g id="line2d_22">
      <g>
       <use xlink:href="#m76c3171b08" x="55.778125" y="240.589382" style="stroke: #000000; stroke-width: 0.8"/>
      </g>
     </g>
     <g id="text_12">
      <!-- $\mathdefault{10^{-13}}$ -->
      <g transform="translate(20.878125 244.3886)">
       <text>
        <tspan x="0" y="-0.173438" style="font-size: 10px; font-family: 'DejaVu Serif'">1</tspan>
        <tspan x="6.362305" y="-0.173438" style="font-size: 10px; font-family: 'DejaVu Serif'">0</tspan>
        <tspan x="12.815391" y="-3.804688" style="font-size: 7px; font-family: 'DejaVu Serif'">−</tspan>
        <tspan x="18.680625" y="-3.804688" style="font-size: 7px; font-family: 'DejaVu Serif'">1</tspan>
        <tspan x="23.134238" y="-3.804688" style="font-size: 7px; font-family: 'DejaVu Serif'">3</tspan>
       </text>
      </g>
     </g>
    </g>
    <g id="ytick_3">
     <g id="line2d_23">
      <path d="M 55.778125 205.813674 
L 500.528911 205.813674 
" clip-path="url(#p506029f3b1)" style="fill: none; stroke: #b0b0b0; stroke-opacity: 0.25; stroke-width: 0.8; stroke-linecap: square"/>
     </g>
     <g id="line2d_24">
      <g>
       <use xlink:href="#m76c3171b08" x="55.778125" y="205.813674" style="stroke: #000000; stroke-width: 0.8"/>
      </g>
     </g>
     <g id="text_13">
      <!-- $\mathdefault{10^{-11}}$ -->
      <g transform="translate(20.878125 209.612893)">
       <text>
        <tspan x="0" y="-0.173438" style="font-size: 10px; font-family: 'DejaVu Serif'">1</tspan>
        <tspan x="6.362305" y="-0.173438" style="font-size: 10px; font-family: 'DejaVu Serif'">0</tspan>
        <tspan x="12.815391" y="-3.804688" style="font-size: 7px; font-family: 'DejaVu Serif'">−</tspan>
        <tspan x="18.680625" y="-3.804688" style="font-size: 7px; font-family: 'DejaVu Serif'">1</tspan>
        <tspan x="23.134238" y="-3.804688" style="font-size: 7px; font-family: 'DejaVu Serif'">1</tspan>
       </text>
      </g>
     </g>
    </g>
    <g id="ytick_4">
     <g id="line2d_25">
      <path d="M 55.778125 171.037967 
L 500.528911 171.037967 
" clip-path="url(#p506029f3b1)" style="fill: none; stroke: #b0b0b0; stroke-opacity: 0.25; stroke-width: 0.8; stroke-linecap: square"/>
     </g>
     <g id="line2d_26">
      <g>
       <use xlink:href="#m76c3171b08" x="55.778125" y="171.037967" style="stroke: #000000; stroke-width: 0.8"/>
      </g>
     </g>
     <g id="text_14">
      <!-- $\mathdefault{10^{-9}}$ -->
      <g transform="translate(25.378125 174.837185)">
       <text>
        <tspan x="0" y="-0.173438" style="font-size: 10px; font-family: 'DejaVu Serif'">1</tspan>
        <tspan x="6.362305" y="-0.173438" style="font-size: 10px; font-family: 'DejaVu Serif'">0</tspan>
        <tspan x="12.815391" y="-3.804688" style="font-size: 7px; font-family: 'DejaVu Serif'">−</tspan>
        <tspan x="18.680625" y="-3.804688" style="font-size: 7px; font-family: 'DejaVu Serif'">9</tspan>
       </text>
      </g>
     </g>
    </g>
    <g id="ytick_5">
     <g id="line2d_27">
      <path d="M 55.778125 136.262259 
L 500.528911 136.262259 
" clip-path="url(#p506029f3b1)" style="fill: none; stroke: #b0b0b0; stroke-opacity: 0.25; stroke-width: 0.8; stroke-linecap: square"/>
     </g>
     <g id="line2d_28">
      <g>
       <use xlink:href="#m76c3171b08" x="55.778125" y="136.262259" style="stroke: #000000; stroke-width: 0.8"/>
      </g>
     </g>
     <g id="text_15">
      <!-- $\mathdefault{10^{-7}}$ -->
      <g transform="translate(25.378125 140.061478)">
       <text>
        <tspan x="0" y="-0.260938" style="font-size: 10px; font-family: 'DejaVu Serif'">1</tspan>
        <tspan x="6.362305" y="-0.260938" style="font-size: 10px; font-family: 'DejaVu Serif'">0</tspan>
        <tspan x="12.815391" y="-3.892188" style="font-size: 7px; font-family: 'DejaVu Serif'">−</tspan>
        <tspan x="18.680625" y="-3.892188" style="font-size: 7px; font-family: 'DejaVu Serif'">7</tspan>
       </text>
      </g>
     </g>
    </g>
    <g id="ytick_6">
     <g id="line2d_29">
      <path d="M 55.778125 101.486552 
L 500.528911 101.486552 
" clip-path="url(#p506029f3b1)" style="fill: none; stroke: #b0b0b0; stroke-opacity: 0.25; stroke-width: 0.8; stroke-linecap: square"/>
     </g>
     <g id="line2d_30">
      <g>
       <use xlink:href="#m76c3171b08" x="55.778125" y="101.486552" style="stroke: #000000; stroke-width: 0.8"/>
      </g>
     </g>
     <g id="text_16">
      <!-- $\mathdefault{10^{-5}}$ -->
      <g transform="translate(25.378125 105.28577)">
       <text>
        <tspan x="0" y="-0.260938" style="font-size: 10px; font-family: 'DejaVu Serif'">1</tspan>
        <tspan x="6.362305" y="-0.260938" style="font-size: 10px; font-family: 'DejaVu Serif'">0</tspan>
        <tspan x="12.815391" y="-3.892188" style="font-size: 7px; font-family: 'DejaVu Serif'">−</tspan>
        <tspan x="18.680625" y="-3.892188" style="font-size: 7px; font-family: 'DejaVu Serif'">5</tspan>
       </text>
      </g>
     </g>
    </g>
    <g id="ytick_7">
     <g id="line2d_31">
      <path d="M 55.778125 66.710844 
L 500.528911 66.710844 
" clip-path="url(#p506029f3b1)" style="fill: none; stroke: #b0b0b0; stroke-opacity: 0.25; stroke-width: 0.8; stroke-linecap: square"/>
     </g>
     <g id="line2d_32">
      <g>
       <use xlink:href="#m76c3171b08" x="55.778125" y="66.710844" style="stroke: #000000; stroke-width: 0.8"/>
      </g>
     </g>
     <g id="text_17">
      <!-- $\mathdefault{10^{-3}}$ -->
      <g transform="translate(25.378125 70.510063)">
       <text>
        <tspan x="0" y="-0.173438" style="font-size: 10px; font-family: 'DejaVu Serif'">1</tspan>
        <tspan x="6.362305" y="-0.173438" style="font-size: 10px; font-family: 'DejaVu Serif'">0</tspan>
        <tspan x="12.815391" y="-3.804688" style="font-size: 7px; font-family: 'DejaVu Serif'">−</tspan>
        <tspan x="18.680625" y="-3.804688" style="font-size: 7px; font-family: 'DejaVu Serif'">3</tspan>
       </text>
      </g>
     </g>
    </g>
    <g id="ytick_8">
     <g id="line2d_33">
      <path d="M 55.778125 31.935137 
L 500.528911 31.935137 
" clip-path="url(#p506029f3b1)" style="fill: none; stroke: #b0b0b0; stroke-opacity: 0.25; stroke-width: 0.8; stroke-linecap: square"/>
     </g>
     <g id="line2d_34">
      <g>
       <use xlink:href="#m76c3171b08" x="55.778125" y="31.935137" style="stroke: #000000; stroke-width: 0.8"/>
      </g>
     </g>
     <g id="text_18">
      <!-- $\mathdefault{10^{-1}}$ -->
      <g transform="translate(25.378125 35.734355)">
       <text>
        <tspan x="0" y="-0.173438" style="font-size: 10px; font-family: 'DejaVu Serif'">1</tspan>
        <tspan x="6.362305" y="-0.173438" style="font-size: 10px; font-family: 'DejaVu Serif'">0</tspan>
        <tspan x="12.815391" y="-3.804688" style="font-size: 7px; font-family: 'DejaVu Serif'">−</tspan>
        <tspan x="18.680625" y="-3.804688" style="font-size: 7px; font-family: 'DejaVu Serif'">1</tspan>
       </text>
      </g>
     </g>
    </g>
    <g id="text_19">
     <!-- KKT Residual $K_t$ -->
     <g transform="translate(14.798437 194.32) rotate(-90)">
      <text>
       <tspan x="0" y="-0.40625" style="font-size: 10px; font-family: 'DejaVu Serif'">K</tspan>
       <tspan x="7.470703" y="-0.40625" style="font-size: 10px; font-family: 'DejaVu Serif'">K</tspan>
       <tspan x="14.941406" y="-0.40625" style="font-size: 10px; font-family: 'DejaVu Serif'">T</tspan>
       <tspan x="21.611328" y="-0.40625" style="font-size: 10px; font-family: 'DejaVu Serif'"> </tspan>
       <tspan x="24.790039" y="-0.40625" style="font-size: 10px; font-family: 'DejaVu Serif'">R</tspan>
       <tspan x="32.319336" y="-0.40625" style="font-size: 10px; font-family: 'DejaVu Serif'">e</tspan>
       <tspan x="38.237305" y="-0.40625" style="font-size: 10px; font-family: 'DejaVu Serif'">s</tspan>
       <tspan x="43.369141" y="-0.40625" style="font-size: 10px; font-family: 'DejaVu Serif'">i</tspan>
       <tspan x="46.567383" y="-0.40625" style="font-size: 10px; font-family: 'DejaVu Serif'">d</tspan>
       <tspan x="52.96875" y="-0.40625" style="font-size: 10px; font-family: 'DejaVu Serif'">u</tspan>
       <tspan x="59.40918" y="-0.40625" style="font-size: 10px; font-family: 'DejaVu Serif'">a</tspan>
       <tspan x="65.371094" y="-0.40625" style="font-size: 10px; font-family: 'DejaVu Serif'">l</tspan>
       <tspan x="68.569336" y="-0.40625" style="font-size: 10px; font-family: 'DejaVu Serif'"> </tspan>
       <tspan x="71.748047" y="-0.40625" style="font-style: oblique; font-size: 10px; font-family: 'DejaVu Sans'">K</tspan>
       <tspan x="78.305664" y="1.234375" style="font-style: oblique; font-size: 7px; font-family: 'DejaVu Sans'">t</tspan>
      </text>
     </g>
    </g>
   </g>
   <g id="line2d_35">
    <path d="M 75.99407 20.510909 
L 78.015664 33.010229 
L 80.037259 36.92959 
L 86.102042 47.423948 
L 88.123637 50.533474 
L 90.145231 53.225553 
L 92.166826 55.563661 
L 94.18842 57.454286 
L 96.210015 58.99221 
L 98.231609 60.183683 
L 100.253204 61.073592 
L 102.274798 61.731917 
L 104.296393 62.208227 
L 108.339582 62.822077 
L 112.382771 63.166634 
L 118.447554 63.452691 
L 128.555526 63.716192 
L 130.577121 66.874944 
L 132.598715 68.357438 
L 134.62031 69.334023 
L 136.641904 69.868225 
L 140.685093 70.628451 
L 144.728282 71.15302 
L 150.793066 71.662112 
L 160.901038 72.185429 
L 173.030605 72.633337 
L 175.0522 76.853284 
L 177.073794 81.42234 
L 181.116983 85.370067 
L 219.527278 117.668241 
L 312.520624 195.170401 
L 421.686727 286.114266 
L 423.708321 286.729091 
L 480.312967 286.729091 
L 480.312967 286.729091 
" clip-path="url(#p506029f3b1)" style="fill: none; stroke: #1f77b4; stroke-width: 1.9; stroke-linecap: square"/>
   </g>
   <g id="line2d_36">
    <path d="M 75.99407 20.510909 
L 78.015664 33.862631 
L 82.058853 44.095319 
L 84.080448 48.606745 
L 86.102042 52.663138 
L 88.123637 55.787517 
L 90.145231 58.232463 
L 92.166826 59.869432 
L 94.18842 60.94161 
L 96.210015 61.594496 
L 98.231609 61.983365 
L 102.274798 62.366838 
L 110.361176 62.677671 
L 114.404365 62.77239 
L 116.42596 66.775795 
L 118.447554 68.401665 
L 122.490743 69.620971 
L 124.512337 69.988527 
L 128.555526 70.430271 
L 136.641904 70.91113 
L 142.706688 71.140598 
L 148.771471 71.310215 
L 150.793066 78.569184 
L 152.81466 82.494241 
L 154.836255 83.511234 
L 156.857849 87.249204 
L 158.879444 89.390566 
L 160.901038 90.27614 
L 162.922633 90.260076 
L 166.965822 93.581058 
L 168.987416 94.926343 
L 171.009011 91.081229 
L 173.030605 106.010069 
L 175.0522 109.091056 
L 177.073794 111.525634 
L 179.095389 113.781249 
L 181.116983 115.767699 
L 183.138577 117.948014 
L 185.160172 119.607428 
L 187.181766 121.871927 
L 189.203361 123.16134 
L 191.224955 125.359498 
L 193.24655 129.652258 
L 195.268144 132.183969 
L 209.419306 147.88901 
L 213.462495 151.944911 
L 215.484089 153.524626 
L 217.505684 155.469444 
L 219.527278 157.171214 
L 221.548873 157.733736 
L 223.570467 159.531755 
L 227.613656 162.002777 
L 229.635251 160.726161 
L 231.656845 159.02023 
L 233.67844 161.579171 
L 235.700034 161.902893 
L 237.721629 164.962598 
L 239.743223 162.403059 
L 241.764818 175.20491 
L 243.786412 184.932833 
L 245.808006 188.312132 
L 247.829601 190.967147 
L 251.87279 195.693892 
L 255.915979 199.180025 
L 257.937573 202.089117 
L 259.959168 203.317224 
L 261.980762 203.65055 
L 264.002357 204.413257 
L 266.023951 205.578311 
L 268.045546 206.488965 
L 270.06714 206.212151 
L 272.088735 217.624584 
L 274.110329 220.825159 
L 276.131924 223.22561 
L 280.175113 227.550888 
L 282.196707 229.264541 
L 284.218302 230.528485 
L 286.239896 233.121823 
L 288.261491 234.39503 
L 290.283085 236.492795 
L 292.30468 239.451817 
L 294.326274 243.668218 
L 298.369463 248.242023 
L 300.391058 250.349243 
L 304.434247 254.252542 
L 308.477435 257.469216 
L 310.49903 260.16062 
L 312.520624 260.051632 
L 314.542219 260.334519 
L 316.563813 262.852539 
L 318.585408 264.304984 
L 320.607002 271.564468 
L 322.628597 275.401438 
L 324.650191 277.821262 
L 330.714975 284.34987 
L 332.736569 285.786062 
L 334.758164 286.729091 
L 480.312967 286.729091 
L 480.312967 286.729091 
" clip-path="url(#p506029f3b1)" style="fill: none; stroke-dasharray: 7.03,3.04; stroke-dashoffset: 0; stroke: #ff7f0e; stroke-width: 1.9"/>
   </g>
   <g id="patch_3">
    <path d="M 55.778125 300.04 
L 55.778125 7.2 
" style="fill: none; stroke: #000000; stroke-width: 0.8; stroke-linejoin: miter; stroke-linecap: square"/>
   </g>
   <g id="patch_4">
    <path d="M 500.528911 300.04 
L 500.528911 7.2 
" style="fill: none; stroke: #000000; stroke-width: 0.8; stroke-linejoin: miter; stroke-linecap: square"/>
   </g>
   <g id="patch_5">
    <path d="M 55.778125 300.04 
L 500.528911 300.04 
" style="fill: none; stroke: #000000; stroke-width: 0.8; stroke-linejoin: miter; stroke-linecap: square"/>
   </g>
   <g id="patch_6">
    <path d="M 55.778125 7.2 
L 500.528911 7.2 
" style="fill: none; stroke: #000000; stroke-width: 0.8; stroke-linejoin: miter; stroke-linecap: square"/>
   </g>
   <g id="legend_1">
    <g id="patch_7">
     <path d="M 308.124615 24.208594 
L 495.278911 24.208594 
Q 496.778911 24.208594 496.778911 22.708594 
L 496.778911 12.45 
Q 496.778911 10.95 495.278911 10.95 
L 308.124615 10.95 
Q 306.624615 10.95 306.624615 12.45 
L 306.624615 22.708594 
Q 306.624615 24.208594 308.124615 24.208594 
z
" style="fill: #ffffff; opacity: 0.8; stroke: #cccccc; stroke-linejoin: miter"/>
    </g>
    <g id="line2d_37">
     <path d="M 309.624615 17.023828 
L 317.124615 17.023828 
L 324.624615 17.023828 
" style="fill: none; stroke: #1f77b4; stroke-width: 1.9; stroke-linecap: square"/>
    </g>
    <g id="text_20">
     <text style="font-size: 7.5px; font-family: 'DejaVu Serif', serif; text-anchor: start" x="330.624615" y="19.648828" transform="rotate(-0 330.624615 19.648828)">SPIDER-ADMM</text>
    </g>
    <g id="line2d_38">
     <path d="M 405.228521 17.023828 
L 412.728521 17.023828 
L 420.228521 17.023828 
" style="fill: none; stroke-dasharray: 7.03,3.04; stroke-dashoffset: 0; stroke: #ff7f0e; stroke-width: 1.9"/>
    </g>
    <g id="text_21">
     <text style="font-size: 7.5px; font-family: 'DejaVu Serif', serif; text-anchor: start" x="426.228521" y="19.648828" transform="rotate(-0 426.228521 19.648828)">AIL-SVRG-ADMM</text>
    </g>
   </g>
  </g>
 </g>
 <defs>
  <clipPath id="p506029f3b1">
   <rect x="55.778125" y="7.2" width="444.750786" height="292.84"/>
  </clipPath>
 </defs>
</svg>
