<?xml version="1.0" encoding="utf-8" standalone="no"?>
<!DOCTYPE svg PUBLIC "-//W3C//DTD SVG 1.1//EN"
  "http://www.w3.org/Graphics/SVG/1.1/DTD/svg11.dtd">
<svg xmlns:xlink="http://www.w3.org/1999/xlink" width="507.728911pt" height="337.59625pt" viewBox="0 0 507.728911 337.59625" xmlns="http://www.w3.org/2000/svg" version="1.1">
 <metadata>
  <rdf:RDF xmlns:dc="http://purl.org/dc/elements/1.1/" xmlns:cc="http://creativecommons.org/ns#" xmlns:rdf="http://www.w3.org/1999/02/22-rdf-syntax-ns#">
   <cc:Work>
    <dc:type rdf:resource="http://purl.org/dc/dcmitype/StillImage"/>
    <dc:date>2026-07-14T21:39:33.860281</dc:date>
    <dc:format>image/svg+xml</dc:format>
    <dc:creator>
     <cc:Agent>
      <dc:title>Matplotlib v3.10.5, https://matplotlib.org/</dc:title>
     </cc:Agent>
    </dc:creator>
   </cc:Work>
  </rdf:RDF>
 </metadata>
 <defs>
  <style type="text/css">*{stroke-linejoin: round; stroke-linecap: butt}</style>
 </defs>
 <g id="figure_1">
  <g id="patch_1">
   <path d="M 0 337.59625 
L 507.728911 337.59625 
L 507.728911 0 
L 0 0 
z
" style="fill: #ffffff"/>
  </g>
  <g id="axes_1">
   <g id="patch_2">
    <path d="M 55.778125 300.04 
L 500.528911 300.04 
L 500.528911 7.2 
L 55.778125 7.2 
z
" style="fill: #ffffff"/>
   </g>
   <g id="matplotlib.axis_1">
    <g id="xtick_1">
     <g id="line2d_1">
      <path d="M 75.99407 300.04 
L 75.99407 7.2 
" clip-path="url(#paa7d02c8f2)" style="fill: none; stroke: #b0b0b0; stroke-opacity: 0.25; stroke-width: 0.8; stroke-linecap: square"/>
     </g>
     <g id="line2d_2">
      <defs>
       <path id="m140ca7f773" d="M 0 0 
L 0 3.5 
" style="stroke: #000000; stroke-width: 0.8"/>
      </defs>
      <g>
       <use xlink:href="#m140ca7f773" x="75.99407" y="300.04" style="stroke: #000000; stroke-width: 0.8"/>
      </g>
     </g>
     <g id="text_1">
      <text style="font-size: 10px; font-family: 'DejaVu Serif', serif; text-anchor: middle" x="75.99407" y="314.638437" transform="rotate(-0 75.99407 314.638437)">0.00</text>
     </g>
    </g>
    <g id="xtick_2">
     <g id="line2d_3">
      <path d="M 134.181058 300.04 
L 134.181058 7.2 
" clip-path="url(#paa7d02c8f2)" style="fill: none; stroke: #b0b0b0; stroke-opacity: 0.25; stroke-width: 0.8; stroke-linecap: square"/>
     </g>
     <g id="line2d_4">
      <g>
       <use xlink:href="#m140ca7f773" x="134.181058" y="300.04" style="stroke: #000000; stroke-width: 0.8"/>
      </g>
     </g>
     <g id="text_2">
      <text style="font-size: 10px; font-family: 'DejaVu Serif', serif; text-anchor: middle" x="134.181058" y="314.638437" transform="rotate(-0 134.181058 314.638437)">0.25</text>
     </g>
    </g>
    <g id="xtick_3">
     <g id="line2d_5">
      <path d="M 192.368046 300.04 
L 192.368046 7.2 
" clip-path="url(#paa7d02c8f2)" style="fill: none; stroke: #b0b0b0; stroke-opacity: 0.25; stroke-width: 0.8; stroke-linecap: square"/>
     </g>
     <g id="line2d_6">
      <g>
       <use xlink:href="#m140ca7f773" x="192.368046" y="300.04" style="stroke: #000000; stroke-width: 0.8"/>
      </g>
     </g>
     <g id="text_3">
      <text style="font-size: 10px; font-family: 'DejaVu Serif', serif; text-anchor: middle" x="192.368046" y="314.638437" transform="rotate(-0 192.368046 314.638437)">0.50</text>
     </g>
    </g>
    <g id="xtick_4">
     <g id="line2d_7">
      <path d="M 250.555034 300.04 
L 250.555034 7.2 
" clip-path="url(#paa7d02c8f2)" style="fill: none; stroke: #b0b0b0; stroke-opacity: 0.25; stroke-width: 0.8; stroke-linecap: square"/>
     </g>
     <g id="line2d_8">
      <g>
       <use xlink:href="#m140ca7f773" x="250.555034" y="300.04" style="stroke: #000000; stroke-width: 0.8"/>
      </g>
     </g>
     <g id="text_4">
      <text style="font-size: 10px; font-family: 'DejaVu Serif', serif; text-anchor: middle" x="250.555034" y="314.638437" transform="rotate(-0 250.555034 314.638437)">0.75</text>
     </g>
    </g>
    <g id="xtick_5">
     <g id="line2d_9">
      <path d="M 308.742022 300.04 
L 308.742022 7.2 
" clip-path="url(#paa7d02c8f2)" style="fill: none; stroke: #b0b0b0; stroke-opacity: 0.25; stroke-width: 0.8; stroke-linecap: square"/>
     </g>
     <g id="line2d_10">
      <g>
       <use xlink:href="#m140ca7f773" x="308.742022" y="300.04" style="stroke: #000000; stroke-width: 0.8"/>
      </g>
     </g>
     <g id="text_5">
      <text style="font-size: 10px; font-family: 'DejaVu Serif', serif; text-anchor: middle" x="308.742022" y="314.638437" transform="rotate(-0 308.742022 314.638437)">1.00</text>
     </g>
    </g>
    <g id="xtick_6">
     <g id="line2d_11">
      <path d="M 366.92901 300.04 
L 366.92901 7.2 
" clip-path="url(#paa7d02c8f2)" style="fill: none; stroke: #b0b0b0; stroke-opacity: 0.25; stroke-width: 0.8; stroke-linecap: square"/>
     </g>
     <g id="line2d_12">
      <g>
       <use xlink:href="#m140ca7f773" x="366.92901" y="300.04" style="stroke: #000000; stroke-width: 0.8"/>
      </g>
     </g>
     <g id="text_6">
      <text style="font-size: 10px; font-family: 'DejaVu Serif', serif; text-anchor: middle" x="366.92901" y="314.638437" transform="rotate(-0 366.92901 314.638437)">1.25</text>
     </g>
    </g>
    <g id="xtick_7">
     <g id="line2d_13">
      <path d="M 425.115998 300.04 
L 425.115998 7.2 
" clip-path="url(#paa7d02c8f2)" style="fill: none; stroke: #b0b0b0; stroke-opacity: 0.25; stroke-width: 0.8; stroke-linecap: square"/>
     </g>
     <g id="line2d_14">
      <g>
       <use xlink:href="#m140ca7f773" x="425.115998" y="300.04" style="stroke: #000000; stroke-width: 0.8"/>
      </g>
     </g>
     <g id="text_7">
      <text style="font-size: 10px; font-family: 'DejaVu Serif', serif; text-anchor: middle" x="425.115998" y="314.638437" transform="rotate(-0 425.115998 314.638437)">1.50</text>
     </g>
    </g>
    <g id="xtick_8">
     <g id="line2d_15">
      <path d="M 483.302987 300.04 
L 483.302987 7.2 
" clip-path="url(#paa7d02c8f2)" style="fill: none; stroke: #b0b0b0; stroke-opacity: 0.25; stroke-width: 0.8; stroke-linecap: square"/>
     </g>
     <g id="line2d_16">
      <g>
       <use xlink:href="#m140ca7f773" x="483.302987" y="300.04" style="stroke: #000000; stroke-width: 0.8"/>
      </g>
     </g>
     <g id="text_8">
      <text style="font-size: 10px; font-family: 'DejaVu Serif', serif; text-anchor: middle" x="483.302987" y="314.638437" transform="rotate(-0 483.302987 314.638437)">1.75</text>
     </g>
    </g>
    <g id="text_9">
     <text style="font-size: 10px; font-family: 'DejaVu Serif', serif; text-anchor: middle" x="278.153518" y="328.316562" transform="rotate(-0 278.153518 328.316562)">Time (s)</text>
    </g>
   </g>
   <g id="matplotlib.axis_2">
    <g id="ytick_1">
     <g id="line2d_17">
      <path d="M 55.778125 275.365089 
L 500.528911 275.365089 
" clip-path="url(#paa7d02c8f2)" style="fill: none; stroke: #b0b0b0; stroke-opacity: 0.25; stroke-width: 0.8; stroke-linecap: square"/>
     </g>
     <g id="line2d_18">
      <defs>
       <path id="m3864579c0d" d="M 0 0 
L -3.5 0 
" style="stroke: #000000; stroke-width: 0.8"/>
      </defs>
      <g>
       <use xlink:href="#m3864579c0d" x="55.778125" y="275.365089" style="stroke: #000000; stroke-width: 0.8"/>
      </g>
     </g>
     <g id="text_10">
      <!-- $\mathdefault{10^{-15}}$ -->
      <g transform="translate(20.878125 279.164308)">
       <text>
        <tspan x="0" y="-0.173438" style="font-size: 10px; font-family: 'DejaVu Serif'">1</tspan>
        <tspan x="6.362305" y="-0.173438" style="font-size: 10px; font-family: 'DejaVu Serif'">0</tspan>
        <tspan x="12.815391" y="-3.804688" style="font-size: 7px; font-family: 'DejaVu Serif'">−</tspan>
        <tspan x="18.680625" y="-3.804688" style="font-size: 7px; font-family: 'DejaVu Serif'">1</tspan>
        <tspan x="23.134238" y="-3.804688" style="font-size: 7px; font-family: 'DejaVu Serif'">5</tspan>
       </text>
      </g>
     </g>
    </g>
    <g id="ytick_2">
     <g id="line2d_19">
      <path d="M 55.778125 240.589382 
L 500.528911 240.589382 
" clip-path="url(#paa7d02c8f2)" style="fill: none; stroke: #b0b0b0; stroke-opacity: 0.25; stroke-width: 0.8; stroke-linecap: square"/>
     </g>
     <g id="line2d_20">
      <g>
       <use xlink:href="#m3864579c0d" x="55.778125" y="240.589382" style="stroke: #000000; stroke-width: 0.8"/>
      </g>
     </g>
     <g id="text_11">
      <!-- $\mathdefault{10^{-13}}$ -->
      <g transform="translate(20.878125 244.3886)">
       <text>
        <tspan x="0" y="-0.173438" style="font-size: 10px; font-family: 'DejaVu Serif'">1</tspan>
        <tspan x="6.362305" y="-0.173438" style="font-size: 10px; font-family: 'DejaVu Serif'">0</tspan>
        <tspan x="12.815391" y="-3.804688" style="font-size: 7px; font-family: 'DejaVu Serif'">−</tspan>
        <tspan x="18.680625" y="-3.804688" style="font-size: 7px; font-family: 'DejaVu Serif'">1</tspan>
        <tspan x="23.134238" y="-3.804688" style="font-size: 7px; font-family: 'DejaVu Serif'">3</tspan>
       </text>
      </g>
     </g>
    </g>
    <g id="ytick_3">
     <g id="line2d_21">
      <path d="M 55.778125 205.813674 
L 500.528911 205.813674 
" clip-path="url(#paa7d02c8f2)" style="fill: none; stroke: #b0b0b0; stroke-opacity: 0.25; stroke-width: 0.8; stroke-linecap: square"/>
     </g>
     <g id="line2d_22">
      <g>
       <use xlink:href="#m3864579c0d" x="55.778125" y="205.813674" style="stroke: #000000; stroke-width: 0.8"/>
      </g>
     </g>
     <g id="text_12">
      <!-- $\mathdefault{10^{-11}}$ -->
      <g transform="translate(20.878125 209.612893)">
       <text>
        <tspan x="0" y="-0.173438" style="font-size: 10px; font-family: 'DejaVu Serif'">1</tspan>
        <tspan x="6.362305" y="-0.173438" style="font-size: 10px; font-family: 'DejaVu Serif'">0</tspan>
        <tspan x="12.815391" y="-3.804688" style="font-size: 7px; font-family: 'DejaVu Serif'">−</tspan>
        <tspan x="18.680625" y="-3.804688" style="font-size: 7px; font-family: 'DejaVu Serif'">1</tspan>
        <tspan x="23.134238" y="-3.804688" style="font-size: 7px; font-family: 'DejaVu Serif'">1</tspan>
       </text>
      </g>
     </g>
    </g>
    <g id="ytick_4">
     <g id="line2d_23">
      <path d="M 55.778125 171.037967 
L 500.528911 171.037967 
" clip-path="url(#paa7d02c8f2)" style="fill: none; stroke: #b0b0b0; stroke-opacity: 0.25; stroke-width: 0.8; stroke-linecap: square"/>
     </g>
     <g id="line2d_24">
      <g>
       <use xlink:href="#m3864579c0d" x="55.778125" y="171.037967" style="stroke: #000000; stroke-width: 0.8"/>
      </g>
     </g>
     <g id="text_13">
      <!-- $\mathdefault{10^{-9}}$ -->
      <g transform="translate(25.378125 174.837185)">
       <text>
        <tspan x="0" y="-0.173438" style="font-size: 10px; font-family: 'DejaVu Serif'">1</tspan>
        <tspan x="6.362305" y="-0.173438" style="font-size: 10px; font-family: 'DejaVu Serif'">0</tspan>
        <tspan x="12.815391" y="-3.804688" style="font-size: 7px; font-family: 'DejaVu Serif'">−</tspan>
        <tspan x="18.680625" y="-3.804688" style="font-size: 7px; font-family: 'DejaVu Serif'">9</tspan>
       </text>
      </g>
     </g>
    </g>
    <g id="ytick_5">
     <g id="line2d_25">
      <path d="M 55.778125 136.262259 
L 500.528911 136.262259 
" clip-path="url(#paa7d02c8f2)" style="fill: none; stroke: #b0b0b0; stroke-opacity: 0.25; stroke-width: 0.8; stroke-linecap: square"/>
     </g>
     <g id="line2d_26">
      <g>
       <use xlink:href="#m3864579c0d" x="55.778125" y="136.262259" style="stroke: #000000; stroke-width: 0.8"/>
      </g>
     </g>
     <g id="text_14">
      <!-- $\mathdefault{10^{-7}}$ -->
      <g transform="translate(25.378125 140.061478)">
       <text>
        <tspan x="0" y="-0.260938" style="font-size: 10px; font-family: 'DejaVu Serif'">1</tspan>
        <tspan x="6.362305" y="-0.260938" style="font-size: 10px; font-family: 'DejaVu Serif'">0</tspan>
        <tspan x="12.815391" y="-3.892188" style="font-size: 7px; font-family: 'DejaVu Serif'">−</tspan>
        <tspan x="18.680625" y="-3.892188" style="font-size: 7px; font-family: 'DejaVu Serif'">7</tspan>
       </text>
      </g>
     </g>
    </g>
    <g id="ytick_6">
     <g id="line2d_27">
      <path d="M 55.778125 101.486552 
L 500.528911 101.486552 
" clip-path="url(#paa7d02c8f2)" style="fill: none; stroke: #b0b0b0; stroke-opacity: 0.25; stroke-width: 0.8; stroke-linecap: square"/>
     </g>
     <g id="line2d_28">
      <g>
       <use xlink:href="#m3864579c0d" x="55.778125" y="101.486552" style="stroke: #000000; stroke-width: 0.8"/>
      </g>
     </g>
     <g id="text_15">
      <!-- $\mathdefault{10^{-5}}$ -->
      <g transform="translate(25.378125 105.28577)">
       <text>
        <tspan x="0" y="-0.260938" style="font-size: 10px; font-family: 'DejaVu Serif'">1</tspan>
        <tspan x="6.362305" y="-0.260938" style="font-size: 10px; font-family: 'DejaVu Serif'">0</tspan>
        <tspan x="12.815391" y="-3.892188" style="font-size: 7px; font-family: 'DejaVu Serif'">−</tspan>
        <tspan x="18.680625" y="-3.892188" style="font-size: 7px; font-family: 'DejaVu Serif'">5</tspan>
       </text>
      </g>
     </g>
    </g>
    <g id="ytick_7">
     <g id="line2d_29">
      <path d="M 55.778125 66.710844 
L 500.528911 66.710844 
" clip-path="url(#paa7d02c8f2)" style="fill: none; stroke: #b0b0b0; stroke-opacity: 0.25; stroke-width: 0.8; stroke-linecap: square"/>
     </g>
     <g id="line2d_30">
      <g>
       <use xlink:href="#m3864579c0d" x="55.778125" y="66.710844" style="stroke: #000000; stroke-width: 0.8"/>
      </g>
     </g>
     <g id="text_16">
      <!-- $\mathdefault{10^{-3}}$ -->
      <g transform="translate(25.378125 70.510063)">
       <text>
        <tspan x="0" y="-0.173438" style="font-size: 10px; font-family: 'DejaVu Serif'">1</tspan>
        <tspan x="6.362305" y="-0.173438" style="font-size: 10px; font-family: 'DejaVu Serif'">0</tspan>
        <tspan x="12.815391" y="-3.804688" style="font-size: 7px; font-family: 'DejaVu Serif'">−</tspan>
        <tspan x="18.680625" y="-3.804688" style="font-size: 7px; font-family: 'DejaVu Serif'">3</tspan>
       </text>
      </g>
     </g>
    </g>
    <g id="ytick_8">
     <g id="line2d_31">
      <path d="M 55.778125 31.935137 
L 500.528911 31.935137 
" clip-path="url(#paa7d02c8f2)" style="fill: none; stroke: #b0b0b0; stroke-opacity: 0.25; stroke-width: 0.8; stroke-linecap: square"/>
     </g>
     <g id="line2d_32">
      <g>
       <use xlink:href="#m3864579c0d" x="55.778125" y="31.935137" style="stroke: #000000; stroke-width: 0.8"/>
      </g>
     </g>
     <g id="text_17">
      <!-- $\mathdefault{10^{-1}}$ -->
      <g transform="translate(25.378125 35.734355)">
       <text>
        <tspan x="0" y="-0.173438" style="font-size: 10px; font-family: 'DejaVu Serif'">1</tspan>
        <tspan x="6.362305" y="-0.173438" style="font-size: 10px; font-family: 'DejaVu Serif'">0</tspan>
        <tspan x="12.815391" y="-3.804688" style="font-size: 7px; font-family: 'DejaVu Serif'">−</tspan>
        <tspan x="18.680625" y="-3.804688" style="font-size: 7px; font-family: 'DejaVu Serif'">1</tspan>
       </text>
      </g>
     </g>
    </g>
    <g id="text_18">
     <!-- KKT Residual $K_t$ -->
     <g transform="translate(14.798437 194.32) rotate(-90)">
      <text>
       <tspan x="0" y="-0.40625" style="font-size: 10px; font-family: 'DejaVu Serif'">K</tspan>
       <tspan x="7.470703" y="-0.40625" style="font-size: 10px; font-family: 'DejaVu Serif'">K</tspan>
       <tspan x="14.941406" y="-0.40625" style="font-size: 10px; font-family: 'DejaVu Serif'">T</tspan>
       <tspan x="21.611328" y="-0.40625" style="font-size: 10px; font-family: 'DejaVu Serif'"> </tspan>
       <tspan x="24.790039" y="-0.40625" style="font-size: 10px; font-family: 'DejaVu Serif'">R</tspan>
       <tspan x="32.319336" y="-0.40625" style="font-size: 10px; font-family: 'DejaVu Serif'">e</tspan>
       <tspan x="38.237305" y="-0.40625" style="font-size: 10px; font-family: 'DejaVu Serif'">s</tspan>
       <tspan x="43.369141" y="-0.40625" style="font-size: 10px; font-family: 'DejaVu Serif'">i</tspan>
       <tspan x="46.567383" y="-0.40625" style="font-size: 10px; font-family: 'DejaVu Serif'">d</tspan>
       <tspan x="52.96875" y="-0.40625" style="font-size: 10px; font-family: 'DejaVu Serif'">u</tspan>
       <tspan x="59.40918" y="-0.40625" style="font-size: 10px; font-family: 'DejaVu Serif'">a</tspan>
       <tspan x="65.371094" y="-0.40625" style="font-size: 10px; font-family: 'DejaVu Serif'">l</tspan>
       <tspan x="68.569336" y="-0.40625" style="font-size: 10px; font-family: 'DejaVu Serif'"> </tspan>
       <tspan x="71.748047" y="-0.40625" style="font-style: oblique; font-size: 10px; font-family: 'DejaVu Sans'">K</tspan>
       <tspan x="78.305664" y="1.234375" style="font-style: oblique; font-size: 7px; font-family: 'DejaVu Sans'">t</tspan>
      </text>
     </g>
    </g>
   </g>
   <g id="line2d_33">
    <path d="M 75.99407 20.510909 
L 78.025823 31.919439 
L 80.057576 36.14229 
L 84.121083 43.218823 
L 86.152836 46.984693 
L 90.216343 52.95146 
L 92.248096 55.544902 
L 94.279849 57.552039 
L 96.311602 59.109566 
L 98.343356 60.263273 
L 100.375109 61.166368 
L 102.406862 61.801432 
L 108.502122 62.788893 
L 112.565628 63.128213 
L 120.692641 63.454755 
L 130.851408 63.71381 
L 132.883161 66.225938 
L 134.914914 68.117921 
L 136.946667 69.198592 
L 138.978421 69.822112 
L 143.041927 70.627319 
L 149.137187 71.383576 
L 155.232447 71.84588 
L 171.486473 72.56511 
L 173.518226 72.621038 
L 175.549979 75.12128 
L 179.613486 82.07799 
L 183.676992 86.265358 
L 185.708745 88.246098 
L 189.772252 91.01177 
L 206.026278 105.351897 
L 208.058031 107.113632 
L 212.121538 110.087305 
L 216.185044 112.982433 
L 220.248551 116.531754 
L 224.312057 119.700144 
L 226.34381 121.135192 
L 236.502577 129.822669 
L 240.566083 133.426045 
L 250.724849 141.984301 
L 256.820109 147.175342 
L 260.883616 150.363259 
L 269.010629 157.149801 
L 273.074135 160.160173 
L 277.137642 163.575782 
L 285.264655 170.032403 
L 291.359914 175.301812 
L 295.423421 178.78078 
L 299.486927 182.311228 
L 305.582187 187.021957 
L 321.836213 201.078012 
L 325.89972 204.287581 
L 346.217252 221.714995 
L 350.280759 225.333994 
L 352.312512 226.692705 
L 354.344265 228.307139 
L 370.598291 242.637827 
L 372.630044 244.233215 
L 380.757057 251.506527 
L 384.820564 254.930412 
L 388.88407 258.432465 
L 392.947577 261.9105 
L 397.011083 264.592406 
L 401.07459 268.16756 
L 405.138096 271.446153 
L 409.201603 275.161503 
L 413.265109 278.417553 
L 417.328616 282.178864 
L 421.392122 285.455542 
L 423.423876 286.729091 
L 480.312967 286.729091 
L 480.312967 286.729091 
" clip-path="url(#paa7d02c8f2)" style="fill: none; stroke: #1f77b4; stroke-width: 1.9; stroke-linecap: square"/>
   </g>
   <g id="line2d_34">
    <path d="M 75.99407 20.510909 
L 78.025823 25.641413 
L 80.057576 34.944777 
L 82.08933 39.559502 
L 84.121083 44.938413 
L 86.152836 49.497907 
L 88.184589 53.20753 
L 90.216343 56.057749 
L 92.248096 58.354343 
L 94.279849 59.969241 
L 96.311602 60.892784 
L 98.343356 61.529102 
L 102.406862 62.114886 
L 106.470369 62.411036 
L 116.629135 62.737685 
L 118.660888 63.149289 
L 120.692641 66.815274 
L 122.724395 68.42338 
L 124.756148 69.102766 
L 126.787901 69.603288 
L 128.819654 69.98299 
L 132.883161 70.418766 
L 138.978421 70.802884 
L 147.105434 71.137537 
L 153.200693 71.307884 
L 155.232447 77.505007 
L 157.2642 82.319379 
L 159.295953 83.600195 
L 161.327706 87.205822 
L 163.35946 89.433837 
L 165.391213 90.27462 
L 167.422966 90.261777 
L 169.454719 91.361974 
L 173.518226 94.611496 
L 175.549979 91.382082 
L 177.581732 102.408495 
L 179.613486 108.786626 
L 181.645239 110.567516 
L 183.676992 112.50653 
L 187.740499 116.745556 
L 189.772252 118.65604 
L 193.835758 121.96215 
L 195.867512 123.095248 
L 197.899265 125.285668 
L 199.931018 129.052989 
L 201.962771 131.700952 
L 203.994525 134.063761 
L 206.026278 135.778341 
L 208.058031 137.667932 
L 214.153291 144.30638 
L 218.216797 148.307488 
L 222.280304 152.128829 
L 224.312057 153.7123 
L 226.34381 155.58948 
L 228.375564 157.118354 
L 230.407317 157.699827 
L 232.43907 159.237063 
L 236.502577 161.600107 
L 238.53433 161.153377 
L 240.566083 159.618634 
L 242.597836 160.457077 
L 244.62959 161.767013 
L 246.661343 163.54275 
L 248.693096 163.341317 
L 250.724849 165.641108 
L 252.756603 176.191615 
L 254.788356 184.987406 
L 256.820109 188.431963 
L 258.851862 191.191981 
L 260.883616 193.669946 
L 262.915369 195.950733 
L 266.978875 199.402675 
L 269.010629 201.421647 
L 271.042382 202.967432 
L 275.105888 204.114853 
L 279.169395 206.020896 
L 281.201148 206.362071 
L 283.232901 209.227866 
L 285.264655 218.741382 
L 287.296408 221.869042 
L 291.359914 226.652291 
L 293.391668 228.669969 
L 295.423421 230.208696 
L 297.455174 232.612003 
L 299.486927 233.967706 
L 301.518681 235.5495 
L 303.550434 237.950931 
L 307.61394 245.124831 
L 311.677447 249.236628 
L 317.772707 255.119347 
L 319.80446 256.878102 
L 321.836213 259.387709 
L 323.867966 260.07092 
L 325.89972 260.315949 
L 327.931473 262.874831 
L 329.963226 264.326882 
L 331.994979 271.138962 
L 334.026733 275.5447 
L 336.058486 278.164307 
L 340.121992 282.892432 
L 342.153746 284.939185 
L 344.185499 286.625459 
L 348.249005 286.729091 
L 480.312967 286.729091 
L 480.312967 286.729091 
" clip-path="url(#paa7d02c8f2)" style="fill: none; stroke-dasharray: 7.03,3.04; stroke-dashoffset: 0; stroke: #ff7f0e; stroke-width: 1.9"/>
   </g>
   <g id="patch_3">
    <path d="M 55.778125 300.04 
L 55.778125 7.2 
" style="fill: none; stroke: #000000; stroke-width: 0.8; stroke-linejoin: miter; stroke-linecap: square"/>
   </g>
   <g id="patch_4">
    <path d="M 500.528911 300.04 
L 500.528911 7.2 
" style="fill: none; stroke: #000000; stroke-width: 0.8; stroke-linejoin: miter; stroke-linecap: square"/>
   </g>
   <g id="patch_5">
    <path d="M 55.778125 300.04 
L 500.528911 300.04 
" style="fill: none; stroke: #000000; stroke-width: 0.8; stroke-linejoin: miter; stroke-linecap: square"/>
   </g>
   <g id="patch_6">
    <path d="M 55.778125 7.2 
L 500.528911 7.2 
" style="fill: none; stroke: #000000; stroke-width: 0.8; stroke-linejoin: miter; stroke-linecap: square"/>
   </g>
   <g id="legend_1">
    <g id="patch_7">
     <path d="M 308.124615 24.208594 
L 495.278911 24.208594 
Q 496.778911 24.208594 496.778911 22.708594 
L 496.778911 12.45 
Q 496.778911 10.95 495.278911 10.95 
L 308.124615 10.95 
Q 306.624615 10.95 306.624615 12.45 
L 306.624615 22.708594 
Q 306.624615 24.208594 308.124615 24.208594 
z
" style="fill: #ffffff; opacity: 0.8; stroke: #cccccc; stroke-linejoin: miter"/>
    </g>
    <g id="line2d_35">
     <path d="M 309.624615 17.023828 
L 317.124615 17.023828 
L 324.624615 17.023828 
" style="fill: none; stroke: #1f77b4; stroke-width: 1.9; stroke-linecap: square"/>
    </g>
    <g id="text_19">
     <text style="font-size: 7.5px; font-family: 'DejaVu Serif', serif; text-anchor: start" x="330.624615" y="19.648828" transform="rotate(-0 330.624615 19.648828)">SPIDER-ADMM</text>
    </g>
    <g id="line2d_36">
     <path d="M 405.228521 17.023828 
L 412.728521 17.023828 
L 420.228521 17.023828 
" style="fill: none; stroke-dasharray: 7.03,3.04; stroke-dashoffset: 0; stroke: #ff7f0e; stroke-width: 1.9"/>
    </g>
    <g id="text_20">
     <text style="font-size: 7.5px; font-family: 'DejaVu Serif', serif; text-anchor: start" x="426.228521" y="19.648828" transform="rotate(-0 426.228521 19.648828)">AIL-SVRG-ADMM</text>
    </g>
   </g>
  </g>
 </g>
 <defs>
  <clipPath id="paa7d02c8f2">
   <rect x="55.778125" y="7.2" width="444.750786" height="292.84"/>
  </clipPath>
 </defs>
</svg>
