<?xml version="1.0" encoding="utf-8" standalone="no"?>
<!DOCTYPE svg PUBLIC "-//W3C//DTD SVG 1.1//EN"
  "http://www.w3.org/Graphics/SVG/1.1/DTD/svg11.dtd">
<svg xmlns:xlink="http://www.w3.org/1999/xlink" width="507.718786pt" height="337.59625pt" viewBox="0 0 507.718786 337.59625" xmlns="http://www.w3.org/2000/svg" version="1.1">
 <metadata>
  <rdf:RDF xmlns:dc="http://purl.org/dc/elements/1.1/" xmlns:cc="http://creativecommons.org/ns#" xmlns:rdf="http://www.w3.org/1999/02/22-rdf-syntax-ns#">
   <cc:Work>
    <dc:type rdf:resource="http://purl.org/dc/dcmitype/StillImage"/>
    <dc:date>2026-07-14T21:39:32.086723</dc:date>
    <dc:format>image/svg+xml</dc:format>
    <dc:creator>
     <cc:Agent>
      <dc:title>Matplotlib v3.10.5, https://matplotlib.org/</dc:title>
     </cc:Agent>
    </dc:creator>
   </cc:Work>
  </rdf:RDF>
 </metadata>
 <defs>
  <style type="text/css">*{stroke-linejoin: round; stroke-linecap: butt}</style>
 </defs>
 <g id="figure_1">
  <g id="patch_1">
   <path d="M 0 337.59625 
L 507.718786 337.59625 
L 507.718786 0 
L 0 0 
z
" style="fill: #ffffff"/>
  </g>
  <g id="axes_1">
   <g id="patch_2">
    <path d="M 56.2 300.04 
L 500.518786 300.04 
L 500.518786 7.2 
L 56.2 7.2 
z
" style="fill: #ffffff"/>
   </g>
   <g id="matplotlib.axis_1">
    <g id="xtick_1">
     <g id="line2d_1">
      <path d="M 76.396308 300.04 
L 76.396308 7.2 
" clip-path="url(#p2bd4d37307)" style="fill: none; stroke: #b0b0b0; stroke-opacity: 0.25; stroke-width: 0.8; stroke-linecap: square"/>
     </g>
     <g id="line2d_2">
      <defs>
       <path id="me7b785b2a5" d="M 0 0 
L 0 3.5 
" style="stroke: #000000; stroke-width: 0.8"/>
      </defs>
      <g>
       <use xlink:href="#me7b785b2a5" x="76.396308" y="300.04" style="stroke: #000000; stroke-width: 0.8"/>
      </g>
     </g>
     <g id="text_1">
      <text style="font-size: 10px; font-family: 'DejaVu Serif', serif; text-anchor: middle" x="76.396308" y="314.638437" transform="rotate(-0 76.396308 314.638437)">0</text>
     </g>
    </g>
    <g id="xtick_2">
     <g id="line2d_3">
      <path d="M 126.88708 300.04 
L 126.88708 7.2 
" clip-path="url(#p2bd4d37307)" style="fill: none; stroke: #b0b0b0; stroke-opacity: 0.25; stroke-width: 0.8; stroke-linecap: square"/>
     </g>
     <g id="line2d_4">
      <g>
       <use xlink:href="#me7b785b2a5" x="126.88708" y="300.04" style="stroke: #000000; stroke-width: 0.8"/>
      </g>
     </g>
     <g id="text_2">
      <text style="font-size: 10px; font-family: 'DejaVu Serif', serif; text-anchor: middle" x="126.88708" y="314.638437" transform="rotate(-0 126.88708 314.638437)">500</text>
     </g>
    </g>
    <g id="xtick_3">
     <g id="line2d_5">
      <path d="M 177.377851 300.04 
L 177.377851 7.2 
" clip-path="url(#p2bd4d37307)" style="fill: none; stroke: #b0b0b0; stroke-opacity: 0.25; stroke-width: 0.8; stroke-linecap: square"/>
     </g>
     <g id="line2d_6">
      <g>
       <use xlink:href="#me7b785b2a5" x="177.377851" y="300.04" style="stroke: #000000; stroke-width: 0.8"/>
      </g>
     </g>
     <g id="text_3">
      <text style="font-size: 10px; font-family: 'DejaVu Serif', serif; text-anchor: middle" x="177.377851" y="314.638437" transform="rotate(-0 177.377851 314.638437)">1000</text>
     </g>
    </g>
    <g id="xtick_4">
     <g id="line2d_7">
      <path d="M 227.868622 300.04 
L 227.868622 7.2 
" clip-path="url(#p2bd4d37307)" style="fill: none; stroke: #b0b0b0; stroke-opacity: 0.25; stroke-width: 0.8; stroke-linecap: square"/>
     </g>
     <g id="line2d_8">
      <g>
       <use xlink:href="#me7b785b2a5" x="227.868622" y="300.04" style="stroke: #000000; stroke-width: 0.8"/>
      </g>
     </g>
     <g id="text_4">
      <text style="font-size: 10px; font-family: 'DejaVu Serif', serif; text-anchor: middle" x="227.868622" y="314.638437" transform="rotate(-0 227.868622 314.638437)">1500</text>
     </g>
    </g>
    <g id="xtick_5">
     <g id="line2d_9">
      <path d="M 278.359393 300.04 
L 278.359393 7.2 
" clip-path="url(#p2bd4d37307)" style="fill: none; stroke: #b0b0b0; stroke-opacity: 0.25; stroke-width: 0.8; stroke-linecap: square"/>
     </g>
     <g id="line2d_10">
      <g>
       <use xlink:href="#me7b785b2a5" x="278.359393" y="300.04" style="stroke: #000000; stroke-width: 0.8"/>
      </g>
     </g>
     <g id="text_5">
      <text style="font-size: 10px; font-family: 'DejaVu Serif', serif; text-anchor: middle" x="278.359393" y="314.638437" transform="rotate(-0 278.359393 314.638437)">2000</text>
     </g>
    </g>
    <g id="xtick_6">
     <g id="line2d_11">
      <path d="M 328.850164 300.04 
L 328.850164 7.2 
" clip-path="url(#p2bd4d37307)" style="fill: none; stroke: #b0b0b0; stroke-opacity: 0.25; stroke-width: 0.8; stroke-linecap: square"/>
     </g>
     <g id="line2d_12">
      <g>
       <use xlink:href="#me7b785b2a5" x="328.850164" y="300.04" style="stroke: #000000; stroke-width: 0.8"/>
      </g>
     </g>
     <g id="text_6">
      <text style="font-size: 10px; font-family: 'DejaVu Serif', serif; text-anchor: middle" x="328.850164" y="314.638437" transform="rotate(-0 328.850164 314.638437)">2500</text>
     </g>
    </g>
    <g id="xtick_7">
     <g id="line2d_13">
      <path d="M 379.340936 300.04 
L 379.340936 7.2 
" clip-path="url(#p2bd4d37307)" style="fill: none; stroke: #b0b0b0; stroke-opacity: 0.25; stroke-width: 0.8; stroke-linecap: square"/>
     </g>
     <g id="line2d_14">
      <g>
       <use xlink:href="#me7b785b2a5" x="379.340936" y="300.04" style="stroke: #000000; stroke-width: 0.8"/>
      </g>
     </g>
     <g id="text_7">
      <text style="font-size: 10px; font-family: 'DejaVu Serif', serif; text-anchor: middle" x="379.340936" y="314.638437" transform="rotate(-0 379.340936 314.638437)">3000</text>
     </g>
    </g>
    <g id="xtick_8">
     <g id="line2d_15">
      <path d="M 429.831707 300.04 
L 429.831707 7.2 
" clip-path="url(#p2bd4d37307)" style="fill: none; stroke: #b0b0b0; stroke-opacity: 0.25; stroke-width: 0.8; stroke-linecap: square"/>
     </g>
     <g id="line2d_16">
      <g>
       <use xlink:href="#me7b785b2a5" x="429.831707" y="300.04" style="stroke: #000000; stroke-width: 0.8"/>
      </g>
     </g>
     <g id="text_8">
      <text style="font-size: 10px; font-family: 'DejaVu Serif', serif; text-anchor: middle" x="429.831707" y="314.638437" transform="rotate(-0 429.831707 314.638437)">3500</text>
     </g>
    </g>
    <g id="xtick_9">
     <g id="line2d_17">
      <path d="M 480.322478 300.04 
L 480.322478 7.2 
" clip-path="url(#p2bd4d37307)" style="fill: none; stroke: #b0b0b0; stroke-opacity: 0.25; stroke-width: 0.8; stroke-linecap: square"/>
     </g>
     <g id="line2d_18">
      <g>
       <use xlink:href="#me7b785b2a5" x="480.322478" y="300.04" style="stroke: #000000; stroke-width: 0.8"/>
      </g>
     </g>
     <g id="text_9">
      <text style="font-size: 10px; font-family: 'DejaVu Serif', serif; text-anchor: middle" x="480.322478" y="314.638437" transform="rotate(-0 480.322478 314.638437)">4000</text>
     </g>
    </g>
    <g id="text_10">
     <text style="font-size: 10px; font-family: 'DejaVu Serif', serif; text-anchor: middle" x="278.359393" y="328.316562" transform="rotate(-0 278.359393 328.316562)">Iterations</text>
    </g>
   </g>
   <g id="matplotlib.axis_2">
    <g id="ytick_1">
     <g id="line2d_19">
      <path d="M 56.2 273.841697 
L 500.518786 273.841697 
" clip-path="url(#p2bd4d37307)" style="fill: none; stroke: #b0b0b0; stroke-opacity: 0.25; stroke-width: 0.8; stroke-linecap: square"/>
     </g>
     <g id="line2d_20">
      <defs>
       <path id="m65626f9ac7" d="M 0 0 
L -3.5 0 
" style="stroke: #000000; stroke-width: 0.8"/>
      </defs>
      <g>
       <use xlink:href="#m65626f9ac7" x="56.2" y="273.841697" style="stroke: #000000; stroke-width: 0.8"/>
      </g>
     </g>
     <g id="text_11">
      <!-- $\mathdefault{10^{-15}}$ -->
      <g transform="translate(21.3 277.640916)">
       <text>
        <tspan x="0" y="-0.173438" style="font-size: 10px; font-family: 'DejaVu Serif'">1</tspan>
        <tspan x="6.362305" y="-0.173438" style="font-size: 10px; font-family: 'DejaVu Serif'">0</tspan>
        <tspan x="12.815391" y="-3.804688" style="font-size: 7px; font-family: 'DejaVu Serif'">−</tspan>
        <tspan x="18.680625" y="-3.804688" style="font-size: 7px; font-family: 'DejaVu Serif'">1</tspan>
        <tspan x="23.134238" y="-3.804688" style="font-size: 7px; font-family: 'DejaVu Serif'">5</tspan>
       </text>
      </g>
     </g>
    </g>
    <g id="ytick_2">
     <g id="line2d_21">
      <path d="M 56.2 234.404159 
L 500.518786 234.404159 
" clip-path="url(#p2bd4d37307)" style="fill: none; stroke: #b0b0b0; stroke-opacity: 0.25; stroke-width: 0.8; stroke-linecap: square"/>
     </g>
     <g id="line2d_22">
      <g>
       <use xlink:href="#m65626f9ac7" x="56.2" y="234.404159" style="stroke: #000000; stroke-width: 0.8"/>
      </g>
     </g>
     <g id="text_12">
      <!-- $\mathdefault{10^{-13}}$ -->
      <g transform="translate(21.3 238.203378)">
       <text>
        <tspan x="0" y="-0.173438" style="font-size: 10px; font-family: 'DejaVu Serif'">1</tspan>
        <tspan x="6.362305" y="-0.173438" style="font-size: 10px; font-family: 'DejaVu Serif'">0</tspan>
        <tspan x="12.815391" y="-3.804688" style="font-size: 7px; font-family: 'DejaVu Serif'">−</tspan>
        <tspan x="18.680625" y="-3.804688" style="font-size: 7px; font-family: 'DejaVu Serif'">1</tspan>
        <tspan x="23.134238" y="-3.804688" style="font-size: 7px; font-family: 'DejaVu Serif'">3</tspan>
       </text>
      </g>
     </g>
    </g>
    <g id="ytick_3">
     <g id="line2d_23">
      <path d="M 56.2 194.966622 
L 500.518786 194.966622 
" clip-path="url(#p2bd4d37307)" style="fill: none; stroke: #b0b0b0; stroke-opacity: 0.25; stroke-width: 0.8; stroke-linecap: square"/>
     </g>
     <g id="line2d_24">
      <g>
       <use xlink:href="#m65626f9ac7" x="56.2" y="194.966622" style="stroke: #000000; stroke-width: 0.8"/>
      </g>
     </g>
     <g id="text_13">
      <!-- $\mathdefault{10^{-11}}$ -->
      <g transform="translate(21.3 198.765841)">
       <text>
        <tspan x="0" y="-0.173438" style="font-size: 10px; font-family: 'DejaVu Serif'">1</tspan>
        <tspan x="6.362305" y="-0.173438" style="font-size: 10px; font-family: 'DejaVu Serif'">0</tspan>
        <tspan x="12.815391" y="-3.804688" style="font-size: 7px; font-family: 'DejaVu Serif'">−</tspan>
        <tspan x="18.680625" y="-3.804688" style="font-size: 7px; font-family: 'DejaVu Serif'">1</tspan>
        <tspan x="23.134238" y="-3.804688" style="font-size: 7px; font-family: 'DejaVu Serif'">1</tspan>
       </text>
      </g>
     </g>
    </g>
    <g id="ytick_4">
     <g id="line2d_25">
      <path d="M 56.2 155.529084 
L 500.518786 155.529084 
" clip-path="url(#p2bd4d37307)" style="fill: none; stroke: #b0b0b0; stroke-opacity: 0.25; stroke-width: 0.8; stroke-linecap: square"/>
     </g>
     <g id="line2d_26">
      <g>
       <use xlink:href="#m65626f9ac7" x="56.2" y="155.529084" style="stroke: #000000; stroke-width: 0.8"/>
      </g>
     </g>
     <g id="text_14">
      <!-- $\mathdefault{10^{-9}}$ -->
      <g transform="translate(25.8 159.328303)">
       <text>
        <tspan x="0" y="-0.173438" style="font-size: 10px; font-family: 'DejaVu Serif'">1</tspan>
        <tspan x="6.362305" y="-0.173438" style="font-size: 10px; font-family: 'DejaVu Serif'">0</tspan>
        <tspan x="12.815391" y="-3.804688" style="font-size: 7px; font-family: 'DejaVu Serif'">−</tspan>
        <tspan x="18.680625" y="-3.804688" style="font-size: 7px; font-family: 'DejaVu Serif'">9</tspan>
       </text>
      </g>
     </g>
    </g>
    <g id="ytick_5">
     <g id="line2d_27">
      <path d="M 56.2 116.091547 
L 500.518786 116.091547 
" clip-path="url(#p2bd4d37307)" style="fill: none; stroke: #b0b0b0; stroke-opacity: 0.25; stroke-width: 0.8; stroke-linecap: square"/>
     </g>
     <g id="line2d_28">
      <g>
       <use xlink:href="#m65626f9ac7" x="56.2" y="116.091547" style="stroke: #000000; stroke-width: 0.8"/>
      </g>
     </g>
     <g id="text_15">
      <!-- $\mathdefault{10^{-7}}$ -->
      <g transform="translate(25.8 119.890766)">
       <text>
        <tspan x="0" y="-0.260938" style="font-size: 10px; font-family: 'DejaVu Serif'">1</tspan>
        <tspan x="6.362305" y="-0.260938" style="font-size: 10px; font-family: 'DejaVu Serif'">0</tspan>
        <tspan x="12.815391" y="-3.892188" style="font-size: 7px; font-family: 'DejaVu Serif'">−</tspan>
        <tspan x="18.680625" y="-3.892188" style="font-size: 7px; font-family: 'DejaVu Serif'">7</tspan>
       </text>
      </g>
     </g>
    </g>
    <g id="ytick_6">
     <g id="line2d_29">
      <path d="M 56.2 76.654009 
L 500.518786 76.654009 
" clip-path="url(#p2bd4d37307)" style="fill: none; stroke: #b0b0b0; stroke-opacity: 0.25; stroke-width: 0.8; stroke-linecap: square"/>
     </g>
     <g id="line2d_30">
      <g>
       <use xlink:href="#m65626f9ac7" x="56.2" y="76.654009" style="stroke: #000000; stroke-width: 0.8"/>
      </g>
     </g>
     <g id="text_16">
      <!-- $\mathdefault{10^{-5}}$ -->
      <g transform="translate(25.8 80.453228)">
       <text>
        <tspan x="0" y="-0.260938" style="font-size: 10px; font-family: 'DejaVu Serif'">1</tspan>
        <tspan x="6.362305" y="-0.260938" style="font-size: 10px; font-family: 'DejaVu Serif'">0</tspan>
        <tspan x="12.815391" y="-3.892188" style="font-size: 7px; font-family: 'DejaVu Serif'">−</tspan>
        <tspan x="18.680625" y="-3.892188" style="font-size: 7px; font-family: 'DejaVu Serif'">5</tspan>
       </text>
      </g>
     </g>
    </g>
    <g id="ytick_7">
     <g id="line2d_31">
      <path d="M 56.2 37.216472 
L 500.518786 37.216472 
" clip-path="url(#p2bd4d37307)" style="fill: none; stroke: #b0b0b0; stroke-opacity: 0.25; stroke-width: 0.8; stroke-linecap: square"/>
     </g>
     <g id="line2d_32">
      <g>
       <use xlink:href="#m65626f9ac7" x="56.2" y="37.216472" style="stroke: #000000; stroke-width: 0.8"/>
      </g>
     </g>
     <g id="text_17">
      <!-- $\mathdefault{10^{-3}}$ -->
      <g transform="translate(25.8 41.015691)">
       <text>
        <tspan x="0" y="-0.173438" style="font-size: 10px; font-family: 'DejaVu Serif'">1</tspan>
        <tspan x="6.362305" y="-0.173438" style="font-size: 10px; font-family: 'DejaVu Serif'">0</tspan>
        <tspan x="12.815391" y="-3.804688" style="font-size: 7px; font-family: 'DejaVu Serif'">−</tspan>
        <tspan x="18.680625" y="-3.804688" style="font-size: 7px; font-family: 'DejaVu Serif'">3</tspan>
       </text>
      </g>
     </g>
    </g>
    <g id="text_18">
     <!-- Primal Residual $\|D \mathbf{x}-\mathbf{y}\|$ -->
     <g transform="translate(14.9 216.87) rotate(-90)">
      <text>
       <tspan x="0" y="-0.359375" style="font-size: 10px; font-family: 'DejaVu Serif'">P</tspan>
       <tspan x="6.728516" y="-0.359375" style="font-size: 10px; font-family: 'DejaVu Serif'">r</tspan>
       <tspan x="11.508789" y="-0.359375" style="font-size: 10px; font-family: 'DejaVu Serif'">i</tspan>
       <tspan x="14.707031" y="-0.359375" style="font-size: 10px; font-family: 'DejaVu Serif'">m</tspan>
       <tspan x="24.189453" y="-0.359375" style="font-size: 10px; font-family: 'DejaVu Serif'">a</tspan>
       <tspan x="30.151367" y="-0.359375" style="font-size: 10px; font-family: 'DejaVu Serif'">l</tspan>
       <tspan x="33.349609" y="-0.359375" style="font-size: 10px; font-family: 'DejaVu Serif'"> </tspan>
       <tspan x="36.52832" y="-0.359375" style="font-size: 10px; font-family: 'DejaVu Serif'">R</tspan>
       <tspan x="44.057617" y="-0.359375" style="font-size: 10px; font-family: 'DejaVu Serif'">e</tspan>
       <tspan x="49.975586" y="-0.359375" style="font-size: 10px; font-family: 'DejaVu Serif'">s</tspan>
       <tspan x="55.107422" y="-0.359375" style="font-size: 10px; font-family: 'DejaVu Serif'">i</tspan>
       <tspan x="58.305664" y="-0.359375" style="font-size: 10px; font-family: 'DejaVu Serif'">d</tspan>
       <tspan x="64.707031" y="-0.359375" style="font-size: 10px; font-family: 'DejaVu Serif'">u</tspan>
       <tspan x="71.147461" y="-0.359375" style="font-size: 10px; font-family: 'DejaVu Serif'">a</tspan>
       <tspan x="77.109375" y="-0.359375" style="font-size: 10px; font-family: 'DejaVu Serif'">l</tspan>
       <tspan x="80.307617" y="-0.359375" style="font-size: 10px; font-family: 'DejaVu Serif'"> </tspan>
       <tspan x="83.486328" y="-0.359375" style="font-size: 10px; font-family: 'DejaVu Sans'">‖</tspan>
       <tspan x="104.584961" y="-0.359375" style="font-size: 10px; font-family: 'DejaVu Sans'">−</tspan>
       <tspan x="121.430664" y="-0.359375" style="font-size: 10px; font-family: 'DejaVu Sans'">‖</tspan>
       <tspan x="88.486328" y="-0.359375" style="font-style: oblique; font-size: 10px; font-family: 'DejaVu Sans'">D</tspan>
       <tspan x="96.186523" y="-0.359375" style="font-weight: 700; font-size: 10px; font-family: 'DejaVu Sans'">x</tspan>
       <tspan x="114.912109" y="-0.359375" style="font-weight: 700; font-size: 10px; font-family: 'DejaVu Sans'">y</tspan>
      </text>
     </g>
    </g>
   </g>
   <g id="line2d_33">
    <path d="M 76.396308 286.729091 
L 78.415939 21.18977 
L 80.43557 25.203441 
L 82.455201 28.080725 
L 84.474832 34.498599 
L 86.494463 37.854568 
L 88.514094 40.959169 
L 90.533724 39.19139 
L 92.553355 44.32917 
L 94.572986 42.955171 
L 96.592617 48.795118 
L 98.612248 48.755123 
L 100.631879 56.313623 
L 102.651509 56.247582 
L 104.67114 62.280608 
L 106.690771 64.51634 
L 108.710402 63.090513 
L 110.730033 68.751284 
L 112.749664 66.171067 
L 114.769295 72.138134 
L 116.788925 70.481407 
L 118.808556 75.473113 
L 120.828187 73.938915 
L 122.847818 76.025139 
L 124.867449 78.337544 
L 126.88708 80.084402 
L 128.906711 77.022482 
L 130.926341 32.324256 
L 132.945972 43.553616 
L 134.965603 44.274405 
L 136.985234 51.123876 
L 139.004865 54.158782 
L 141.024496 58.897589 
L 143.044126 65.689974 
L 145.063757 64.900904 
L 147.083388 71.267727 
L 149.103019 68.778832 
L 151.12265 73.780997 
L 153.142281 71.867237 
L 155.161912 79.369626 
L 157.181542 73.469366 
L 159.201173 80.511429 
L 161.220804 77.912182 
L 163.240435 81.940904 
L 165.260066 80.730279 
L 167.279697 84.116818 
L 169.299327 81.615352 
L 171.318958 79.613481 
L 173.338589 80.226523 
L 175.35822 33.304541 
L 179.397482 50.665404 
L 181.417113 52.886558 
L 183.436743 56.52163 
L 185.456374 62.552673 
L 187.476005 62.505996 
L 189.495636 69.290124 
L 191.515267 69.649017 
L 193.534898 71.541822 
L 195.554528 73.022482 
L 197.574159 72.050648 
L 199.59379 75.950209 
L 201.613421 73.715984 
L 203.633052 78.017771 
L 205.652683 76.567795 
L 207.672314 79.247229 
L 209.691944 79.152223 
L 211.711575 80.830461 
L 213.731206 81.262512 
L 215.750837 82.334411 
L 217.770468 83.676912 
L 219.790099 83.932863 
L 221.809729 85.540118 
L 223.82936 86.248314 
L 225.848991 87.616683 
L 227.868622 88.24906 
L 229.888253 88.66458 
L 231.907884 90.084537 
L 233.927515 90.976304 
L 235.947145 92.441721 
L 237.966776 92.995067 
L 239.986407 94.053678 
L 242.006038 94.705888 
L 244.025669 96.05521 
L 250.084561 98.651598 
L 252.104192 99.619692 
L 254.123823 100.748785 
L 258.163085 102.659244 
L 260.182716 103.109402 
L 262.202346 104.88177 
L 264.221977 105.259132 
L 266.241608 106.637122 
L 268.261239 107.360037 
L 274.320132 110.155888 
L 276.339762 111.397214 
L 278.359393 111.98922 
L 280.379024 113.037921 
L 282.398655 113.948907 
L 284.418286 115.291306 
L 286.437917 115.804523 
L 288.457547 117.048373 
L 290.477178 117.712006 
L 292.496809 119.393954 
L 294.51644 119.637467 
L 296.536071 120.800096 
L 300.575333 122.629976 
L 302.594963 123.684699 
L 304.614594 124.425958 
L 306.634225 125.515177 
L 308.653856 126.296956 
L 310.673487 127.315143 
L 312.693118 128.509751 
L 318.75201 131.395699 
L 320.771641 131.755625 
L 322.791272 133.232224 
L 324.810903 134.071471 
L 328.850164 136.037715 
L 330.869795 136.683926 
L 332.889426 138.169015 
L 334.909057 138.751394 
L 338.948319 141.097958 
L 340.967949 141.41175 
L 347.026842 144.73749 
L 349.046473 145.632374 
L 351.066104 146.227703 
L 357.124996 149.725168 
L 359.144627 150.36166 
L 365.20352 153.416984 
L 367.22315 154.145006 
L 369.242781 155.083122 
L 371.262412 155.745116 
L 373.282043 157.184458 
L 377.321305 159.067928 
L 379.340936 159.818362 
L 381.360566 160.769028 
L 383.380197 161.980996 
L 385.399828 162.508624 
L 389.43909 164.913036 
L 391.458721 165.339163 
L 393.478352 166.694021 
L 397.517613 168.383964 
L 399.537244 169.481758 
L 401.556875 170.253055 
L 403.576506 171.394243 
L 411.655029 175.323341 
L 413.67466 176.082953 
L 415.694291 177.15284 
L 417.713922 177.926522 
L 419.733553 179.158357 
L 423.772814 180.842794 
L 425.792445 182.097862 
L 427.812076 183.064682 
L 431.851338 184.339557 
L 433.870968 185.881802 
L 435.890599 186.597604 
L 437.91023 187.48731 
L 439.929861 188.86586 
L 441.949492 189.275651 
L 443.969123 190.557277 
L 445.988754 191.656799 
L 448.008384 192.003539 
L 450.028015 193.712109 
L 452.047646 194.143034 
L 454.067277 195.282086 
L 456.086908 196.13284 
L 460.126169 198.216545 
L 462.1458 198.778861 
L 464.165431 200.218282 
L 466.185062 200.716163 
L 468.204693 202.250517 
L 470.224324 202.970019 
L 474.263585 204.928413 
L 476.283216 205.58369 
L 478.302847 206.902601 
L 480.322478 207.467806 
L 480.322478 207.467806 
" clip-path="url(#p2bd4d37307)" style="fill: none; stroke: #1f77b4; stroke-width: 1.9; stroke-linecap: square"/>
   </g>
   <g id="line2d_34">
    <path d="M 76.396308 286.729091 
L 78.415939 20.510909 
L 80.43557 23.96082 
L 82.455201 28.345891 
L 84.474832 27.513685 
L 86.494463 37.731358 
L 88.514094 37.615906 
L 90.533724 47.146673 
L 92.553355 41.585602 
L 94.572986 50.049877 
L 96.592617 54.433929 
L 98.612248 49.511332 
L 100.631879 47.486573 
L 102.651509 44.418596 
L 104.67114 44.84268 
L 106.690771 42.665909 
L 108.710402 56.604804 
L 110.730033 59.081209 
L 112.749664 53.94984 
L 114.769295 53.857013 
L 116.788925 29.332691 
L 118.808556 40.825638 
L 120.828187 40.991738 
L 122.847818 46.807855 
L 124.867449 57.991829 
L 126.88708 55.953718 
L 128.906711 51.817211 
L 130.926341 51.598802 
L 132.945972 48.241018 
L 134.965603 46.753989 
L 136.985234 46.296219 
L 139.004865 49.631994 
L 141.024496 47.497568 
L 143.044126 43.772639 
L 145.063757 46.351539 
L 147.083388 45.417967 
L 149.103019 41.447458 
L 151.12265 34.145936 
L 153.142281 38.126898 
L 155.161912 35.697356 
L 157.181542 41.453615 
L 159.201173 41.363065 
L 161.220804 38.803445 
L 167.279697 38.715057 
L 169.299327 38.130718 
L 171.318958 39.356888 
L 173.338589 51.500776 
L 175.35822 61.926373 
L 177.377851 62.960339 
L 179.397482 65.32908 
L 181.417113 63.497868 
L 183.436743 62.733063 
L 185.456374 60.005796 
L 187.476005 63.823444 
L 189.495636 59.09875 
L 191.515267 59.078909 
L 193.534898 73.518337 
L 195.554528 80.597999 
L 197.574159 80.905269 
L 199.59379 79.682096 
L 201.613421 82.83165 
L 203.633052 88.431808 
L 205.652683 86.823044 
L 207.672314 85.614014 
L 209.691944 81.407078 
L 211.711575 83.317884 
L 213.731206 81.368542 
L 215.750837 78.079764 
L 217.770468 78.329673 
L 219.790099 77.780878 
L 221.809729 79.699702 
L 223.82936 76.970645 
L 225.848991 75.967308 
L 227.868622 81.526763 
L 229.888253 75.680048 
L 231.907884 74.484142 
L 233.927515 76.026814 
L 235.947145 75.882693 
L 237.966776 77.119709 
L 239.986407 76.536927 
L 242.006038 83.315078 
L 244.025669 95.005561 
L 246.0453 103.584991 
L 248.064931 106.905508 
L 250.084561 105.757954 
L 252.104192 108.076069 
L 254.123823 106.763333 
L 256.143454 105.067086 
L 258.163085 105.502823 
L 260.182716 104.224643 
L 262.202346 105.183076 
L 264.221977 105.648204 
L 266.241608 104.346149 
L 268.261239 103.354135 
L 270.28087 102.505713 
L 272.300501 115.160917 
L 274.320132 125.46506 
L 276.339762 127.686271 
L 278.359393 127.515441 
L 280.379024 125.659633 
L 282.398655 125.157462 
L 284.418286 125.176732 
L 286.437917 123.454942 
L 288.457547 121.447109 
L 290.477178 123.967203 
L 292.496809 123.138302 
L 294.51644 138.914137 
L 296.536071 143.441097 
L 298.555702 144.145233 
L 300.575333 138.810582 
L 302.594963 138.740164 
L 304.614594 139.261456 
L 306.634225 136.49843 
L 308.653856 137.070104 
L 310.673487 136.828368 
L 312.693118 136.18216 
L 314.712748 133.09811 
L 316.732379 137.119794 
L 318.75201 137.341886 
L 320.771641 144.576635 
L 322.791272 156.365424 
L 324.810903 159.585417 
L 326.830534 156.579416 
L 328.850164 159.206349 
L 330.869795 156.281301 
L 332.889426 152.944397 
L 334.909057 155.50346 
L 336.928688 153.491101 
L 338.948319 155.928274 
L 340.967949 152.651219 
L 342.98758 154.490686 
L 345.007211 153.64103 
L 347.026842 153.708126 
L 349.046473 153.16169 
L 351.066104 153.806462 
L 353.085735 162.16715 
L 355.105365 172.945924 
L 357.124996 180.117621 
L 359.144627 182.626682 
L 361.164258 178.705184 
L 363.183889 176.553483 
L 365.20352 176.223068 
L 367.22315 176.17271 
L 369.242781 173.567505 
L 371.262412 175.115399 
L 373.282043 174.772956 
L 375.301674 174.583056 
L 377.321305 172.532052 
L 379.340936 173.824285 
L 381.360566 170.764334 
L 383.380197 174.333747 
L 385.399828 173.855896 
L 387.419459 173.733774 
L 389.43909 173.943583 
L 391.458721 173.147455 
L 393.478352 175.072122 
L 395.497982 172.702937 
L 397.517613 171.005595 
L 399.537244 171.00517 
L 401.556875 171.67266 
L 403.576506 170.837827 
L 405.596137 171.004476 
L 407.615767 172.230993 
L 409.635398 168.513184 
L 411.655029 171.830598 
L 413.67466 172.385755 
L 415.694291 171.146235 
L 417.713922 183.294529 
L 419.733553 196.9383 
L 421.753183 203.178326 
L 423.772814 206.403681 
L 425.792445 213.995797 
L 427.812076 216.076617 
L 429.831707 216.483961 
L 431.851338 215.163029 
L 433.870968 228.294351 
L 435.890599 229.142224 
L 437.91023 232.004792 
L 439.929861 229.252903 
L 441.949492 229.647297 
L 443.969123 230.843904 
L 445.988754 226.306759 
L 448.008384 225.48672 
L 450.028015 226.670975 
L 452.047646 226.638224 
L 454.067277 232.965787 
L 456.086908 245.241314 
L 458.106539 247.124204 
L 460.126169 244.65301 
L 462.1458 243.916342 
L 464.165431 242.489698 
L 466.185062 241.424687 
L 468.204693 238.526896 
L 470.224324 240.298765 
L 472.243955 241.632414 
L 474.263585 240.076032 
L 476.283216 240.432844 
L 478.302847 240.622083 
L 480.322478 237.206777 
L 480.322478 237.206777 
" clip-path="url(#p2bd4d37307)" style="fill: none; stroke-dasharray: 7.03,3.04; stroke-dashoffset: 0; stroke: #ff7f0e; stroke-width: 1.9"/>
   </g>
   <g id="patch_3">
    <path d="M 56.2 300.04 
L 56.2 7.2 
" style="fill: none; stroke: #000000; stroke-width: 0.8; stroke-linejoin: miter; stroke-linecap: square"/>
   </g>
   <g id="patch_4">
    <path d="M 500.518786 300.04 
L 500.518786 7.2 
" style="fill: none; stroke: #000000; stroke-width: 0.8; stroke-linejoin: miter; stroke-linecap: square"/>
   </g>
   <g id="patch_5">
    <path d="M 56.2 300.04 
L 500.518786 300.04 
" style="fill: none; stroke: #000000; stroke-width: 0.8; stroke-linejoin: miter; stroke-linecap: square"/>
   </g>
   <g id="patch_6">
    <path d="M 56.2 7.2 
L 500.518786 7.2 
" style="fill: none; stroke: #000000; stroke-width: 0.8; stroke-linejoin: miter; stroke-linecap: square"/>
   </g>
   <g id="legend_1">
    <g id="patch_7">
     <path d="M 308.11449 24.208594 
L 495.268786 24.208594 
Q 496.768786 24.208594 496.768786 22.708594 
L 496.768786 12.45 
Q 496.768786 10.95 495.268786 10.95 
L 308.11449 10.95 
Q 306.61449 10.95 306.61449 12.45 
L 306.61449 22.708594 
Q 306.61449 24.208594 308.11449 24.208594 
z
" style="fill: #ffffff; opacity: 0.8; stroke: #cccccc; stroke-linejoin: miter"/>
    </g>
    <g id="line2d_35">
     <path d="M 309.61449 17.023828 
L 317.11449 17.023828 
L 324.61449 17.023828 
" style="fill: none; stroke: #1f77b4; stroke-width: 1.9; stroke-linecap: square"/>
    </g>
    <g id="text_19">
     <text style="font-size: 7.5px; font-family: 'DejaVu Serif', serif; text-anchor: start" x="330.61449" y="19.648828" transform="rotate(-0 330.61449 19.648828)">SPIDER-ADMM</text>
    </g>
    <g id="line2d_36">
     <path d="M 405.218396 17.023828 
L 412.718396 17.023828 
L 420.218396 17.023828 
" style="fill: none; stroke-dasharray: 7.03,3.04; stroke-dashoffset: 0; stroke: #ff7f0e; stroke-width: 1.9"/>
    </g>
    <g id="text_20">
     <text style="font-size: 7.5px; font-family: 'DejaVu Serif', serif; text-anchor: start" x="426.218396" y="19.648828" transform="rotate(-0 426.218396 19.648828)">AIL-SVRG-ADMM</text>
    </g>
   </g>
  </g>
 </g>
 <defs>
  <clipPath id="p2bd4d37307">
   <rect x="56.2" y="7.2" width="444.318786" height="292.84"/>
  </clipPath>
 </defs>
</svg>
