<?xml version="1.0" encoding="utf-8" standalone="no"?>
<!DOCTYPE svg PUBLIC "-//W3C//DTD SVG 1.1//EN"
  "http://www.w3.org/Graphics/SVG/1.1/DTD/svg11.dtd">
<svg xmlns:xlink="http://www.w3.org/1999/xlink" width="508.167661pt" height="337.59625pt" viewBox="0 0 508.167661 337.59625" xmlns="http://www.w3.org/2000/svg" version="1.1">
 <metadata>
  <rdf:RDF xmlns:dc="http://purl.org/dc/elements/1.1/" xmlns:cc="http://creativecommons.org/ns#" xmlns:rdf="http://www.w3.org/1999/02/22-rdf-syntax-ns#">
   <cc:Work>
    <dc:type rdf:resource="http://purl.org/dc/dcmitype/StillImage"/>
    <dc:date>2026-07-14T18:25:32.999907</dc:date>
    <dc:format>image/svg+xml</dc:format>
    <dc:creator>
     <cc:Agent>
      <dc:title>Matplotlib v3.10.5, https://matplotlib.org/</dc:title>
     </cc:Agent>
    </dc:creator>
   </cc:Work>
  </rdf:RDF>
 </metadata>
 <defs>
  <style type="text/css">*{stroke-linejoin: round; stroke-linecap: butt}</style>
 </defs>
 <g id="figure_1">
  <g id="patch_1">
   <path d="M 0 337.59625 
L 508.167661 337.59625 
L 508.167661 0 
L 0 0 
z
" style="fill: #ffffff"/>
  </g>
  <g id="axes_1">
   <g id="patch_2">
    <path d="M 55.778125 300.04 
L 500.967661 300.04 
L 500.967661 7.2 
L 55.778125 7.2 
z
" style="fill: #ffffff"/>
   </g>
   <g id="matplotlib.axis_1">
    <g id="xtick_1">
     <g id="line2d_1">
      <path d="M 76.014013 300.04 
L 76.014013 7.2 
" clip-path="url(#p9764cf0ab8)" style="fill: none; stroke: #b0b0b0; stroke-opacity: 0.25; stroke-width: 0.8; stroke-linecap: square"/>
     </g>
     <g id="line2d_2">
      <defs>
       <path id="m2afad89d28" d="M 0 0 
L 0 3.5 
" style="stroke: #000000; stroke-width: 0.8"/>
      </defs>
      <g>
       <use xlink:href="#m2afad89d28" x="76.014013" y="300.04" style="stroke: #000000; stroke-width: 0.8"/>
      </g>
     </g>
     <g id="text_1">
      <text style="font-size: 10px; font-family: 'DejaVu Serif', serif; text-anchor: middle" x="76.014013" y="314.638437" transform="rotate(-0 76.014013 314.638437)">0</text>
     </g>
    </g>
    <g id="xtick_2">
     <g id="line2d_3">
      <path d="M 126.603733 300.04 
L 126.603733 7.2 
" clip-path="url(#p9764cf0ab8)" style="fill: none; stroke: #b0b0b0; stroke-opacity: 0.25; stroke-width: 0.8; stroke-linecap: square"/>
     </g>
     <g id="line2d_4">
      <g>
       <use xlink:href="#m2afad89d28" x="126.603733" y="300.04" style="stroke: #000000; stroke-width: 0.8"/>
      </g>
     </g>
     <g id="text_2">
      <text style="font-size: 10px; font-family: 'DejaVu Serif', serif; text-anchor: middle" x="126.603733" y="314.638437" transform="rotate(-0 126.603733 314.638437)">250</text>
     </g>
    </g>
    <g id="xtick_3">
     <g id="line2d_5">
      <path d="M 177.193453 300.04 
L 177.193453 7.2 
" clip-path="url(#p9764cf0ab8)" style="fill: none; stroke: #b0b0b0; stroke-opacity: 0.25; stroke-width: 0.8; stroke-linecap: square"/>
     </g>
     <g id="line2d_6">
      <g>
       <use xlink:href="#m2afad89d28" x="177.193453" y="300.04" style="stroke: #000000; stroke-width: 0.8"/>
      </g>
     </g>
     <g id="text_3">
      <text style="font-size: 10px; font-family: 'DejaVu Serif', serif; text-anchor: middle" x="177.193453" y="314.638437" transform="rotate(-0 177.193453 314.638437)">500</text>
     </g>
    </g>
    <g id="xtick_4">
     <g id="line2d_7">
      <path d="M 227.783173 300.04 
L 227.783173 7.2 
" clip-path="url(#p9764cf0ab8)" style="fill: none; stroke: #b0b0b0; stroke-opacity: 0.25; stroke-width: 0.8; stroke-linecap: square"/>
     </g>
     <g id="line2d_8">
      <g>
       <use xlink:href="#m2afad89d28" x="227.783173" y="300.04" style="stroke: #000000; stroke-width: 0.8"/>
      </g>
     </g>
     <g id="text_4">
      <text style="font-size: 10px; font-family: 'DejaVu Serif', serif; text-anchor: middle" x="227.783173" y="314.638437" transform="rotate(-0 227.783173 314.638437)">750</text>
     </g>
    </g>
    <g id="xtick_5">
     <g id="line2d_9">
      <path d="M 278.372893 300.04 
L 278.372893 7.2 
" clip-path="url(#p9764cf0ab8)" style="fill: none; stroke: #b0b0b0; stroke-opacity: 0.25; stroke-width: 0.8; stroke-linecap: square"/>
     </g>
     <g id="line2d_10">
      <g>
       <use xlink:href="#m2afad89d28" x="278.372893" y="300.04" style="stroke: #000000; stroke-width: 0.8"/>
      </g>
     </g>
     <g id="text_5">
      <text style="font-size: 10px; font-family: 'DejaVu Serif', serif; text-anchor: middle" x="278.372893" y="314.638437" transform="rotate(-0 278.372893 314.638437)">1000</text>
     </g>
    </g>
    <g id="xtick_6">
     <g id="line2d_11">
      <path d="M 328.962613 300.04 
L 328.962613 7.2 
" clip-path="url(#p9764cf0ab8)" style="fill: none; stroke: #b0b0b0; stroke-opacity: 0.25; stroke-width: 0.8; stroke-linecap: square"/>
     </g>
     <g id="line2d_12">
      <g>
       <use xlink:href="#m2afad89d28" x="328.962613" y="300.04" style="stroke: #000000; stroke-width: 0.8"/>
      </g>
     </g>
     <g id="text_6">
      <text style="font-size: 10px; font-family: 'DejaVu Serif', serif; text-anchor: middle" x="328.962613" y="314.638437" transform="rotate(-0 328.962613 314.638437)">1250</text>
     </g>
    </g>
    <g id="xtick_7">
     <g id="line2d_13">
      <path d="M 379.552333 300.04 
L 379.552333 7.2 
" clip-path="url(#p9764cf0ab8)" style="fill: none; stroke: #b0b0b0; stroke-opacity: 0.25; stroke-width: 0.8; stroke-linecap: square"/>
     </g>
     <g id="line2d_14">
      <g>
       <use xlink:href="#m2afad89d28" x="379.552333" y="300.04" style="stroke: #000000; stroke-width: 0.8"/>
      </g>
     </g>
     <g id="text_7">
      <text style="font-size: 10px; font-family: 'DejaVu Serif', serif; text-anchor: middle" x="379.552333" y="314.638437" transform="rotate(-0 379.552333 314.638437)">1500</text>
     </g>
    </g>
    <g id="xtick_8">
     <g id="line2d_15">
      <path d="M 430.142053 300.04 
L 430.142053 7.2 
" clip-path="url(#p9764cf0ab8)" style="fill: none; stroke: #b0b0b0; stroke-opacity: 0.25; stroke-width: 0.8; stroke-linecap: square"/>
     </g>
     <g id="line2d_16">
      <g>
       <use xlink:href="#m2afad89d28" x="430.142053" y="300.04" style="stroke: #000000; stroke-width: 0.8"/>
      </g>
     </g>
     <g id="text_8">
      <text style="font-size: 10px; font-family: 'DejaVu Serif', serif; text-anchor: middle" x="430.142053" y="314.638437" transform="rotate(-0 430.142053 314.638437)">1750</text>
     </g>
    </g>
    <g id="xtick_9">
     <g id="line2d_17">
      <path d="M 480.731773 300.04 
L 480.731773 7.2 
" clip-path="url(#p9764cf0ab8)" style="fill: none; stroke: #b0b0b0; stroke-opacity: 0.25; stroke-width: 0.8; stroke-linecap: square"/>
     </g>
     <g id="line2d_18">
      <g>
       <use xlink:href="#m2afad89d28" x="480.731773" y="300.04" style="stroke: #000000; stroke-width: 0.8"/>
      </g>
     </g>
     <g id="text_9">
      <text style="font-size: 10px; font-family: 'DejaVu Serif', serif; text-anchor: middle" x="480.731773" y="314.638437" transform="rotate(-0 480.731773 314.638437)">2000</text>
     </g>
    </g>
    <g id="text_10">
     <text style="font-size: 10px; font-family: 'DejaVu Serif', serif; text-anchor: middle" x="278.372893" y="328.316562" transform="rotate(-0 278.372893 328.316562)">Iterations</text>
    </g>
   </g>
   <g id="matplotlib.axis_2">
    <g id="ytick_1">
     <g id="line2d_19">
      <path d="M 55.778125 271.640144 
L 500.967661 271.640144 
" clip-path="url(#p9764cf0ab8)" style="fill: none; stroke: #b0b0b0; stroke-opacity: 0.25; stroke-width: 0.8; stroke-linecap: square"/>
     </g>
     <g id="line2d_20">
      <defs>
       <path id="mc159ab0d2f" d="M 0 0 
L -3.5 0 
" style="stroke: #000000; stroke-width: 0.8"/>
      </defs>
      <g>
       <use xlink:href="#mc159ab0d2f" x="55.778125" y="271.640144" style="stroke: #000000; stroke-width: 0.8"/>
      </g>
     </g>
     <g id="text_11">
      <!-- $\mathdefault{10^{-11}}$ -->
      <g transform="translate(20.878125 275.439363)">
       <text>
        <tspan x="0" y="-0.173438" style="font-size: 10px; font-family: 'DejaVu Serif'">1</tspan>
        <tspan x="6.362305" y="-0.173438" style="font-size: 10px; font-family: 'DejaVu Serif'">0</tspan>
        <tspan x="12.815391" y="-3.804688" style="font-size: 7px; font-family: 'DejaVu Serif'">−</tspan>
        <tspan x="18.680625" y="-3.804688" style="font-size: 7px; font-family: 'DejaVu Serif'">1</tspan>
        <tspan x="23.134238" y="-3.804688" style="font-size: 7px; font-family: 'DejaVu Serif'">1</tspan>
       </text>
      </g>
     </g>
    </g>
    <g id="ytick_2">
     <g id="line2d_21">
      <path d="M 55.778125 224.510805 
L 500.967661 224.510805 
" clip-path="url(#p9764cf0ab8)" style="fill: none; stroke: #b0b0b0; stroke-opacity: 0.25; stroke-width: 0.8; stroke-linecap: square"/>
     </g>
     <g id="line2d_22">
      <g>
       <use xlink:href="#mc159ab0d2f" x="55.778125" y="224.510805" style="stroke: #000000; stroke-width: 0.8"/>
      </g>
     </g>
     <g id="text_12">
      <!-- $\mathdefault{10^{-9}}$ -->
      <g transform="translate(25.378125 228.310024)">
       <text>
        <tspan x="0" y="-0.173438" style="font-size: 10px; font-family: 'DejaVu Serif'">1</tspan>
        <tspan x="6.362305" y="-0.173438" style="font-size: 10px; font-family: 'DejaVu Serif'">0</tspan>
        <tspan x="12.815391" y="-3.804688" style="font-size: 7px; font-family: 'DejaVu Serif'">−</tspan>
        <tspan x="18.680625" y="-3.804688" style="font-size: 7px; font-family: 'DejaVu Serif'">9</tspan>
       </text>
      </g>
     </g>
    </g>
    <g id="ytick_3">
     <g id="line2d_23">
      <path d="M 55.778125 177.381466 
L 500.967661 177.381466 
" clip-path="url(#p9764cf0ab8)" style="fill: none; stroke: #b0b0b0; stroke-opacity: 0.25; stroke-width: 0.8; stroke-linecap: square"/>
     </g>
     <g id="line2d_24">
      <g>
       <use xlink:href="#mc159ab0d2f" x="55.778125" y="177.381466" style="stroke: #000000; stroke-width: 0.8"/>
      </g>
     </g>
     <g id="text_13">
      <!-- $\mathdefault{10^{-7}}$ -->
      <g transform="translate(25.378125 181.180685)">
       <text>
        <tspan x="0" y="-0.260938" style="font-size: 10px; font-family: 'DejaVu Serif'">1</tspan>
        <tspan x="6.362305" y="-0.260938" style="font-size: 10px; font-family: 'DejaVu Serif'">0</tspan>
        <tspan x="12.815391" y="-3.892188" style="font-size: 7px; font-family: 'DejaVu Serif'">−</tspan>
        <tspan x="18.680625" y="-3.892188" style="font-size: 7px; font-family: 'DejaVu Serif'">7</tspan>
       </text>
      </g>
     </g>
    </g>
    <g id="ytick_4">
     <g id="line2d_25">
      <path d="M 55.778125 130.252127 
L 500.967661 130.252127 
" clip-path="url(#p9764cf0ab8)" style="fill: none; stroke: #b0b0b0; stroke-opacity: 0.25; stroke-width: 0.8; stroke-linecap: square"/>
     </g>
     <g id="line2d_26">
      <g>
       <use xlink:href="#mc159ab0d2f" x="55.778125" y="130.252127" style="stroke: #000000; stroke-width: 0.8"/>
      </g>
     </g>
     <g id="text_14">
      <!-- $\mathdefault{10^{-5}}$ -->
      <g transform="translate(25.378125 134.051346)">
       <text>
        <tspan x="0" y="-0.260938" style="font-size: 10px; font-family: 'DejaVu Serif'">1</tspan>
        <tspan x="6.362305" y="-0.260938" style="font-size: 10px; font-family: 'DejaVu Serif'">0</tspan>
        <tspan x="12.815391" y="-3.892188" style="font-size: 7px; font-family: 'DejaVu Serif'">−</tspan>
        <tspan x="18.680625" y="-3.892188" style="font-size: 7px; font-family: 'DejaVu Serif'">5</tspan>
       </text>
      </g>
     </g>
    </g>
    <g id="ytick_5">
     <g id="line2d_27">
      <path d="M 55.778125 83.122788 
L 500.967661 83.122788 
" clip-path="url(#p9764cf0ab8)" style="fill: none; stroke: #b0b0b0; stroke-opacity: 0.25; stroke-width: 0.8; stroke-linecap: square"/>
     </g>
     <g id="line2d_28">
      <g>
       <use xlink:href="#mc159ab0d2f" x="55.778125" y="83.122788" style="stroke: #000000; stroke-width: 0.8"/>
      </g>
     </g>
     <g id="text_15">
      <!-- $\mathdefault{10^{-3}}$ -->
      <g transform="translate(25.378125 86.922007)">
       <text>
        <tspan x="0" y="-0.173438" style="font-size: 10px; font-family: 'DejaVu Serif'">1</tspan>
        <tspan x="6.362305" y="-0.173438" style="font-size: 10px; font-family: 'DejaVu Serif'">0</tspan>
        <tspan x="12.815391" y="-3.804688" style="font-size: 7px; font-family: 'DejaVu Serif'">−</tspan>
        <tspan x="18.680625" y="-3.804688" style="font-size: 7px; font-family: 'DejaVu Serif'">3</tspan>
       </text>
      </g>
     </g>
    </g>
    <g id="ytick_6">
     <g id="line2d_29">
      <path d="M 55.778125 35.993449 
L 500.967661 35.993449 
" clip-path="url(#p9764cf0ab8)" style="fill: none; stroke: #b0b0b0; stroke-opacity: 0.25; stroke-width: 0.8; stroke-linecap: square"/>
     </g>
     <g id="line2d_30">
      <g>
       <use xlink:href="#mc159ab0d2f" x="55.778125" y="35.993449" style="stroke: #000000; stroke-width: 0.8"/>
      </g>
     </g>
     <g id="text_16">
      <!-- $\mathdefault{10^{-1}}$ -->
      <g transform="translate(25.378125 39.792668)">
       <text>
        <tspan x="0" y="-0.173438" style="font-size: 10px; font-family: 'DejaVu Serif'">1</tspan>
        <tspan x="6.362305" y="-0.173438" style="font-size: 10px; font-family: 'DejaVu Serif'">0</tspan>
        <tspan x="12.815391" y="-3.804688" style="font-size: 7px; font-family: 'DejaVu Serif'">−</tspan>
        <tspan x="18.680625" y="-3.804688" style="font-size: 7px; font-family: 'DejaVu Serif'">1</tspan>
       </text>
      </g>
     </g>
    </g>
    <g id="text_17">
     <!-- KKT Residual $K_t$ -->
     <g transform="translate(14.798438 194.32) rotate(-90)">
      <text>
       <tspan x="0" y="-0.40625" style="font-size: 10px; font-family: 'DejaVu Serif'">K</tspan>
       <tspan x="7.470703" y="-0.40625" style="font-size: 10px; font-family: 'DejaVu Serif'">K</tspan>
       <tspan x="14.941406" y="-0.40625" style="font-size: 10px; font-family: 'DejaVu Serif'">T</tspan>
       <tspan x="21.611328" y="-0.40625" style="font-size: 10px; font-family: 'DejaVu Serif'"> </tspan>
       <tspan x="24.790039" y="-0.40625" style="font-size: 10px; font-family: 'DejaVu Serif'">R</tspan>
       <tspan x="32.319336" y="-0.40625" style="font-size: 10px; font-family: 'DejaVu Serif'">e</tspan>
       <tspan x="38.237305" y="-0.40625" style="font-size: 10px; font-family: 'DejaVu Serif'">s</tspan>
       <tspan x="43.369141" y="-0.40625" style="font-size: 10px; font-family: 'DejaVu Serif'">i</tspan>
       <tspan x="46.567383" y="-0.40625" style="font-size: 10px; font-family: 'DejaVu Serif'">d</tspan>
       <tspan x="52.96875" y="-0.40625" style="font-size: 10px; font-family: 'DejaVu Serif'">u</tspan>
       <tspan x="59.40918" y="-0.40625" style="font-size: 10px; font-family: 'DejaVu Serif'">a</tspan>
       <tspan x="65.371094" y="-0.40625" style="font-size: 10px; font-family: 'DejaVu Serif'">l</tspan>
       <tspan x="68.569336" y="-0.40625" style="font-size: 10px; font-family: 'DejaVu Serif'"> </tspan>
       <tspan x="71.748047" y="-0.40625" style="font-style: oblique; font-size: 10px; font-family: 'DejaVu Sans'">K</tspan>
       <tspan x="78.305664" y="1.234375" style="font-style: oblique; font-size: 7px; font-family: 'DejaVu Sans'">t</tspan>
      </text>
     </g>
    </g>
   </g>
   <g id="line2d_31">
    <path d="M 76.014013 20.510909 
L 80.061191 37.450455 
L 84.108368 42.76212 
L 88.155546 47.462446 
L 92.202723 52.449901 
L 96.249901 56.984465 
L 100.297079 61.198612 
L 104.344256 64.847018 
L 108.391434 68.015709 
L 112.438611 70.577955 
L 116.485789 72.662207 
L 120.532967 74.276936 
L 124.580144 75.482973 
L 128.627322 76.37516 
L 132.674499 77.020673 
L 136.721677 77.501283 
L 140.768855 77.852585 
L 144.816032 78.119551 
L 148.86321 78.319542 
L 152.910387 78.478028 
L 156.957565 78.60411 
L 161.004743 78.707218 
L 165.05192 78.795209 
L 169.099098 78.872615 
L 173.146276 78.940333 
L 177.193453 79.003227 
L 181.240631 79.064324 
L 185.287808 83.345183 
L 189.334986 85.354313 
L 193.382164 86.677818 
L 197.429341 87.401789 
L 201.476519 87.959288 
L 205.523696 88.432075 
L 209.570874 88.832699 
L 213.618052 89.142992 
L 217.665229 89.413071 
L 221.712407 89.636749 
L 225.759584 89.832932 
L 229.806762 90.002506 
L 233.85394 90.154557 
L 237.901117 90.293263 
L 241.948295 90.423311 
L 245.995472 90.542151 
L 250.04265 90.654002 
L 254.089828 90.760192 
L 258.137005 90.86124 
L 262.184183 90.96295 
L 266.23136 91.057726 
L 270.278538 91.149173 
L 274.325716 96.868202 
L 278.372893 103.060357 
L 282.420071 105.790694 
L 286.467248 108.410465 
L 290.514426 110.724076 
L 294.561604 113.109446 
L 298.608781 115.399859 
L 302.655959 117.73335 
L 306.703136 120.042367 
L 310.750314 122.347128 
L 314.797492 124.654193 
L 318.844669 126.950106 
L 322.891847 129.267705 
L 326.939024 131.557224 
L 330.986202 133.859679 
L 335.03338 136.147968 
L 339.080557 138.44119 
L 343.127735 140.737817 
L 347.174912 143.027355 
L 351.22209 145.31371 
L 355.269268 147.601415 
L 359.316445 149.887973 
L 363.363623 152.182158 
L 367.4108 154.469665 
L 371.457978 156.753733 
L 375.505156 159.036232 
L 379.552333 161.315685 
L 383.599511 163.609026 
L 387.646689 165.894531 
L 391.693866 168.177459 
L 395.741044 170.460723 
L 399.788221 172.742745 
L 403.835399 175.033903 
L 407.882577 177.316995 
L 411.929754 179.601188 
L 415.976932 181.885666 
L 420.024109 184.168351 
L 424.071287 186.45862 
L 428.118465 188.738884 
L 432.165642 191.020155 
L 436.21282 193.298174 
L 440.259997 195.576747 
L 444.307175 197.866724 
L 448.354353 200.149042 
L 452.40153 202.428542 
L 456.448708 204.708433 
L 460.495885 206.986814 
L 464.543063 209.277808 
L 468.590241 211.561498 
L 472.637418 213.84282 
L 476.684596 216.125282 
L 480.731773 218.405617 
" clip-path="url(#p9764cf0ab8)" style="fill: none; stroke: #1f77b4; stroke-width: 1.9; stroke-linecap: square"/>
   </g>
   <g id="line2d_32">
    <path d="M 76.014013 20.510909 
L 80.061191 38.329945 
L 84.108368 44.863001 
L 88.155546 51.741364 
L 92.202723 57.725973 
L 96.249901 63.151002 
L 100.297079 67.446355 
L 104.344256 70.89664 
L 108.391434 73.272382 
L 112.438611 74.894173 
L 116.485789 75.911802 
L 120.532967 76.52822 
L 124.580144 76.911912 
L 128.627322 77.14306 
L 132.674499 77.296899 
L 136.721677 77.359005 
L 140.768855 77.535114 
L 144.816032 77.612096 
L 148.86321 77.677351 
L 152.910387 77.741639 
L 156.957565 77.79357 
L 161.004743 83.816318 
L 165.05192 85.647466 
L 169.099098 86.519575 
L 173.146276 87.160956 
L 177.193453 87.595189 
L 181.240631 87.909861 
L 185.287808 88.150846 
L 189.334986 88.330834 
L 193.382164 88.489818 
L 197.429341 88.654817 
L 201.476519 88.806358 
L 205.523696 88.893778 
L 209.570874 88.975976 
L 213.618052 89.074104 
L 217.665229 89.154647 
L 221.712407 89.205251 
L 225.759584 88.853555 
L 229.806762 98.473261 
L 233.85394 101.826053 
L 237.901117 106.78407 
L 241.948295 109.792131 
L 245.995472 111.214002 
L 250.04265 112.659681 
L 254.089828 114.539146 
L 258.137005 117.334873 
L 262.184183 119.748439 
L 266.23136 115.157238 
L 270.278538 131.356513 
L 274.325716 134.967326 
L 278.372893 138.106698 
L 282.420071 141.022188 
L 286.467248 143.655398 
L 290.514426 146.548304 
L 294.561604 148.743245 
L 298.608781 151.66334 
L 302.655959 153.658131 
L 306.703136 156.741148 
L 310.750314 161.748951 
L 314.797492 165.048898 
L 318.844669 167.993635 
L 322.891847 170.863388 
L 326.939024 173.965531 
L 330.986202 176.975239 
L 335.03338 179.91811 
L 339.080557 182.821115 
L 343.127735 185.568363 
L 347.174912 188.173661 
L 351.22209 190.937497 
L 355.269268 193.188383 
L 359.316445 195.679445 
L 363.363623 197.881041 
L 367.4108 198.832148 
L 371.457978 201.329733 
L 375.505156 203.164768 
L 379.552333 204.314344 
L 383.599511 204.577233 
L 387.646689 201.274944 
L 391.693866 205.004649 
L 395.741044 205.73281 
L 399.788221 209.631872 
L 403.835399 205.796717 
L 407.882577 221.917022 
L 411.929754 234.356544 
L 415.976932 238.63632 
L 420.024109 241.679983 
L 424.071287 244.84781 
L 428.118465 248.022094 
L 432.165642 250.322055 
L 436.21282 252.717082 
L 440.259997 256.348592 
L 444.307175 258.122359 
L 448.354353 258.764042 
L 452.40153 259.634191 
L 456.448708 261.43775 
L 460.495885 263.137581 
L 464.543063 262.487519 
L 468.590241 276.697492 
L 472.637418 280.720241 
L 476.684596 283.830933 
L 480.731773 286.729091 
" clip-path="url(#p9764cf0ab8)" style="fill: none; stroke-dasharray: 7.03,3.04; stroke-dashoffset: 0; stroke: #ff7f0e; stroke-width: 1.9"/>
   </g>
   <g id="patch_3">
    <path d="M 55.778125 300.04 
L 55.778125 7.2 
" style="fill: none; stroke: #000000; stroke-width: 0.8; stroke-linejoin: miter; stroke-linecap: square"/>
   </g>
   <g id="patch_4">
    <path d="M 500.967661 300.04 
L 500.967661 7.2 
" style="fill: none; stroke: #000000; stroke-width: 0.8; stroke-linejoin: miter; stroke-linecap: square"/>
   </g>
   <g id="patch_5">
    <path d="M 55.778125 300.04 
L 500.967661 300.04 
" style="fill: none; stroke: #000000; stroke-width: 0.8; stroke-linejoin: miter; stroke-linecap: square"/>
   </g>
   <g id="patch_6">
    <path d="M 55.778125 7.2 
L 500.967661 7.2 
" style="fill: none; stroke: #000000; stroke-width: 0.8; stroke-linejoin: miter; stroke-linecap: square"/>
   </g>
   <g id="legend_1">
    <g id="patch_7">
     <path d="M 308.563365 24.208594 
L 495.717661 24.208594 
Q 497.217661 24.208594 497.217661 22.708594 
L 497.217661 12.45 
Q 497.217661 10.95 495.717661 10.95 
L 308.563365 10.95 
Q 307.063365 10.95 307.063365 12.45 
L 307.063365 22.708594 
Q 307.063365 24.208594 308.563365 24.208594 
z
" style="fill: #ffffff; opacity: 0.8; stroke: #cccccc; stroke-linejoin: miter"/>
    </g>
    <g id="line2d_33">
     <path d="M 310.063365 17.023828 
L 317.563365 17.023828 
L 325.063365 17.023828 
" style="fill: none; stroke: #1f77b4; stroke-width: 1.9; stroke-linecap: square"/>
    </g>
    <g id="text_18">
     <text style="font-size: 7.5px; font-family: 'DejaVu Serif', serif; text-anchor: start" x="331.063365" y="19.648828" transform="rotate(-0 331.063365 19.648828)">SPIDER-ADMM</text>
    </g>
    <g id="line2d_34">
     <path d="M 405.667271 17.023828 
L 413.167271 17.023828 
L 420.667271 17.023828 
" style="fill: none; stroke-dasharray: 7.03,3.04; stroke-dashoffset: 0; stroke: #ff7f0e; stroke-width: 1.9"/>
    </g>
    <g id="text_19">
     <text style="font-size: 7.5px; font-family: 'DejaVu Serif', serif; text-anchor: start" x="426.667271" y="19.648828" transform="rotate(-0 426.667271 19.648828)">AIL-SVRG-ADMM</text>
    </g>
   </g>
  </g>
 </g>
 <defs>
  <clipPath id="p9764cf0ab8">
   <rect x="55.778125" y="7.2" width="445.189536" height="292.84"/>
  </clipPath>
 </defs>
</svg>
