<?xml version="1.0" encoding="utf-8" standalone="no"?>
<!DOCTYPE svg PUBLIC "-//W3C//DTD SVG 1.1//EN"
  "http://www.w3.org/Graphics/SVG/1.1/DTD/svg11.dtd">
<svg xmlns:xlink="http://www.w3.org/1999/xlink" width="507.718786pt" height="337.59625pt" viewBox="0 0 507.718786 337.59625" xmlns="http://www.w3.org/2000/svg" version="1.1">
 <metadata>
  <rdf:RDF xmlns:dc="http://purl.org/dc/elements/1.1/" xmlns:cc="http://creativecommons.org/ns#" xmlns:rdf="http://www.w3.org/1999/02/22-rdf-syntax-ns#">
   <cc:Work>
    <dc:type rdf:resource="http://purl.org/dc/dcmitype/StillImage"/>
    <dc:date>2026-07-14T18:25:32.503058</dc:date>
    <dc:format>image/svg+xml</dc:format>
    <dc:creator>
     <cc:Agent>
      <dc:title>Matplotlib v3.10.5, https://matplotlib.org/</dc:title>
     </cc:Agent>
    </dc:creator>
   </cc:Work>
  </rdf:RDF>
 </metadata>
 <defs>
  <style type="text/css">*{stroke-linejoin: round; stroke-linecap: butt}</style>
 </defs>
 <g id="figure_1">
  <g id="patch_1">
   <path d="M 0 337.59625 
L 507.718786 337.59625 
L 507.718786 0 
L 0 0 
z
" style="fill: #ffffff"/>
  </g>
  <g id="axes_1">
   <g id="patch_2">
    <path d="M 56.2 300.04 
L 500.518786 300.04 
L 500.518786 7.2 
L 56.2 7.2 
z
" style="fill: #ffffff"/>
   </g>
   <g id="matplotlib.axis_1">
    <g id="xtick_1">
     <g id="line2d_1">
      <path d="M 76.396308 300.04 
L 76.396308 7.2 
" clip-path="url(#p02dadaa12c)" style="fill: none; stroke: #b0b0b0; stroke-opacity: 0.25; stroke-width: 0.8; stroke-linecap: square"/>
     </g>
     <g id="line2d_2">
      <defs>
       <path id="mde1eb95dec" d="M 0 0 
L 0 3.5 
" style="stroke: #000000; stroke-width: 0.8"/>
      </defs>
      <g>
       <use xlink:href="#mde1eb95dec" x="76.396308" y="300.04" style="stroke: #000000; stroke-width: 0.8"/>
      </g>
     </g>
     <g id="text_1">
      <text style="font-size: 10px; font-family: 'DejaVu Serif', serif; text-anchor: middle" x="76.396308" y="314.638437" transform="rotate(-0 76.396308 314.638437)">0.0</text>
     </g>
    </g>
    <g id="xtick_2">
     <g id="line2d_3">
      <path d="M 163.17526 300.04 
L 163.17526 7.2 
" clip-path="url(#p02dadaa12c)" style="fill: none; stroke: #b0b0b0; stroke-opacity: 0.25; stroke-width: 0.8; stroke-linecap: square"/>
     </g>
     <g id="line2d_4">
      <g>
       <use xlink:href="#mde1eb95dec" x="163.17526" y="300.04" style="stroke: #000000; stroke-width: 0.8"/>
      </g>
     </g>
     <g id="text_2">
      <text style="font-size: 10px; font-family: 'DejaVu Serif', serif; text-anchor: middle" x="163.17526" y="314.638437" transform="rotate(-0 163.17526 314.638437)">0.2</text>
     </g>
    </g>
    <g id="xtick_3">
     <g id="line2d_5">
      <path d="M 249.954212 300.04 
L 249.954212 7.2 
" clip-path="url(#p02dadaa12c)" style="fill: none; stroke: #b0b0b0; stroke-opacity: 0.25; stroke-width: 0.8; stroke-linecap: square"/>
     </g>
     <g id="line2d_6">
      <g>
       <use xlink:href="#mde1eb95dec" x="249.954212" y="300.04" style="stroke: #000000; stroke-width: 0.8"/>
      </g>
     </g>
     <g id="text_3">
      <text style="font-size: 10px; font-family: 'DejaVu Serif', serif; text-anchor: middle" x="249.954212" y="314.638437" transform="rotate(-0 249.954212 314.638437)">0.4</text>
     </g>
    </g>
    <g id="xtick_4">
     <g id="line2d_7">
      <path d="M 336.733164 300.04 
L 336.733164 7.2 
" clip-path="url(#p02dadaa12c)" style="fill: none; stroke: #b0b0b0; stroke-opacity: 0.25; stroke-width: 0.8; stroke-linecap: square"/>
     </g>
     <g id="line2d_8">
      <g>
       <use xlink:href="#mde1eb95dec" x="336.733164" y="300.04" style="stroke: #000000; stroke-width: 0.8"/>
      </g>
     </g>
     <g id="text_4">
      <text style="font-size: 10px; font-family: 'DejaVu Serif', serif; text-anchor: middle" x="336.733164" y="314.638437" transform="rotate(-0 336.733164 314.638437)">0.6</text>
     </g>
    </g>
    <g id="xtick_5">
     <g id="line2d_9">
      <path d="M 423.512116 300.04 
L 423.512116 7.2 
" clip-path="url(#p02dadaa12c)" style="fill: none; stroke: #b0b0b0; stroke-opacity: 0.25; stroke-width: 0.8; stroke-linecap: square"/>
     </g>
     <g id="line2d_10">
      <g>
       <use xlink:href="#mde1eb95dec" x="423.512116" y="300.04" style="stroke: #000000; stroke-width: 0.8"/>
      </g>
     </g>
     <g id="text_5">
      <text style="font-size: 10px; font-family: 'DejaVu Serif', serif; text-anchor: middle" x="423.512116" y="314.638437" transform="rotate(-0 423.512116 314.638437)">0.8</text>
     </g>
    </g>
    <g id="text_6">
     <text style="font-size: 10px; font-family: 'DejaVu Serif', serif; text-anchor: middle" x="278.359393" y="328.316562" transform="rotate(-0 278.359393 328.316562)">Time (s)</text>
    </g>
   </g>
   <g id="matplotlib.axis_2">
    <g id="ytick_1">
     <g id="line2d_11">
      <path d="M 56.2 273.77962 
L 500.518786 273.77962 
" clip-path="url(#p02dadaa12c)" style="fill: none; stroke: #b0b0b0; stroke-opacity: 0.25; stroke-width: 0.8; stroke-linecap: square"/>
     </g>
     <g id="line2d_12">
      <defs>
       <path id="m16222a3949" d="M 0 0 
L -3.5 0 
" style="stroke: #000000; stroke-width: 0.8"/>
      </defs>
      <g>
       <use xlink:href="#m16222a3949" x="56.2" y="273.77962" style="stroke: #000000; stroke-width: 0.8"/>
      </g>
     </g>
     <g id="text_7">
      <!-- $\mathdefault{10^{-15}}$ -->
      <g transform="translate(21.3 277.578838)">
       <text>
        <tspan x="0" y="-0.173438" style="font-size: 10px; font-family: 'DejaVu Serif'">1</tspan>
        <tspan x="6.362305" y="-0.173438" style="font-size: 10px; font-family: 'DejaVu Serif'">0</tspan>
        <tspan x="12.815391" y="-3.804688" style="font-size: 7px; font-family: 'DejaVu Serif'">−</tspan>
        <tspan x="18.680625" y="-3.804688" style="font-size: 7px; font-family: 'DejaVu Serif'">1</tspan>
        <tspan x="23.134238" y="-3.804688" style="font-size: 7px; font-family: 'DejaVu Serif'">5</tspan>
       </text>
      </g>
     </g>
    </g>
    <g id="ytick_2">
     <g id="line2d_13">
      <path d="M 56.2 234.152116 
L 500.518786 234.152116 
" clip-path="url(#p02dadaa12c)" style="fill: none; stroke: #b0b0b0; stroke-opacity: 0.25; stroke-width: 0.8; stroke-linecap: square"/>
     </g>
     <g id="line2d_14">
      <g>
       <use xlink:href="#m16222a3949" x="56.2" y="234.152116" style="stroke: #000000; stroke-width: 0.8"/>
      </g>
     </g>
     <g id="text_8">
      <!-- $\mathdefault{10^{-13}}$ -->
      <g transform="translate(21.3 237.951334)">
       <text>
        <tspan x="0" y="-0.173438" style="font-size: 10px; font-family: 'DejaVu Serif'">1</tspan>
        <tspan x="6.362305" y="-0.173438" style="font-size: 10px; font-family: 'DejaVu Serif'">0</tspan>
        <tspan x="12.815391" y="-3.804688" style="font-size: 7px; font-family: 'DejaVu Serif'">−</tspan>
        <tspan x="18.680625" y="-3.804688" style="font-size: 7px; font-family: 'DejaVu Serif'">1</tspan>
        <tspan x="23.134238" y="-3.804688" style="font-size: 7px; font-family: 'DejaVu Serif'">3</tspan>
       </text>
      </g>
     </g>
    </g>
    <g id="ytick_3">
     <g id="line2d_15">
      <path d="M 56.2 194.524612 
L 500.518786 194.524612 
" clip-path="url(#p02dadaa12c)" style="fill: none; stroke: #b0b0b0; stroke-opacity: 0.25; stroke-width: 0.8; stroke-linecap: square"/>
     </g>
     <g id="line2d_16">
      <g>
       <use xlink:href="#m16222a3949" x="56.2" y="194.524612" style="stroke: #000000; stroke-width: 0.8"/>
      </g>
     </g>
     <g id="text_9">
      <!-- $\mathdefault{10^{-11}}$ -->
      <g transform="translate(21.3 198.32383)">
       <text>
        <tspan x="0" y="-0.173438" style="font-size: 10px; font-family: 'DejaVu Serif'">1</tspan>
        <tspan x="6.362305" y="-0.173438" style="font-size: 10px; font-family: 'DejaVu Serif'">0</tspan>
        <tspan x="12.815391" y="-3.804688" style="font-size: 7px; font-family: 'DejaVu Serif'">−</tspan>
        <tspan x="18.680625" y="-3.804688" style="font-size: 7px; font-family: 'DejaVu Serif'">1</tspan>
        <tspan x="23.134238" y="-3.804688" style="font-size: 7px; font-family: 'DejaVu Serif'">1</tspan>
       </text>
      </g>
     </g>
    </g>
    <g id="ytick_4">
     <g id="line2d_17">
      <path d="M 56.2 154.897107 
L 500.518786 154.897107 
" clip-path="url(#p02dadaa12c)" style="fill: none; stroke: #b0b0b0; stroke-opacity: 0.25; stroke-width: 0.8; stroke-linecap: square"/>
     </g>
     <g id="line2d_18">
      <g>
       <use xlink:href="#m16222a3949" x="56.2" y="154.897107" style="stroke: #000000; stroke-width: 0.8"/>
      </g>
     </g>
     <g id="text_10">
      <!-- $\mathdefault{10^{-9}}$ -->
      <g transform="translate(25.8 158.696326)">
       <text>
        <tspan x="0" y="-0.173438" style="font-size: 10px; font-family: 'DejaVu Serif'">1</tspan>
        <tspan x="6.362305" y="-0.173438" style="font-size: 10px; font-family: 'DejaVu Serif'">0</tspan>
        <tspan x="12.815391" y="-3.804688" style="font-size: 7px; font-family: 'DejaVu Serif'">−</tspan>
        <tspan x="18.680625" y="-3.804688" style="font-size: 7px; font-family: 'DejaVu Serif'">9</tspan>
       </text>
      </g>
     </g>
    </g>
    <g id="ytick_5">
     <g id="line2d_19">
      <path d="M 56.2 115.269603 
L 500.518786 115.269603 
" clip-path="url(#p02dadaa12c)" style="fill: none; stroke: #b0b0b0; stroke-opacity: 0.25; stroke-width: 0.8; stroke-linecap: square"/>
     </g>
     <g id="line2d_20">
      <g>
       <use xlink:href="#m16222a3949" x="56.2" y="115.269603" style="stroke: #000000; stroke-width: 0.8"/>
      </g>
     </g>
     <g id="text_11">
      <!-- $\mathdefault{10^{-7}}$ -->
      <g transform="translate(25.8 119.068822)">
       <text>
        <tspan x="0" y="-0.260938" style="font-size: 10px; font-family: 'DejaVu Serif'">1</tspan>
        <tspan x="6.362305" y="-0.260938" style="font-size: 10px; font-family: 'DejaVu Serif'">0</tspan>
        <tspan x="12.815391" y="-3.892188" style="font-size: 7px; font-family: 'DejaVu Serif'">−</tspan>
        <tspan x="18.680625" y="-3.892188" style="font-size: 7px; font-family: 'DejaVu Serif'">7</tspan>
       </text>
      </g>
     </g>
    </g>
    <g id="ytick_6">
     <g id="line2d_21">
      <path d="M 56.2 75.642099 
L 500.518786 75.642099 
" clip-path="url(#p02dadaa12c)" style="fill: none; stroke: #b0b0b0; stroke-opacity: 0.25; stroke-width: 0.8; stroke-linecap: square"/>
     </g>
     <g id="line2d_22">
      <g>
       <use xlink:href="#m16222a3949" x="56.2" y="75.642099" style="stroke: #000000; stroke-width: 0.8"/>
      </g>
     </g>
     <g id="text_12">
      <!-- $\mathdefault{10^{-5}}$ -->
      <g transform="translate(25.8 79.441318)">
       <text>
        <tspan x="0" y="-0.260938" style="font-size: 10px; font-family: 'DejaVu Serif'">1</tspan>
        <tspan x="6.362305" y="-0.260938" style="font-size: 10px; font-family: 'DejaVu Serif'">0</tspan>
        <tspan x="12.815391" y="-3.892188" style="font-size: 7px; font-family: 'DejaVu Serif'">−</tspan>
        <tspan x="18.680625" y="-3.892188" style="font-size: 7px; font-family: 'DejaVu Serif'">5</tspan>
       </text>
      </g>
     </g>
    </g>
    <g id="ytick_7">
     <g id="line2d_23">
      <path d="M 56.2 36.014595 
L 500.518786 36.014595 
" clip-path="url(#p02dadaa12c)" style="fill: none; stroke: #b0b0b0; stroke-opacity: 0.25; stroke-width: 0.8; stroke-linecap: square"/>
     </g>
     <g id="line2d_24">
      <g>
       <use xlink:href="#m16222a3949" x="56.2" y="36.014595" style="stroke: #000000; stroke-width: 0.8"/>
      </g>
     </g>
     <g id="text_13">
      <!-- $\mathdefault{10^{-3}}$ -->
      <g transform="translate(25.8 39.813814)">
       <text>
        <tspan x="0" y="-0.173438" style="font-size: 10px; font-family: 'DejaVu Serif'">1</tspan>
        <tspan x="6.362305" y="-0.173438" style="font-size: 10px; font-family: 'DejaVu Serif'">0</tspan>
        <tspan x="12.815391" y="-3.804688" style="font-size: 7px; font-family: 'DejaVu Serif'">−</tspan>
        <tspan x="18.680625" y="-3.804688" style="font-size: 7px; font-family: 'DejaVu Serif'">3</tspan>
       </text>
      </g>
     </g>
    </g>
    <g id="text_14">
     <!-- Primal Residual $\|D \mathbf{x}-\mathbf{y}\|$ -->
     <g transform="translate(14.9 216.87) rotate(-90)">
      <text>
       <tspan x="0" y="-0.359375" style="font-size: 10px; font-family: 'DejaVu Serif'">P</tspan>
       <tspan x="6.728516" y="-0.359375" style="font-size: 10px; font-family: 'DejaVu Serif'">r</tspan>
       <tspan x="11.508789" y="-0.359375" style="font-size: 10px; font-family: 'DejaVu Serif'">i</tspan>
       <tspan x="14.707031" y="-0.359375" style="font-size: 10px; font-family: 'DejaVu Serif'">m</tspan>
       <tspan x="24.189453" y="-0.359375" style="font-size: 10px; font-family: 'DejaVu Serif'">a</tspan>
       <tspan x="30.151367" y="-0.359375" style="font-size: 10px; font-family: 'DejaVu Serif'">l</tspan>
       <tspan x="33.349609" y="-0.359375" style="font-size: 10px; font-family: 'DejaVu Serif'"> </tspan>
       <tspan x="36.52832" y="-0.359375" style="font-size: 10px; font-family: 'DejaVu Serif'">R</tspan>
       <tspan x="44.057617" y="-0.359375" style="font-size: 10px; font-family: 'DejaVu Serif'">e</tspan>
       <tspan x="49.975586" y="-0.359375" style="font-size: 10px; font-family: 'DejaVu Serif'">s</tspan>
       <tspan x="55.107422" y="-0.359375" style="font-size: 10px; font-family: 'DejaVu Serif'">i</tspan>
       <tspan x="58.305664" y="-0.359375" style="font-size: 10px; font-family: 'DejaVu Serif'">d</tspan>
       <tspan x="64.707031" y="-0.359375" style="font-size: 10px; font-family: 'DejaVu Serif'">u</tspan>
       <tspan x="71.147461" y="-0.359375" style="font-size: 10px; font-family: 'DejaVu Serif'">a</tspan>
       <tspan x="77.109375" y="-0.359375" style="font-size: 10px; font-family: 'DejaVu Serif'">l</tspan>
       <tspan x="80.307617" y="-0.359375" style="font-size: 10px; font-family: 'DejaVu Serif'"> </tspan>
       <tspan x="83.486328" y="-0.359375" style="font-size: 10px; font-family: 'DejaVu Sans'">‖</tspan>
       <tspan x="104.584961" y="-0.359375" style="font-size: 10px; font-family: 'DejaVu Sans'">−</tspan>
       <tspan x="121.430664" y="-0.359375" style="font-size: 10px; font-family: 'DejaVu Sans'">‖</tspan>
       <tspan x="88.486328" y="-0.359375" style="font-style: oblique; font-size: 10px; font-family: 'DejaVu Sans'">D</tspan>
       <tspan x="96.186523" y="-0.359375" style="font-weight: 700; font-size: 10px; font-family: 'DejaVu Sans'">x</tspan>
       <tspan x="114.912109" y="-0.359375" style="font-weight: 700; font-size: 10px; font-family: 'DejaVu Sans'">y</tspan>
      </text>
     </g>
    </g>
   </g>
   <g id="line2d_25">
    <path d="M 76.396308 286.729091 
L 78.426088 27.463695 
L 80.455868 21.499162 
L 82.485648 20.752814 
L 84.515427 22.386624 
L 86.545207 24.19133 
L 88.574987 25.490357 
L 90.604767 27.079105 
L 92.634546 29.627813 
L 94.664326 33.265144 
L 96.694106 34.645077 
L 98.723886 36.270459 
L 102.783445 38.87672 
L 104.813225 39.412063 
L 106.843005 38.560641 
L 108.872784 38.544664 
L 112.932344 43.01381 
L 114.962124 42.303919 
L 116.991903 42.121799 
L 119.021683 43.973704 
L 121.051463 46.336655 
L 123.081243 47.638522 
L 125.111022 47.619561 
L 127.140802 48.863645 
L 129.170582 52.739145 
L 131.200362 55.185899 
L 133.230141 55.154266 
L 135.259921 56.266065 
L 137.289701 59.356166 
L 139.319481 61.750384 
L 141.34926 62.844624 
L 143.37904 63.086213 
L 145.40882 62.411825 
L 147.4386 62.770552 
L 149.468379 65.221939 
L 151.498159 67.327242 
L 153.527939 65.925714 
L 155.557719 65.762505 
L 157.587498 68.056945 
L 159.617278 71.080957 
L 161.647058 70.154433 
L 163.676838 69.727811 
L 165.706617 71.915409 
L 167.736397 74.36808 
L 171.795957 72.995831 
L 173.825736 73.763318 
L 181.944855 78.088754 
L 183.974635 79.048267 
L 188.034195 76.329846 
L 190.063974 39.847823 
L 192.093754 32.507706 
L 194.123534 33.721468 
L 196.153313 39.973255 
L 198.183093 42.655381 
L 200.212873 43.022877 
L 202.242653 45.256763 
L 204.272432 49.16106 
L 206.302212 50.967249 
L 208.331992 52.298083 
L 210.361772 54.07636 
L 212.391551 56.58404 
L 214.421331 59.490978 
L 216.451111 63.273404 
L 218.480891 64.321243 
L 220.51067 63.925016 
L 222.54045 65.519438 
L 224.57023 68.408396 
L 226.60001 69.551708 
L 228.629789 68.384819 
L 230.659569 68.413571 
L 232.689349 70.557349 
L 234.719129 72.518941 
L 236.748908 71.442354 
L 238.778688 71.919453 
L 240.808468 75.74488 
L 242.838248 76.27843 
L 244.868027 73.339463 
L 246.897807 74.003716 
L 248.927587 77.333608 
L 250.957367 78.691337 
L 252.987146 77.308597 
L 255.016926 78.017196 
L 257.046706 79.973572 
L 259.076486 80.562742 
L 261.106265 79.924455 
L 263.136045 80.889759 
L 265.165825 82.879908 
L 267.195605 81.888079 
L 271.255164 79.48565 
L 273.284944 78.671825 
L 275.314724 79.007995 
L 277.344503 46.490885 
L 279.374283 35.11694 
L 281.404063 33.51301 
L 287.493402 47.725275 
L 289.523182 50.396802 
L 291.552962 51.734052 
L 293.582741 53.586416 
L 295.612521 55.859018 
L 297.642301 58.434831 
L 299.672081 61.469026 
L 301.70186 61.443243 
L 303.73164 62.262229 
L 305.76142 65.480916 
L 307.7912 68.312751 
L 309.820979 68.492691 
L 311.850759 68.98206 
L 315.910319 70.938681 
L 317.940098 71.748959 
L 319.969878 71.576756 
L 321.999658 71.027611 
L 324.029438 72.725134 
L 326.059217 74.91072 
L 330.118777 73.120794 
L 332.148556 73.557403 
L 334.178336 75.799825 
L 336.208116 76.589735 
L 338.237896 75.881154 
L 340.267675 76.150178 
L 342.297455 77.44556 
L 344.327235 78.22627 
L 346.357015 78.178811 
L 348.386794 78.537821 
L 350.416574 79.484049 
L 352.446354 79.990218 
L 354.476134 80.227724 
L 358.535693 81.341465 
L 362.595253 82.717474 
L 366.654812 83.051933 
L 370.714372 84.659135 
L 372.744151 85.027767 
L 374.773931 85.522142 
L 376.803711 86.283644 
L 378.833491 86.83684 
L 382.89305 87.426503 
L 384.92283 87.628312 
L 386.95261 88.149553 
L 388.982389 88.935997 
L 395.071729 90.723893 
L 397.101508 91.521046 
L 401.161068 92.174573 
L 405.220627 93.143098 
L 409.280187 93.793697 
L 413.339746 95.156596 
L 427.548205 98.455625 
L 435.667324 100.667773 
L 439.726883 101.668039 
L 443.786443 102.151596 
L 445.816222 102.795667 
L 447.846002 103.739012 
L 449.875782 104.146411 
L 451.905562 104.341044 
L 453.935341 104.927076 
L 455.965121 105.678854 
L 464.08424 107.304822 
L 472.203359 109.197012 
L 476.262918 110.509604 
L 480.322478 111.147516 
L 480.322478 111.147516 
" clip-path="url(#p02dadaa12c)" style="fill: none; stroke: #1f77b4; stroke-width: 1.9; stroke-linecap: square"/>
   </g>
   <g id="line2d_26">
    <path d="M 76.396308 286.729091 
L 78.426088 30.490663 
L 80.455868 24.52613 
L 82.485648 21.037101 
L 84.515427 20.510909 
L 86.545207 21.723571 
L 88.574987 23.135608 
L 90.604767 24.706172 
L 92.634546 26.534685 
L 96.694106 26.450335 
L 98.723886 29.507257 
L 100.753665 35.027157 
L 102.783445 36.528059 
L 104.813225 35.897095 
L 106.843005 37.850477 
L 108.872784 42.747953 
L 110.902564 44.354119 
L 112.932344 41.365136 
L 114.962124 41.884348 
L 116.991903 45.191999 
L 119.021683 49.055728 
L 121.051463 51.006352 
L 123.081243 51.971981 
L 125.111022 49.256451 
L 127.140802 47.589923 
L 129.170582 46.623117 
L 131.200362 45.455321 
L 133.230141 44.153395 
L 135.259921 43.587348 
L 137.289701 43.340023 
L 139.319481 42.518064 
L 141.34926 41.467152 
L 143.37904 43.465858 
L 145.40882 48.637334 
L 147.4386 55.422361 
L 149.468379 56.893594 
L 151.498159 56.71949 
L 153.527939 54.456034 
L 155.557719 53.006518 
L 157.587498 53.417344 
L 159.617278 52.262128 
L 161.647058 48.333784 
L 163.676838 40.905487 
L 165.706617 34.175568 
L 167.736397 33.700972 
L 171.795957 39.590962 
L 175.855516 46.864481 
L 179.915076 51.455214 
L 181.944855 53.38805 
L 183.974635 53.543431 
L 186.004415 52.2254 
L 188.034195 51.328797 
L 190.063974 50.598286 
L 192.093754 48.63576 
L 194.123534 46.943942 
L 196.153313 46.253 
L 200.212873 45.355786 
L 202.242653 45.000654 
L 204.272432 46.264832 
L 206.302212 48.054566 
L 208.331992 47.275249 
L 210.361772 46.168302 
L 212.391551 43.70698 
L 214.421331 42.54402 
L 216.451111 43.74045 
L 218.480891 44.234655 
L 220.51067 43.839236 
L 222.54045 42.129875 
L 224.57023 40.173778 
L 226.60001 37.990957 
L 228.629789 36.135038 
L 230.659569 32.562237 
L 232.689349 30.746262 
L 234.719129 32.176339 
L 236.748908 33.959966 
L 238.778688 36.52598 
L 240.808468 39.921383 
L 242.838248 40.280667 
L 244.868027 40.163519 
L 246.897807 38.240334 
L 248.927587 37.116217 
L 250.957367 38.024464 
L 252.987146 38.469173 
L 255.016926 37.790226 
L 257.046706 37.744439 
L 259.076486 38.442667 
L 261.106265 38.670177 
L 265.165825 38.515747 
L 267.195605 38.540657 
L 269.225384 41.182756 
L 273.284944 53.382722 
L 275.314724 58.55928 
L 277.344503 60.827034 
L 279.374283 61.30067 
L 283.433843 63.032336 
L 285.463622 61.505832 
L 287.493402 60.264514 
L 291.552962 60.270335 
L 293.582741 59.551284 
L 295.612521 57.822264 
L 297.642301 57.912173 
L 299.672081 59.470045 
L 301.70186 60.361317 
L 303.73164 58.083701 
L 305.76142 56.660901 
L 307.7912 57.170155 
L 309.820979 57.802655 
L 311.850759 61.455875 
L 313.880539 67.932661 
L 315.910319 72.513135 
L 317.940098 76.427344 
L 319.969878 77.293713 
L 321.999658 77.374982 
L 328.088997 78.431111 
L 332.148556 79.233173 
L 334.178336 81.421023 
L 336.208116 85.116893 
L 340.267675 83.289454 
L 342.297455 82.783811 
L 344.327235 82.105438 
L 346.357015 79.618371 
L 348.386794 78.066413 
L 350.416574 79.077429 
L 352.446354 79.638737 
L 354.476134 78.777402 
L 356.505913 77.751948 
L 358.535693 75.853216 
L 360.565473 74.731606 
L 364.625032 74.457464 
L 366.654812 74.111745 
L 368.684592 74.395688 
L 370.714372 75.510494 
L 372.744151 75.341309 
L 374.773931 73.979823 
L 376.803711 73.105769 
L 378.833491 72.530163 
L 380.86327 73.218355 
L 382.89305 74.903353 
L 384.92283 76.806626 
L 386.95261 74.587261 
L 388.982389 72.839313 
L 391.012169 71.659502 
L 393.041949 70.890952 
L 395.071729 72.128659 
L 397.101508 73.140347 
L 401.161068 72.603311 
L 403.190848 73.12087 
L 405.220627 74.073832 
L 407.250407 73.745313 
L 409.280187 73.027017 
L 411.309967 74.873117 
L 415.369526 81.624144 
L 417.399306 85.831869 
L 419.429086 91.457195 
L 421.458865 94.99111 
L 423.488645 98.926056 
L 425.518425 101.914765 
L 427.548205 103.104007 
L 429.577984 102.442594 
L 431.607764 102.645858 
L 433.637544 103.173625 
L 435.667324 103.018197 
L 437.697103 102.699828 
L 441.756663 101.504583 
L 443.786443 101.375835 
L 445.816222 101.117487 
L 447.846002 100.36726 
L 449.875782 100.016407 
L 455.965121 101.067941 
L 457.994901 101.27319 
L 460.02468 100.327574 
L 462.05446 99.680481 
L 466.11402 99.552489 
L 470.173579 98.052506 
L 472.203359 101.781776 
L 474.233139 109.105969 
L 476.262918 113.983951 
L 478.292698 120.590497 
L 480.322478 121.934186 
L 480.322478 121.934186 
" clip-path="url(#p02dadaa12c)" style="fill: none; stroke-dasharray: 7.03,3.04; stroke-dashoffset: 0; stroke: #ff7f0e; stroke-width: 1.9"/>
   </g>
   <g id="patch_3">
    <path d="M 56.2 300.04 
L 56.2 7.2 
" style="fill: none; stroke: #000000; stroke-width: 0.8; stroke-linejoin: miter; stroke-linecap: square"/>
   </g>
   <g id="patch_4">
    <path d="M 500.518786 300.04 
L 500.518786 7.2 
" style="fill: none; stroke: #000000; stroke-width: 0.8; stroke-linejoin: miter; stroke-linecap: square"/>
   </g>
   <g id="patch_5">
    <path d="M 56.2 300.04 
L 500.518786 300.04 
" style="fill: none; stroke: #000000; stroke-width: 0.8; stroke-linejoin: miter; stroke-linecap: square"/>
   </g>
   <g id="patch_6">
    <path d="M 56.2 7.2 
L 500.518786 7.2 
" style="fill: none; stroke: #000000; stroke-width: 0.8; stroke-linejoin: miter; stroke-linecap: square"/>
   </g>
   <g id="legend_1">
    <g id="patch_7">
     <path d="M 308.11449 24.208594 
L 495.268786 24.208594 
Q 496.768786 24.208594 496.768786 22.708594 
L 496.768786 12.45 
Q 496.768786 10.95 495.268786 10.95 
L 308.11449 10.95 
Q 306.61449 10.95 306.61449 12.45 
L 306.61449 22.708594 
Q 306.61449 24.208594 308.11449 24.208594 
z
" style="fill: #ffffff; opacity: 0.8; stroke: #cccccc; stroke-linejoin: miter"/>
    </g>
    <g id="line2d_27">
     <path d="M 309.61449 17.023828 
L 317.11449 17.023828 
L 324.61449 17.023828 
" style="fill: none; stroke: #1f77b4; stroke-width: 1.9; stroke-linecap: square"/>
    </g>
    <g id="text_15">
     <text style="font-size: 7.5px; font-family: 'DejaVu Serif', serif; text-anchor: start" x="330.61449" y="19.648828" transform="rotate(-0 330.61449 19.648828)">SPIDER-ADMM</text>
    </g>
    <g id="line2d_28">
     <path d="M 405.218396 17.023828 
L 412.718396 17.023828 
L 420.218396 17.023828 
" style="fill: none; stroke-dasharray: 7.03,3.04; stroke-dashoffset: 0; stroke: #ff7f0e; stroke-width: 1.9"/>
    </g>
    <g id="text_16">
     <text style="font-size: 7.5px; font-family: 'DejaVu Serif', serif; text-anchor: start" x="426.218396" y="19.648828" transform="rotate(-0 426.218396 19.648828)">AIL-SVRG-ADMM</text>
    </g>
   </g>
  </g>
 </g>
 <defs>
  <clipPath id="p02dadaa12c">
   <rect x="56.2" y="7.2" width="444.318786" height="292.84"/>
  </clipPath>
 </defs>
</svg>
