<?xml version="1.0" encoding="utf-8" standalone="no"?>
<!DOCTYPE svg PUBLIC "-//W3C//DTD SVG 1.1//EN"
  "http://www.w3.org/Graphics/SVG/1.1/DTD/svg11.dtd">
<svg xmlns:xlink="http://www.w3.org/1999/xlink" width="511.01375pt" height="337.343327pt" viewBox="0 0 511.01375 337.343327" xmlns="http://www.w3.org/2000/svg" version="1.1">
 <metadata>
  <rdf:RDF xmlns:dc="http://purl.org/dc/elements/1.1/" xmlns:cc="http://creativecommons.org/ns#" xmlns:rdf="http://www.w3.org/1999/02/22-rdf-syntax-ns#">
   <cc:Work>
    <dc:type rdf:resource="http://purl.org/dc/dcmitype/StillImage"/>
    <dc:date>2026-07-14T18:25:34.114982</dc:date>
    <dc:format>image/svg+xml</dc:format>
    <dc:creator>
     <cc:Agent>
      <dc:title>Matplotlib v3.10.5, https://matplotlib.org/</dc:title>
     </cc:Agent>
    </dc:creator>
   </cc:Work>
  </rdf:RDF>
 </metadata>
 <defs>
  <style type="text/css">*{stroke-linejoin: round; stroke-linecap: butt}</style>
 </defs>
 <g id="figure_1">
  <g id="patch_1">
   <path d="M 0 337.343327 
L 511.01375 337.343327 
L 511.01375 0 
L 0 0 
z
" style="fill: #ffffff"/>
  </g>
  <g id="axes_1">
   <g id="patch_2">
    <path d="M 50.14375 299.787077 
L 503.81375 299.787077 
L 503.81375 9.876751 
L 50.14375 9.876751 
z
" style="fill: #ffffff"/>
   </g>
   <g id="matplotlib.axis_1">
    <g id="xtick_1">
     <g id="line2d_1">
      <path d="M 70.765114 299.787077 
L 70.765114 9.876751 
" clip-path="url(#pee70c43af1)" style="fill: none; stroke: #b0b0b0; stroke-opacity: 0.25; stroke-width: 0.8; stroke-linecap: square"/>
     </g>
     <g id="line2d_2">
      <defs>
       <path id="m6f68644313" d="M 0 0 
L 0 3.5 
" style="stroke: #000000; stroke-width: 0.8"/>
      </defs>
      <g>
       <use xlink:href="#m6f68644313" x="70.765114" y="299.787077" style="stroke: #000000; stroke-width: 0.8"/>
      </g>
     </g>
     <g id="text_1">
      <text style="font-size: 10px; font-family: 'DejaVu Serif', serif; text-anchor: middle" x="70.765114" y="314.385514" transform="rotate(-0 70.765114 314.385514)">0.0</text>
     </g>
    </g>
    <g id="xtick_2">
     <g id="line2d_3">
      <path d="M 159.370431 299.787077 
L 159.370431 9.876751 
" clip-path="url(#pee70c43af1)" style="fill: none; stroke: #b0b0b0; stroke-opacity: 0.25; stroke-width: 0.8; stroke-linecap: square"/>
     </g>
     <g id="line2d_4">
      <g>
       <use xlink:href="#m6f68644313" x="159.370431" y="299.787077" style="stroke: #000000; stroke-width: 0.8"/>
      </g>
     </g>
     <g id="text_2">
      <text style="font-size: 10px; font-family: 'DejaVu Serif', serif; text-anchor: middle" x="159.370431" y="314.385514" transform="rotate(-0 159.370431 314.385514)">0.2</text>
     </g>
    </g>
    <g id="xtick_3">
     <g id="line2d_5">
      <path d="M 247.975748 299.787077 
L 247.975748 9.876751 
" clip-path="url(#pee70c43af1)" style="fill: none; stroke: #b0b0b0; stroke-opacity: 0.25; stroke-width: 0.8; stroke-linecap: square"/>
     </g>
     <g id="line2d_6">
      <g>
       <use xlink:href="#m6f68644313" x="247.975748" y="299.787077" style="stroke: #000000; stroke-width: 0.8"/>
      </g>
     </g>
     <g id="text_3">
      <text style="font-size: 10px; font-family: 'DejaVu Serif', serif; text-anchor: middle" x="247.975748" y="314.385514" transform="rotate(-0 247.975748 314.385514)">0.4</text>
     </g>
    </g>
    <g id="xtick_4">
     <g id="line2d_7">
      <path d="M 336.581066 299.787077 
L 336.581066 9.876751 
" clip-path="url(#pee70c43af1)" style="fill: none; stroke: #b0b0b0; stroke-opacity: 0.25; stroke-width: 0.8; stroke-linecap: square"/>
     </g>
     <g id="line2d_8">
      <g>
       <use xlink:href="#m6f68644313" x="336.581066" y="299.787077" style="stroke: #000000; stroke-width: 0.8"/>
      </g>
     </g>
     <g id="text_4">
      <text style="font-size: 10px; font-family: 'DejaVu Serif', serif; text-anchor: middle" x="336.581066" y="314.385514" transform="rotate(-0 336.581066 314.385514)">0.6</text>
     </g>
    </g>
    <g id="xtick_5">
     <g id="line2d_9">
      <path d="M 425.186383 299.787077 
L 425.186383 9.876751 
" clip-path="url(#pee70c43af1)" style="fill: none; stroke: #b0b0b0; stroke-opacity: 0.25; stroke-width: 0.8; stroke-linecap: square"/>
     </g>
     <g id="line2d_10">
      <g>
       <use xlink:href="#m6f68644313" x="425.186383" y="299.787077" style="stroke: #000000; stroke-width: 0.8"/>
      </g>
     </g>
     <g id="text_5">
      <text style="font-size: 10px; font-family: 'DejaVu Serif', serif; text-anchor: middle" x="425.186383" y="314.385514" transform="rotate(-0 425.186383 314.385514)">0.8</text>
     </g>
    </g>
    <g id="text_6">
     <text style="font-size: 10px; font-family: 'DejaVu Serif', serif; text-anchor: middle" x="276.97875" y="328.063639" transform="rotate(-0 276.97875 328.063639)">Time (s)</text>
    </g>
   </g>
   <g id="matplotlib.axis_2">
    <g id="ytick_1">
     <g id="line2d_11">
      <path d="M 50.14375 292.466424 
L 503.81375 292.466424 
" clip-path="url(#pee70c43af1)" style="fill: none; stroke: #b0b0b0; stroke-opacity: 0.25; stroke-width: 0.8; stroke-linecap: square"/>
     </g>
     <g id="line2d_12">
      <defs>
       <path id="m9d8cc48266" d="M 0 0 
L -3.5 0 
" style="stroke: #000000; stroke-width: 0.8"/>
      </defs>
      <g>
       <use xlink:href="#m9d8cc48266" x="50.14375" y="292.466424" style="stroke: #000000; stroke-width: 0.8"/>
      </g>
     </g>
     <g id="text_7">
      <text style="font-size: 10px; font-family: 'DejaVu Serif', serif; text-anchor: end" x="43.14375" y="296.265642" transform="rotate(-0 43.14375 296.265642)">0.54</text>
     </g>
    </g>
    <g id="ytick_2">
     <g id="line2d_13">
      <path d="M 50.14375 257.283023 
L 503.81375 257.283023 
" clip-path="url(#pee70c43af1)" style="fill: none; stroke: #b0b0b0; stroke-opacity: 0.25; stroke-width: 0.8; stroke-linecap: square"/>
     </g>
     <g id="line2d_14">
      <g>
       <use xlink:href="#m9d8cc48266" x="50.14375" y="257.283023" style="stroke: #000000; stroke-width: 0.8"/>
      </g>
     </g>
     <g id="text_8">
      <text style="font-size: 10px; font-family: 'DejaVu Serif', serif; text-anchor: end" x="43.14375" y="261.082242" transform="rotate(-0 43.14375 261.082242)">0.56</text>
     </g>
    </g>
    <g id="ytick_3">
     <g id="line2d_15">
      <path d="M 50.14375 222.099622 
L 503.81375 222.099622 
" clip-path="url(#pee70c43af1)" style="fill: none; stroke: #b0b0b0; stroke-opacity: 0.25; stroke-width: 0.8; stroke-linecap: square"/>
     </g>
     <g id="line2d_16">
      <g>
       <use xlink:href="#m9d8cc48266" x="50.14375" y="222.099622" style="stroke: #000000; stroke-width: 0.8"/>
      </g>
     </g>
     <g id="text_9">
      <text style="font-size: 10px; font-family: 'DejaVu Serif', serif; text-anchor: end" x="43.14375" y="225.898841" transform="rotate(-0 43.14375 225.898841)">0.58</text>
     </g>
    </g>
    <g id="ytick_4">
     <g id="line2d_17">
      <path d="M 50.14375 186.916222 
L 503.81375 186.916222 
" clip-path="url(#pee70c43af1)" style="fill: none; stroke: #b0b0b0; stroke-opacity: 0.25; stroke-width: 0.8; stroke-linecap: square"/>
     </g>
     <g id="line2d_18">
      <g>
       <use xlink:href="#m9d8cc48266" x="50.14375" y="186.916222" style="stroke: #000000; stroke-width: 0.8"/>
      </g>
     </g>
     <g id="text_10">
      <text style="font-size: 10px; font-family: 'DejaVu Serif', serif; text-anchor: end" x="43.14375" y="190.71544" transform="rotate(-0 43.14375 190.71544)">0.60</text>
     </g>
    </g>
    <g id="ytick_5">
     <g id="line2d_19">
      <path d="M 50.14375 151.732821 
L 503.81375 151.732821 
" clip-path="url(#pee70c43af1)" style="fill: none; stroke: #b0b0b0; stroke-opacity: 0.25; stroke-width: 0.8; stroke-linecap: square"/>
     </g>
     <g id="line2d_20">
      <g>
       <use xlink:href="#m9d8cc48266" x="50.14375" y="151.732821" style="stroke: #000000; stroke-width: 0.8"/>
      </g>
     </g>
     <g id="text_11">
      <text style="font-size: 10px; font-family: 'DejaVu Serif', serif; text-anchor: end" x="43.14375" y="155.53204" transform="rotate(-0 43.14375 155.53204)">0.62</text>
     </g>
    </g>
    <g id="ytick_6">
     <g id="line2d_21">
      <path d="M 50.14375 116.549421 
L 503.81375 116.549421 
" clip-path="url(#pee70c43af1)" style="fill: none; stroke: #b0b0b0; stroke-opacity: 0.25; stroke-width: 0.8; stroke-linecap: square"/>
     </g>
     <g id="line2d_22">
      <g>
       <use xlink:href="#m9d8cc48266" x="50.14375" y="116.549421" style="stroke: #000000; stroke-width: 0.8"/>
      </g>
     </g>
     <g id="text_12">
      <text style="font-size: 10px; font-family: 'DejaVu Serif', serif; text-anchor: end" x="43.14375" y="120.348639" transform="rotate(-0 43.14375 120.348639)">0.64</text>
     </g>
    </g>
    <g id="ytick_7">
     <g id="line2d_23">
      <path d="M 50.14375 81.36602 
L 503.81375 81.36602 
" clip-path="url(#pee70c43af1)" style="fill: none; stroke: #b0b0b0; stroke-opacity: 0.25; stroke-width: 0.8; stroke-linecap: square"/>
     </g>
     <g id="line2d_24">
      <g>
       <use xlink:href="#m9d8cc48266" x="50.14375" y="81.36602" style="stroke: #000000; stroke-width: 0.8"/>
      </g>
     </g>
     <g id="text_13">
      <text style="font-size: 10px; font-family: 'DejaVu Serif', serif; text-anchor: end" x="43.14375" y="85.165239" transform="rotate(-0 43.14375 85.165239)">0.66</text>
     </g>
    </g>
    <g id="ytick_8">
     <g id="line2d_25">
      <path d="M 50.14375 46.182619 
L 503.81375 46.182619 
" clip-path="url(#pee70c43af1)" style="fill: none; stroke: #b0b0b0; stroke-opacity: 0.25; stroke-width: 0.8; stroke-linecap: square"/>
     </g>
     <g id="line2d_26">
      <g>
       <use xlink:href="#m9d8cc48266" x="50.14375" y="46.182619" style="stroke: #000000; stroke-width: 0.8"/>
      </g>
     </g>
     <g id="text_14">
      <text style="font-size: 10px; font-family: 'DejaVu Serif', serif; text-anchor: end" x="43.14375" y="49.981838" transform="rotate(-0 43.14375 49.981838)">0.68</text>
     </g>
    </g>
    <g id="ytick_9">
     <g id="line2d_27">
      <path d="M 50.14375 10.999219 
L 503.81375 10.999219 
" clip-path="url(#pee70c43af1)" style="fill: none; stroke: #b0b0b0; stroke-opacity: 0.25; stroke-width: 0.8; stroke-linecap: square"/>
     </g>
     <g id="line2d_28">
      <g>
       <use xlink:href="#m9d8cc48266" x="50.14375" y="10.999219" style="stroke: #000000; stroke-width: 0.8"/>
      </g>
     </g>
     <g id="text_15">
      <text style="font-size: 10px; font-family: 'DejaVu Serif', serif; text-anchor: end" x="43.14375" y="14.798438" transform="rotate(-0 43.14375 14.798438)">0.70</text>
     </g>
    </g>
    <g id="text_16">
     <text style="font-size: 10px; font-family: 'DejaVu Serif', serif; text-anchor: middle" x="14.65625" y="154.831914" transform="rotate(-90 14.65625 154.831914)">Test Logistic Loss</text>
    </g>
   </g>
   <g id="line2d_29">
    <path d="M 70.765114 23.054493 
L 74.910111 112.091901 
L 76.98261 144.318843 
L 79.055109 168.162792 
L 81.127608 190.264115 
L 85.272606 220.720263 
L 89.417603 242.690523 
L 93.562601 256.164242 
L 95.6351 260.835859 
L 97.707599 264.95875 
L 99.780098 268.663852 
L 101.852597 271.735546 
L 103.925095 274.537368 
L 108.070093 278.653553 
L 110.142592 280.131869 
L 112.215091 281.461493 
L 118.432587 283.68623 
L 122.577585 284.885973 
L 124.650084 285.361205 
L 128.795082 285.970569 
L 132.940079 286.335701 
L 137.085077 286.489304 
L 143.302574 286.472895 
L 149.52007 286.234238 
L 157.810066 285.722133 
L 172.317558 284.455933 
L 186.82505 283.018047 
L 188.897549 282.902903 
L 203.405041 282.877131 
L 211.695036 282.534449 
L 228.275027 281.471815 
L 236.565022 280.786978 
L 267.652505 277.817297 
L 278.014999 276.740263 
L 280.087498 276.672732 
L 288.377494 276.982855 
L 300.812487 277.233897 
L 321.537475 277.436569 
L 365.059951 277.561805 
L 483.192386 277.602925 
L 483.192386 277.602925 
" clip-path="url(#pee70c43af1)" style="fill: none; stroke: #1f77b4; stroke-width: 1.9; stroke-linecap: square"/>
   </g>
   <g id="line2d_30">
    <path d="M 70.765114 23.054493 
L 76.98261 134.654189 
L 79.055109 163.078398 
L 83.200107 206.757715 
L 87.345104 241.86911 
L 91.490102 259.742467 
L 93.562601 265.213837 
L 95.6351 270.309905 
L 97.707599 273.821194 
L 99.780098 276.852346 
L 101.852597 279.102085 
L 103.925095 280.944341 
L 105.997594 282.435227 
L 108.070093 283.622817 
L 110.142592 284.467735 
L 114.28759 285.607968 
L 118.432587 286.283532 
L 122.577585 286.581372 
L 126.722583 286.583076 
L 132.940079 286.236708 
L 141.230075 285.496318 
L 151.592569 284.283655 
L 159.882565 283.139907 
L 164.027562 283.052552 
L 170.245059 283.045629 
L 176.462555 282.779648 
L 182.680052 282.305313 
L 197.187544 280.870246 
L 217.912533 278.188924 
L 228.275027 276.823412 
L 230.347526 276.673715 
L 234.492523 276.928864 
L 261.435009 277.421163 
L 290.449993 277.551295 
L 379.567443 277.602125 
L 483.192386 277.604314 
L 483.192386 277.604314 
" clip-path="url(#pee70c43af1)" style="fill: none; stroke-dasharray: 7.03,3.04; stroke-dashoffset: 0; stroke: #ff7f0e; stroke-width: 1.9"/>
   </g>
   <g id="patch_3">
    <path d="M 50.14375 299.787077 
L 50.14375 9.876751 
" style="fill: none; stroke: #000000; stroke-width: 0.8; stroke-linejoin: miter; stroke-linecap: square"/>
   </g>
   <g id="patch_4">
    <path d="M 503.81375 299.787077 
L 503.81375 9.876751 
" style="fill: none; stroke: #000000; stroke-width: 0.8; stroke-linejoin: miter; stroke-linecap: square"/>
   </g>
   <g id="patch_5">
    <path d="M 50.14375 299.787077 
L 503.81375 299.787077 
" style="fill: none; stroke: #000000; stroke-width: 0.8; stroke-linejoin: miter; stroke-linecap: square"/>
   </g>
   <g id="patch_6">
    <path d="M 50.14375 9.876751 
L 503.81375 9.876751 
" style="fill: none; stroke: #000000; stroke-width: 0.8; stroke-linejoin: miter; stroke-linecap: square"/>
   </g>
   <g id="legend_1">
    <g id="patch_7">
     <path d="M 311.409453 26.885345 
L 498.56375 26.885345 
Q 500.06375 26.885345 500.06375 25.385345 
L 500.06375 15.126751 
Q 500.06375 13.626751 498.56375 13.626751 
L 311.409453 13.626751 
Q 309.909453 13.626751 309.909453 15.126751 
L 309.909453 25.385345 
Q 309.909453 26.885345 311.409453 26.885345 
z
" style="fill: #ffffff; opacity: 0.8; stroke: #cccccc; stroke-linejoin: miter"/>
    </g>
    <g id="line2d_31">
     <path d="M 312.909453 19.700579 
L 320.409453 19.700579 
L 327.909453 19.700579 
" style="fill: none; stroke: #1f77b4; stroke-width: 1.9; stroke-linecap: square"/>
    </g>
    <g id="text_17">
     <text style="font-size: 7.5px; font-family: 'DejaVu Serif', serif; text-anchor: start" x="333.909453" y="22.325579" transform="rotate(-0 333.909453 22.325579)">SPIDER-ADMM</text>
    </g>
    <g id="line2d_32">
     <path d="M 408.513359 19.700579 
L 416.013359 19.700579 
L 423.513359 19.700579 
" style="fill: none; stroke-dasharray: 7.03,3.04; stroke-dashoffset: 0; stroke: #ff7f0e; stroke-width: 1.9"/>
    </g>
    <g id="text_18">
     <text style="font-size: 7.5px; font-family: 'DejaVu Serif', serif; text-anchor: start" x="429.513359" y="22.325579" transform="rotate(-0 429.513359 22.325579)">AIL-SVRG-ADMM</text>
    </g>
   </g>
  </g>
 </g>
 <defs>
  <clipPath id="pee70c43af1">
   <rect x="50.14375" y="9.876751" width="453.67" height="289.910326"/>
  </clipPath>
 </defs>
</svg>
