<?xml version="1.0" encoding="utf-8" standalone="no"?>
<!DOCTYPE svg PUBLIC "-//W3C//DTD SVG 1.1//EN"
  "http://www.w3.org/Graphics/SVG/1.1/DTD/svg11.dtd">
<svg xmlns:xlink="http://www.w3.org/1999/xlink" width="508.167661pt" height="337.59625pt" viewBox="0 0 508.167661 337.59625" xmlns="http://www.w3.org/2000/svg" version="1.1">
 <metadata>
  <rdf:RDF xmlns:dc="http://purl.org/dc/elements/1.1/" xmlns:cc="http://creativecommons.org/ns#" xmlns:rdf="http://www.w3.org/1999/02/22-rdf-syntax-ns#">
   <cc:Work>
    <dc:type rdf:resource="http://purl.org/dc/dcmitype/StillImage"/>
    <dc:date>2026-07-14T18:25:33.505411</dc:date>
    <dc:format>image/svg+xml</dc:format>
    <dc:creator>
     <cc:Agent>
      <dc:title>Matplotlib v3.10.5, https://matplotlib.org/</dc:title>
     </cc:Agent>
    </dc:creator>
   </cc:Work>
  </rdf:RDF>
 </metadata>
 <defs>
  <style type="text/css">*{stroke-linejoin: round; stroke-linecap: butt}</style>
 </defs>
 <g id="figure_1">
  <g id="patch_1">
   <path d="M 0 337.59625 
L 508.167661 337.59625 
L 508.167661 0 
L 0 0 
z
" style="fill: #ffffff"/>
  </g>
  <g id="axes_1">
   <g id="patch_2">
    <path d="M 55.778125 300.04 
L 500.967661 300.04 
L 500.967661 7.2 
L 55.778125 7.2 
z
" style="fill: #ffffff"/>
   </g>
   <g id="matplotlib.axis_1">
    <g id="xtick_1">
     <g id="line2d_1">
      <path d="M 76.014013 300.04 
L 76.014013 7.2 
" clip-path="url(#p9ab87bb610)" style="fill: none; stroke: #b0b0b0; stroke-opacity: 0.25; stroke-width: 0.8; stroke-linecap: square"/>
     </g>
     <g id="line2d_2">
      <defs>
       <path id="m4f71005b40" d="M 0 0 
L 0 3.5 
" style="stroke: #000000; stroke-width: 0.8"/>
      </defs>
      <g>
       <use xlink:href="#m4f71005b40" x="76.014013" y="300.04" style="stroke: #000000; stroke-width: 0.8"/>
      </g>
     </g>
     <g id="text_1">
      <text style="font-size: 10px; font-family: 'DejaVu Serif', serif; text-anchor: middle" x="76.014013" y="314.638437" transform="rotate(-0 76.014013 314.638437)">0.0</text>
     </g>
    </g>
    <g id="xtick_2">
     <g id="line2d_3">
      <path d="M 162.963029 300.04 
L 162.963029 7.2 
" clip-path="url(#p9ab87bb610)" style="fill: none; stroke: #b0b0b0; stroke-opacity: 0.25; stroke-width: 0.8; stroke-linecap: square"/>
     </g>
     <g id="line2d_4">
      <g>
       <use xlink:href="#m4f71005b40" x="162.963029" y="300.04" style="stroke: #000000; stroke-width: 0.8"/>
      </g>
     </g>
     <g id="text_2">
      <text style="font-size: 10px; font-family: 'DejaVu Serif', serif; text-anchor: middle" x="162.963029" y="314.638437" transform="rotate(-0 162.963029 314.638437)">0.2</text>
     </g>
    </g>
    <g id="xtick_3">
     <g id="line2d_5">
      <path d="M 249.912045 300.04 
L 249.912045 7.2 
" clip-path="url(#p9ab87bb610)" style="fill: none; stroke: #b0b0b0; stroke-opacity: 0.25; stroke-width: 0.8; stroke-linecap: square"/>
     </g>
     <g id="line2d_6">
      <g>
       <use xlink:href="#m4f71005b40" x="249.912045" y="300.04" style="stroke: #000000; stroke-width: 0.8"/>
      </g>
     </g>
     <g id="text_3">
      <text style="font-size: 10px; font-family: 'DejaVu Serif', serif; text-anchor: middle" x="249.912045" y="314.638437" transform="rotate(-0 249.912045 314.638437)">0.4</text>
     </g>
    </g>
    <g id="xtick_4">
     <g id="line2d_7">
      <path d="M 336.861062 300.04 
L 336.861062 7.2 
" clip-path="url(#p9ab87bb610)" style="fill: none; stroke: #b0b0b0; stroke-opacity: 0.25; stroke-width: 0.8; stroke-linecap: square"/>
     </g>
     <g id="line2d_8">
      <g>
       <use xlink:href="#m4f71005b40" x="336.861062" y="300.04" style="stroke: #000000; stroke-width: 0.8"/>
      </g>
     </g>
     <g id="text_4">
      <text style="font-size: 10px; font-family: 'DejaVu Serif', serif; text-anchor: middle" x="336.861062" y="314.638437" transform="rotate(-0 336.861062 314.638437)">0.6</text>
     </g>
    </g>
    <g id="xtick_5">
     <g id="line2d_9">
      <path d="M 423.810078 300.04 
L 423.810078 7.2 
" clip-path="url(#p9ab87bb610)" style="fill: none; stroke: #b0b0b0; stroke-opacity: 0.25; stroke-width: 0.8; stroke-linecap: square"/>
     </g>
     <g id="line2d_10">
      <g>
       <use xlink:href="#m4f71005b40" x="423.810078" y="300.04" style="stroke: #000000; stroke-width: 0.8"/>
      </g>
     </g>
     <g id="text_5">
      <text style="font-size: 10px; font-family: 'DejaVu Serif', serif; text-anchor: middle" x="423.810078" y="314.638437" transform="rotate(-0 423.810078 314.638437)">0.8</text>
     </g>
    </g>
    <g id="text_6">
     <text style="font-size: 10px; font-family: 'DejaVu Serif', serif; text-anchor: middle" x="278.372893" y="328.316562" transform="rotate(-0 278.372893 328.316562)">Time (s)</text>
    </g>
   </g>
   <g id="matplotlib.axis_2">
    <g id="ytick_1">
     <g id="line2d_11">
      <path d="M 55.778125 275.767068 
L 500.967661 275.767068 
" clip-path="url(#p9ab87bb610)" style="fill: none; stroke: #b0b0b0; stroke-opacity: 0.25; stroke-width: 0.8; stroke-linecap: square"/>
     </g>
     <g id="line2d_12">
      <defs>
       <path id="m2795e2bea0" d="M 0 0 
L -3.5 0 
" style="stroke: #000000; stroke-width: 0.8"/>
      </defs>
      <g>
       <use xlink:href="#m2795e2bea0" x="55.778125" y="275.767068" style="stroke: #000000; stroke-width: 0.8"/>
      </g>
     </g>
     <g id="text_7">
      <!-- $\mathdefault{10^{-11}}$ -->
      <g transform="translate(20.878125 279.566287)">
       <text>
        <tspan x="0" y="-0.173438" style="font-size: 10px; font-family: 'DejaVu Serif'">1</tspan>
        <tspan x="6.362305" y="-0.173438" style="font-size: 10px; font-family: 'DejaVu Serif'">0</tspan>
        <tspan x="12.815391" y="-3.804688" style="font-size: 7px; font-family: 'DejaVu Serif'">−</tspan>
        <tspan x="18.680625" y="-3.804688" style="font-size: 7px; font-family: 'DejaVu Serif'">1</tspan>
        <tspan x="23.134238" y="-3.804688" style="font-size: 7px; font-family: 'DejaVu Serif'">1</tspan>
       </text>
      </g>
     </g>
    </g>
    <g id="ytick_2">
     <g id="line2d_13">
      <path d="M 55.778125 227.863231 
L 500.967661 227.863231 
" clip-path="url(#p9ab87bb610)" style="fill: none; stroke: #b0b0b0; stroke-opacity: 0.25; stroke-width: 0.8; stroke-linecap: square"/>
     </g>
     <g id="line2d_14">
      <g>
       <use xlink:href="#m2795e2bea0" x="55.778125" y="227.863231" style="stroke: #000000; stroke-width: 0.8"/>
      </g>
     </g>
     <g id="text_8">
      <!-- $\mathdefault{10^{-9}}$ -->
      <g transform="translate(25.378125 231.662449)">
       <text>
        <tspan x="0" y="-0.173438" style="font-size: 10px; font-family: 'DejaVu Serif'">1</tspan>
        <tspan x="6.362305" y="-0.173438" style="font-size: 10px; font-family: 'DejaVu Serif'">0</tspan>
        <tspan x="12.815391" y="-3.804688" style="font-size: 7px; font-family: 'DejaVu Serif'">−</tspan>
        <tspan x="18.680625" y="-3.804688" style="font-size: 7px; font-family: 'DejaVu Serif'">9</tspan>
       </text>
      </g>
     </g>
    </g>
    <g id="ytick_3">
     <g id="line2d_15">
      <path d="M 55.778125 179.959393 
L 500.967661 179.959393 
" clip-path="url(#p9ab87bb610)" style="fill: none; stroke: #b0b0b0; stroke-opacity: 0.25; stroke-width: 0.8; stroke-linecap: square"/>
     </g>
     <g id="line2d_16">
      <g>
       <use xlink:href="#m2795e2bea0" x="55.778125" y="179.959393" style="stroke: #000000; stroke-width: 0.8"/>
      </g>
     </g>
     <g id="text_9">
      <!-- $\mathdefault{10^{-7}}$ -->
      <g transform="translate(25.378125 183.758612)">
       <text>
        <tspan x="0" y="-0.260938" style="font-size: 10px; font-family: 'DejaVu Serif'">1</tspan>
        <tspan x="6.362305" y="-0.260938" style="font-size: 10px; font-family: 'DejaVu Serif'">0</tspan>
        <tspan x="12.815391" y="-3.892188" style="font-size: 7px; font-family: 'DejaVu Serif'">−</tspan>
        <tspan x="18.680625" y="-3.892188" style="font-size: 7px; font-family: 'DejaVu Serif'">7</tspan>
       </text>
      </g>
     </g>
    </g>
    <g id="ytick_4">
     <g id="line2d_17">
      <path d="M 55.778125 132.055556 
L 500.967661 132.055556 
" clip-path="url(#p9ab87bb610)" style="fill: none; stroke: #b0b0b0; stroke-opacity: 0.25; stroke-width: 0.8; stroke-linecap: square"/>
     </g>
     <g id="line2d_18">
      <g>
       <use xlink:href="#m2795e2bea0" x="55.778125" y="132.055556" style="stroke: #000000; stroke-width: 0.8"/>
      </g>
     </g>
     <g id="text_10">
      <!-- $\mathdefault{10^{-5}}$ -->
      <g transform="translate(25.378125 135.854775)">
       <text>
        <tspan x="0" y="-0.260938" style="font-size: 10px; font-family: 'DejaVu Serif'">1</tspan>
        <tspan x="6.362305" y="-0.260938" style="font-size: 10px; font-family: 'DejaVu Serif'">0</tspan>
        <tspan x="12.815391" y="-3.892188" style="font-size: 7px; font-family: 'DejaVu Serif'">−</tspan>
        <tspan x="18.680625" y="-3.892188" style="font-size: 7px; font-family: 'DejaVu Serif'">5</tspan>
       </text>
      </g>
     </g>
    </g>
    <g id="ytick_5">
     <g id="line2d_19">
      <path d="M 55.778125 84.151718 
L 500.967661 84.151718 
" clip-path="url(#p9ab87bb610)" style="fill: none; stroke: #b0b0b0; stroke-opacity: 0.25; stroke-width: 0.8; stroke-linecap: square"/>
     </g>
     <g id="line2d_20">
      <g>
       <use xlink:href="#m2795e2bea0" x="55.778125" y="84.151718" style="stroke: #000000; stroke-width: 0.8"/>
      </g>
     </g>
     <g id="text_11">
      <!-- $\mathdefault{10^{-3}}$ -->
      <g transform="translate(25.378125 87.950937)">
       <text>
        <tspan x="0" y="-0.173438" style="font-size: 10px; font-family: 'DejaVu Serif'">1</tspan>
        <tspan x="6.362305" y="-0.173438" style="font-size: 10px; font-family: 'DejaVu Serif'">0</tspan>
        <tspan x="12.815391" y="-3.804688" style="font-size: 7px; font-family: 'DejaVu Serif'">−</tspan>
        <tspan x="18.680625" y="-3.804688" style="font-size: 7px; font-family: 'DejaVu Serif'">3</tspan>
       </text>
      </g>
     </g>
    </g>
    <g id="ytick_6">
     <g id="line2d_21">
      <path d="M 55.778125 36.247881 
L 500.967661 36.247881 
" clip-path="url(#p9ab87bb610)" style="fill: none; stroke: #b0b0b0; stroke-opacity: 0.25; stroke-width: 0.8; stroke-linecap: square"/>
     </g>
     <g id="line2d_22">
      <g>
       <use xlink:href="#m2795e2bea0" x="55.778125" y="36.247881" style="stroke: #000000; stroke-width: 0.8"/>
      </g>
     </g>
     <g id="text_12">
      <!-- $\mathdefault{10^{-1}}$ -->
      <g transform="translate(25.378125 40.0471)">
       <text>
        <tspan x="0" y="-0.173438" style="font-size: 10px; font-family: 'DejaVu Serif'">1</tspan>
        <tspan x="6.362305" y="-0.173438" style="font-size: 10px; font-family: 'DejaVu Serif'">0</tspan>
        <tspan x="12.815391" y="-3.804688" style="font-size: 7px; font-family: 'DejaVu Serif'">−</tspan>
        <tspan x="18.680625" y="-3.804688" style="font-size: 7px; font-family: 'DejaVu Serif'">1</tspan>
       </text>
      </g>
     </g>
    </g>
    <g id="text_13">
     <!-- KKT Residual $K_t$ -->
     <g transform="translate(14.798438 194.32) rotate(-90)">
      <text>
       <tspan x="0" y="-0.40625" style="font-size: 10px; font-family: 'DejaVu Serif'">K</tspan>
       <tspan x="7.470703" y="-0.40625" style="font-size: 10px; font-family: 'DejaVu Serif'">K</tspan>
       <tspan x="14.941406" y="-0.40625" style="font-size: 10px; font-family: 'DejaVu Serif'">T</tspan>
       <tspan x="21.611328" y="-0.40625" style="font-size: 10px; font-family: 'DejaVu Serif'"> </tspan>
       <tspan x="24.790039" y="-0.40625" style="font-size: 10px; font-family: 'DejaVu Serif'">R</tspan>
       <tspan x="32.319336" y="-0.40625" style="font-size: 10px; font-family: 'DejaVu Serif'">e</tspan>
       <tspan x="38.237305" y="-0.40625" style="font-size: 10px; font-family: 'DejaVu Serif'">s</tspan>
       <tspan x="43.369141" y="-0.40625" style="font-size: 10px; font-family: 'DejaVu Serif'">i</tspan>
       <tspan x="46.567383" y="-0.40625" style="font-size: 10px; font-family: 'DejaVu Serif'">d</tspan>
       <tspan x="52.96875" y="-0.40625" style="font-size: 10px; font-family: 'DejaVu Serif'">u</tspan>
       <tspan x="59.40918" y="-0.40625" style="font-size: 10px; font-family: 'DejaVu Serif'">a</tspan>
       <tspan x="65.371094" y="-0.40625" style="font-size: 10px; font-family: 'DejaVu Serif'">l</tspan>
       <tspan x="68.569336" y="-0.40625" style="font-size: 10px; font-family: 'DejaVu Serif'"> </tspan>
       <tspan x="71.748047" y="-0.40625" style="font-style: oblique; font-size: 10px; font-family: 'DejaVu Sans'">K</tspan>
       <tspan x="78.305664" y="1.234375" style="font-style: oblique; font-size: 7px; font-family: 'DejaVu Sans'">t</tspan>
      </text>
     </g>
    </g>
   </g>
   <g id="line2d_23">
    <path d="M 76.014013 20.510909 
L 78.047771 24.774965 
L 80.081528 32.125459 
L 82.115286 38.83502 
L 84.149043 41.010608 
L 86.182801 43.515736 
L 88.216559 45.610185 
L 90.250316 48.12051 
L 92.284074 50.262161 
L 94.317831 52.962185 
L 96.351589 54.807763 
L 98.385347 57.044518 
L 108.554134 65.959836 
L 114.655407 70.285491 
L 116.689165 71.552409 
L 128.89171 76.086274 
L 132.959226 77.054106 
L 137.026741 77.792335 
L 141.094256 78.317178 
L 147.195529 78.841664 
L 155.330559 79.292872 
L 171.60062 79.747835 
L 187.87068 80.019056 
L 189.904438 81.38566 
L 191.938196 83.588127 
L 193.971953 85.06692 
L 196.005711 86.154425 
L 200.073226 87.606627 
L 204.140741 88.438368 
L 214.309529 89.679174 
L 220.410802 90.231974 
L 230.57959 90.806924 
L 248.883408 91.542123 
L 275.322257 92.276902 
L 277.356014 93.1637 
L 279.389772 96.026296 
L 283.457287 102.784755 
L 285.491045 105.265346 
L 291.592318 109.823861 
L 303.794863 117.324544 
L 313.963651 123.424394 
L 320.064924 127.265767 
L 322.098681 128.668031 
L 326.166197 131.04206 
L 330.233712 132.84171 
L 332.267469 133.903917 
L 336.334985 136.307315 
L 348.53753 143.239964 
L 358.706318 149.670889 
L 374.976379 159.386603 
L 381.077652 163.18648 
L 387.178924 166.661474 
L 397.347712 172.983679 
L 401.415227 175.48059 
L 405.482743 177.631095 
L 409.550258 179.915043 
L 413.617773 182.266099 
L 419.719046 186.00226 
L 425.820318 189.623786 
L 440.056622 198.193088 
L 446.157894 201.520756 
L 452.259167 205.127096 
L 470.562985 215.652277 
L 474.630501 217.940267 
L 476.664258 219.25666 
L 480.731773 221.657713 
L 480.731773 221.657713 
" clip-path="url(#p9ab87bb610)" style="fill: none; stroke: #1f77b4; stroke-width: 1.9; stroke-linecap: square"/>
   </g>
   <g id="line2d_24">
    <path d="M 76.014013 20.510909 
L 78.047771 23.372844 
L 80.081528 27.334211 
L 82.115286 33.811243 
L 84.149043 39.739928 
L 86.182801 42.040878 
L 90.250316 48.114134 
L 92.284074 52.336316 
L 94.317831 54.774877 
L 96.351589 57.966027 
L 98.385347 60.324795 
L 100.419104 63.088355 
L 104.486619 67.371878 
L 108.554134 70.851206 
L 110.587892 72.337307 
L 112.62165 73.585 
L 114.655407 74.543949 
L 118.722922 75.939517 
L 122.790438 76.907943 
L 126.857953 77.536859 
L 132.959226 78.029803 
L 139.060498 78.250399 
L 147.195529 78.487016 
L 161.431832 78.718172 
L 163.465589 79.823542 
L 165.499347 83.077651 
L 167.533105 85.394684 
L 169.566862 86.407823 
L 171.60062 86.98918 
L 177.701893 88.075776 
L 181.769408 88.594647 
L 187.87068 89.115718 
L 193.971953 89.430428 
L 214.309529 90.115712 
L 224.478317 90.328563 
L 228.545832 89.977205 
L 230.57959 94.266639 
L 232.613347 100.0514 
L 234.647105 101.686238 
L 236.680863 103.583259 
L 238.71462 105.717195 
L 240.748378 108.29666 
L 244.815893 111.388533 
L 250.917166 113.617296 
L 252.950923 114.479845 
L 254.984681 115.491321 
L 257.018439 116.711619 
L 261.085954 119.618293 
L 263.119711 120.910399 
L 265.153469 119.540407 
L 267.187226 117.27757 
L 269.220984 120.011575 
L 271.254742 127.696758 
L 273.288499 134.26842 
L 275.322257 136.290929 
L 279.389772 139.935451 
L 281.42353 141.355285 
L 283.457287 142.948874 
L 287.524802 145.76506 
L 291.592318 147.853269 
L 297.69359 151.482124 
L 301.761105 154.012344 
L 303.794863 154.977333 
L 305.828621 156.070921 
L 307.862378 157.45208 
L 309.896136 159.04792 
L 311.929893 161.01925 
L 313.963651 163.453629 
L 318.031166 167.114312 
L 320.064924 168.671696 
L 322.098681 170.369321 
L 326.166197 173.433617 
L 330.233712 175.229676 
L 332.267469 176.259201 
L 334.301227 177.713662 
L 336.334985 179.503614 
L 338.368742 180.991733 
L 340.4025 182.658107 
L 342.436257 184.037364 
L 344.470015 185.591918 
L 346.503772 186.950118 
L 348.53753 188.456759 
L 356.67256 193.929522 
L 360.740076 196.392801 
L 366.841348 200.101169 
L 368.875106 201.014537 
L 370.908864 201.508937 
L 372.942621 202.366278 
L 374.976379 203.675887 
L 377.010136 204.809145 
L 379.043894 205.773585 
L 381.077652 206.434913 
L 385.145167 207.3401 
L 389.212682 207.510519 
L 391.246439 205.641812 
L 393.280197 204.460403 
L 397.347712 208.103591 
L 401.415227 208.683031 
L 403.448985 210.017965 
L 405.482743 212.13872 
L 407.5165 211.052115 
L 409.550258 209.162286 
L 411.584015 212.521353 
L 415.651531 227.515548 
L 417.685288 232.450379 
L 419.719046 238.511476 
L 423.786561 242.874518 
L 431.921591 249.648303 
L 433.955349 251.38034 
L 442.090379 256.601717 
L 446.157894 260.40168 
L 448.191652 261.348545 
L 450.22541 262.118702 
L 454.292925 262.678832 
L 458.36044 263.67104 
L 462.427955 265.571711 
L 466.49547 266.963158 
L 468.529228 266.835984 
L 470.562985 266.479142 
L 472.596743 270.905841 
L 474.630501 279.367079 
L 476.664258 282.696645 
L 478.698016 285.085641 
L 480.731773 286.729091 
L 480.731773 286.729091 
" clip-path="url(#p9ab87bb610)" style="fill: none; stroke-dasharray: 7.03,3.04; stroke-dashoffset: 0; stroke: #ff7f0e; stroke-width: 1.9"/>
   </g>
   <g id="patch_3">
    <path d="M 55.778125 300.04 
L 55.778125 7.2 
" style="fill: none; stroke: #000000; stroke-width: 0.8; stroke-linejoin: miter; stroke-linecap: square"/>
   </g>
   <g id="patch_4">
    <path d="M 500.967661 300.04 
L 500.967661 7.2 
" style="fill: none; stroke: #000000; stroke-width: 0.8; stroke-linejoin: miter; stroke-linecap: square"/>
   </g>
   <g id="patch_5">
    <path d="M 55.778125 300.04 
L 500.967661 300.04 
" style="fill: none; stroke: #000000; stroke-width: 0.8; stroke-linejoin: miter; stroke-linecap: square"/>
   </g>
   <g id="patch_6">
    <path d="M 55.778125 7.2 
L 500.967661 7.2 
" style="fill: none; stroke: #000000; stroke-width: 0.8; stroke-linejoin: miter; stroke-linecap: square"/>
   </g>
   <g id="legend_1">
    <g id="patch_7">
     <path d="M 308.563365 24.208594 
L 495.717661 24.208594 
Q 497.217661 24.208594 497.217661 22.708594 
L 497.217661 12.45 
Q 497.217661 10.95 495.717661 10.95 
L 308.563365 10.95 
Q 307.063365 10.95 307.063365 12.45 
L 307.063365 22.708594 
Q 307.063365 24.208594 308.563365 24.208594 
z
" style="fill: #ffffff; opacity: 0.8; stroke: #cccccc; stroke-linejoin: miter"/>
    </g>
    <g id="line2d_25">
     <path d="M 310.063365 17.023828 
L 317.563365 17.023828 
L 325.063365 17.023828 
" style="fill: none; stroke: #1f77b4; stroke-width: 1.9; stroke-linecap: square"/>
    </g>
    <g id="text_14">
     <text style="font-size: 7.5px; font-family: 'DejaVu Serif', serif; text-anchor: start" x="331.063365" y="19.648828" transform="rotate(-0 331.063365 19.648828)">SPIDER-ADMM</text>
    </g>
    <g id="line2d_26">
     <path d="M 405.667271 17.023828 
L 413.167271 17.023828 
L 420.667271 17.023828 
" style="fill: none; stroke-dasharray: 7.03,3.04; stroke-dashoffset: 0; stroke: #ff7f0e; stroke-width: 1.9"/>
    </g>
    <g id="text_15">
     <text style="font-size: 7.5px; font-family: 'DejaVu Serif', serif; text-anchor: start" x="426.667271" y="19.648828" transform="rotate(-0 426.667271 19.648828)">AIL-SVRG-ADMM</text>
    </g>
   </g>
  </g>
 </g>
 <defs>
  <clipPath id="p9ab87bb610">
   <rect x="55.778125" y="7.2" width="445.189536" height="292.84"/>
  </clipPath>
 </defs>
</svg>
