<?xml version="1.0" encoding="utf-8" standalone="no"?>
<!DOCTYPE svg PUBLIC "-//W3C//DTD SVG 1.1//EN"
  "http://www.w3.org/Graphics/SVG/1.1/DTD/svg11.dtd">
<svg xmlns:xlink="http://www.w3.org/1999/xlink" width="507.718786pt" height="337.59625pt" viewBox="0 0 507.718786 337.59625" xmlns="http://www.w3.org/2000/svg" version="1.1">
 <metadata>
  <rdf:RDF xmlns:dc="http://purl.org/dc/elements/1.1/" xmlns:cc="http://creativecommons.org/ns#" xmlns:rdf="http://www.w3.org/1999/02/22-rdf-syntax-ns#">
   <cc:Work>
    <dc:type rdf:resource="http://purl.org/dc/dcmitype/StillImage"/>
    <dc:date>2026-07-14T17:00:00.457813</dc:date>
    <dc:format>image/svg+xml</dc:format>
    <dc:creator>
     <cc:Agent>
      <dc:title>Matplotlib v3.10.5, https://matplotlib.org/</dc:title>
     </cc:Agent>
    </dc:creator>
   </cc:Work>
  </rdf:RDF>
 </metadata>
 <defs>
  <style type="text/css">*{stroke-linejoin: round; stroke-linecap: butt}</style>
 </defs>
 <g id="figure_1">
  <g id="patch_1">
   <path d="M 0 337.59625 
L 507.718786 337.59625 
L 507.718786 0 
L 0 0 
z
" style="fill: #ffffff"/>
  </g>
  <g id="axes_1">
   <g id="patch_2">
    <path d="M 56.2 300.04 
L 500.518786 300.04 
L 500.518786 7.2 
L 56.2 7.2 
z
" style="fill: #ffffff"/>
   </g>
   <g id="matplotlib.axis_1">
    <g id="xtick_1">
     <g id="line2d_1">
      <path d="M 76.396308 300.04 
L 76.396308 7.2 
" clip-path="url(#p2029b3a476)" style="fill: none; stroke: #b0b0b0; stroke-opacity: 0.25; stroke-width: 0.8; stroke-linecap: square"/>
     </g>
     <g id="line2d_2">
      <defs>
       <path id="m580dd6714b" d="M 0 0 
L 0 3.5 
" style="stroke: #000000; stroke-width: 0.8"/>
      </defs>
      <g>
       <use xlink:href="#m580dd6714b" x="76.396308" y="300.04" style="stroke: #000000; stroke-width: 0.8"/>
      </g>
     </g>
     <g id="text_1">
      <text style="font-size: 10px; font-family: 'DejaVu Serif', serif; text-anchor: middle" x="76.396308" y="314.638437" transform="rotate(-0 76.396308 314.638437)">0.0</text>
     </g>
    </g>
    <g id="xtick_2">
     <g id="line2d_3">
      <path d="M 167.45217 300.04 
L 167.45217 7.2 
" clip-path="url(#p2029b3a476)" style="fill: none; stroke: #b0b0b0; stroke-opacity: 0.25; stroke-width: 0.8; stroke-linecap: square"/>
     </g>
     <g id="line2d_4">
      <g>
       <use xlink:href="#m580dd6714b" x="167.45217" y="300.04" style="stroke: #000000; stroke-width: 0.8"/>
      </g>
     </g>
     <g id="text_2">
      <text style="font-size: 10px; font-family: 'DejaVu Serif', serif; text-anchor: middle" x="167.45217" y="314.638437" transform="rotate(-0 167.45217 314.638437)">0.2</text>
     </g>
    </g>
    <g id="xtick_3">
     <g id="line2d_5">
      <path d="M 258.508032 300.04 
L 258.508032 7.2 
" clip-path="url(#p2029b3a476)" style="fill: none; stroke: #b0b0b0; stroke-opacity: 0.25; stroke-width: 0.8; stroke-linecap: square"/>
     </g>
     <g id="line2d_6">
      <g>
       <use xlink:href="#m580dd6714b" x="258.508032" y="300.04" style="stroke: #000000; stroke-width: 0.8"/>
      </g>
     </g>
     <g id="text_3">
      <text style="font-size: 10px; font-family: 'DejaVu Serif', serif; text-anchor: middle" x="258.508032" y="314.638437" transform="rotate(-0 258.508032 314.638437)">0.4</text>
     </g>
    </g>
    <g id="xtick_4">
     <g id="line2d_7">
      <path d="M 349.563893 300.04 
L 349.563893 7.2 
" clip-path="url(#p2029b3a476)" style="fill: none; stroke: #b0b0b0; stroke-opacity: 0.25; stroke-width: 0.8; stroke-linecap: square"/>
     </g>
     <g id="line2d_8">
      <g>
       <use xlink:href="#m580dd6714b" x="349.563893" y="300.04" style="stroke: #000000; stroke-width: 0.8"/>
      </g>
     </g>
     <g id="text_4">
      <text style="font-size: 10px; font-family: 'DejaVu Serif', serif; text-anchor: middle" x="349.563893" y="314.638437" transform="rotate(-0 349.563893 314.638437)">0.6</text>
     </g>
    </g>
    <g id="xtick_5">
     <g id="line2d_9">
      <path d="M 440.619755 300.04 
L 440.619755 7.2 
" clip-path="url(#p2029b3a476)" style="fill: none; stroke: #b0b0b0; stroke-opacity: 0.25; stroke-width: 0.8; stroke-linecap: square"/>
     </g>
     <g id="line2d_10">
      <g>
       <use xlink:href="#m580dd6714b" x="440.619755" y="300.04" style="stroke: #000000; stroke-width: 0.8"/>
      </g>
     </g>
     <g id="text_5">
      <text style="font-size: 10px; font-family: 'DejaVu Serif', serif; text-anchor: middle" x="440.619755" y="314.638437" transform="rotate(-0 440.619755 314.638437)">0.8</text>
     </g>
    </g>
    <g id="text_6">
     <text style="font-size: 10px; font-family: 'DejaVu Serif', serif; text-anchor: middle" x="278.359393" y="328.316562" transform="rotate(-0 278.359393 328.316562)">Time (s)</text>
    </g>
   </g>
   <g id="matplotlib.axis_2">
    <g id="ytick_1">
     <g id="line2d_11">
      <path d="M 56.2 273.769877 
L 500.518786 273.769877 
" clip-path="url(#p2029b3a476)" style="fill: none; stroke: #b0b0b0; stroke-opacity: 0.25; stroke-width: 0.8; stroke-linecap: square"/>
     </g>
     <g id="line2d_12">
      <defs>
       <path id="mab392cf0c6" d="M 0 0 
L -3.5 0 
" style="stroke: #000000; stroke-width: 0.8"/>
      </defs>
      <g>
       <use xlink:href="#mab392cf0c6" x="56.2" y="273.769877" style="stroke: #000000; stroke-width: 0.8"/>
      </g>
     </g>
     <g id="text_7">
      <!-- $\mathdefault{10^{-15}}$ -->
      <g transform="translate(21.3 277.569096)">
       <text>
        <tspan x="0" y="-0.173438" style="font-size: 10px; font-family: 'DejaVu Serif'">1</tspan>
        <tspan x="6.362305" y="-0.173438" style="font-size: 10px; font-family: 'DejaVu Serif'">0</tspan>
        <tspan x="12.815391" y="-3.804688" style="font-size: 7px; font-family: 'DejaVu Serif'">−</tspan>
        <tspan x="18.680625" y="-3.804688" style="font-size: 7px; font-family: 'DejaVu Serif'">1</tspan>
        <tspan x="23.134238" y="-3.804688" style="font-size: 7px; font-family: 'DejaVu Serif'">5</tspan>
       </text>
      </g>
     </g>
    </g>
    <g id="ytick_2">
     <g id="line2d_13">
      <path d="M 56.2 234.112558 
L 500.518786 234.112558 
" clip-path="url(#p2029b3a476)" style="fill: none; stroke: #b0b0b0; stroke-opacity: 0.25; stroke-width: 0.8; stroke-linecap: square"/>
     </g>
     <g id="line2d_14">
      <g>
       <use xlink:href="#mab392cf0c6" x="56.2" y="234.112558" style="stroke: #000000; stroke-width: 0.8"/>
      </g>
     </g>
     <g id="text_8">
      <!-- $\mathdefault{10^{-13}}$ -->
      <g transform="translate(21.3 237.911777)">
       <text>
        <tspan x="0" y="-0.173438" style="font-size: 10px; font-family: 'DejaVu Serif'">1</tspan>
        <tspan x="6.362305" y="-0.173438" style="font-size: 10px; font-family: 'DejaVu Serif'">0</tspan>
        <tspan x="12.815391" y="-3.804688" style="font-size: 7px; font-family: 'DejaVu Serif'">−</tspan>
        <tspan x="18.680625" y="-3.804688" style="font-size: 7px; font-family: 'DejaVu Serif'">1</tspan>
        <tspan x="23.134238" y="-3.804688" style="font-size: 7px; font-family: 'DejaVu Serif'">3</tspan>
       </text>
      </g>
     </g>
    </g>
    <g id="ytick_3">
     <g id="line2d_15">
      <path d="M 56.2 194.45524 
L 500.518786 194.45524 
" clip-path="url(#p2029b3a476)" style="fill: none; stroke: #b0b0b0; stroke-opacity: 0.25; stroke-width: 0.8; stroke-linecap: square"/>
     </g>
     <g id="line2d_16">
      <g>
       <use xlink:href="#mab392cf0c6" x="56.2" y="194.45524" style="stroke: #000000; stroke-width: 0.8"/>
      </g>
     </g>
     <g id="text_9">
      <!-- $\mathdefault{10^{-11}}$ -->
      <g transform="translate(21.3 198.254459)">
       <text>
        <tspan x="0" y="-0.173438" style="font-size: 10px; font-family: 'DejaVu Serif'">1</tspan>
        <tspan x="6.362305" y="-0.173438" style="font-size: 10px; font-family: 'DejaVu Serif'">0</tspan>
        <tspan x="12.815391" y="-3.804688" style="font-size: 7px; font-family: 'DejaVu Serif'">−</tspan>
        <tspan x="18.680625" y="-3.804688" style="font-size: 7px; font-family: 'DejaVu Serif'">1</tspan>
        <tspan x="23.134238" y="-3.804688" style="font-size: 7px; font-family: 'DejaVu Serif'">1</tspan>
       </text>
      </g>
     </g>
    </g>
    <g id="ytick_4">
     <g id="line2d_17">
      <path d="M 56.2 154.797921 
L 500.518786 154.797921 
" clip-path="url(#p2029b3a476)" style="fill: none; stroke: #b0b0b0; stroke-opacity: 0.25; stroke-width: 0.8; stroke-linecap: square"/>
     </g>
     <g id="line2d_18">
      <g>
       <use xlink:href="#mab392cf0c6" x="56.2" y="154.797921" style="stroke: #000000; stroke-width: 0.8"/>
      </g>
     </g>
     <g id="text_10">
      <!-- $\mathdefault{10^{-9}}$ -->
      <g transform="translate(25.8 158.59714)">
       <text>
        <tspan x="0" y="-0.173438" style="font-size: 10px; font-family: 'DejaVu Serif'">1</tspan>
        <tspan x="6.362305" y="-0.173438" style="font-size: 10px; font-family: 'DejaVu Serif'">0</tspan>
        <tspan x="12.815391" y="-3.804688" style="font-size: 7px; font-family: 'DejaVu Serif'">−</tspan>
        <tspan x="18.680625" y="-3.804688" style="font-size: 7px; font-family: 'DejaVu Serif'">9</tspan>
       </text>
      </g>
     </g>
    </g>
    <g id="ytick_5">
     <g id="line2d_19">
      <path d="M 56.2 115.140603 
L 500.518786 115.140603 
" clip-path="url(#p2029b3a476)" style="fill: none; stroke: #b0b0b0; stroke-opacity: 0.25; stroke-width: 0.8; stroke-linecap: square"/>
     </g>
     <g id="line2d_20">
      <g>
       <use xlink:href="#mab392cf0c6" x="56.2" y="115.140603" style="stroke: #000000; stroke-width: 0.8"/>
      </g>
     </g>
     <g id="text_11">
      <!-- $\mathdefault{10^{-7}}$ -->
      <g transform="translate(25.8 118.939822)">
       <text>
        <tspan x="0" y="-0.260938" style="font-size: 10px; font-family: 'DejaVu Serif'">1</tspan>
        <tspan x="6.362305" y="-0.260938" style="font-size: 10px; font-family: 'DejaVu Serif'">0</tspan>
        <tspan x="12.815391" y="-3.892188" style="font-size: 7px; font-family: 'DejaVu Serif'">−</tspan>
        <tspan x="18.680625" y="-3.892188" style="font-size: 7px; font-family: 'DejaVu Serif'">7</tspan>
       </text>
      </g>
     </g>
    </g>
    <g id="ytick_6">
     <g id="line2d_21">
      <path d="M 56.2 75.483284 
L 500.518786 75.483284 
" clip-path="url(#p2029b3a476)" style="fill: none; stroke: #b0b0b0; stroke-opacity: 0.25; stroke-width: 0.8; stroke-linecap: square"/>
     </g>
     <g id="line2d_22">
      <g>
       <use xlink:href="#mab392cf0c6" x="56.2" y="75.483284" style="stroke: #000000; stroke-width: 0.8"/>
      </g>
     </g>
     <g id="text_12">
      <!-- $\mathdefault{10^{-5}}$ -->
      <g transform="translate(25.8 79.282503)">
       <text>
        <tspan x="0" y="-0.260938" style="font-size: 10px; font-family: 'DejaVu Serif'">1</tspan>
        <tspan x="6.362305" y="-0.260938" style="font-size: 10px; font-family: 'DejaVu Serif'">0</tspan>
        <tspan x="12.815391" y="-3.892188" style="font-size: 7px; font-family: 'DejaVu Serif'">−</tspan>
        <tspan x="18.680625" y="-3.892188" style="font-size: 7px; font-family: 'DejaVu Serif'">5</tspan>
       </text>
      </g>
     </g>
    </g>
    <g id="ytick_7">
     <g id="line2d_23">
      <path d="M 56.2 35.825966 
L 500.518786 35.825966 
" clip-path="url(#p2029b3a476)" style="fill: none; stroke: #b0b0b0; stroke-opacity: 0.25; stroke-width: 0.8; stroke-linecap: square"/>
     </g>
     <g id="line2d_24">
      <g>
       <use xlink:href="#mab392cf0c6" x="56.2" y="35.825966" style="stroke: #000000; stroke-width: 0.8"/>
      </g>
     </g>
     <g id="text_13">
      <!-- $\mathdefault{10^{-3}}$ -->
      <g transform="translate(25.8 39.625185)">
       <text>
        <tspan x="0" y="-0.173438" style="font-size: 10px; font-family: 'DejaVu Serif'">1</tspan>
        <tspan x="6.362305" y="-0.173438" style="font-size: 10px; font-family: 'DejaVu Serif'">0</tspan>
        <tspan x="12.815391" y="-3.804688" style="font-size: 7px; font-family: 'DejaVu Serif'">−</tspan>
        <tspan x="18.680625" y="-3.804688" style="font-size: 7px; font-family: 'DejaVu Serif'">3</tspan>
       </text>
      </g>
     </g>
    </g>
    <g id="text_14">
     <!-- Primal Residual $\|D \mathbf{x}-\mathbf{y}\|$ -->
     <g transform="translate(14.9 216.87) rotate(-90)">
      <text>
       <tspan x="0" y="-0.359375" style="font-size: 10px; font-family: 'DejaVu Serif'">P</tspan>
       <tspan x="6.728516" y="-0.359375" style="font-size: 10px; font-family: 'DejaVu Serif'">r</tspan>
       <tspan x="11.508789" y="-0.359375" style="font-size: 10px; font-family: 'DejaVu Serif'">i</tspan>
       <tspan x="14.707031" y="-0.359375" style="font-size: 10px; font-family: 'DejaVu Serif'">m</tspan>
       <tspan x="24.189453" y="-0.359375" style="font-size: 10px; font-family: 'DejaVu Serif'">a</tspan>
       <tspan x="30.151367" y="-0.359375" style="font-size: 10px; font-family: 'DejaVu Serif'">l</tspan>
       <tspan x="33.349609" y="-0.359375" style="font-size: 10px; font-family: 'DejaVu Serif'"> </tspan>
       <tspan x="36.52832" y="-0.359375" style="font-size: 10px; font-family: 'DejaVu Serif'">R</tspan>
       <tspan x="44.057617" y="-0.359375" style="font-size: 10px; font-family: 'DejaVu Serif'">e</tspan>
       <tspan x="49.975586" y="-0.359375" style="font-size: 10px; font-family: 'DejaVu Serif'">s</tspan>
       <tspan x="55.107422" y="-0.359375" style="font-size: 10px; font-family: 'DejaVu Serif'">i</tspan>
       <tspan x="58.305664" y="-0.359375" style="font-size: 10px; font-family: 'DejaVu Serif'">d</tspan>
       <tspan x="64.707031" y="-0.359375" style="font-size: 10px; font-family: 'DejaVu Serif'">u</tspan>
       <tspan x="71.147461" y="-0.359375" style="font-size: 10px; font-family: 'DejaVu Serif'">a</tspan>
       <tspan x="77.109375" y="-0.359375" style="font-size: 10px; font-family: 'DejaVu Serif'">l</tspan>
       <tspan x="80.307617" y="-0.359375" style="font-size: 10px; font-family: 'DejaVu Serif'"> </tspan>
       <tspan x="83.486328" y="-0.359375" style="font-size: 10px; font-family: 'DejaVu Sans'">‖</tspan>
       <tspan x="104.584961" y="-0.359375" style="font-size: 10px; font-family: 'DejaVu Sans'">−</tspan>
       <tspan x="121.430664" y="-0.359375" style="font-size: 10px; font-family: 'DejaVu Sans'">‖</tspan>
       <tspan x="88.486328" y="-0.359375" style="font-style: oblique; font-size: 10px; font-family: 'DejaVu Sans'">D</tspan>
       <tspan x="96.186523" y="-0.359375" style="font-weight: 700; font-size: 10px; font-family: 'DejaVu Sans'">x</tspan>
       <tspan x="114.912109" y="-0.359375" style="font-weight: 700; font-size: 10px; font-family: 'DejaVu Sans'">y</tspan>
      </text>
     </g>
    </g>
   </g>
   <g id="line2d_25">
    <path d="M 76.396308 286.729091 
L 78.426088 26.676315 
L 80.455868 20.707294 
L 82.485648 20.528894 
L 84.515427 21.750391 
L 90.604767 26.108855 
L 92.634546 28.41449 
L 94.664326 31.891231 
L 96.694106 34.178204 
L 98.723886 35.907733 
L 102.783445 38.891013 
L 104.813225 39.039415 
L 106.843005 38.178255 
L 108.872784 38.974655 
L 110.902564 41.638782 
L 112.932344 42.517972 
L 114.962124 41.804597 
L 116.991903 43.270139 
L 119.021683 46.462067 
L 121.051463 47.456171 
L 123.081243 47.439005 
L 125.111022 48.560642 
L 127.140802 52.154361 
L 129.170582 55.01411 
L 131.200362 54.980054 
L 133.230141 56.197406 
L 135.259921 59.357693 
L 137.289701 61.683447 
L 139.319481 62.892683 
L 141.34926 62.782391 
L 143.37904 62.129274 
L 145.40882 63.095751 
L 147.4386 66.046616 
L 149.468379 66.784621 
L 151.498159 65.680625 
L 153.527939 65.421423 
L 155.557719 67.605555 
L 157.587498 70.539095 
L 159.617278 70.204643 
L 161.647058 69.442701 
L 163.676838 70.919758 
L 165.706617 73.668172 
L 167.736397 73.565557 
L 169.766177 72.760784 
L 173.825736 74.367727 
L 175.855516 75.406587 
L 177.885296 76.729529 
L 181.944855 78.836668 
L 186.004415 75.970868 
L 188.034195 36.52352 
L 190.063974 31.477974 
L 192.093754 36.556838 
L 194.123534 42.346398 
L 196.153313 42.726003 
L 198.183093 44.303055 
L 200.212873 48.00288 
L 202.242653 50.630111 
L 204.272432 52.072533 
L 206.302212 54.02 
L 208.331992 56.813645 
L 210.361772 59.946291 
L 212.391551 64.403989 
L 214.421331 64.008502 
L 216.451111 64.20191 
L 218.480891 67.414415 
L 220.51067 69.450809 
L 222.54045 68.121468 
L 224.57023 68.800864 
L 226.60001 71.749178 
L 228.629789 72.051449 
L 232.689349 70.784828 
L 234.719129 73.267163 
L 236.748908 78.20122 
L 238.778688 74.41092 
L 240.808468 72.807416 
L 244.868027 79.010962 
L 246.897807 77.507002 
L 248.927587 77.497547 
L 250.957367 79.567298 
L 252.987146 80.439135 
L 255.016926 79.772306 
L 257.046706 80.757164 
L 259.076486 82.77252 
L 261.106265 81.791789 
L 265.165825 79.540107 
L 267.195605 78.550454 
L 269.225384 78.723806 
L 271.255164 79.026957 
L 273.284944 38.665608 
L 275.314724 31.969737 
L 277.344503 34.89516 
L 279.374283 39.650733 
L 281.404063 43.376334 
L 283.433843 47.994851 
L 285.463622 50.138326 
L 287.493402 51.245336 
L 289.523182 52.786288 
L 291.552962 54.798684 
L 293.582741 57.358804 
L 295.612521 60.993274 
L 297.642301 61.279891 
L 299.672081 61.407285 
L 301.70186 64.135911 
L 303.73164 68.081044 
L 307.7912 68.51282 
L 311.850759 70.500799 
L 313.880539 71.293542 
L 315.910319 71.619773 
L 317.940098 71.075029 
L 319.969878 71.730755 
L 321.999658 73.50173 
L 324.029438 74.235476 
L 326.059217 73.010802 
L 328.088997 73.665979 
L 330.118777 76.13736 
L 332.148556 76.216797 
L 334.178336 75.443206 
L 336.208116 76.689527 
L 338.237896 78.086028 
L 342.297455 78.011407 
L 344.327235 78.439862 
L 346.357015 79.280828 
L 348.386794 79.799612 
L 350.416574 80.013696 
L 352.446354 80.415028 
L 356.505913 81.698303 
L 358.535693 82.462241 
L 362.595253 82.769006 
L 364.625032 83.404408 
L 366.654812 84.318606 
L 370.714372 85.098615 
L 374.773931 86.540054 
L 378.833491 87.19249 
L 382.89305 87.558735 
L 386.95261 88.831135 
L 393.041949 90.011947 
L 397.101508 91.374021 
L 401.161068 92.024923 
L 405.220627 93.045838 
L 407.250407 93.40504 
L 409.280187 93.900293 
L 411.309967 94.639286 
L 413.339746 95.241956 
L 417.399306 96.126863 
L 425.518425 97.775789 
L 431.607764 99.391812 
L 437.697103 100.968722 
L 439.726883 101.472514 
L 445.816222 102.441674 
L 447.846002 103.380351 
L 449.875782 103.966114 
L 451.905562 104.156691 
L 453.935341 104.608381 
L 455.965121 105.333346 
L 457.994901 105.848801 
L 464.08424 107.056282 
L 470.173579 108.47785 
L 474.233139 109.631962 
L 476.262918 110.326173 
L 480.322478 111.015414 
L 480.322478 111.015414 
" clip-path="url(#p2029b3a476)" style="fill: none; stroke: #1f77b4; stroke-width: 1.9; stroke-linecap: square"/>
   </g>
   <g id="line2d_26">
    <path d="M 76.396308 286.729091 
L 78.426088 30.28693 
L 80.455868 24.317908 
L 82.485648 20.826255 
L 84.515427 20.510909 
L 86.545207 22.310256 
L 88.574987 24.283037 
L 92.634546 24.10334 
L 94.664326 24.210455 
L 96.694106 25.132023 
L 98.723886 26.409629 
L 100.753665 29.167405 
L 102.783445 33.006645 
L 106.843005 33.396752 
L 108.872784 34.514985 
L 110.902564 38.199132 
L 112.932344 42.708247 
L 114.962124 40.535503 
L 116.991903 39.616901 
L 119.021683 41.958194 
L 121.051463 45.183984 
L 123.081243 47.077486 
L 125.111022 47.682662 
L 127.140802 47.254068 
L 129.170582 45.836268 
L 131.200362 44.779613 
L 133.230141 44.025119 
L 135.259921 42.750401 
L 137.289701 41.208791 
L 139.319481 40.480798 
L 141.34926 40.151913 
L 145.40882 38.456116 
L 147.4386 40.275672 
L 151.498159 50.923573 
L 153.527939 53.890751 
L 155.557719 53.871401 
L 157.587498 52.315335 
L 159.617278 51.517341 
L 161.647058 50.918193 
L 165.706617 51.38652 
L 169.766177 49.879775 
L 171.795957 49.243044 
L 173.825736 48.856446 
L 175.855516 49.257483 
L 177.885296 49.857528 
L 179.915076 53.010578 
L 181.944855 57.733847 
L 183.974635 59.099171 
L 186.004415 60.280484 
L 190.063974 58.942624 
L 194.123534 55.125724 
L 198.183093 55.608618 
L 200.212873 54.065652 
L 202.242653 52.757591 
L 204.272432 38.686506 
L 206.302212 32.937977 
L 208.331992 35.918493 
L 210.361772 40.682043 
L 212.391551 41.11512 
L 214.421331 41.661921 
L 218.480891 43.873557 
L 220.51067 45.088233 
L 222.54045 45.775674 
L 224.57023 45.311571 
L 226.60001 44.322136 
L 228.629789 42.927231 
L 230.659569 42.131842 
L 232.689349 41.716598 
L 234.719129 41.936202 
L 236.748908 42.517685 
L 238.778688 42.21836 
L 240.808468 40.455335 
L 242.838248 40.338725 
L 244.868027 42.870882 
L 246.897807 44.208014 
L 248.927587 43.5937 
L 250.957367 42.580604 
L 252.987146 41.402651 
L 255.016926 41.079172 
L 257.046706 41.171685 
L 259.076486 40.45759 
L 261.106265 39.539638 
L 263.136045 39.943535 
L 269.225384 42.102033 
L 273.284944 40.862146 
L 275.314724 43.601849 
L 277.344503 48.511382 
L 279.374283 52.721871 
L 281.404063 55.844404 
L 283.433843 58.560697 
L 285.463622 59.820664 
L 287.493402 60.814865 
L 289.523182 61.345044 
L 291.552962 59.976939 
L 293.582741 57.683387 
L 295.612521 57.255865 
L 299.672081 58.483448 
L 301.70186 58.202647 
L 303.73164 57.533156 
L 305.76142 45.020531 
L 307.7912 39.221387 
L 309.820979 41.081393 
L 311.850759 44.287676 
L 313.880539 44.940682 
L 315.910319 45.926413 
L 317.940098 48.584654 
L 319.969878 52.144761 
L 321.999658 53.78437 
L 324.029438 55.646672 
L 326.059217 57.086792 
L 328.088997 58.311823 
L 332.148556 58.123295 
L 334.178336 58.5188 
L 336.208116 59.307096 
L 338.237896 60.697185 
L 340.267675 63.496729 
L 342.297455 65.290856 
L 344.327235 64.079178 
L 346.357015 63.403528 
L 348.386794 63.379591 
L 350.416574 62.317612 
L 352.446354 59.63634 
L 354.476134 58.57773 
L 356.505913 59.089504 
L 358.535693 58.990457 
L 366.654812 54.970018 
L 370.714372 54.486522 
L 376.803711 54.72088 
L 378.833491 54.709333 
L 380.86327 54.167995 
L 382.89305 53.362437 
L 384.92283 52.945066 
L 386.95261 52.741274 
L 388.982389 53.350013 
L 391.012169 54.441662 
L 393.041949 53.715289 
L 395.071729 52.613343 
L 397.101508 51.104286 
L 399.131288 49.75923 
L 401.161068 49.436191 
L 403.190848 50.753389 
L 405.220627 52.309094 
L 407.250407 52.44616 
L 409.280187 52.025631 
L 411.309967 52.819618 
L 413.339746 53.941353 
L 417.399306 51.678461 
L 419.429086 54.27213 
L 421.458865 58.001206 
L 423.488645 60.560166 
L 425.518425 64.171417 
L 427.548205 68.992707 
L 429.577984 71.790169 
L 431.607764 74.789221 
L 433.637544 77.028122 
L 435.667324 77.926721 
L 437.697103 76.85941 
L 439.726883 77.095848 
L 441.756663 78.138901 
L 443.786443 77.335192 
L 445.816222 76.015657 
L 447.846002 75.254506 
L 449.875782 74.657908 
L 453.935341 74.453394 
L 457.994901 73.648738 
L 462.05446 71.605759 
L 466.11402 72.051013 
L 468.143799 71.571221 
L 470.173579 71.268915 
L 472.203359 71.483199 
L 474.233139 71.43887 
L 476.262918 70.538355 
L 478.292698 71.07591 
L 480.322478 75.319846 
L 480.322478 75.319846 
" clip-path="url(#p2029b3a476)" style="fill: none; stroke-dasharray: 7.03,3.04; stroke-dashoffset: 0; stroke: #ff7f0e; stroke-width: 1.9"/>
   </g>
   <g id="patch_3">
    <path d="M 56.2 300.04 
L 56.2 7.2 
" style="fill: none; stroke: #000000; stroke-width: 0.8; stroke-linejoin: miter; stroke-linecap: square"/>
   </g>
   <g id="patch_4">
    <path d="M 500.518786 300.04 
L 500.518786 7.2 
" style="fill: none; stroke: #000000; stroke-width: 0.8; stroke-linejoin: miter; stroke-linecap: square"/>
   </g>
   <g id="patch_5">
    <path d="M 56.2 300.04 
L 500.518786 300.04 
" style="fill: none; stroke: #000000; stroke-width: 0.8; stroke-linejoin: miter; stroke-linecap: square"/>
   </g>
   <g id="patch_6">
    <path d="M 56.2 7.2 
L 500.518786 7.2 
" style="fill: none; stroke: #000000; stroke-width: 0.8; stroke-linejoin: miter; stroke-linecap: square"/>
   </g>
   <g id="legend_1">
    <g id="patch_7">
     <path d="M 308.11449 24.208594 
L 495.268786 24.208594 
Q 496.768786 24.208594 496.768786 22.708594 
L 496.768786 12.45 
Q 496.768786 10.95 495.268786 10.95 
L 308.11449 10.95 
Q 306.61449 10.95 306.61449 12.45 
L 306.61449 22.708594 
Q 306.61449 24.208594 308.11449 24.208594 
z
" style="fill: #ffffff; opacity: 0.8; stroke: #cccccc; stroke-linejoin: miter"/>
    </g>
    <g id="line2d_27">
     <path d="M 309.61449 17.023828 
L 317.11449 17.023828 
L 324.61449 17.023828 
" style="fill: none; stroke: #1f77b4; stroke-width: 1.9; stroke-linecap: square"/>
    </g>
    <g id="text_15">
     <text style="font-size: 7.5px; font-family: 'DejaVu Serif', serif; text-anchor: start" x="330.61449" y="19.648828" transform="rotate(-0 330.61449 19.648828)">SPIDER-ADMM</text>
    </g>
    <g id="line2d_28">
     <path d="M 405.218396 17.023828 
L 412.718396 17.023828 
L 420.218396 17.023828 
" style="fill: none; stroke-dasharray: 7.03,3.04; stroke-dashoffset: 0; stroke: #ff7f0e; stroke-width: 1.9"/>
    </g>
    <g id="text_16">
     <text style="font-size: 7.5px; font-family: 'DejaVu Serif', serif; text-anchor: start" x="426.218396" y="19.648828" transform="rotate(-0 426.218396 19.648828)">AIL-SVRG-ADMM</text>
    </g>
   </g>
  </g>
 </g>
 <defs>
  <clipPath id="p2029b3a476">
   <rect x="56.2" y="7.2" width="444.318786" height="292.84"/>
  </clipPath>
 </defs>
</svg>
