<?xml version="1.0" encoding="utf-8" standalone="no"?>
<!DOCTYPE svg PUBLIC "-//W3C//DTD SVG 1.1//EN"
  "http://www.w3.org/Graphics/SVG/1.1/DTD/svg11.dtd">
<svg xmlns:xlink="http://www.w3.org/1999/xlink" width="507.498071pt" height="336.049326pt" viewBox="0 0 507.498071 336.049326" xmlns="http://www.w3.org/2000/svg" version="1.1">
 <metadata>
  <rdf:RDF xmlns:dc="http://purl.org/dc/elements/1.1/" xmlns:cc="http://creativecommons.org/ns#" xmlns:rdf="http://www.w3.org/1999/02/22-rdf-syntax-ns#">
   <cc:Work>
    <dc:type rdf:resource="http://purl.org/dc/dcmitype/StillImage"/>
    <dc:date>2026-07-14T17:00:00.924684</dc:date>
    <dc:format>image/svg+xml</dc:format>
    <dc:creator>
     <cc:Agent>
      <dc:title>Matplotlib v3.10.5, https://matplotlib.org/</dc:title>
     </cc:Agent>
    </dc:creator>
   </cc:Work>
  </rdf:RDF>
 </metadata>
 <defs>
  <style type="text/css">*{stroke-linejoin: round; stroke-linecap: butt}</style>
 </defs>
 <g id="figure_1">
  <g id="patch_1">
   <path d="M 0 336.049326 
L 507.498071 336.049326 
L 507.498071 0 
L 0 0 
z
" style="fill: #ffffff"/>
  </g>
  <g id="axes_1">
   <g id="patch_2">
    <path d="M 51.278125 298.493076 
L 500.298071 298.493076 
L 500.298071 8.585223 
L 51.278125 8.585223 
z
" style="fill: #ffffff"/>
   </g>
   <g id="matplotlib.axis_1">
    <g id="xtick_1">
     <g id="line2d_1">
      <path d="M 71.688123 298.493076 
L 71.688123 8.585223 
" clip-path="url(#p4bf01109b2)" style="fill: none; stroke: #b0b0b0; stroke-opacity: 0.25; stroke-width: 0.8; stroke-linecap: square"/>
     </g>
     <g id="line2d_2">
      <defs>
       <path id="m99d24c7261" d="M 0 0 
L 0 3.5 
" style="stroke: #000000; stroke-width: 0.8"/>
      </defs>
      <g>
       <use xlink:href="#m99d24c7261" x="71.688123" y="298.493076" style="stroke: #000000; stroke-width: 0.8"/>
      </g>
     </g>
     <g id="text_1">
      <text style="font-size: 10px; font-family: 'DejaVu Serif', serif; text-anchor: middle" x="71.688123" y="313.091514" transform="rotate(-0 71.688123 313.091514)">0</text>
     </g>
    </g>
    <g id="xtick_2">
     <g id="line2d_3">
      <path d="M 122.713116 298.493076 
L 122.713116 8.585223 
" clip-path="url(#p4bf01109b2)" style="fill: none; stroke: #b0b0b0; stroke-opacity: 0.25; stroke-width: 0.8; stroke-linecap: square"/>
     </g>
     <g id="line2d_4">
      <g>
       <use xlink:href="#m99d24c7261" x="122.713116" y="298.493076" style="stroke: #000000; stroke-width: 0.8"/>
      </g>
     </g>
     <g id="text_2">
      <text style="font-size: 10px; font-family: 'DejaVu Serif', serif; text-anchor: middle" x="122.713116" y="313.091514" transform="rotate(-0 122.713116 313.091514)">250</text>
     </g>
    </g>
    <g id="xtick_3">
     <g id="line2d_5">
      <path d="M 173.73811 298.493076 
L 173.73811 8.585223 
" clip-path="url(#p4bf01109b2)" style="fill: none; stroke: #b0b0b0; stroke-opacity: 0.25; stroke-width: 0.8; stroke-linecap: square"/>
     </g>
     <g id="line2d_6">
      <g>
       <use xlink:href="#m99d24c7261" x="173.73811" y="298.493076" style="stroke: #000000; stroke-width: 0.8"/>
      </g>
     </g>
     <g id="text_3">
      <text style="font-size: 10px; font-family: 'DejaVu Serif', serif; text-anchor: middle" x="173.73811" y="313.091514" transform="rotate(-0 173.73811 313.091514)">500</text>
     </g>
    </g>
    <g id="xtick_4">
     <g id="line2d_7">
      <path d="M 224.763104 298.493076 
L 224.763104 8.585223 
" clip-path="url(#p4bf01109b2)" style="fill: none; stroke: #b0b0b0; stroke-opacity: 0.25; stroke-width: 0.8; stroke-linecap: square"/>
     </g>
     <g id="line2d_8">
      <g>
       <use xlink:href="#m99d24c7261" x="224.763104" y="298.493076" style="stroke: #000000; stroke-width: 0.8"/>
      </g>
     </g>
     <g id="text_4">
      <text style="font-size: 10px; font-family: 'DejaVu Serif', serif; text-anchor: middle" x="224.763104" y="313.091514" transform="rotate(-0 224.763104 313.091514)">750</text>
     </g>
    </g>
    <g id="xtick_5">
     <g id="line2d_9">
      <path d="M 275.788098 298.493076 
L 275.788098 8.585223 
" clip-path="url(#p4bf01109b2)" style="fill: none; stroke: #b0b0b0; stroke-opacity: 0.25; stroke-width: 0.8; stroke-linecap: square"/>
     </g>
     <g id="line2d_10">
      <g>
       <use xlink:href="#m99d24c7261" x="275.788098" y="298.493076" style="stroke: #000000; stroke-width: 0.8"/>
      </g>
     </g>
     <g id="text_5">
      <text style="font-size: 10px; font-family: 'DejaVu Serif', serif; text-anchor: middle" x="275.788098" y="313.091514" transform="rotate(-0 275.788098 313.091514)">1000</text>
     </g>
    </g>
    <g id="xtick_6">
     <g id="line2d_11">
      <path d="M 326.813092 298.493076 
L 326.813092 8.585223 
" clip-path="url(#p4bf01109b2)" style="fill: none; stroke: #b0b0b0; stroke-opacity: 0.25; stroke-width: 0.8; stroke-linecap: square"/>
     </g>
     <g id="line2d_12">
      <g>
       <use xlink:href="#m99d24c7261" x="326.813092" y="298.493076" style="stroke: #000000; stroke-width: 0.8"/>
      </g>
     </g>
     <g id="text_6">
      <text style="font-size: 10px; font-family: 'DejaVu Serif', serif; text-anchor: middle" x="326.813092" y="313.091514" transform="rotate(-0 326.813092 313.091514)">1250</text>
     </g>
    </g>
    <g id="xtick_7">
     <g id="line2d_13">
      <path d="M 377.838086 298.493076 
L 377.838086 8.585223 
" clip-path="url(#p4bf01109b2)" style="fill: none; stroke: #b0b0b0; stroke-opacity: 0.25; stroke-width: 0.8; stroke-linecap: square"/>
     </g>
     <g id="line2d_14">
      <g>
       <use xlink:href="#m99d24c7261" x="377.838086" y="298.493076" style="stroke: #000000; stroke-width: 0.8"/>
      </g>
     </g>
     <g id="text_7">
      <text style="font-size: 10px; font-family: 'DejaVu Serif', serif; text-anchor: middle" x="377.838086" y="313.091514" transform="rotate(-0 377.838086 313.091514)">1500</text>
     </g>
    </g>
    <g id="xtick_8">
     <g id="line2d_15">
      <path d="M 428.86308 298.493076 
L 428.86308 8.585223 
" clip-path="url(#p4bf01109b2)" style="fill: none; stroke: #b0b0b0; stroke-opacity: 0.25; stroke-width: 0.8; stroke-linecap: square"/>
     </g>
     <g id="line2d_16">
      <g>
       <use xlink:href="#m99d24c7261" x="428.86308" y="298.493076" style="stroke: #000000; stroke-width: 0.8"/>
      </g>
     </g>
     <g id="text_8">
      <text style="font-size: 10px; font-family: 'DejaVu Serif', serif; text-anchor: middle" x="428.86308" y="313.091514" transform="rotate(-0 428.86308 313.091514)">1750</text>
     </g>
    </g>
    <g id="xtick_9">
     <g id="line2d_17">
      <path d="M 479.888074 298.493076 
L 479.888074 8.585223 
" clip-path="url(#p4bf01109b2)" style="fill: none; stroke: #b0b0b0; stroke-opacity: 0.25; stroke-width: 0.8; stroke-linecap: square"/>
     </g>
     <g id="line2d_18">
      <g>
       <use xlink:href="#m99d24c7261" x="479.888074" y="298.493076" style="stroke: #000000; stroke-width: 0.8"/>
      </g>
     </g>
     <g id="text_9">
      <text style="font-size: 10px; font-family: 'DejaVu Serif', serif; text-anchor: middle" x="479.888074" y="313.091514" transform="rotate(-0 479.888074 313.091514)">2000</text>
     </g>
    </g>
    <g id="text_10">
     <text style="font-size: 10px; font-family: 'DejaVu Serif', serif; text-anchor: middle" x="275.788098" y="326.769639" transform="rotate(-0 275.788098 326.769639)">Iterations</text>
    </g>
   </g>
   <g id="matplotlib.axis_2">
    <g id="ytick_1">
     <g id="line2d_19">
      <path d="M 51.278125 262.063225 
L 500.298071 262.063225 
" clip-path="url(#p4bf01109b2)" style="fill: none; stroke: #b0b0b0; stroke-opacity: 0.25; stroke-width: 0.8; stroke-linecap: square"/>
     </g>
     <g id="line2d_20">
      <defs>
       <path id="ma38cf1d925" d="M 0 0 
L -3.5 0 
" style="stroke: #000000; stroke-width: 0.8"/>
      </defs>
      <g>
       <use xlink:href="#ma38cf1d925" x="51.278125" y="262.063225" style="stroke: #000000; stroke-width: 0.8"/>
      </g>
     </g>
     <g id="text_11">
      <!-- $\mathdefault{10^{-8}}$ -->
      <g transform="translate(20.878125 265.862444)">
       <text>
        <tspan x="0" y="-0.173438" style="font-size: 10px; font-family: 'DejaVu Serif'">1</tspan>
        <tspan x="6.362305" y="-0.173438" style="font-size: 10px; font-family: 'DejaVu Serif'">0</tspan>
        <tspan x="12.815391" y="-3.804688" style="font-size: 7px; font-family: 'DejaVu Serif'">−</tspan>
        <tspan x="18.680625" y="-3.804688" style="font-size: 7px; font-family: 'DejaVu Serif'">8</tspan>
       </text>
      </g>
     </g>
    </g>
    <g id="ytick_2">
     <g id="line2d_21">
      <path d="M 51.278125 199.297224 
L 500.298071 199.297224 
" clip-path="url(#p4bf01109b2)" style="fill: none; stroke: #b0b0b0; stroke-opacity: 0.25; stroke-width: 0.8; stroke-linecap: square"/>
     </g>
     <g id="line2d_22">
      <g>
       <use xlink:href="#ma38cf1d925" x="51.278125" y="199.297224" style="stroke: #000000; stroke-width: 0.8"/>
      </g>
     </g>
     <g id="text_12">
      <!-- $\mathdefault{10^{-6}}$ -->
      <g transform="translate(20.878125 203.096442)">
       <text>
        <tspan x="0" y="-0.173438" style="font-size: 10px; font-family: 'DejaVu Serif'">1</tspan>
        <tspan x="6.362305" y="-0.173438" style="font-size: 10px; font-family: 'DejaVu Serif'">0</tspan>
        <tspan x="12.815391" y="-3.804688" style="font-size: 7px; font-family: 'DejaVu Serif'">−</tspan>
        <tspan x="18.680625" y="-3.804688" style="font-size: 7px; font-family: 'DejaVu Serif'">6</tspan>
       </text>
      </g>
     </g>
    </g>
    <g id="ytick_3">
     <g id="line2d_23">
      <path d="M 51.278125 136.531222 
L 500.298071 136.531222 
" clip-path="url(#p4bf01109b2)" style="fill: none; stroke: #b0b0b0; stroke-opacity: 0.25; stroke-width: 0.8; stroke-linecap: square"/>
     </g>
     <g id="line2d_24">
      <g>
       <use xlink:href="#ma38cf1d925" x="51.278125" y="136.531222" style="stroke: #000000; stroke-width: 0.8"/>
      </g>
     </g>
     <g id="text_13">
      <!-- $\mathdefault{10^{-4}}$ -->
      <g transform="translate(20.878125 140.330441)">
       <text>
        <tspan x="0" y="-0.173438" style="font-size: 10px; font-family: 'DejaVu Serif'">1</tspan>
        <tspan x="6.362305" y="-0.173438" style="font-size: 10px; font-family: 'DejaVu Serif'">0</tspan>
        <tspan x="12.815391" y="-3.804688" style="font-size: 7px; font-family: 'DejaVu Serif'">−</tspan>
        <tspan x="18.680625" y="-3.804688" style="font-size: 7px; font-family: 'DejaVu Serif'">4</tspan>
       </text>
      </g>
     </g>
    </g>
    <g id="ytick_4">
     <g id="line2d_25">
      <path d="M 51.278125 73.76522 
L 500.298071 73.76522 
" clip-path="url(#p4bf01109b2)" style="fill: none; stroke: #b0b0b0; stroke-opacity: 0.25; stroke-width: 0.8; stroke-linecap: square"/>
     </g>
     <g id="line2d_26">
      <g>
       <use xlink:href="#ma38cf1d925" x="51.278125" y="73.76522" style="stroke: #000000; stroke-width: 0.8"/>
      </g>
     </g>
     <g id="text_14">
      <!-- $\mathdefault{10^{-2}}$ -->
      <g transform="translate(20.878125 77.564439)">
       <text>
        <tspan x="0" y="-0.173438" style="font-size: 10px; font-family: 'DejaVu Serif'">1</tspan>
        <tspan x="6.362305" y="-0.173438" style="font-size: 10px; font-family: 'DejaVu Serif'">0</tspan>
        <tspan x="12.815391" y="-3.804688" style="font-size: 7px; font-family: 'DejaVu Serif'">−</tspan>
        <tspan x="18.680625" y="-3.804688" style="font-size: 7px; font-family: 'DejaVu Serif'">2</tspan>
       </text>
      </g>
     </g>
    </g>
    <g id="ytick_5">
     <g id="line2d_27">
      <path d="M 51.278125 10.999219 
L 500.298071 10.999219 
" clip-path="url(#p4bf01109b2)" style="fill: none; stroke: #b0b0b0; stroke-opacity: 0.25; stroke-width: 0.8; stroke-linecap: square"/>
     </g>
     <g id="line2d_28">
      <g>
       <use xlink:href="#ma38cf1d925" x="51.278125" y="10.999219" style="stroke: #000000; stroke-width: 0.8"/>
      </g>
     </g>
     <g id="text_15">
      <!-- $\mathdefault{10^{0}}$ -->
      <g transform="translate(26.678125 14.798437)">
       <text>
        <tspan x="0" y="-0.173438" style="font-size: 10px; font-family: 'DejaVu Serif'">1</tspan>
        <tspan x="6.362305" y="-0.173438" style="font-size: 10px; font-family: 'DejaVu Serif'">0</tspan>
        <tspan x="12.815391" y="-3.804688" style="font-size: 7px; font-family: 'DejaVu Serif'">0</tspan>
       </text>
      </g>
     </g>
    </g>
    <g id="text_16">
     <!-- KKT Residual $K_t$ -->
     <g transform="translate(14.798437 194.239149) rotate(-90)">
      <text>
       <tspan x="0" y="-0.40625" style="font-size: 10px; font-family: 'DejaVu Serif'">K</tspan>
       <tspan x="7.470703" y="-0.40625" style="font-size: 10px; font-family: 'DejaVu Serif'">K</tspan>
       <tspan x="14.941406" y="-0.40625" style="font-size: 10px; font-family: 'DejaVu Serif'">T</tspan>
       <tspan x="21.611328" y="-0.40625" style="font-size: 10px; font-family: 'DejaVu Serif'"> </tspan>
       <tspan x="24.790039" y="-0.40625" style="font-size: 10px; font-family: 'DejaVu Serif'">R</tspan>
       <tspan x="32.319336" y="-0.40625" style="font-size: 10px; font-family: 'DejaVu Serif'">e</tspan>
       <tspan x="38.237305" y="-0.40625" style="font-size: 10px; font-family: 'DejaVu Serif'">s</tspan>
       <tspan x="43.369141" y="-0.40625" style="font-size: 10px; font-family: 'DejaVu Serif'">i</tspan>
       <tspan x="46.567383" y="-0.40625" style="font-size: 10px; font-family: 'DejaVu Serif'">d</tspan>
       <tspan x="52.96875" y="-0.40625" style="font-size: 10px; font-family: 'DejaVu Serif'">u</tspan>
       <tspan x="59.40918" y="-0.40625" style="font-size: 10px; font-family: 'DejaVu Serif'">a</tspan>
       <tspan x="65.371094" y="-0.40625" style="font-size: 10px; font-family: 'DejaVu Serif'">l</tspan>
       <tspan x="68.569336" y="-0.40625" style="font-size: 10px; font-family: 'DejaVu Serif'"> </tspan>
       <tspan x="71.748047" y="-0.40625" style="font-style: oblique; font-size: 10px; font-family: 'DejaVu Sans'">K</tspan>
       <tspan x="78.305664" y="1.234375" style="font-style: oblique; font-size: 7px; font-family: 'DejaVu Sans'">t</tspan>
      </text>
     </g>
    </g>
   </g>
   <g id="line2d_29">
    <path d="M 71.688123 21.762852 
L 75.770122 44.322633 
L 79.852122 51.396612 
L 83.934121 57.656423 
L 88.016121 64.298624 
L 92.09812 70.337675 
L 96.18012 75.95 
L 100.262119 80.808881 
L 104.344119 85.028886 
L 108.426118 88.441239 
L 112.508118 91.217008 
L 116.590117 93.367475 
L 120.672117 94.973653 
L 124.754116 96.161852 
L 128.836116 97.021534 
L 132.918115 97.661602 
L 137.000115 98.12946 
L 141.082114 98.485 
L 145.164114 98.751345 
L 149.246113 98.962413 
L 153.328113 99.130328 
L 157.410112 99.267645 
L 161.492112 99.384829 
L 165.574111 99.487917 
L 169.656111 99.578103 
L 173.73811 99.661864 
L 177.82011 99.743232 
L 181.902109 105.444402 
L 185.984109 108.120126 
L 190.066108 109.882746 
L 194.148108 110.846917 
L 198.230107 111.589385 
L 202.312107 112.219034 
L 206.394106 112.752577 
L 210.476106 113.165819 
L 214.558105 113.525506 
L 218.640105 113.823397 
L 222.722104 114.084669 
L 226.804104 114.310505 
L 230.886103 114.513004 
L 234.968103 114.69773 
L 239.050102 114.870925 
L 243.132102 115.029194 
L 247.214101 115.178155 
L 251.296101 115.319577 
L 255.3781 115.454151 
L 259.4601 115.589607 
L 263.5421 115.715827 
L 267.624099 115.837615 
L 271.706099 123.454115 
L 275.788098 131.700715 
L 279.870098 135.336929 
L 283.952097 138.825892 
L 288.034097 141.907117 
L 292.116096 145.08391 
L 296.198096 148.13424 
L 300.280095 151.241942 
L 304.362095 154.317049 
L 308.444094 157.386487 
L 312.526094 160.458996 
L 316.608093 163.516651 
L 320.690093 166.603187 
L 324.772092 169.652327 
L 328.854092 172.718695 
L 332.936091 175.766197 
L 337.018091 178.820268 
L 341.10009 181.878874 
L 345.18209 184.928041 
L 349.264089 187.972966 
L 353.346089 191.01969 
L 357.428088 194.064887 
L 361.510088 197.120242 
L 365.592087 200.166702 
L 369.674087 203.208582 
L 373.756086 206.248372 
L 377.838086 209.284108 
L 381.920085 212.338338 
L 386.002085 215.382132 
L 390.084084 218.422494 
L 394.166084 221.463304 
L 398.248083 224.50246 
L 402.330083 227.553781 
L 406.412082 230.594362 
L 410.494082 233.636409 
L 414.576081 236.678836 
L 418.658081 239.718875 
L 422.74008 242.769014 
L 426.82208 245.805828 
L 430.904079 248.843984 
L 434.986079 251.877808 
L 439.068078 254.91237 
L 443.150078 257.962121 
L 447.232077 261.00167 
L 451.314077 264.037467 
L 455.396076 267.073785 
L 459.478076 270.108091 
L 463.560076 273.159196 
L 467.642075 276.200573 
L 471.724075 279.238796 
L 475.806074 282.278538 
L 479.888074 285.315446 
" clip-path="url(#p4bf01109b2)" style="fill: none; stroke: #1f77b4; stroke-width: 1.9; stroke-linecap: square"/>
   </g>
   <g id="line2d_30">
    <path d="M 71.688123 21.762852 
L 75.770122 42.394739 
L 79.852122 49.042486 
L 83.934121 54.953195 
L 88.016121 61.329606 
L 92.09812 67.215763 
L 96.18012 72.494336 
L 100.262119 77.438283 
L 104.344119 81.704087 
L 108.426118 85.419379 
L 112.508118 88.469726 
L 116.590117 90.876939 
L 120.672117 92.739855 
L 124.754116 94.044221 
L 128.836116 95.064408 
L 132.918115 95.675296 
L 137.000115 96.388587 
L 141.082114 96.773075 
L 145.164114 97.043351 
L 149.246113 97.240956 
L 153.328113 97.392812 
L 157.410112 97.507256 
L 161.492112 97.602272 
L 165.574111 97.682468 
L 169.656111 97.772402 
L 173.73811 97.838848 
L 177.82011 97.90017 
L 181.902109 97.956092 
L 185.984109 98.011633 
L 190.066108 98.058073 
L 194.148108 104.184932 
L 198.230107 107.267682 
L 202.312107 108.782191 
L 206.394106 109.506309 
L 210.476106 110.091144 
L 214.558105 110.560433 
L 218.640105 110.956386 
L 222.722104 111.171169 
L 226.804104 111.441119 
L 230.886103 111.529247 
L 234.968103 111.913287 
L 239.050102 112.066031 
L 243.132102 112.170972 
L 247.214101 112.206595 
L 251.296101 112.319787 
L 255.3781 112.449476 
L 259.4601 112.607393 
L 263.5421 112.367323 
L 267.624099 113.089264 
L 271.706099 113.225784 
L 275.788098 113.33554 
L 279.870098 113.437903 
L 283.952097 113.532945 
L 288.034097 113.638237 
L 292.116096 113.731967 
L 296.198096 124.12258 
L 300.280095 131.988943 
L 304.362095 135.828695 
L 308.444094 138.864708 
L 312.526094 141.648311 
L 316.608093 144.51846 
L 320.690093 147.228716 
L 324.772092 150.047005 
L 328.854092 152.856033 
L 332.936091 155.611278 
L 337.018091 158.356638 
L 341.10009 161.001772 
L 345.18209 163.512158 
L 349.264089 166.294345 
L 353.346089 168.885407 
L 357.428088 171.451207 
L 361.510088 174.046939 
L 365.592087 175.484865 
L 369.674087 177.965092 
L 373.756086 180.507644 
L 377.838086 182.922426 
L 381.920085 184.2227 
L 386.002085 185.378943 
L 390.084084 185.896303 
L 394.166084 188.990749 
L 398.248083 190.882405 
L 402.330083 191.584239 
L 406.412082 199.397781 
L 410.494082 206.97423 
L 414.576081 210.302108 
L 418.658081 213.119457 
L 422.74008 215.901188 
L 426.82208 218.610158 
L 430.904079 221.129433 
L 434.986079 223.693633 
L 439.068078 226.676605 
L 443.150078 228.972197 
L 447.232077 230.868922 
L 451.314077 232.493123 
L 455.396076 234.661077 
L 459.478076 237.180229 
L 463.560076 237.908691 
L 467.642075 245.141268 
L 471.724075 248.720992 
L 475.806074 251.585391 
L 479.888074 254.276955 
" clip-path="url(#p4bf01109b2)" style="fill: none; stroke-dasharray: 7.03,3.04; stroke-dashoffset: 0; stroke: #ff7f0e; stroke-width: 1.9"/>
   </g>
   <g id="patch_3">
    <path d="M 51.278125 298.493076 
L 51.278125 8.585223 
" style="fill: none; stroke: #000000; stroke-width: 0.8; stroke-linejoin: miter; stroke-linecap: square"/>
   </g>
   <g id="patch_4">
    <path d="M 500.298071 298.493076 
L 500.298071 8.585223 
" style="fill: none; stroke: #000000; stroke-width: 0.8; stroke-linejoin: miter; stroke-linecap: square"/>
   </g>
   <g id="patch_5">
    <path d="M 51.278125 298.493076 
L 500.298071 298.493076 
" style="fill: none; stroke: #000000; stroke-width: 0.8; stroke-linejoin: miter; stroke-linecap: square"/>
   </g>
   <g id="patch_6">
    <path d="M 51.278125 8.585223 
L 500.298071 8.585223 
" style="fill: none; stroke: #000000; stroke-width: 0.8; stroke-linejoin: miter; stroke-linecap: square"/>
   </g>
   <g id="legend_1">
    <g id="patch_7">
     <path d="M 307.893774 25.593817 
L 495.048071 25.593817 
Q 496.548071 25.593817 496.548071 24.093817 
L 496.548071 13.835223 
Q 496.548071 12.335223 495.048071 12.335223 
L 307.893774 12.335223 
Q 306.393774 12.335223 306.393774 13.835223 
L 306.393774 24.093817 
Q 306.393774 25.593817 307.893774 25.593817 
z
" style="fill: #ffffff; opacity: 0.8; stroke: #cccccc; stroke-linejoin: miter"/>
    </g>
    <g id="line2d_31">
     <path d="M 309.393774 18.409051 
L 316.893774 18.409051 
L 324.393774 18.409051 
" style="fill: none; stroke: #1f77b4; stroke-width: 1.9; stroke-linecap: square"/>
    </g>
    <g id="text_17">
     <text style="font-size: 7.5px; font-family: 'DejaVu Serif', serif; text-anchor: start" x="330.393774" y="21.034051" transform="rotate(-0 330.393774 21.034051)">SPIDER-ADMM</text>
    </g>
    <g id="line2d_32">
     <path d="M 404.99768 18.409051 
L 412.49768 18.409051 
L 419.99768 18.409051 
" style="fill: none; stroke-dasharray: 7.03,3.04; stroke-dashoffset: 0; stroke: #ff7f0e; stroke-width: 1.9"/>
    </g>
    <g id="text_18">
     <text style="font-size: 7.5px; font-family: 'DejaVu Serif', serif; text-anchor: start" x="425.99768" y="21.034051" transform="rotate(-0 425.99768 21.034051)">AIL-SVRG-ADMM</text>
    </g>
   </g>
  </g>
 </g>
 <defs>
  <clipPath id="p4bf01109b2">
   <rect x="51.278125" y="8.585223" width="449.019946" height="289.907853"/>
  </clipPath>
 </defs>
</svg>
