<?xml version="1.0" encoding="utf-8" standalone="no"?>
<!DOCTYPE svg PUBLIC "-//W3C//DTD SVG 1.1//EN"
  "http://www.w3.org/Graphics/SVG/1.1/DTD/svg11.dtd">
<svg xmlns:xlink="http://www.w3.org/1999/xlink" width="511.01375pt" height="337.34333pt" viewBox="0 0 511.01375 337.34333" xmlns="http://www.w3.org/2000/svg" version="1.1">
 <metadata>
  <rdf:RDF xmlns:dc="http://purl.org/dc/elements/1.1/" xmlns:cc="http://creativecommons.org/ns#" xmlns:rdf="http://www.w3.org/1999/02/22-rdf-syntax-ns#">
   <cc:Work>
    <dc:type rdf:resource="http://purl.org/dc/dcmitype/StillImage"/>
    <dc:date>2026-07-14T17:00:01.706408</dc:date>
    <dc:format>image/svg+xml</dc:format>
    <dc:creator>
     <cc:Agent>
      <dc:title>Matplotlib v3.10.5, https://matplotlib.org/</dc:title>
     </cc:Agent>
    </dc:creator>
   </cc:Work>
  </rdf:RDF>
 </metadata>
 <defs>
  <style type="text/css">*{stroke-linejoin: round; stroke-linecap: butt}</style>
 </defs>
 <g id="figure_1">
  <g id="patch_1">
   <path d="M 0 337.34333 
L 511.01375 337.34333 
L 511.01375 0 
L 0 0 
z
" style="fill: #ffffff"/>
  </g>
  <g id="axes_1">
   <g id="patch_2">
    <path d="M 50.14375 299.78708 
L 503.81375 299.78708 
L 503.81375 9.876783 
L 50.14375 9.876783 
z
" style="fill: #ffffff"/>
   </g>
   <g id="matplotlib.axis_1">
    <g id="xtick_1">
     <g id="line2d_1">
      <path d="M 70.765114 299.78708 
L 70.765114 9.876783 
" clip-path="url(#p6b0d7c2a4d)" style="fill: none; stroke: #b0b0b0; stroke-opacity: 0.25; stroke-width: 0.8; stroke-linecap: square"/>
     </g>
     <g id="line2d_2">
      <defs>
       <path id="ma62e9d1843" d="M 0 0 
L 0 3.5 
" style="stroke: #000000; stroke-width: 0.8"/>
      </defs>
      <g>
       <use xlink:href="#ma62e9d1843" x="70.765114" y="299.78708" style="stroke: #000000; stroke-width: 0.8"/>
      </g>
     </g>
     <g id="text_1">
      <text style="font-size: 10px; font-family: 'DejaVu Serif', serif; text-anchor: middle" x="70.765114" y="314.385517" transform="rotate(-0 70.765114 314.385517)">0</text>
     </g>
    </g>
    <g id="xtick_2">
     <g id="line2d_3">
      <path d="M 122.318523 299.78708 
L 122.318523 9.876783 
" clip-path="url(#p6b0d7c2a4d)" style="fill: none; stroke: #b0b0b0; stroke-opacity: 0.25; stroke-width: 0.8; stroke-linecap: square"/>
     </g>
     <g id="line2d_4">
      <g>
       <use xlink:href="#ma62e9d1843" x="122.318523" y="299.78708" style="stroke: #000000; stroke-width: 0.8"/>
      </g>
     </g>
     <g id="text_2">
      <text style="font-size: 10px; font-family: 'DejaVu Serif', serif; text-anchor: middle" x="122.318523" y="314.385517" transform="rotate(-0 122.318523 314.385517)">250</text>
     </g>
    </g>
    <g id="xtick_3">
     <g id="line2d_5">
      <path d="M 173.871932 299.78708 
L 173.871932 9.876783 
" clip-path="url(#p6b0d7c2a4d)" style="fill: none; stroke: #b0b0b0; stroke-opacity: 0.25; stroke-width: 0.8; stroke-linecap: square"/>
     </g>
     <g id="line2d_6">
      <g>
       <use xlink:href="#ma62e9d1843" x="173.871932" y="299.78708" style="stroke: #000000; stroke-width: 0.8"/>
      </g>
     </g>
     <g id="text_3">
      <text style="font-size: 10px; font-family: 'DejaVu Serif', serif; text-anchor: middle" x="173.871932" y="314.385517" transform="rotate(-0 173.871932 314.385517)">500</text>
     </g>
    </g>
    <g id="xtick_4">
     <g id="line2d_7">
      <path d="M 225.425341 299.78708 
L 225.425341 9.876783 
" clip-path="url(#p6b0d7c2a4d)" style="fill: none; stroke: #b0b0b0; stroke-opacity: 0.25; stroke-width: 0.8; stroke-linecap: square"/>
     </g>
     <g id="line2d_8">
      <g>
       <use xlink:href="#ma62e9d1843" x="225.425341" y="299.78708" style="stroke: #000000; stroke-width: 0.8"/>
      </g>
     </g>
     <g id="text_4">
      <text style="font-size: 10px; font-family: 'DejaVu Serif', serif; text-anchor: middle" x="225.425341" y="314.385517" transform="rotate(-0 225.425341 314.385517)">750</text>
     </g>
    </g>
    <g id="xtick_5">
     <g id="line2d_9">
      <path d="M 276.97875 299.78708 
L 276.97875 9.876783 
" clip-path="url(#p6b0d7c2a4d)" style="fill: none; stroke: #b0b0b0; stroke-opacity: 0.25; stroke-width: 0.8; stroke-linecap: square"/>
     </g>
     <g id="line2d_10">
      <g>
       <use xlink:href="#ma62e9d1843" x="276.97875" y="299.78708" style="stroke: #000000; stroke-width: 0.8"/>
      </g>
     </g>
     <g id="text_5">
      <text style="font-size: 10px; font-family: 'DejaVu Serif', serif; text-anchor: middle" x="276.97875" y="314.385517" transform="rotate(-0 276.97875 314.385517)">1000</text>
     </g>
    </g>
    <g id="xtick_6">
     <g id="line2d_11">
      <path d="M 328.532159 299.78708 
L 328.532159 9.876783 
" clip-path="url(#p6b0d7c2a4d)" style="fill: none; stroke: #b0b0b0; stroke-opacity: 0.25; stroke-width: 0.8; stroke-linecap: square"/>
     </g>
     <g id="line2d_12">
      <g>
       <use xlink:href="#ma62e9d1843" x="328.532159" y="299.78708" style="stroke: #000000; stroke-width: 0.8"/>
      </g>
     </g>
     <g id="text_6">
      <text style="font-size: 10px; font-family: 'DejaVu Serif', serif; text-anchor: middle" x="328.532159" y="314.385517" transform="rotate(-0 328.532159 314.385517)">1250</text>
     </g>
    </g>
    <g id="xtick_7">
     <g id="line2d_13">
      <path d="M 380.085568 299.78708 
L 380.085568 9.876783 
" clip-path="url(#p6b0d7c2a4d)" style="fill: none; stroke: #b0b0b0; stroke-opacity: 0.25; stroke-width: 0.8; stroke-linecap: square"/>
     </g>
     <g id="line2d_14">
      <g>
       <use xlink:href="#ma62e9d1843" x="380.085568" y="299.78708" style="stroke: #000000; stroke-width: 0.8"/>
      </g>
     </g>
     <g id="text_7">
      <text style="font-size: 10px; font-family: 'DejaVu Serif', serif; text-anchor: middle" x="380.085568" y="314.385517" transform="rotate(-0 380.085568 314.385517)">1500</text>
     </g>
    </g>
    <g id="xtick_8">
     <g id="line2d_15">
      <path d="M 431.638977 299.78708 
L 431.638977 9.876783 
" clip-path="url(#p6b0d7c2a4d)" style="fill: none; stroke: #b0b0b0; stroke-opacity: 0.25; stroke-width: 0.8; stroke-linecap: square"/>
     </g>
     <g id="line2d_16">
      <g>
       <use xlink:href="#ma62e9d1843" x="431.638977" y="299.78708" style="stroke: #000000; stroke-width: 0.8"/>
      </g>
     </g>
     <g id="text_8">
      <text style="font-size: 10px; font-family: 'DejaVu Serif', serif; text-anchor: middle" x="431.638977" y="314.385517" transform="rotate(-0 431.638977 314.385517)">1750</text>
     </g>
    </g>
    <g id="xtick_9">
     <g id="line2d_17">
      <path d="M 483.192386 299.78708 
L 483.192386 9.876783 
" clip-path="url(#p6b0d7c2a4d)" style="fill: none; stroke: #b0b0b0; stroke-opacity: 0.25; stroke-width: 0.8; stroke-linecap: square"/>
     </g>
     <g id="line2d_18">
      <g>
       <use xlink:href="#ma62e9d1843" x="483.192386" y="299.78708" style="stroke: #000000; stroke-width: 0.8"/>
      </g>
     </g>
     <g id="text_9">
      <text style="font-size: 10px; font-family: 'DejaVu Serif', serif; text-anchor: middle" x="483.192386" y="314.385517" transform="rotate(-0 483.192386 314.385517)">2000</text>
     </g>
    </g>
    <g id="text_10">
     <text style="font-size: 10px; font-family: 'DejaVu Serif', serif; text-anchor: middle" x="276.97875" y="328.063642" transform="rotate(-0 276.97875 328.063642)">Iterations</text>
    </g>
   </g>
   <g id="matplotlib.axis_2">
    <g id="ytick_1">
     <g id="line2d_19">
      <path d="M 50.14375 292.46714 
L 503.81375 292.46714 
" clip-path="url(#p6b0d7c2a4d)" style="fill: none; stroke: #b0b0b0; stroke-opacity: 0.25; stroke-width: 0.8; stroke-linecap: square"/>
     </g>
     <g id="line2d_20">
      <defs>
       <path id="m80350dcf67" d="M 0 0 
L -3.5 0 
" style="stroke: #000000; stroke-width: 0.8"/>
      </defs>
      <g>
       <use xlink:href="#m80350dcf67" x="50.14375" y="292.46714" style="stroke: #000000; stroke-width: 0.8"/>
      </g>
     </g>
     <g id="text_11">
      <text style="font-size: 10px; font-family: 'DejaVu Serif', serif; text-anchor: end" x="43.14375" y="296.266359" transform="rotate(-0 43.14375 296.266359)">0.54</text>
     </g>
    </g>
    <g id="ytick_2">
     <g id="line2d_21">
      <path d="M 50.14375 257.28365 
L 503.81375 257.28365 
" clip-path="url(#p6b0d7c2a4d)" style="fill: none; stroke: #b0b0b0; stroke-opacity: 0.25; stroke-width: 0.8; stroke-linecap: square"/>
     </g>
     <g id="line2d_22">
      <g>
       <use xlink:href="#m80350dcf67" x="50.14375" y="257.28365" style="stroke: #000000; stroke-width: 0.8"/>
      </g>
     </g>
     <g id="text_12">
      <text style="font-size: 10px; font-family: 'DejaVu Serif', serif; text-anchor: end" x="43.14375" y="261.082869" transform="rotate(-0 43.14375 261.082869)">0.56</text>
     </g>
    </g>
    <g id="ytick_3">
     <g id="line2d_23">
      <path d="M 50.14375 222.10016 
L 503.81375 222.10016 
" clip-path="url(#p6b0d7c2a4d)" style="fill: none; stroke: #b0b0b0; stroke-opacity: 0.25; stroke-width: 0.8; stroke-linecap: square"/>
     </g>
     <g id="line2d_24">
      <g>
       <use xlink:href="#m80350dcf67" x="50.14375" y="222.10016" style="stroke: #000000; stroke-width: 0.8"/>
      </g>
     </g>
     <g id="text_13">
      <text style="font-size: 10px; font-family: 'DejaVu Serif', serif; text-anchor: end" x="43.14375" y="225.899378" transform="rotate(-0 43.14375 225.899378)">0.58</text>
     </g>
    </g>
    <g id="ytick_4">
     <g id="line2d_25">
      <path d="M 50.14375 186.91667 
L 503.81375 186.91667 
" clip-path="url(#p6b0d7c2a4d)" style="fill: none; stroke: #b0b0b0; stroke-opacity: 0.25; stroke-width: 0.8; stroke-linecap: square"/>
     </g>
     <g id="line2d_26">
      <g>
       <use xlink:href="#m80350dcf67" x="50.14375" y="186.91667" style="stroke: #000000; stroke-width: 0.8"/>
      </g>
     </g>
     <g id="text_14">
      <text style="font-size: 10px; font-family: 'DejaVu Serif', serif; text-anchor: end" x="43.14375" y="190.715888" transform="rotate(-0 43.14375 190.715888)">0.60</text>
     </g>
    </g>
    <g id="ytick_5">
     <g id="line2d_27">
      <path d="M 50.14375 151.733179 
L 503.81375 151.733179 
" clip-path="url(#p6b0d7c2a4d)" style="fill: none; stroke: #b0b0b0; stroke-opacity: 0.25; stroke-width: 0.8; stroke-linecap: square"/>
     </g>
     <g id="line2d_28">
      <g>
       <use xlink:href="#m80350dcf67" x="50.14375" y="151.733179" style="stroke: #000000; stroke-width: 0.8"/>
      </g>
     </g>
     <g id="text_15">
      <text style="font-size: 10px; font-family: 'DejaVu Serif', serif; text-anchor: end" x="43.14375" y="155.532398" transform="rotate(-0 43.14375 155.532398)">0.62</text>
     </g>
    </g>
    <g id="ytick_6">
     <g id="line2d_29">
      <path d="M 50.14375 116.549689 
L 503.81375 116.549689 
" clip-path="url(#p6b0d7c2a4d)" style="fill: none; stroke: #b0b0b0; stroke-opacity: 0.25; stroke-width: 0.8; stroke-linecap: square"/>
     </g>
     <g id="line2d_30">
      <g>
       <use xlink:href="#m80350dcf67" x="50.14375" y="116.549689" style="stroke: #000000; stroke-width: 0.8"/>
      </g>
     </g>
     <g id="text_16">
      <text style="font-size: 10px; font-family: 'DejaVu Serif', serif; text-anchor: end" x="43.14375" y="120.348908" transform="rotate(-0 43.14375 120.348908)">0.64</text>
     </g>
    </g>
    <g id="ytick_7">
     <g id="line2d_31">
      <path d="M 50.14375 81.366199 
L 503.81375 81.366199 
" clip-path="url(#p6b0d7c2a4d)" style="fill: none; stroke: #b0b0b0; stroke-opacity: 0.25; stroke-width: 0.8; stroke-linecap: square"/>
     </g>
     <g id="line2d_32">
      <g>
       <use xlink:href="#m80350dcf67" x="50.14375" y="81.366199" style="stroke: #000000; stroke-width: 0.8"/>
      </g>
     </g>
     <g id="text_17">
      <text style="font-size: 10px; font-family: 'DejaVu Serif', serif; text-anchor: end" x="43.14375" y="85.165418" transform="rotate(-0 43.14375 85.165418)">0.66</text>
     </g>
    </g>
    <g id="ytick_8">
     <g id="line2d_33">
      <path d="M 50.14375 46.182709 
L 503.81375 46.182709 
" clip-path="url(#p6b0d7c2a4d)" style="fill: none; stroke: #b0b0b0; stroke-opacity: 0.25; stroke-width: 0.8; stroke-linecap: square"/>
     </g>
     <g id="line2d_34">
      <g>
       <use xlink:href="#m80350dcf67" x="50.14375" y="46.182709" style="stroke: #000000; stroke-width: 0.8"/>
      </g>
     </g>
     <g id="text_18">
      <text style="font-size: 10px; font-family: 'DejaVu Serif', serif; text-anchor: end" x="43.14375" y="49.981928" transform="rotate(-0 43.14375 49.981928)">0.68</text>
     </g>
    </g>
    <g id="ytick_9">
     <g id="line2d_35">
      <path d="M 50.14375 10.999219 
L 503.81375 10.999219 
" clip-path="url(#p6b0d7c2a4d)" style="fill: none; stroke: #b0b0b0; stroke-opacity: 0.25; stroke-width: 0.8; stroke-linecap: square"/>
     </g>
     <g id="line2d_36">
      <g>
       <use xlink:href="#m80350dcf67" x="50.14375" y="10.999219" style="stroke: #000000; stroke-width: 0.8"/>
      </g>
     </g>
     <g id="text_19">
      <text style="font-size: 10px; font-family: 'DejaVu Serif', serif; text-anchor: end" x="43.14375" y="14.798438" transform="rotate(-0 43.14375 14.798438)">0.70</text>
     </g>
    </g>
    <g id="text_20">
     <text style="font-size: 10px; font-family: 'DejaVu Serif', serif; text-anchor: middle" x="14.65625" y="154.831931" transform="rotate(-90 14.65625 154.831931)">Test Logistic Loss</text>
    </g>
   </g>
   <g id="line2d_37">
    <path d="M 70.765114 23.054524 
L 74.889386 130.143203 
L 79.013659 187.038996 
L 83.137932 219.486978 
L 87.262205 242.735926 
L 91.386477 257.58196 
L 95.51075 267.443688 
L 99.635023 273.935236 
L 103.759295 278.361597 
L 107.883568 281.302375 
L 112.007841 283.336544 
L 116.132114 284.680918 
L 120.256386 285.569945 
L 124.380659 286.108819 
L 128.504932 286.405754 
L 132.629205 286.516997 
L 136.753477 286.495534 
L 140.87775 286.369581 
L 145.002023 286.163009 
L 149.126295 285.896303 
L 153.250568 285.579117 
L 157.374841 285.224107 
L 161.499114 284.839056 
L 165.623386 284.429737 
L 169.747659 284.001112 
L 173.871932 283.558378 
L 177.996205 283.102962 
L 182.120477 282.867901 
L 186.24475 282.999299 
L 190.369023 282.994329 
L 194.493295 282.926839 
L 198.617568 282.790731 
L 202.741841 282.608449 
L 206.866114 282.383425 
L 210.990386 282.124192 
L 215.114659 281.8378 
L 219.238932 281.529022 
L 223.363205 281.202066 
L 227.487477 280.859813 
L 231.61175 280.505062 
L 235.736023 280.140011 
L 239.860295 279.766061 
L 243.984568 279.385443 
L 248.108841 278.998778 
L 252.233114 278.607212 
L 256.357386 278.211469 
L 260.481659 277.81152 
L 264.605932 277.409024 
L 268.730205 277.004441 
L 272.854477 276.62892 
L 276.97875 276.81679 
L 281.103023 276.94037 
L 285.227295 277.043084 
L 289.351568 277.126137 
L 293.475841 277.198274 
L 297.600114 277.25586 
L 301.724386 277.305494 
L 305.848659 277.347179 
L 309.972932 277.38232 
L 314.097205 277.412319 
L 318.221477 277.437549 
L 322.34575 277.459357 
L 326.470023 277.477909 
L 330.594295 277.49395 
L 334.718568 277.507702 
L 338.842841 277.519611 
L 342.967114 277.529912 
L 347.091386 277.538923 
L 351.215659 277.546736 
L 355.339932 277.553561 
L 359.464205 277.559529 
L 363.588477 277.564742 
L 367.71275 277.56937 
L 371.837023 277.573409 
L 375.961295 277.576957 
L 380.085568 277.580108 
L 384.209841 277.582879 
L 388.334114 277.585331 
L 392.458386 277.587486 
L 396.582659 277.589419 
L 400.706932 277.591123 
L 404.831205 277.592654 
L 408.955477 277.593992 
L 413.07975 277.595186 
L 417.204023 277.596251 
L 421.328295 277.597206 
L 425.452568 277.59804 
L 429.576841 277.598794 
L 433.701114 277.599463 
L 437.825386 277.600065 
L 441.949659 277.600596 
L 446.073932 277.601068 
L 450.198205 277.601494 
L 454.322477 277.601875 
L 458.44675 277.602211 
L 462.571023 277.602513 
L 466.695295 277.602784 
L 470.819568 277.603023 
L 474.943841 277.603238 
L 479.068114 277.603431 
L 483.192386 277.603604 
" clip-path="url(#p6b0d7c2a4d)" style="fill: none; stroke: #1f77b4; stroke-width: 1.9; stroke-linecap: square"/>
   </g>
   <g id="line2d_38">
    <path d="M 70.765114 23.054524 
L 74.889386 121.768621 
L 79.013659 177.700857 
L 83.137932 211.125291 
L 87.262205 235.345246 
L 91.386477 251.54956 
L 95.51075 262.441332 
L 99.635023 270.009131 
L 103.759295 275.199164 
L 107.883568 278.909956 
L 112.007841 281.485923 
L 116.132114 283.313723 
L 120.256386 284.590233 
L 124.380659 285.443067 
L 128.504932 286.016276 
L 132.629205 286.41601 
L 136.753477 286.562075 
L 140.87775 286.609339 
L 145.002023 286.568014 
L 149.126295 286.431211 
L 153.250568 286.241516 
L 157.374841 286.001749 
L 161.499114 285.73074 
L 165.623386 285.415481 
L 169.747659 285.073314 
L 173.871932 284.715108 
L 177.996205 284.336438 
L 182.120477 283.941955 
L 186.24475 283.536365 
L 190.369023 283.124451 
L 194.493295 282.966293 
L 198.617568 283.081572 
L 202.741841 283.082114 
L 206.866114 283.028444 
L 210.990386 282.921046 
L 215.114659 282.788588 
L 219.238932 282.601767 
L 223.363205 282.384175 
L 227.487477 282.118878 
L 231.61175 281.887635 
L 235.736023 281.597698 
L 239.860295 281.306774 
L 243.984568 280.987483 
L 248.108841 280.693174 
L 252.233114 280.325558 
L 256.357386 280.03619 
L 260.481659 279.691014 
L 264.605932 279.352345 
L 268.730205 278.988905 
L 272.854477 278.63214 
L 276.97875 278.277214 
L 281.103023 277.917041 
L 285.227295 277.557063 
L 289.351568 277.193818 
L 293.475841 276.826902 
L 297.600114 276.730102 
L 301.724386 276.859508 
L 305.848659 276.95392 
L 309.972932 277.046964 
L 314.097205 277.120934 
L 318.221477 277.188103 
L 322.34575 277.23965 
L 326.470023 277.288194 
L 330.594295 277.328209 
L 334.718568 277.362172 
L 338.842841 277.392369 
L 342.967114 277.419157 
L 347.091386 277.441022 
L 351.215659 277.460174 
L 355.339932 277.471425 
L 359.464205 277.495451 
L 363.588477 277.497691 
L 367.71275 277.517531 
L 371.837023 277.524509 
L 375.961295 277.532474 
L 380.085568 277.540977 
L 384.209841 277.548714 
L 388.334114 277.564856 
L 392.458386 277.558237 
L 396.582659 277.567857 
L 400.706932 277.566816 
L 404.831205 277.572569 
L 408.955477 277.576671 
L 413.07975 277.57871 
L 417.204023 277.581185 
L 421.328295 277.583636 
L 425.452568 277.58563 
L 429.576841 277.587854 
L 433.701114 277.589639 
L 437.825386 277.591015 
L 441.949659 277.592595 
L 446.073932 277.59389 
L 450.198205 277.594932 
L 454.322477 277.596067 
L 458.44675 277.596472 
L 462.571023 277.597546 
L 466.695295 277.598069 
L 470.819568 277.598792 
L 474.943841 277.599502 
L 479.068114 277.600087 
L 483.192386 277.600534 
" clip-path="url(#p6b0d7c2a4d)" style="fill: none; stroke-dasharray: 7.03,3.04; stroke-dashoffset: 0; stroke: #ff7f0e; stroke-width: 1.9"/>
   </g>
   <g id="patch_3">
    <path d="M 50.14375 299.78708 
L 50.14375 9.876783 
" style="fill: none; stroke: #000000; stroke-width: 0.8; stroke-linejoin: miter; stroke-linecap: square"/>
   </g>
   <g id="patch_4">
    <path d="M 503.81375 299.78708 
L 503.81375 9.876783 
" style="fill: none; stroke: #000000; stroke-width: 0.8; stroke-linejoin: miter; stroke-linecap: square"/>
   </g>
   <g id="patch_5">
    <path d="M 50.14375 299.78708 
L 503.81375 299.78708 
" style="fill: none; stroke: #000000; stroke-width: 0.8; stroke-linejoin: miter; stroke-linecap: square"/>
   </g>
   <g id="patch_6">
    <path d="M 50.14375 9.876783 
L 503.81375 9.876783 
" style="fill: none; stroke: #000000; stroke-width: 0.8; stroke-linejoin: miter; stroke-linecap: square"/>
   </g>
   <g id="legend_1">
    <g id="patch_7">
     <path d="M 311.409453 26.885377 
L 498.56375 26.885377 
Q 500.06375 26.885377 500.06375 25.385377 
L 500.06375 15.126783 
Q 500.06375 13.626783 498.56375 13.626783 
L 311.409453 13.626783 
Q 309.909453 13.626783 309.909453 15.126783 
L 309.909453 25.385377 
Q 309.909453 26.885377 311.409453 26.885377 
z
" style="fill: #ffffff; opacity: 0.8; stroke: #cccccc; stroke-linejoin: miter"/>
    </g>
    <g id="line2d_39">
     <path d="M 312.909453 19.700611 
L 320.409453 19.700611 
L 327.909453 19.700611 
" style="fill: none; stroke: #1f77b4; stroke-width: 1.9; stroke-linecap: square"/>
    </g>
    <g id="text_21">
     <text style="font-size: 7.5px; font-family: 'DejaVu Serif', serif; text-anchor: start" x="333.909453" y="22.325611" transform="rotate(-0 333.909453 22.325611)">SPIDER-ADMM</text>
    </g>
    <g id="line2d_40">
     <path d="M 408.513359 19.700611 
L 416.013359 19.700611 
L 423.513359 19.700611 
" style="fill: none; stroke-dasharray: 7.03,3.04; stroke-dashoffset: 0; stroke: #ff7f0e; stroke-width: 1.9"/>
    </g>
    <g id="text_22">
     <text style="font-size: 7.5px; font-family: 'DejaVu Serif', serif; text-anchor: start" x="429.513359" y="22.325611" transform="rotate(-0 429.513359 22.325611)">AIL-SVRG-ADMM</text>
    </g>
   </g>
  </g>
 </g>
 <defs>
  <clipPath id="p6b0d7c2a4d">
   <rect x="50.14375" y="9.876783" width="453.67" height="289.910296"/>
  </clipPath>
 </defs>
</svg>
