<?xml version="1.0" encoding="utf-8" standalone="no"?>
<!DOCTYPE svg PUBLIC "-//W3C//DTD SVG 1.1//EN"
  "http://www.w3.org/Graphics/SVG/1.1/DTD/svg11.dtd">
<svg xmlns:xlink="http://www.w3.org/1999/xlink" width="507.728911pt" height="337.59625pt" viewBox="0 0 507.728911 337.59625" xmlns="http://www.w3.org/2000/svg" version="1.1">
 <metadata>
  <rdf:RDF xmlns:dc="http://purl.org/dc/elements/1.1/" xmlns:cc="http://creativecommons.org/ns#" xmlns:rdf="http://www.w3.org/1999/02/22-rdf-syntax-ns#">
   <cc:Work>
    <dc:type rdf:resource="http://purl.org/dc/dcmitype/StillImage"/>
    <dc:date>2026-07-15T09:49:23.816814</dc:date>
    <dc:format>image/svg+xml</dc:format>
    <dc:creator>
     <cc:Agent>
      <dc:title>Matplotlib v3.10.5, https://matplotlib.org/</dc:title>
     </cc:Agent>
    </dc:creator>
   </cc:Work>
  </rdf:RDF>
 </metadata>
 <defs>
  <style type="text/css">*{stroke-linejoin: round; stroke-linecap: butt}</style>
 </defs>
 <g id="figure_1">
  <g id="patch_1">
   <path d="M 0 337.59625 
L 507.728911 337.59625 
L 507.728911 0 
L 0 0 
z
" style="fill: #ffffff"/>
  </g>
  <g id="axes_1">
   <g id="patch_2">
    <path d="M 55.778125 300.04 
L 500.528911 300.04 
L 500.528911 7.2 
L 55.778125 7.2 
z
" style="fill: #ffffff"/>
   </g>
   <g id="matplotlib.axis_1">
    <g id="xtick_1">
     <g id="line2d_1">
      <path d="M 75.99407 300.04 
L 75.99407 7.2 
" clip-path="url(#p54c554ba69)" style="fill: none; stroke: #b0b0b0; stroke-opacity: 0.25; stroke-width: 0.8; stroke-linecap: square"/>
     </g>
     <g id="line2d_2">
      <defs>
       <path id="me0c3a8d5a7" d="M 0 0 
L 0 3.5 
" style="stroke: #000000; stroke-width: 0.8"/>
      </defs>
      <g>
       <use xlink:href="#me0c3a8d5a7" x="75.99407" y="300.04" style="stroke: #000000; stroke-width: 0.8"/>
      </g>
     </g>
     <g id="text_1">
      <text style="font-size: 10px; font-family: 'DejaVu Serif', serif; text-anchor: middle" x="75.99407" y="314.638437" transform="rotate(-0 75.99407 314.638437)">0.00</text>
     </g>
    </g>
    <g id="xtick_2">
     <g id="line2d_3">
      <path d="M 134.850519 300.04 
L 134.850519 7.2 
" clip-path="url(#p54c554ba69)" style="fill: none; stroke: #b0b0b0; stroke-opacity: 0.25; stroke-width: 0.8; stroke-linecap: square"/>
     </g>
     <g id="line2d_4">
      <g>
       <use xlink:href="#me0c3a8d5a7" x="134.850519" y="300.04" style="stroke: #000000; stroke-width: 0.8"/>
      </g>
     </g>
     <g id="text_2">
      <text style="font-size: 10px; font-family: 'DejaVu Serif', serif; text-anchor: middle" x="134.850519" y="314.638437" transform="rotate(-0 134.850519 314.638437)">0.25</text>
     </g>
    </g>
    <g id="xtick_3">
     <g id="line2d_5">
      <path d="M 193.706968 300.04 
L 193.706968 7.2 
" clip-path="url(#p54c554ba69)" style="fill: none; stroke: #b0b0b0; stroke-opacity: 0.25; stroke-width: 0.8; stroke-linecap: square"/>
     </g>
     <g id="line2d_6">
      <g>
       <use xlink:href="#me0c3a8d5a7" x="193.706968" y="300.04" style="stroke: #000000; stroke-width: 0.8"/>
      </g>
     </g>
     <g id="text_3">
      <text style="font-size: 10px; font-family: 'DejaVu Serif', serif; text-anchor: middle" x="193.706968" y="314.638437" transform="rotate(-0 193.706968 314.638437)">0.50</text>
     </g>
    </g>
    <g id="xtick_4">
     <g id="line2d_7">
      <path d="M 252.563417 300.04 
L 252.563417 7.2 
" clip-path="url(#p54c554ba69)" style="fill: none; stroke: #b0b0b0; stroke-opacity: 0.25; stroke-width: 0.8; stroke-linecap: square"/>
     </g>
     <g id="line2d_8">
      <g>
       <use xlink:href="#me0c3a8d5a7" x="252.563417" y="300.04" style="stroke: #000000; stroke-width: 0.8"/>
      </g>
     </g>
     <g id="text_4">
      <text style="font-size: 10px; font-family: 'DejaVu Serif', serif; text-anchor: middle" x="252.563417" y="314.638437" transform="rotate(-0 252.563417 314.638437)">0.75</text>
     </g>
    </g>
    <g id="xtick_5">
     <g id="line2d_9">
      <path d="M 311.419866 300.04 
L 311.419866 7.2 
" clip-path="url(#p54c554ba69)" style="fill: none; stroke: #b0b0b0; stroke-opacity: 0.25; stroke-width: 0.8; stroke-linecap: square"/>
     </g>
     <g id="line2d_10">
      <g>
       <use xlink:href="#me0c3a8d5a7" x="311.419866" y="300.04" style="stroke: #000000; stroke-width: 0.8"/>
      </g>
     </g>
     <g id="text_5">
      <text style="font-size: 10px; font-family: 'DejaVu Serif', serif; text-anchor: middle" x="311.419866" y="314.638437" transform="rotate(-0 311.419866 314.638437)">1.00</text>
     </g>
    </g>
    <g id="xtick_6">
     <g id="line2d_11">
      <path d="M 370.276315 300.04 
L 370.276315 7.2 
" clip-path="url(#p54c554ba69)" style="fill: none; stroke: #b0b0b0; stroke-opacity: 0.25; stroke-width: 0.8; stroke-linecap: square"/>
     </g>
     <g id="line2d_12">
      <g>
       <use xlink:href="#me0c3a8d5a7" x="370.276315" y="300.04" style="stroke: #000000; stroke-width: 0.8"/>
      </g>
     </g>
     <g id="text_6">
      <text style="font-size: 10px; font-family: 'DejaVu Serif', serif; text-anchor: middle" x="370.276315" y="314.638437" transform="rotate(-0 370.276315 314.638437)">1.25</text>
     </g>
    </g>
    <g id="xtick_7">
     <g id="line2d_13">
      <path d="M 429.132764 300.04 
L 429.132764 7.2 
" clip-path="url(#p54c554ba69)" style="fill: none; stroke: #b0b0b0; stroke-opacity: 0.25; stroke-width: 0.8; stroke-linecap: square"/>
     </g>
     <g id="line2d_14">
      <g>
       <use xlink:href="#me0c3a8d5a7" x="429.132764" y="300.04" style="stroke: #000000; stroke-width: 0.8"/>
      </g>
     </g>
     <g id="text_7">
      <text style="font-size: 10px; font-family: 'DejaVu Serif', serif; text-anchor: middle" x="429.132764" y="314.638437" transform="rotate(-0 429.132764 314.638437)">1.50</text>
     </g>
    </g>
    <g id="xtick_8">
     <g id="line2d_15">
      <path d="M 487.989213 300.04 
L 487.989213 7.2 
" clip-path="url(#p54c554ba69)" style="fill: none; stroke: #b0b0b0; stroke-opacity: 0.25; stroke-width: 0.8; stroke-linecap: square"/>
     </g>
     <g id="line2d_16">
      <g>
       <use xlink:href="#me0c3a8d5a7" x="487.989213" y="300.04" style="stroke: #000000; stroke-width: 0.8"/>
      </g>
     </g>
     <g id="text_8">
      <text style="font-size: 10px; font-family: 'DejaVu Serif', serif; text-anchor: middle" x="487.989213" y="314.638437" transform="rotate(-0 487.989213 314.638437)">1.75</text>
     </g>
    </g>
    <g id="text_9">
     <text style="font-size: 10px; font-family: 'DejaVu Serif', serif; text-anchor: middle" x="278.153518" y="328.316562" transform="rotate(-0 278.153518 328.316562)">Time (s)</text>
    </g>
   </g>
   <g id="matplotlib.axis_2">
    <g id="ytick_1">
     <g id="line2d_17">
      <path d="M 55.778125 275.365089 
L 500.528911 275.365089 
" clip-path="url(#p54c554ba69)" style="fill: none; stroke: #b0b0b0; stroke-opacity: 0.25; stroke-width: 0.8; stroke-linecap: square"/>
     </g>
     <g id="line2d_18">
      <defs>
       <path id="m93f7022fa0" d="M 0 0 
L -3.5 0 
" style="stroke: #000000; stroke-width: 0.8"/>
      </defs>
      <g>
       <use xlink:href="#m93f7022fa0" x="55.778125" y="275.365089" style="stroke: #000000; stroke-width: 0.8"/>
      </g>
     </g>
     <g id="text_10">
      <!-- $\mathdefault{10^{-15}}$ -->
      <g transform="translate(20.878125 279.164308)">
       <text>
        <tspan x="0" y="-0.173438" style="font-size: 10px; font-family: 'DejaVu Serif'">1</tspan>
        <tspan x="6.362305" y="-0.173438" style="font-size: 10px; font-family: 'DejaVu Serif'">0</tspan>
        <tspan x="12.815391" y="-3.804688" style="font-size: 7px; font-family: 'DejaVu Serif'">−</tspan>
        <tspan x="18.680625" y="-3.804688" style="font-size: 7px; font-family: 'DejaVu Serif'">1</tspan>
        <tspan x="23.134238" y="-3.804688" style="font-size: 7px; font-family: 'DejaVu Serif'">5</tspan>
       </text>
      </g>
     </g>
    </g>
    <g id="ytick_2">
     <g id="line2d_19">
      <path d="M 55.778125 240.589382 
L 500.528911 240.589382 
" clip-path="url(#p54c554ba69)" style="fill: none; stroke: #b0b0b0; stroke-opacity: 0.25; stroke-width: 0.8; stroke-linecap: square"/>
     </g>
     <g id="line2d_20">
      <g>
       <use xlink:href="#m93f7022fa0" x="55.778125" y="240.589382" style="stroke: #000000; stroke-width: 0.8"/>
      </g>
     </g>
     <g id="text_11">
      <!-- $\mathdefault{10^{-13}}$ -->
      <g transform="translate(20.878125 244.3886)">
       <text>
        <tspan x="0" y="-0.173438" style="font-size: 10px; font-family: 'DejaVu Serif'">1</tspan>
        <tspan x="6.362305" y="-0.173438" style="font-size: 10px; font-family: 'DejaVu Serif'">0</tspan>
        <tspan x="12.815391" y="-3.804688" style="font-size: 7px; font-family: 'DejaVu Serif'">−</tspan>
        <tspan x="18.680625" y="-3.804688" style="font-size: 7px; font-family: 'DejaVu Serif'">1</tspan>
        <tspan x="23.134238" y="-3.804688" style="font-size: 7px; font-family: 'DejaVu Serif'">3</tspan>
       </text>
      </g>
     </g>
    </g>
    <g id="ytick_3">
     <g id="line2d_21">
      <path d="M 55.778125 205.813674 
L 500.528911 205.813674 
" clip-path="url(#p54c554ba69)" style="fill: none; stroke: #b0b0b0; stroke-opacity: 0.25; stroke-width: 0.8; stroke-linecap: square"/>
     </g>
     <g id="line2d_22">
      <g>
       <use xlink:href="#m93f7022fa0" x="55.778125" y="205.813674" style="stroke: #000000; stroke-width: 0.8"/>
      </g>
     </g>
     <g id="text_12">
      <!-- $\mathdefault{10^{-11}}$ -->
      <g transform="translate(20.878125 209.612893)">
       <text>
        <tspan x="0" y="-0.173438" style="font-size: 10px; font-family: 'DejaVu Serif'">1</tspan>
        <tspan x="6.362305" y="-0.173438" style="font-size: 10px; font-family: 'DejaVu Serif'">0</tspan>
        <tspan x="12.815391" y="-3.804688" style="font-size: 7px; font-family: 'DejaVu Serif'">−</tspan>
        <tspan x="18.680625" y="-3.804688" style="font-size: 7px; font-family: 'DejaVu Serif'">1</tspan>
        <tspan x="23.134238" y="-3.804688" style="font-size: 7px; font-family: 'DejaVu Serif'">1</tspan>
       </text>
      </g>
     </g>
    </g>
    <g id="ytick_4">
     <g id="line2d_23">
      <path d="M 55.778125 171.037967 
L 500.528911 171.037967 
" clip-path="url(#p54c554ba69)" style="fill: none; stroke: #b0b0b0; stroke-opacity: 0.25; stroke-width: 0.8; stroke-linecap: square"/>
     </g>
     <g id="line2d_24">
      <g>
       <use xlink:href="#m93f7022fa0" x="55.778125" y="171.037967" style="stroke: #000000; stroke-width: 0.8"/>
      </g>
     </g>
     <g id="text_13">
      <!-- $\mathdefault{10^{-9}}$ -->
      <g transform="translate(25.378125 174.837185)">
       <text>
        <tspan x="0" y="-0.173438" style="font-size: 10px; font-family: 'DejaVu Serif'">1</tspan>
        <tspan x="6.362305" y="-0.173438" style="font-size: 10px; font-family: 'DejaVu Serif'">0</tspan>
        <tspan x="12.815391" y="-3.804688" style="font-size: 7px; font-family: 'DejaVu Serif'">−</tspan>
        <tspan x="18.680625" y="-3.804688" style="font-size: 7px; font-family: 'DejaVu Serif'">9</tspan>
       </text>
      </g>
     </g>
    </g>
    <g id="ytick_5">
     <g id="line2d_25">
      <path d="M 55.778125 136.262259 
L 500.528911 136.262259 
" clip-path="url(#p54c554ba69)" style="fill: none; stroke: #b0b0b0; stroke-opacity: 0.25; stroke-width: 0.8; stroke-linecap: square"/>
     </g>
     <g id="line2d_26">
      <g>
       <use xlink:href="#m93f7022fa0" x="55.778125" y="136.262259" style="stroke: #000000; stroke-width: 0.8"/>
      </g>
     </g>
     <g id="text_14">
      <!-- $\mathdefault{10^{-7}}$ -->
      <g transform="translate(25.378125 140.061478)">
       <text>
        <tspan x="0" y="-0.260938" style="font-size: 10px; font-family: 'DejaVu Serif'">1</tspan>
        <tspan x="6.362305" y="-0.260938" style="font-size: 10px; font-family: 'DejaVu Serif'">0</tspan>
        <tspan x="12.815391" y="-3.892188" style="font-size: 7px; font-family: 'DejaVu Serif'">−</tspan>
        <tspan x="18.680625" y="-3.892188" style="font-size: 7px; font-family: 'DejaVu Serif'">7</tspan>
       </text>
      </g>
     </g>
    </g>
    <g id="ytick_6">
     <g id="line2d_27">
      <path d="M 55.778125 101.486552 
L 500.528911 101.486552 
" clip-path="url(#p54c554ba69)" style="fill: none; stroke: #b0b0b0; stroke-opacity: 0.25; stroke-width: 0.8; stroke-linecap: square"/>
     </g>
     <g id="line2d_28">
      <g>
       <use xlink:href="#m93f7022fa0" x="55.778125" y="101.486552" style="stroke: #000000; stroke-width: 0.8"/>
      </g>
     </g>
     <g id="text_15">
      <!-- $\mathdefault{10^{-5}}$ -->
      <g transform="translate(25.378125 105.28577)">
       <text>
        <tspan x="0" y="-0.260938" style="font-size: 10px; font-family: 'DejaVu Serif'">1</tspan>
        <tspan x="6.362305" y="-0.260938" style="font-size: 10px; font-family: 'DejaVu Serif'">0</tspan>
        <tspan x="12.815391" y="-3.892188" style="font-size: 7px; font-family: 'DejaVu Serif'">−</tspan>
        <tspan x="18.680625" y="-3.892188" style="font-size: 7px; font-family: 'DejaVu Serif'">5</tspan>
       </text>
      </g>
     </g>
    </g>
    <g id="ytick_7">
     <g id="line2d_29">
      <path d="M 55.778125 66.710844 
L 500.528911 66.710844 
" clip-path="url(#p54c554ba69)" style="fill: none; stroke: #b0b0b0; stroke-opacity: 0.25; stroke-width: 0.8; stroke-linecap: square"/>
     </g>
     <g id="line2d_30">
      <g>
       <use xlink:href="#m93f7022fa0" x="55.778125" y="66.710844" style="stroke: #000000; stroke-width: 0.8"/>
      </g>
     </g>
     <g id="text_16">
      <!-- $\mathdefault{10^{-3}}$ -->
      <g transform="translate(25.378125 70.510063)">
       <text>
        <tspan x="0" y="-0.173438" style="font-size: 10px; font-family: 'DejaVu Serif'">1</tspan>
        <tspan x="6.362305" y="-0.173438" style="font-size: 10px; font-family: 'DejaVu Serif'">0</tspan>
        <tspan x="12.815391" y="-3.804688" style="font-size: 7px; font-family: 'DejaVu Serif'">−</tspan>
        <tspan x="18.680625" y="-3.804688" style="font-size: 7px; font-family: 'DejaVu Serif'">3</tspan>
       </text>
      </g>
     </g>
    </g>
    <g id="ytick_8">
     <g id="line2d_31">
      <path d="M 55.778125 31.935137 
L 500.528911 31.935137 
" clip-path="url(#p54c554ba69)" style="fill: none; stroke: #b0b0b0; stroke-opacity: 0.25; stroke-width: 0.8; stroke-linecap: square"/>
     </g>
     <g id="line2d_32">
      <g>
       <use xlink:href="#m93f7022fa0" x="55.778125" y="31.935137" style="stroke: #000000; stroke-width: 0.8"/>
      </g>
     </g>
     <g id="text_17">
      <!-- $\mathdefault{10^{-1}}$ -->
      <g transform="translate(25.378125 35.734355)">
       <text>
        <tspan x="0" y="-0.173438" style="font-size: 10px; font-family: 'DejaVu Serif'">1</tspan>
        <tspan x="6.362305" y="-0.173438" style="font-size: 10px; font-family: 'DejaVu Serif'">0</tspan>
        <tspan x="12.815391" y="-3.804688" style="font-size: 7px; font-family: 'DejaVu Serif'">−</tspan>
        <tspan x="18.680625" y="-3.804688" style="font-size: 7px; font-family: 'DejaVu Serif'">1</tspan>
       </text>
      </g>
     </g>
    </g>
    <g id="text_18">
     <!-- KKT Residual $K_t$ -->
     <g transform="translate(14.798437 194.32) rotate(-90)">
      <text>
       <tspan x="0" y="-0.40625" style="font-size: 10px; font-family: 'DejaVu Serif'">K</tspan>
       <tspan x="7.470703" y="-0.40625" style="font-size: 10px; font-family: 'DejaVu Serif'">K</tspan>
       <tspan x="14.941406" y="-0.40625" style="font-size: 10px; font-family: 'DejaVu Serif'">T</tspan>
       <tspan x="21.611328" y="-0.40625" style="font-size: 10px; font-family: 'DejaVu Serif'"> </tspan>
       <tspan x="24.790039" y="-0.40625" style="font-size: 10px; font-family: 'DejaVu Serif'">R</tspan>
       <tspan x="32.319336" y="-0.40625" style="font-size: 10px; font-family: 'DejaVu Serif'">e</tspan>
       <tspan x="38.237305" y="-0.40625" style="font-size: 10px; font-family: 'DejaVu Serif'">s</tspan>
       <tspan x="43.369141" y="-0.40625" style="font-size: 10px; font-family: 'DejaVu Serif'">i</tspan>
       <tspan x="46.567383" y="-0.40625" style="font-size: 10px; font-family: 'DejaVu Serif'">d</tspan>
       <tspan x="52.96875" y="-0.40625" style="font-size: 10px; font-family: 'DejaVu Serif'">u</tspan>
       <tspan x="59.40918" y="-0.40625" style="font-size: 10px; font-family: 'DejaVu Serif'">a</tspan>
       <tspan x="65.371094" y="-0.40625" style="font-size: 10px; font-family: 'DejaVu Serif'">l</tspan>
       <tspan x="68.569336" y="-0.40625" style="font-size: 10px; font-family: 'DejaVu Serif'"> </tspan>
       <tspan x="71.748047" y="-0.40625" style="font-style: oblique; font-size: 10px; font-family: 'DejaVu Sans'">K</tspan>
       <tspan x="78.305664" y="1.234375" style="font-style: oblique; font-size: 7px; font-family: 'DejaVu Sans'">t</tspan>
      </text>
     </g>
    </g>
   </g>
   <g id="line2d_33">
    <path d="M 75.99407 20.510909 
L 78.025823 30.423768 
L 80.057576 36.166451 
L 86.152836 46.716831 
L 92.248096 54.169191 
L 94.279849 56.317041 
L 96.311602 58.0607 
L 98.343356 59.451521 
L 100.375109 60.532302 
L 102.406862 61.346792 
L 104.438615 61.930258 
L 106.470369 62.359658 
L 110.533875 62.8861 
L 116.629135 63.312192 
L 126.787901 63.640001 
L 128.819654 63.685836 
L 130.851408 64.626572 
L 132.883161 67.326046 
L 134.914914 68.698124 
L 136.946667 69.546781 
L 138.978421 70.022321 
L 143.041927 70.710338 
L 147.105434 71.208838 
L 151.16894 71.550465 
L 167.422966 72.328942 
L 177.581732 72.647058 
L 179.613486 75.630323 
L 181.645239 81.319832 
L 183.676992 83.4046 
L 189.772252 88.503358 
L 193.835758 92.076256 
L 206.026278 102.689241 
L 212.121538 107.93745 
L 216.185044 111.377424 
L 220.248551 114.854613 
L 230.407317 122.781757 
L 240.566083 130.976638 
L 244.62959 133.744312 
L 248.693096 136.922489 
L 252.756603 140.248341 
L 254.788356 141.688992 
L 264.947122 148.074526 
L 275.105888 155.920825 
L 281.201148 160.493492 
L 285.264655 163.401669 
L 287.296408 164.798908 
L 291.359914 167.931275 
L 299.486927 174.982111 
L 307.61394 181.748372 
L 336.058486 205.411906 
L 340.121992 208.905093 
L 344.185499 212.062303 
L 346.217252 213.580061 
L 350.280759 217.030683 
L 352.312512 218.533555 
L 354.344265 219.687603 
L 356.376018 221.178489 
L 360.439525 223.764599 
L 362.471278 225.2685 
L 364.503031 226.577745 
L 368.566538 229.743456 
L 370.598291 231.12645 
L 374.661798 234.448461 
L 380.757057 239.86932 
L 382.788811 241.72844 
L 384.820564 243.304954 
L 399.042837 255.552133 
L 403.106343 259.13749 
L 409.201603 264.294732 
L 413.265109 267.174653 
L 423.423876 275.363854 
L 425.455629 276.805117 
L 431.550889 282.102166 
L 433.582642 283.903979 
L 435.614395 285.387738 
L 437.646148 286.729091 
L 480.312967 286.729091 
L 480.312967 286.729091 
" clip-path="url(#p54c554ba69)" style="fill: none; stroke: #1f77b4; stroke-width: 1.9; stroke-linecap: square"/>
   </g>
   <g id="line2d_34">
    <path d="M 75.99407 20.510909 
L 78.025823 25.48845 
L 80.057576 34.812133 
L 82.08933 39.521654 
L 84.121083 44.951052 
L 86.152836 49.258874 
L 88.184589 52.910706 
L 92.248096 58.288992 
L 94.279849 60.04328 
L 96.311602 61.055597 
L 98.343356 61.652751 
L 102.406862 62.195887 
L 110.533875 62.467094 
L 112.565628 62.659319 
L 116.629135 62.748635 
L 118.660888 64.383739 
L 120.692641 67.526976 
L 122.724395 68.684309 
L 124.756148 69.248393 
L 128.819654 70.017092 
L 132.883161 70.465168 
L 138.978421 70.85565 
L 151.16894 71.37823 
L 153.200693 73.733123 
L 155.232447 80.946986 
L 157.2642 83.607542 
L 159.295953 85.674691 
L 161.327706 87.935525 
L 163.35946 89.091313 
L 165.391213 92.08401 
L 167.422966 93.289394 
L 169.454719 95.427431 
L 171.486473 99.361934 
L 173.518226 101.735898 
L 175.549979 101.295968 
L 177.581732 101.331841 
L 179.613486 102.680145 
L 181.645239 103.885066 
L 183.676992 102.463298 
L 185.708745 101.972364 
L 187.740499 106.309129 
L 189.772252 117.031844 
L 191.804005 119.342046 
L 193.835758 119.685381 
L 195.867512 119.595041 
L 197.899265 120.08027 
L 199.931018 121.943506 
L 201.962771 124.520369 
L 203.994525 124.421212 
L 206.026278 121.60371 
L 208.058031 122.790852 
L 210.089784 122.575995 
L 212.121538 123.315415 
L 214.153291 125.82259 
L 216.185044 124.920314 
L 218.216797 121.840688 
L 220.248551 127.928494 
L 222.280304 134.98205 
L 224.312057 148.934196 
L 226.34381 153.395933 
L 228.375564 156.028518 
L 230.407317 157.804016 
L 232.43907 159.293273 
L 234.470823 160.548489 
L 236.502577 162.078505 
L 238.53433 164.0356 
L 240.566083 165.34431 
L 242.597836 166.936432 
L 244.62959 168.732434 
L 246.661343 167.742994 
L 248.693096 170.550634 
L 250.724849 171.705101 
L 252.756603 170.488975 
L 254.788356 171.485196 
L 256.820109 169.255891 
L 258.851862 171.51458 
L 260.883616 171.889973 
L 262.915369 171.6049 
L 264.947122 173.143783 
L 266.978875 173.334422 
L 271.042382 172.096868 
L 273.074135 170.166968 
L 275.105888 168.95067 
L 277.137642 170.071423 
L 279.169395 169.826387 
L 283.232901 169.948948 
L 285.264655 174.49731 
L 287.296408 186.916831 
L 289.328161 205.480172 
L 293.391668 208.363308 
L 297.455174 211.674324 
L 303.550434 217.466623 
L 305.582187 219.379143 
L 307.61394 221.130286 
L 311.677447 223.991188 
L 313.7092 225.02109 
L 315.740953 226.260467 
L 319.80446 227.781104 
L 321.836213 228.058766 
L 323.867966 226.33028 
L 325.89972 228.257403 
L 327.931473 230.547901 
L 329.963226 230.703349 
L 331.994979 230.272584 
L 334.026733 231.145053 
L 336.058486 229.693618 
L 338.090239 230.893452 
L 340.121992 232.961487 
L 342.153746 233.691259 
L 344.185499 234.887245 
L 346.217252 236.891708 
L 348.249005 239.38565 
L 350.280759 243.360021 
L 352.312512 245.628694 
L 356.376018 249.594345 
L 362.471278 254.511234 
L 364.503031 255.709126 
L 366.534785 257.240118 
L 368.566538 259.677395 
L 372.630044 259.983113 
L 376.693551 263.461183 
L 378.725304 266.060907 
L 380.757057 271.317669 
L 382.788811 274.494838 
L 384.820564 276.96499 
L 388.88407 281.168374 
L 390.915824 282.90255 
L 392.947577 284.330003 
L 394.97933 285.329171 
L 397.011083 286.729091 
L 480.312967 286.729091 
L 480.312967 286.729091 
" clip-path="url(#p54c554ba69)" style="fill: none; stroke-dasharray: 7.03,3.04; stroke-dashoffset: 0; stroke: #ff7f0e; stroke-width: 1.9"/>
   </g>
   <g id="patch_3">
    <path d="M 55.778125 300.04 
L 55.778125 7.2 
" style="fill: none; stroke: #000000; stroke-width: 0.8; stroke-linejoin: miter; stroke-linecap: square"/>
   </g>
   <g id="patch_4">
    <path d="M 500.528911 300.04 
L 500.528911 7.2 
" style="fill: none; stroke: #000000; stroke-width: 0.8; stroke-linejoin: miter; stroke-linecap: square"/>
   </g>
   <g id="patch_5">
    <path d="M 55.778125 300.04 
L 500.528911 300.04 
" style="fill: none; stroke: #000000; stroke-width: 0.8; stroke-linejoin: miter; stroke-linecap: square"/>
   </g>
   <g id="patch_6">
    <path d="M 55.778125 7.2 
L 500.528911 7.2 
" style="fill: none; stroke: #000000; stroke-width: 0.8; stroke-linejoin: miter; stroke-linecap: square"/>
   </g>
   <g id="legend_1">
    <g id="patch_7">
     <path d="M 308.124615 24.208594 
L 495.278911 24.208594 
Q 496.778911 24.208594 496.778911 22.708594 
L 496.778911 12.45 
Q 496.778911 10.95 495.278911 10.95 
L 308.124615 10.95 
Q 306.624615 10.95 306.624615 12.45 
L 306.624615 22.708594 
Q 306.624615 24.208594 308.124615 24.208594 
z
" style="fill: #ffffff; opacity: 0.8; stroke: #cccccc; stroke-linejoin: miter"/>
    </g>
    <g id="line2d_35">
     <path d="M 309.624615 17.023828 
L 317.124615 17.023828 
L 324.624615 17.023828 
" style="fill: none; stroke: #1f77b4; stroke-width: 1.9; stroke-linecap: square"/>
    </g>
    <g id="text_19">
     <text style="font-size: 7.5px; font-family: 'DejaVu Serif', serif; text-anchor: start" x="330.624615" y="19.648828" transform="rotate(-0 330.624615 19.648828)">SPIDER-ADMM</text>
    </g>
    <g id="line2d_36">
     <path d="M 405.228521 17.023828 
L 412.728521 17.023828 
L 420.228521 17.023828 
" style="fill: none; stroke-dasharray: 7.03,3.04; stroke-dashoffset: 0; stroke: #ff7f0e; stroke-width: 1.9"/>
    </g>
    <g id="text_20">
     <text style="font-size: 7.5px; font-family: 'DejaVu Serif', serif; text-anchor: start" x="426.228521" y="19.648828" transform="rotate(-0 426.228521 19.648828)">AIL-SVRG-ADMM</text>
    </g>
   </g>
  </g>
 </g>
 <defs>
  <clipPath id="p54c554ba69">
   <rect x="55.778125" y="7.2" width="444.750786" height="292.84"/>
  </clipPath>
 </defs>
</svg>
