<?xml version="1.0" encoding="utf-8" standalone="no"?>
<!DOCTYPE svg PUBLIC "-//W3C//DTD SVG 1.1//EN"
  "http://www.w3.org/Graphics/SVG/1.1/DTD/svg11.dtd">
<svg xmlns:xlink="http://www.w3.org/1999/xlink" width="507.718786pt" height="337.59625pt" viewBox="0 0 507.718786 337.59625" xmlns="http://www.w3.org/2000/svg" version="1.1">
 <metadata>
  <rdf:RDF xmlns:dc="http://purl.org/dc/elements/1.1/" xmlns:cc="http://creativecommons.org/ns#" xmlns:rdf="http://www.w3.org/1999/02/22-rdf-syntax-ns#">
   <cc:Work>
    <dc:type rdf:resource="http://purl.org/dc/dcmitype/StillImage"/>
    <dc:date>2026-07-15T09:49:21.904500</dc:date>
    <dc:format>image/svg+xml</dc:format>
    <dc:creator>
     <cc:Agent>
      <dc:title>Matplotlib v3.10.5, https://matplotlib.org/</dc:title>
     </cc:Agent>
    </dc:creator>
   </cc:Work>
  </rdf:RDF>
 </metadata>
 <defs>
  <style type="text/css">*{stroke-linejoin: round; stroke-linecap: butt}</style>
 </defs>
 <g id="figure_1">
  <g id="patch_1">
   <path d="M 0 337.59625 
L 507.718786 337.59625 
L 507.718786 0 
L 0 0 
z
" style="fill: #ffffff"/>
  </g>
  <g id="axes_1">
   <g id="patch_2">
    <path d="M 56.2 300.04 
L 500.518786 300.04 
L 500.518786 7.2 
L 56.2 7.2 
z
" style="fill: #ffffff"/>
   </g>
   <g id="matplotlib.axis_1">
    <g id="xtick_1">
     <g id="line2d_1">
      <path d="M 76.396308 300.04 
L 76.396308 7.2 
" clip-path="url(#ped6132ddd1)" style="fill: none; stroke: #b0b0b0; stroke-opacity: 0.25; stroke-width: 0.8; stroke-linecap: square"/>
     </g>
     <g id="line2d_2">
      <defs>
       <path id="ma382bcc8ce" d="M 0 0 
L 0 3.5 
" style="stroke: #000000; stroke-width: 0.8"/>
      </defs>
      <g>
       <use xlink:href="#ma382bcc8ce" x="76.396308" y="300.04" style="stroke: #000000; stroke-width: 0.8"/>
      </g>
     </g>
     <g id="text_1">
      <text style="font-size: 10px; font-family: 'DejaVu Serif', serif; text-anchor: middle" x="76.396308" y="314.638437" transform="rotate(-0 76.396308 314.638437)">0</text>
     </g>
    </g>
    <g id="xtick_2">
     <g id="line2d_3">
      <path d="M 126.88708 300.04 
L 126.88708 7.2 
" clip-path="url(#ped6132ddd1)" style="fill: none; stroke: #b0b0b0; stroke-opacity: 0.25; stroke-width: 0.8; stroke-linecap: square"/>
     </g>
     <g id="line2d_4">
      <g>
       <use xlink:href="#ma382bcc8ce" x="126.88708" y="300.04" style="stroke: #000000; stroke-width: 0.8"/>
      </g>
     </g>
     <g id="text_2">
      <text style="font-size: 10px; font-family: 'DejaVu Serif', serif; text-anchor: middle" x="126.88708" y="314.638437" transform="rotate(-0 126.88708 314.638437)">500</text>
     </g>
    </g>
    <g id="xtick_3">
     <g id="line2d_5">
      <path d="M 177.377851 300.04 
L 177.377851 7.2 
" clip-path="url(#ped6132ddd1)" style="fill: none; stroke: #b0b0b0; stroke-opacity: 0.25; stroke-width: 0.8; stroke-linecap: square"/>
     </g>
     <g id="line2d_6">
      <g>
       <use xlink:href="#ma382bcc8ce" x="177.377851" y="300.04" style="stroke: #000000; stroke-width: 0.8"/>
      </g>
     </g>
     <g id="text_3">
      <text style="font-size: 10px; font-family: 'DejaVu Serif', serif; text-anchor: middle" x="177.377851" y="314.638437" transform="rotate(-0 177.377851 314.638437)">1000</text>
     </g>
    </g>
    <g id="xtick_4">
     <g id="line2d_7">
      <path d="M 227.868622 300.04 
L 227.868622 7.2 
" clip-path="url(#ped6132ddd1)" style="fill: none; stroke: #b0b0b0; stroke-opacity: 0.25; stroke-width: 0.8; stroke-linecap: square"/>
     </g>
     <g id="line2d_8">
      <g>
       <use xlink:href="#ma382bcc8ce" x="227.868622" y="300.04" style="stroke: #000000; stroke-width: 0.8"/>
      </g>
     </g>
     <g id="text_4">
      <text style="font-size: 10px; font-family: 'DejaVu Serif', serif; text-anchor: middle" x="227.868622" y="314.638437" transform="rotate(-0 227.868622 314.638437)">1500</text>
     </g>
    </g>
    <g id="xtick_5">
     <g id="line2d_9">
      <path d="M 278.359393 300.04 
L 278.359393 7.2 
" clip-path="url(#ped6132ddd1)" style="fill: none; stroke: #b0b0b0; stroke-opacity: 0.25; stroke-width: 0.8; stroke-linecap: square"/>
     </g>
     <g id="line2d_10">
      <g>
       <use xlink:href="#ma382bcc8ce" x="278.359393" y="300.04" style="stroke: #000000; stroke-width: 0.8"/>
      </g>
     </g>
     <g id="text_5">
      <text style="font-size: 10px; font-family: 'DejaVu Serif', serif; text-anchor: middle" x="278.359393" y="314.638437" transform="rotate(-0 278.359393 314.638437)">2000</text>
     </g>
    </g>
    <g id="xtick_6">
     <g id="line2d_11">
      <path d="M 328.850164 300.04 
L 328.850164 7.2 
" clip-path="url(#ped6132ddd1)" style="fill: none; stroke: #b0b0b0; stroke-opacity: 0.25; stroke-width: 0.8; stroke-linecap: square"/>
     </g>
     <g id="line2d_12">
      <g>
       <use xlink:href="#ma382bcc8ce" x="328.850164" y="300.04" style="stroke: #000000; stroke-width: 0.8"/>
      </g>
     </g>
     <g id="text_6">
      <text style="font-size: 10px; font-family: 'DejaVu Serif', serif; text-anchor: middle" x="328.850164" y="314.638437" transform="rotate(-0 328.850164 314.638437)">2500</text>
     </g>
    </g>
    <g id="xtick_7">
     <g id="line2d_13">
      <path d="M 379.340936 300.04 
L 379.340936 7.2 
" clip-path="url(#ped6132ddd1)" style="fill: none; stroke: #b0b0b0; stroke-opacity: 0.25; stroke-width: 0.8; stroke-linecap: square"/>
     </g>
     <g id="line2d_14">
      <g>
       <use xlink:href="#ma382bcc8ce" x="379.340936" y="300.04" style="stroke: #000000; stroke-width: 0.8"/>
      </g>
     </g>
     <g id="text_7">
      <text style="font-size: 10px; font-family: 'DejaVu Serif', serif; text-anchor: middle" x="379.340936" y="314.638437" transform="rotate(-0 379.340936 314.638437)">3000</text>
     </g>
    </g>
    <g id="xtick_8">
     <g id="line2d_15">
      <path d="M 429.831707 300.04 
L 429.831707 7.2 
" clip-path="url(#ped6132ddd1)" style="fill: none; stroke: #b0b0b0; stroke-opacity: 0.25; stroke-width: 0.8; stroke-linecap: square"/>
     </g>
     <g id="line2d_16">
      <g>
       <use xlink:href="#ma382bcc8ce" x="429.831707" y="300.04" style="stroke: #000000; stroke-width: 0.8"/>
      </g>
     </g>
     <g id="text_8">
      <text style="font-size: 10px; font-family: 'DejaVu Serif', serif; text-anchor: middle" x="429.831707" y="314.638437" transform="rotate(-0 429.831707 314.638437)">3500</text>
     </g>
    </g>
    <g id="xtick_9">
     <g id="line2d_17">
      <path d="M 480.322478 300.04 
L 480.322478 7.2 
" clip-path="url(#ped6132ddd1)" style="fill: none; stroke: #b0b0b0; stroke-opacity: 0.25; stroke-width: 0.8; stroke-linecap: square"/>
     </g>
     <g id="line2d_18">
      <g>
       <use xlink:href="#ma382bcc8ce" x="480.322478" y="300.04" style="stroke: #000000; stroke-width: 0.8"/>
      </g>
     </g>
     <g id="text_9">
      <text style="font-size: 10px; font-family: 'DejaVu Serif', serif; text-anchor: middle" x="480.322478" y="314.638437" transform="rotate(-0 480.322478 314.638437)">4000</text>
     </g>
    </g>
    <g id="text_10">
     <text style="font-size: 10px; font-family: 'DejaVu Serif', serif; text-anchor: middle" x="278.359393" y="328.316562" transform="rotate(-0 278.359393 328.316562)">Iterations</text>
    </g>
   </g>
   <g id="matplotlib.axis_2">
    <g id="ytick_1">
     <g id="line2d_19">
      <path d="M 56.2 273.84569 
L 500.518786 273.84569 
" clip-path="url(#ped6132ddd1)" style="fill: none; stroke: #b0b0b0; stroke-opacity: 0.25; stroke-width: 0.8; stroke-linecap: square"/>
     </g>
     <g id="line2d_20">
      <defs>
       <path id="mb72505e58b" d="M 0 0 
L -3.5 0 
" style="stroke: #000000; stroke-width: 0.8"/>
      </defs>
      <g>
       <use xlink:href="#mb72505e58b" x="56.2" y="273.84569" style="stroke: #000000; stroke-width: 0.8"/>
      </g>
     </g>
     <g id="text_11">
      <!-- $\mathdefault{10^{-15}}$ -->
      <g transform="translate(21.3 277.644909)">
       <text>
        <tspan x="0" y="-0.173438" style="font-size: 10px; font-family: 'DejaVu Serif'">1</tspan>
        <tspan x="6.362305" y="-0.173438" style="font-size: 10px; font-family: 'DejaVu Serif'">0</tspan>
        <tspan x="12.815391" y="-3.804688" style="font-size: 7px; font-family: 'DejaVu Serif'">−</tspan>
        <tspan x="18.680625" y="-3.804688" style="font-size: 7px; font-family: 'DejaVu Serif'">1</tspan>
        <tspan x="23.134238" y="-3.804688" style="font-size: 7px; font-family: 'DejaVu Serif'">5</tspan>
       </text>
      </g>
     </g>
    </g>
    <g id="ytick_2">
     <g id="line2d_21">
      <path d="M 56.2 234.420371 
L 500.518786 234.420371 
" clip-path="url(#ped6132ddd1)" style="fill: none; stroke: #b0b0b0; stroke-opacity: 0.25; stroke-width: 0.8; stroke-linecap: square"/>
     </g>
     <g id="line2d_22">
      <g>
       <use xlink:href="#mb72505e58b" x="56.2" y="234.420371" style="stroke: #000000; stroke-width: 0.8"/>
      </g>
     </g>
     <g id="text_12">
      <!-- $\mathdefault{10^{-13}}$ -->
      <g transform="translate(21.3 238.21959)">
       <text>
        <tspan x="0" y="-0.173438" style="font-size: 10px; font-family: 'DejaVu Serif'">1</tspan>
        <tspan x="6.362305" y="-0.173438" style="font-size: 10px; font-family: 'DejaVu Serif'">0</tspan>
        <tspan x="12.815391" y="-3.804688" style="font-size: 7px; font-family: 'DejaVu Serif'">−</tspan>
        <tspan x="18.680625" y="-3.804688" style="font-size: 7px; font-family: 'DejaVu Serif'">1</tspan>
        <tspan x="23.134238" y="-3.804688" style="font-size: 7px; font-family: 'DejaVu Serif'">3</tspan>
       </text>
      </g>
     </g>
    </g>
    <g id="ytick_3">
     <g id="line2d_23">
      <path d="M 56.2 194.995053 
L 500.518786 194.995053 
" clip-path="url(#ped6132ddd1)" style="fill: none; stroke: #b0b0b0; stroke-opacity: 0.25; stroke-width: 0.8; stroke-linecap: square"/>
     </g>
     <g id="line2d_24">
      <g>
       <use xlink:href="#mb72505e58b" x="56.2" y="194.995053" style="stroke: #000000; stroke-width: 0.8"/>
      </g>
     </g>
     <g id="text_13">
      <!-- $\mathdefault{10^{-11}}$ -->
      <g transform="translate(21.3 198.794272)">
       <text>
        <tspan x="0" y="-0.173438" style="font-size: 10px; font-family: 'DejaVu Serif'">1</tspan>
        <tspan x="6.362305" y="-0.173438" style="font-size: 10px; font-family: 'DejaVu Serif'">0</tspan>
        <tspan x="12.815391" y="-3.804688" style="font-size: 7px; font-family: 'DejaVu Serif'">−</tspan>
        <tspan x="18.680625" y="-3.804688" style="font-size: 7px; font-family: 'DejaVu Serif'">1</tspan>
        <tspan x="23.134238" y="-3.804688" style="font-size: 7px; font-family: 'DejaVu Serif'">1</tspan>
       </text>
      </g>
     </g>
    </g>
    <g id="ytick_4">
     <g id="line2d_25">
      <path d="M 56.2 155.569735 
L 500.518786 155.569735 
" clip-path="url(#ped6132ddd1)" style="fill: none; stroke: #b0b0b0; stroke-opacity: 0.25; stroke-width: 0.8; stroke-linecap: square"/>
     </g>
     <g id="line2d_26">
      <g>
       <use xlink:href="#mb72505e58b" x="56.2" y="155.569735" style="stroke: #000000; stroke-width: 0.8"/>
      </g>
     </g>
     <g id="text_14">
      <!-- $\mathdefault{10^{-9}}$ -->
      <g transform="translate(25.8 159.368954)">
       <text>
        <tspan x="0" y="-0.173438" style="font-size: 10px; font-family: 'DejaVu Serif'">1</tspan>
        <tspan x="6.362305" y="-0.173438" style="font-size: 10px; font-family: 'DejaVu Serif'">0</tspan>
        <tspan x="12.815391" y="-3.804688" style="font-size: 7px; font-family: 'DejaVu Serif'">−</tspan>
        <tspan x="18.680625" y="-3.804688" style="font-size: 7px; font-family: 'DejaVu Serif'">9</tspan>
       </text>
      </g>
     </g>
    </g>
    <g id="ytick_5">
     <g id="line2d_27">
      <path d="M 56.2 116.144416 
L 500.518786 116.144416 
" clip-path="url(#ped6132ddd1)" style="fill: none; stroke: #b0b0b0; stroke-opacity: 0.25; stroke-width: 0.8; stroke-linecap: square"/>
     </g>
     <g id="line2d_28">
      <g>
       <use xlink:href="#mb72505e58b" x="56.2" y="116.144416" style="stroke: #000000; stroke-width: 0.8"/>
      </g>
     </g>
     <g id="text_15">
      <!-- $\mathdefault{10^{-7}}$ -->
      <g transform="translate(25.8 119.943635)">
       <text>
        <tspan x="0" y="-0.260938" style="font-size: 10px; font-family: 'DejaVu Serif'">1</tspan>
        <tspan x="6.362305" y="-0.260938" style="font-size: 10px; font-family: 'DejaVu Serif'">0</tspan>
        <tspan x="12.815391" y="-3.892188" style="font-size: 7px; font-family: 'DejaVu Serif'">−</tspan>
        <tspan x="18.680625" y="-3.892188" style="font-size: 7px; font-family: 'DejaVu Serif'">7</tspan>
       </text>
      </g>
     </g>
    </g>
    <g id="ytick_6">
     <g id="line2d_29">
      <path d="M 56.2 76.719098 
L 500.518786 76.719098 
" clip-path="url(#ped6132ddd1)" style="fill: none; stroke: #b0b0b0; stroke-opacity: 0.25; stroke-width: 0.8; stroke-linecap: square"/>
     </g>
     <g id="line2d_30">
      <g>
       <use xlink:href="#mb72505e58b" x="56.2" y="76.719098" style="stroke: #000000; stroke-width: 0.8"/>
      </g>
     </g>
     <g id="text_16">
      <!-- $\mathdefault{10^{-5}}$ -->
      <g transform="translate(25.8 80.518317)">
       <text>
        <tspan x="0" y="-0.260938" style="font-size: 10px; font-family: 'DejaVu Serif'">1</tspan>
        <tspan x="6.362305" y="-0.260938" style="font-size: 10px; font-family: 'DejaVu Serif'">0</tspan>
        <tspan x="12.815391" y="-3.892188" style="font-size: 7px; font-family: 'DejaVu Serif'">−</tspan>
        <tspan x="18.680625" y="-3.892188" style="font-size: 7px; font-family: 'DejaVu Serif'">5</tspan>
       </text>
      </g>
     </g>
    </g>
    <g id="ytick_7">
     <g id="line2d_31">
      <path d="M 56.2 37.29378 
L 500.518786 37.29378 
" clip-path="url(#ped6132ddd1)" style="fill: none; stroke: #b0b0b0; stroke-opacity: 0.25; stroke-width: 0.8; stroke-linecap: square"/>
     </g>
     <g id="line2d_32">
      <g>
       <use xlink:href="#mb72505e58b" x="56.2" y="37.29378" style="stroke: #000000; stroke-width: 0.8"/>
      </g>
     </g>
     <g id="text_17">
      <!-- $\mathdefault{10^{-3}}$ -->
      <g transform="translate(25.8 41.092999)">
       <text>
        <tspan x="0" y="-0.173438" style="font-size: 10px; font-family: 'DejaVu Serif'">1</tspan>
        <tspan x="6.362305" y="-0.173438" style="font-size: 10px; font-family: 'DejaVu Serif'">0</tspan>
        <tspan x="12.815391" y="-3.804688" style="font-size: 7px; font-family: 'DejaVu Serif'">−</tspan>
        <tspan x="18.680625" y="-3.804688" style="font-size: 7px; font-family: 'DejaVu Serif'">3</tspan>
       </text>
      </g>
     </g>
    </g>
    <g id="text_18">
     <!-- Primal Residual $\|D \mathbf{x}-\mathbf{y}\|$ -->
     <g transform="translate(14.9 216.87) rotate(-90)">
      <text>
       <tspan x="0" y="-0.359375" style="font-size: 10px; font-family: 'DejaVu Serif'">P</tspan>
       <tspan x="6.728516" y="-0.359375" style="font-size: 10px; font-family: 'DejaVu Serif'">r</tspan>
       <tspan x="11.508789" y="-0.359375" style="font-size: 10px; font-family: 'DejaVu Serif'">i</tspan>
       <tspan x="14.707031" y="-0.359375" style="font-size: 10px; font-family: 'DejaVu Serif'">m</tspan>
       <tspan x="24.189453" y="-0.359375" style="font-size: 10px; font-family: 'DejaVu Serif'">a</tspan>
       <tspan x="30.151367" y="-0.359375" style="font-size: 10px; font-family: 'DejaVu Serif'">l</tspan>
       <tspan x="33.349609" y="-0.359375" style="font-size: 10px; font-family: 'DejaVu Serif'"> </tspan>
       <tspan x="36.52832" y="-0.359375" style="font-size: 10px; font-family: 'DejaVu Serif'">R</tspan>
       <tspan x="44.057617" y="-0.359375" style="font-size: 10px; font-family: 'DejaVu Serif'">e</tspan>
       <tspan x="49.975586" y="-0.359375" style="font-size: 10px; font-family: 'DejaVu Serif'">s</tspan>
       <tspan x="55.107422" y="-0.359375" style="font-size: 10px; font-family: 'DejaVu Serif'">i</tspan>
       <tspan x="58.305664" y="-0.359375" style="font-size: 10px; font-family: 'DejaVu Serif'">d</tspan>
       <tspan x="64.707031" y="-0.359375" style="font-size: 10px; font-family: 'DejaVu Serif'">u</tspan>
       <tspan x="71.147461" y="-0.359375" style="font-size: 10px; font-family: 'DejaVu Serif'">a</tspan>
       <tspan x="77.109375" y="-0.359375" style="font-size: 10px; font-family: 'DejaVu Serif'">l</tspan>
       <tspan x="80.307617" y="-0.359375" style="font-size: 10px; font-family: 'DejaVu Serif'"> </tspan>
       <tspan x="83.486328" y="-0.359375" style="font-size: 10px; font-family: 'DejaVu Sans'">‖</tspan>
       <tspan x="104.584961" y="-0.359375" style="font-size: 10px; font-family: 'DejaVu Sans'">−</tspan>
       <tspan x="121.430664" y="-0.359375" style="font-size: 10px; font-family: 'DejaVu Sans'">‖</tspan>
       <tspan x="88.486328" y="-0.359375" style="font-style: oblique; font-size: 10px; font-family: 'DejaVu Sans'">D</tspan>
       <tspan x="96.186523" y="-0.359375" style="font-weight: 700; font-size: 10px; font-family: 'DejaVu Sans'">x</tspan>
       <tspan x="114.912109" y="-0.359375" style="font-weight: 700; font-size: 10px; font-family: 'DejaVu Sans'">y</tspan>
      </text>
     </g>
    </g>
   </g>
   <g id="line2d_33">
    <path d="M 76.396308 286.729091 
L 78.415939 21.336865 
L 80.43557 25.201315 
L 82.455201 27.441183 
L 84.474832 35.032166 
L 86.494463 37.082353 
L 88.514094 40.139282 
L 90.533724 39.219388 
L 92.553355 44.494813 
L 94.572986 43.258337 
L 96.592617 49.781596 
L 98.612248 49.765514 
L 100.631879 58.246523 
L 102.651509 57.913217 
L 104.67114 62.735013 
L 106.690771 65.46246 
L 108.710402 62.942503 
L 110.730033 69.418433 
L 112.749664 65.495142 
L 114.769295 72.190155 
L 116.788925 69.482191 
L 118.808556 75.393294 
L 120.828187 74.540162 
L 122.847818 78.55784 
L 124.867449 77.07654 
L 126.88708 80.223812 
L 128.906711 80.62003 
L 130.926341 33.040829 
L 132.945972 43.396085 
L 134.965603 44.431553 
L 136.985234 51.517483 
L 139.004865 54.123053 
L 141.024496 59.533654 
L 143.044126 65.815761 
L 145.063757 65.193182 
L 147.083388 71.003072 
L 149.103019 68.542522 
L 151.12265 73.959352 
L 153.142281 71.358269 
L 155.161912 77.155972 
L 157.181542 75.560155 
L 159.201173 78.538656 
L 161.220804 79.98961 
L 163.240435 78.601517 
L 165.260066 83.142418 
L 167.279697 81.464166 
L 169.299327 84.415616 
L 171.318958 81.697048 
L 173.338589 82.980668 
L 175.35822 83.203915 
L 177.377851 42.289099 
L 179.397482 49.23645 
L 181.417113 54.427414 
L 183.436743 56.317444 
L 185.456374 63.651862 
L 187.476005 60.474219 
L 189.495636 68.171547 
L 191.515267 66.262699 
L 193.534898 72.297418 
L 195.554528 71.192317 
L 197.574159 74.226463 
L 199.59379 75.141276 
L 201.613421 74.574223 
L 203.633052 77.762514 
L 205.652683 76.57585 
L 207.672314 79.264794 
L 209.691944 78.61878 
L 211.711575 81.036234 
L 213.731206 81.082811 
L 215.750837 82.625589 
L 219.790099 84.120051 
L 221.809729 85.502078 
L 223.82936 86.057155 
L 225.848991 87.430711 
L 227.868622 88.141014 
L 229.888253 89.203023 
L 231.907884 89.953076 
L 233.927515 91.100184 
L 239.986407 93.875115 
L 242.006038 95.0097 
L 244.025669 95.768698 
L 246.0453 96.861632 
L 250.084561 98.511339 
L 252.104192 99.546356 
L 254.123823 100.736109 
L 256.143454 101.479672 
L 262.202346 104.447572 
L 266.241608 106.329558 
L 268.261239 107.392374 
L 270.28087 108.215936 
L 272.300501 109.197842 
L 274.320132 110.027888 
L 276.339762 111.087947 
L 278.359393 111.981013 
L 280.379024 112.999645 
L 282.398655 114.160833 
L 292.496809 118.710777 
L 294.51644 119.760092 
L 300.575333 122.510934 
L 302.594963 123.558363 
L 304.614594 124.413659 
L 306.634225 125.516052 
L 310.673487 127.136133 
L 314.712748 129.355599 
L 316.732379 130.156294 
L 322.791272 133.132413 
L 324.810903 133.936795 
L 326.830534 134.969265 
L 330.869795 136.851602 
L 336.928688 139.637187 
L 338.948319 140.791931 
L 340.967949 141.479437 
L 342.98758 142.70878 
L 345.007211 143.491359 
L 349.046473 145.427157 
L 351.066104 146.188644 
L 353.085735 147.418606 
L 361.164258 151.179652 
L 365.20352 153.114071 
L 367.22315 154.165123 
L 369.242781 155.077804 
L 371.262412 155.829479 
L 373.282043 156.958773 
L 375.301674 157.827234 
L 377.321305 158.922604 
L 379.340936 159.725748 
L 383.380197 161.676122 
L 393.478352 166.427472 
L 395.497982 167.542504 
L 397.517613 168.292022 
L 399.537244 169.450139 
L 401.556875 170.2226 
L 403.576506 171.17262 
L 405.596137 172.316919 
L 407.615767 173.065048 
L 409.635398 174.201977 
L 411.655029 174.859675 
L 413.67466 176.149557 
L 415.694291 176.880215 
L 417.713922 177.997433 
L 423.772814 180.578341 
L 425.792445 181.78604 
L 429.831707 183.563408 
L 431.851338 184.64796 
L 439.929861 188.547432 
L 441.949492 189.195348 
L 443.969123 190.303045 
L 445.988754 191.186057 
L 450.028015 193.229633 
L 452.047646 194.030457 
L 456.086908 196.129028 
L 460.126169 197.993 
L 462.1458 198.778832 
L 464.165431 200.031364 
L 466.185062 200.822303 
L 470.224324 202.66059 
L 472.243955 203.913632 
L 474.263585 204.506809 
L 478.302847 206.552893 
L 480.322478 207.507086 
L 480.322478 207.507086 
" clip-path="url(#ped6132ddd1)" style="fill: none; stroke: #1f77b4; stroke-width: 1.9; stroke-linecap: square"/>
   </g>
   <g id="line2d_34">
    <path d="M 76.396308 286.729091 
L 78.415939 20.510909 
L 80.43557 24.330995 
L 82.455201 29.044086 
L 84.474832 28.510074 
L 86.494463 37.797931 
L 88.514094 37.682239 
L 92.553355 41.582597 
L 94.572986 47.17485 
L 96.592617 54.359352 
L 98.612248 49.459685 
L 100.631879 47.467498 
L 102.651509 44.345813 
L 104.67114 44.865658 
L 106.690771 42.687304 
L 108.710402 52.960303 
L 110.730033 59.075194 
L 112.749664 53.972978 
L 114.769295 55.729773 
L 116.788925 29.629262 
L 118.808556 41.125946 
L 120.828187 48.609764 
L 122.847818 48.924039 
L 124.867449 54.889289 
L 126.88708 52.924251 
L 128.906711 51.742563 
L 130.926341 51.586688 
L 132.945972 48.325907 
L 134.965603 46.809936 
L 136.985234 46.365848 
L 139.004865 47.581886 
L 141.024496 53.014604 
L 143.044126 51.140289 
L 145.063757 46.764383 
L 147.083388 47.001747 
L 149.103019 42.17074 
L 151.12265 36.697513 
L 153.142281 44.924421 
L 155.161912 42.014329 
L 157.181542 45.141767 
L 159.201173 41.403876 
L 161.220804 42.033424 
L 163.240435 41.844056 
L 165.260066 43.080155 
L 167.279697 44.961551 
L 169.299327 44.890548 
L 171.318958 45.064356 
L 173.338589 51.367607 
L 175.35822 60.344347 
L 177.377851 60.233738 
L 179.397482 57.437918 
L 181.417113 58.768337 
L 183.436743 58.135768 
L 185.456374 57.153778 
L 187.476005 56.381574 
L 189.495636 57.966484 
L 191.515267 59.04578 
L 193.534898 71.137593 
L 195.554528 72.896604 
L 197.574159 72.816403 
L 199.59379 73.19227 
L 201.613421 71.808157 
L 203.633052 67.07465 
L 205.652683 67.845829 
L 207.672314 71.163354 
L 209.691944 71.127201 
L 211.711575 83.321513 
L 213.731206 81.359872 
L 217.770468 86.560644 
L 219.790099 87.075895 
L 221.809729 84.781029 
L 223.82936 84.574024 
L 225.848991 83.275677 
L 227.868622 84.176821 
L 229.888253 82.711213 
L 231.907884 84.164416 
L 233.927515 80.82589 
L 235.947145 82.98911 
L 237.966776 83.461431 
L 239.986407 82.114843 
L 242.006038 83.313861 
L 244.025669 91.649628 
L 246.0453 89.951225 
L 248.064931 90.734981 
L 250.084561 95.938974 
L 252.104192 108.039892 
L 254.123823 106.719788 
L 256.143454 104.989656 
L 258.163085 105.4636 
L 260.182716 104.185611 
L 262.202346 105.14479 
L 264.221977 105.597876 
L 266.241608 104.317558 
L 268.261239 103.306241 
L 270.28087 102.470027 
L 272.300501 115.11135 
L 274.320132 120.843182 
L 278.359393 120.847763 
L 280.379024 118.778808 
L 282.398655 117.040319 
L 284.418286 116.372829 
L 286.437917 117.019914 
L 288.457547 114.828089 
L 290.477178 113.821872 
L 292.496809 117.061787 
L 294.51644 126.515362 
L 296.536071 122.583469 
L 298.555702 125.302885 
L 300.575333 129.473013 
L 302.594963 127.512555 
L 304.614594 127.989569 
L 306.634225 124.877511 
L 308.653856 127.50631 
L 310.673487 122.521314 
L 312.693118 124.336781 
L 314.712748 124.605979 
L 316.732379 127.1881 
L 318.75201 126.750301 
L 320.771641 129.299903 
L 322.791272 133.145149 
L 324.810903 146.768341 
L 326.830534 156.386394 
L 328.850164 159.070058 
L 330.869795 156.138031 
L 332.889426 152.792526 
L 334.909057 155.333936 
L 336.928688 153.346839 
L 338.948319 155.798772 
L 340.967949 152.491613 
L 342.98758 153.263278 
L 345.007211 153.510413 
L 347.026842 153.575747 
L 349.046473 153.077446 
L 351.066104 153.677857 
L 353.085735 152.557452 
L 355.105365 154.309497 
L 357.124996 156.751392 
L 359.144627 154.835125 
L 361.164258 155.552924 
L 363.183889 156.765336 
L 365.20352 157.802636 
L 367.22315 154.52533 
L 369.242781 151.557729 
L 371.262412 155.947831 
L 373.282043 153.661459 
L 375.301674 155.065637 
L 377.321305 155.994515 
L 379.340936 155.096953 
L 381.360566 157.616859 
L 383.380197 153.687389 
L 385.399828 153.672493 
L 387.419459 154.840147 
L 389.43909 152.269453 
L 391.458721 155.366876 
L 393.478352 156.410274 
L 395.497982 154.362292 
L 397.517613 153.716223 
L 399.537244 156.484228 
L 401.556875 156.291128 
L 403.576506 154.305727 
L 405.596137 154.032622 
L 407.615767 163.97586 
L 409.635398 168.33729 
L 411.655029 171.62859 
L 413.67466 172.198169 
L 415.694291 170.983953 
L 417.713922 183.090483 
L 419.733553 196.746872 
L 421.753183 203.006477 
L 423.772814 206.224467 
L 425.792445 212.004385 
L 427.812076 215.870707 
L 429.831707 216.250864 
L 431.851338 214.931687 
L 433.870968 227.13289 
L 435.890599 226.280781 
L 437.91023 224.266414 
L 439.929861 225.667328 
L 441.949492 223.642422 
L 443.969123 218.070669 
L 445.988754 223.618598 
L 448.008384 223.829337 
L 450.028015 221.766491 
L 452.047646 219.5155 
L 454.067277 223.082225 
L 456.086908 220.880889 
L 458.106539 220.646015 
L 460.126169 222.748284 
L 462.1458 221.275736 
L 464.165431 238.485555 
L 466.185062 230.739682 
L 468.204693 230.523405 
L 470.224324 237.721965 
L 472.243955 240.209585 
L 474.263585 238.48017 
L 476.283216 237.768444 
L 480.322478 236.997581 
L 480.322478 236.997581 
" clip-path="url(#ped6132ddd1)" style="fill: none; stroke-dasharray: 7.03,3.04; stroke-dashoffset: 0; stroke: #ff7f0e; stroke-width: 1.9"/>
   </g>
   <g id="patch_3">
    <path d="M 56.2 300.04 
L 56.2 7.2 
" style="fill: none; stroke: #000000; stroke-width: 0.8; stroke-linejoin: miter; stroke-linecap: square"/>
   </g>
   <g id="patch_4">
    <path d="M 500.518786 300.04 
L 500.518786 7.2 
" style="fill: none; stroke: #000000; stroke-width: 0.8; stroke-linejoin: miter; stroke-linecap: square"/>
   </g>
   <g id="patch_5">
    <path d="M 56.2 300.04 
L 500.518786 300.04 
" style="fill: none; stroke: #000000; stroke-width: 0.8; stroke-linejoin: miter; stroke-linecap: square"/>
   </g>
   <g id="patch_6">
    <path d="M 56.2 7.2 
L 500.518786 7.2 
" style="fill: none; stroke: #000000; stroke-width: 0.8; stroke-linejoin: miter; stroke-linecap: square"/>
   </g>
   <g id="legend_1">
    <g id="patch_7">
     <path d="M 308.11449 24.208594 
L 495.268786 24.208594 
Q 496.768786 24.208594 496.768786 22.708594 
L 496.768786 12.45 
Q 496.768786 10.95 495.268786 10.95 
L 308.11449 10.95 
Q 306.61449 10.95 306.61449 12.45 
L 306.61449 22.708594 
Q 306.61449 24.208594 308.11449 24.208594 
z
" style="fill: #ffffff; opacity: 0.8; stroke: #cccccc; stroke-linejoin: miter"/>
    </g>
    <g id="line2d_35">
     <path d="M 309.61449 17.023828 
L 317.11449 17.023828 
L 324.61449 17.023828 
" style="fill: none; stroke: #1f77b4; stroke-width: 1.9; stroke-linecap: square"/>
    </g>
    <g id="text_19">
     <text style="font-size: 7.5px; font-family: 'DejaVu Serif', serif; text-anchor: start" x="330.61449" y="19.648828" transform="rotate(-0 330.61449 19.648828)">SPIDER-ADMM</text>
    </g>
    <g id="line2d_36">
     <path d="M 405.218396 17.023828 
L 412.718396 17.023828 
L 420.218396 17.023828 
" style="fill: none; stroke-dasharray: 7.03,3.04; stroke-dashoffset: 0; stroke: #ff7f0e; stroke-width: 1.9"/>
    </g>
    <g id="text_20">
     <text style="font-size: 7.5px; font-family: 'DejaVu Serif', serif; text-anchor: start" x="426.218396" y="19.648828" transform="rotate(-0 426.218396 19.648828)">AIL-SVRG-ADMM</text>
    </g>
   </g>
  </g>
 </g>
 <defs>
  <clipPath id="ped6132ddd1">
   <rect x="56.2" y="7.2" width="444.318786" height="292.84"/>
  </clipPath>
 </defs>
</svg>
