<?xml version="1.0" encoding="utf-8" standalone="no"?>
<!DOCTYPE svg PUBLIC "-//W3C//DTD SVG 1.1//EN"
  "http://www.w3.org/Graphics/SVG/1.1/DTD/svg11.dtd">
<svg xmlns:xlink="http://www.w3.org/1999/xlink" width="507.498071pt" height="336.051513pt" viewBox="0 0 507.498071 336.051513" xmlns="http://www.w3.org/2000/svg" version="1.1">
 <metadata>
  <rdf:RDF xmlns:dc="http://purl.org/dc/elements/1.1/" xmlns:cc="http://creativecommons.org/ns#" xmlns:rdf="http://www.w3.org/1999/02/22-rdf-syntax-ns#">
   <cc:Work>
    <dc:type rdf:resource="http://purl.org/dc/dcmitype/StillImage"/>
    <dc:date>2026-07-14T16:30:19.874374</dc:date>
    <dc:format>image/svg+xml</dc:format>
    <dc:creator>
     <cc:Agent>
      <dc:title>Matplotlib v3.10.5, https://matplotlib.org/</dc:title>
     </cc:Agent>
    </dc:creator>
   </cc:Work>
  </rdf:RDF>
 </metadata>
 <defs>
  <style type="text/css">*{stroke-linejoin: round; stroke-linecap: butt}</style>
 </defs>
 <g id="figure_1">
  <g id="patch_1">
   <path d="M 0 336.051513 
L 507.498071 336.051513 
L 507.498071 0 
L 0 0 
z
" style="fill: #ffffff"/>
  </g>
  <g id="axes_1">
   <g id="patch_2">
    <path d="M 51.278125 298.495263 
L 500.298071 298.495263 
L 500.298071 8.609798 
L 51.278125 8.609798 
z
" style="fill: #ffffff"/>
   </g>
   <g id="matplotlib.axis_1">
    <g id="xtick_1">
     <g id="line2d_1">
      <path d="M 71.688123 298.495263 
L 71.688123 8.609798 
" clip-path="url(#p6180521b12)" style="fill: none; stroke: #b0b0b0; stroke-opacity: 0.25; stroke-width: 0.8; stroke-linecap: square"/>
     </g>
     <g id="line2d_2">
      <defs>
       <path id="m1bff8e14e7" d="M 0 0 
L 0 3.5 
" style="stroke: #000000; stroke-width: 0.8"/>
      </defs>
      <g>
       <use xlink:href="#m1bff8e14e7" x="71.688123" y="298.495263" style="stroke: #000000; stroke-width: 0.8"/>
      </g>
     </g>
     <g id="text_1">
      <text style="font-size: 10px; font-family: 'DejaVu Serif', serif; text-anchor: middle" x="71.688123" y="313.0937" transform="rotate(-0 71.688123 313.0937)">0.0</text>
     </g>
    </g>
    <g id="xtick_2">
     <g id="line2d_3">
      <path d="M 167.540094 298.495263 
L 167.540094 8.609798 
" clip-path="url(#p6180521b12)" style="fill: none; stroke: #b0b0b0; stroke-opacity: 0.25; stroke-width: 0.8; stroke-linecap: square"/>
     </g>
     <g id="line2d_4">
      <g>
       <use xlink:href="#m1bff8e14e7" x="167.540094" y="298.495263" style="stroke: #000000; stroke-width: 0.8"/>
      </g>
     </g>
     <g id="text_2">
      <text style="font-size: 10px; font-family: 'DejaVu Serif', serif; text-anchor: middle" x="167.540094" y="313.0937" transform="rotate(-0 167.540094 313.0937)">0.2</text>
     </g>
    </g>
    <g id="xtick_3">
     <g id="line2d_5">
      <path d="M 263.392066 298.495263 
L 263.392066 8.609798 
" clip-path="url(#p6180521b12)" style="fill: none; stroke: #b0b0b0; stroke-opacity: 0.25; stroke-width: 0.8; stroke-linecap: square"/>
     </g>
     <g id="line2d_6">
      <g>
       <use xlink:href="#m1bff8e14e7" x="263.392066" y="298.495263" style="stroke: #000000; stroke-width: 0.8"/>
      </g>
     </g>
     <g id="text_3">
      <text style="font-size: 10px; font-family: 'DejaVu Serif', serif; text-anchor: middle" x="263.392066" y="313.0937" transform="rotate(-0 263.392066 313.0937)">0.4</text>
     </g>
    </g>
    <g id="xtick_4">
     <g id="line2d_7">
      <path d="M 359.244037 298.495263 
L 359.244037 8.609798 
" clip-path="url(#p6180521b12)" style="fill: none; stroke: #b0b0b0; stroke-opacity: 0.25; stroke-width: 0.8; stroke-linecap: square"/>
     </g>
     <g id="line2d_8">
      <g>
       <use xlink:href="#m1bff8e14e7" x="359.244037" y="298.495263" style="stroke: #000000; stroke-width: 0.8"/>
      </g>
     </g>
     <g id="text_4">
      <text style="font-size: 10px; font-family: 'DejaVu Serif', serif; text-anchor: middle" x="359.244037" y="313.0937" transform="rotate(-0 359.244037 313.0937)">0.6</text>
     </g>
    </g>
    <g id="xtick_5">
     <g id="line2d_9">
      <path d="M 455.096009 298.495263 
L 455.096009 8.609798 
" clip-path="url(#p6180521b12)" style="fill: none; stroke: #b0b0b0; stroke-opacity: 0.25; stroke-width: 0.8; stroke-linecap: square"/>
     </g>
     <g id="line2d_10">
      <g>
       <use xlink:href="#m1bff8e14e7" x="455.096009" y="298.495263" style="stroke: #000000; stroke-width: 0.8"/>
      </g>
     </g>
     <g id="text_5">
      <text style="font-size: 10px; font-family: 'DejaVu Serif', serif; text-anchor: middle" x="455.096009" y="313.0937" transform="rotate(-0 455.096009 313.0937)">0.8</text>
     </g>
    </g>
    <g id="text_6">
     <text style="font-size: 10px; font-family: 'DejaVu Serif', serif; text-anchor: middle" x="275.788098" y="326.771825" transform="rotate(-0 275.788098 326.771825)">Time (s)</text>
    </g>
   </g>
   <g id="matplotlib.axis_2">
    <g id="ytick_1">
     <g id="line2d_11">
      <path d="M 51.278125 262.612718 
L 500.298071 262.612718 
" clip-path="url(#p6180521b12)" style="fill: none; stroke: #b0b0b0; stroke-opacity: 0.25; stroke-width: 0.8; stroke-linecap: square"/>
     </g>
     <g id="line2d_12">
      <defs>
       <path id="maafbacf6b6" d="M 0 0 
L -3.5 0 
" style="stroke: #000000; stroke-width: 0.8"/>
      </defs>
      <g>
       <use xlink:href="#maafbacf6b6" x="51.278125" y="262.612718" style="stroke: #000000; stroke-width: 0.8"/>
      </g>
     </g>
     <g id="text_7">
      <!-- $\mathdefault{10^{-8}}$ -->
      <g transform="translate(20.878125 266.411937)">
       <text>
        <tspan x="0" y="-0.173438" style="font-size: 10px; font-family: 'DejaVu Serif'">1</tspan>
        <tspan x="6.362305" y="-0.173438" style="font-size: 10px; font-family: 'DejaVu Serif'">0</tspan>
        <tspan x="12.815391" y="-3.804688" style="font-size: 7px; font-family: 'DejaVu Serif'">−</tspan>
        <tspan x="18.680625" y="-3.804688" style="font-size: 7px; font-family: 'DejaVu Serif'">8</tspan>
       </text>
      </g>
     </g>
    </g>
    <g id="ytick_2">
     <g id="line2d_13">
      <path d="M 51.278125 199.709343 
L 500.298071 199.709343 
" clip-path="url(#p6180521b12)" style="fill: none; stroke: #b0b0b0; stroke-opacity: 0.25; stroke-width: 0.8; stroke-linecap: square"/>
     </g>
     <g id="line2d_14">
      <g>
       <use xlink:href="#maafbacf6b6" x="51.278125" y="199.709343" style="stroke: #000000; stroke-width: 0.8"/>
      </g>
     </g>
     <g id="text_8">
      <!-- $\mathdefault{10^{-6}}$ -->
      <g transform="translate(20.878125 203.508562)">
       <text>
        <tspan x="0" y="-0.173438" style="font-size: 10px; font-family: 'DejaVu Serif'">1</tspan>
        <tspan x="6.362305" y="-0.173438" style="font-size: 10px; font-family: 'DejaVu Serif'">0</tspan>
        <tspan x="12.815391" y="-3.804688" style="font-size: 7px; font-family: 'DejaVu Serif'">−</tspan>
        <tspan x="18.680625" y="-3.804688" style="font-size: 7px; font-family: 'DejaVu Serif'">6</tspan>
       </text>
      </g>
     </g>
    </g>
    <g id="ytick_3">
     <g id="line2d_15">
      <path d="M 51.278125 136.805968 
L 500.298071 136.805968 
" clip-path="url(#p6180521b12)" style="fill: none; stroke: #b0b0b0; stroke-opacity: 0.25; stroke-width: 0.8; stroke-linecap: square"/>
     </g>
     <g id="line2d_16">
      <g>
       <use xlink:href="#maafbacf6b6" x="51.278125" y="136.805968" style="stroke: #000000; stroke-width: 0.8"/>
      </g>
     </g>
     <g id="text_9">
      <!-- $\mathdefault{10^{-4}}$ -->
      <g transform="translate(20.878125 140.605187)">
       <text>
        <tspan x="0" y="-0.173438" style="font-size: 10px; font-family: 'DejaVu Serif'">1</tspan>
        <tspan x="6.362305" y="-0.173438" style="font-size: 10px; font-family: 'DejaVu Serif'">0</tspan>
        <tspan x="12.815391" y="-3.804688" style="font-size: 7px; font-family: 'DejaVu Serif'">−</tspan>
        <tspan x="18.680625" y="-3.804688" style="font-size: 7px; font-family: 'DejaVu Serif'">4</tspan>
       </text>
      </g>
     </g>
    </g>
    <g id="ytick_4">
     <g id="line2d_17">
      <path d="M 51.278125 73.902594 
L 500.298071 73.902594 
" clip-path="url(#p6180521b12)" style="fill: none; stroke: #b0b0b0; stroke-opacity: 0.25; stroke-width: 0.8; stroke-linecap: square"/>
     </g>
     <g id="line2d_18">
      <g>
       <use xlink:href="#maafbacf6b6" x="51.278125" y="73.902594" style="stroke: #000000; stroke-width: 0.8"/>
      </g>
     </g>
     <g id="text_10">
      <!-- $\mathdefault{10^{-2}}$ -->
      <g transform="translate(20.878125 77.701812)">
       <text>
        <tspan x="0" y="-0.173438" style="font-size: 10px; font-family: 'DejaVu Serif'">1</tspan>
        <tspan x="6.362305" y="-0.173438" style="font-size: 10px; font-family: 'DejaVu Serif'">0</tspan>
        <tspan x="12.815391" y="-3.804688" style="font-size: 7px; font-family: 'DejaVu Serif'">−</tspan>
        <tspan x="18.680625" y="-3.804688" style="font-size: 7px; font-family: 'DejaVu Serif'">2</tspan>
       </text>
      </g>
     </g>
    </g>
    <g id="ytick_5">
     <g id="line2d_19">
      <path d="M 51.278125 10.999219 
L 500.298071 10.999219 
" clip-path="url(#p6180521b12)" style="fill: none; stroke: #b0b0b0; stroke-opacity: 0.25; stroke-width: 0.8; stroke-linecap: square"/>
     </g>
     <g id="line2d_20">
      <g>
       <use xlink:href="#maafbacf6b6" x="51.278125" y="10.999219" style="stroke: #000000; stroke-width: 0.8"/>
      </g>
     </g>
     <g id="text_11">
      <!-- $\mathdefault{10^{0}}$ -->
      <g transform="translate(26.678125 14.798437)">
       <text>
        <tspan x="0" y="-0.173438" style="font-size: 10px; font-family: 'DejaVu Serif'">1</tspan>
        <tspan x="6.362305" y="-0.173438" style="font-size: 10px; font-family: 'DejaVu Serif'">0</tspan>
        <tspan x="12.815391" y="-3.804688" style="font-size: 7px; font-family: 'DejaVu Serif'">0</tspan>
       </text>
      </g>
     </g>
    </g>
    <g id="text_12">
     <!-- KKT Residual $K_t$ -->
     <g transform="translate(14.798437 194.252531) rotate(-90)">
      <text>
       <tspan x="0" y="-0.40625" style="font-size: 10px; font-family: 'DejaVu Serif'">K</tspan>
       <tspan x="7.470703" y="-0.40625" style="font-size: 10px; font-family: 'DejaVu Serif'">K</tspan>
       <tspan x="14.941406" y="-0.40625" style="font-size: 10px; font-family: 'DejaVu Serif'">T</tspan>
       <tspan x="21.611328" y="-0.40625" style="font-size: 10px; font-family: 'DejaVu Serif'"> </tspan>
       <tspan x="24.790039" y="-0.40625" style="font-size: 10px; font-family: 'DejaVu Serif'">R</tspan>
       <tspan x="32.319336" y="-0.40625" style="font-size: 10px; font-family: 'DejaVu Serif'">e</tspan>
       <tspan x="38.237305" y="-0.40625" style="font-size: 10px; font-family: 'DejaVu Serif'">s</tspan>
       <tspan x="43.369141" y="-0.40625" style="font-size: 10px; font-family: 'DejaVu Serif'">i</tspan>
       <tspan x="46.567383" y="-0.40625" style="font-size: 10px; font-family: 'DejaVu Serif'">d</tspan>
       <tspan x="52.96875" y="-0.40625" style="font-size: 10px; font-family: 'DejaVu Serif'">u</tspan>
       <tspan x="59.40918" y="-0.40625" style="font-size: 10px; font-family: 'DejaVu Serif'">a</tspan>
       <tspan x="65.371094" y="-0.40625" style="font-size: 10px; font-family: 'DejaVu Serif'">l</tspan>
       <tspan x="68.569336" y="-0.40625" style="font-size: 10px; font-family: 'DejaVu Serif'"> </tspan>
       <tspan x="71.748047" y="-0.40625" style="font-style: oblique; font-size: 10px; font-family: 'DejaVu Sans'">K</tspan>
       <tspan x="78.305664" y="1.234375" style="font-style: oblique; font-size: 7px; font-family: 'DejaVu Sans'">t</tspan>
      </text>
     </g>
    </g>
   </g>
   <g id="line2d_21">
    <path d="M 71.688123 21.78641 
L 73.739379 28.252039 
L 75.790635 40.952313 
L 77.841891 46.874487 
L 79.893147 50.494488 
L 83.995659 56.084524 
L 86.046915 58.686825 
L 88.098171 60.801898 
L 92.200683 65.963626 
L 96.303195 71.747641 
L 100.405707 76.895469 
L 102.456963 78.989753 
L 104.508219 81.301907 
L 106.559475 83.261317 
L 108.610731 85.420082 
L 112.713243 88.882785 
L 116.815755 91.67558 
L 120.918267 93.655497 
L 127.072035 95.700664 
L 129.123292 96.285586 
L 135.27706 97.48394 
L 139.379572 98.042807 
L 145.53334 98.623695 
L 153.738364 99.127229 
L 161.943388 99.405183 
L 184.507204 99.935323 
L 186.558461 102.513794 
L 188.609717 105.734845 
L 192.712229 108.456998 
L 196.814741 110.192991 
L 200.917253 111.162057 
L 209.122277 112.518272 
L 215.276045 113.227969 
L 223.481069 113.900981 
L 233.737349 114.547009 
L 250.147398 115.262103 
L 272.711214 116.011683 
L 274.76247 116.447314 
L 276.813726 119.496315 
L 278.864982 123.427543 
L 280.916238 127.02722 
L 282.967494 131.766524 
L 289.121262 137.017253 
L 291.172518 138.894279 
L 297.326286 143.556263 
L 299.377542 145.188931 
L 305.531311 149.68759 
L 317.838847 159.007187 
L 319.890103 160.692711 
L 321.941359 162.215485 
L 323.992615 163.890167 
L 326.043871 165.262923 
L 330.146383 168.311042 
L 332.197639 170.000442 
L 334.248895 171.517068 
L 338.351407 174.7355 
L 340.402663 176.380748 
L 346.556431 180.742815 
L 348.607687 182.282585 
L 352.710199 184.907724 
L 356.812711 187.893223 
L 362.96648 192.561755 
L 365.017736 194.197431 
L 371.171504 198.558982 
L 373.22276 200.10455 
L 379.376528 203.61363 
L 383.47904 206.121948 
L 391.684064 211.281351 
L 393.73532 212.53093 
L 395.786576 213.942576 
L 399.889088 216.975442 
L 408.094112 223.168242 
L 410.145368 224.853863 
L 414.24788 227.614674 
L 422.452905 233.3107 
L 424.504161 234.544321 
L 428.606673 236.573915 
L 430.657929 237.804267 
L 438.862953 243.78337 
L 453.221745 254.974868 
L 459.375513 259.509496 
L 461.426769 261.177753 
L 467.580537 265.752221 
L 473.734305 270.673598 
L 475.785561 272.096453 
L 479.888074 275.221543 
L 479.888074 275.221543 
" clip-path="url(#p6180521b12)" style="fill: none; stroke: #1f77b4; stroke-width: 1.9; stroke-linecap: square"/>
   </g>
   <g id="line2d_22">
    <path d="M 71.688123 21.78641 
L 73.739379 25.502234 
L 75.790635 30.622958 
L 77.841891 38.909483 
L 79.893147 44.56266 
L 81.944403 46.787005 
L 83.995659 49.4454 
L 86.046915 52.387203 
L 92.200683 62.754655 
L 94.251939 65.194954 
L 96.303195 66.974546 
L 98.354451 69.021222 
L 100.405707 71.280985 
L 102.456963 73.749125 
L 104.508219 76.466443 
L 106.559475 78.673322 
L 108.610731 81.208653 
L 112.713243 85.513428 
L 114.764499 86.876432 
L 116.815755 88.390676 
L 122.969523 91.966567 
L 125.020779 93.001701 
L 129.123292 94.490138 
L 133.225804 95.521079 
L 137.328316 96.255477 
L 147.584596 97.25303 
L 157.840876 97.68757 
L 172.199668 97.998095 
L 186.558461 98.245005 
L 188.609717 100.418843 
L 190.660973 104.042738 
L 192.712229 105.993822 
L 194.763485 107.79125 
L 198.865997 109.206057 
L 205.019765 110.290624 
L 209.122277 110.840026 
L 215.276045 111.447542 
L 221.429813 111.827104 
L 227.583581 112.12397 
L 229.634837 112.124276 
L 235.788605 112.355785 
L 237.839861 112.325387 
L 241.942373 112.777682 
L 250.147398 112.938494 
L 258.352422 113.11664 
L 264.50619 113.336017 
L 266.557446 113.15642 
L 268.608702 113.090684 
L 272.711214 113.872387 
L 274.76247 113.950598 
L 276.813726 115.232139 
L 278.864982 120.672485 
L 280.916238 129.850473 
L 285.01875 134.299319 
L 291.172518 139.870113 
L 293.223774 141.708867 
L 307.582567 152.747147 
L 323.992615 166.104423 
L 330.146383 169.751727 
L 332.197639 171.088522 
L 340.402663 177.037454 
L 342.453919 178.741207 
L 348.607687 183.266351 
L 365.017736 195.720496 
L 367.068992 196.463504 
L 369.120248 197.354496 
L 377.325272 203.297934 
L 379.376528 204.563664 
L 381.427784 205.426793 
L 383.47904 206.159544 
L 387.581552 205.827541 
L 389.632808 206.498699 
L 391.684064 207.321507 
L 395.786576 210.962737 
L 397.837832 211.930585 
L 399.889088 212.704734 
L 401.940344 212.340159 
L 403.9916 213.332594 
L 406.042856 217.659606 
L 408.094112 222.944449 
L 410.145368 226.902748 
L 412.196624 232.331046 
L 414.24788 234.241608 
L 416.299136 236.352713 
L 418.350392 237.959006 
L 422.452905 241.347478 
L 424.504161 243.04787 
L 430.657929 247.6002 
L 436.811697 251.734979 
L 438.862953 253.52125 
L 440.914209 255.126936 
L 442.965465 256.428293 
L 445.016721 257.481231 
L 449.119233 259.197675 
L 451.170489 259.970231 
L 453.221745 261.177775 
L 457.324257 263.918095 
L 459.375513 265.313144 
L 461.426769 265.412488 
L 463.478025 266.01924 
L 465.529281 269.945823 
L 467.580537 275.194529 
L 469.631793 276.999772 
L 471.683049 279.080465 
L 473.734305 280.573303 
L 475.785561 282.225219 
L 477.836818 283.69807 
L 479.888074 285.318651 
L 479.888074 285.318651 
" clip-path="url(#p6180521b12)" style="fill: none; stroke-dasharray: 7.03,3.04; stroke-dashoffset: 0; stroke: #ff7f0e; stroke-width: 1.9"/>
   </g>
   <g id="patch_3">
    <path d="M 51.278125 298.495263 
L 51.278125 8.609798 
" style="fill: none; stroke: #000000; stroke-width: 0.8; stroke-linejoin: miter; stroke-linecap: square"/>
   </g>
   <g id="patch_4">
    <path d="M 500.298071 298.495263 
L 500.298071 8.609798 
" style="fill: none; stroke: #000000; stroke-width: 0.8; stroke-linejoin: miter; stroke-linecap: square"/>
   </g>
   <g id="patch_5">
    <path d="M 51.278125 298.495263 
L 500.298071 298.495263 
" style="fill: none; stroke: #000000; stroke-width: 0.8; stroke-linejoin: miter; stroke-linecap: square"/>
   </g>
   <g id="patch_6">
    <path d="M 51.278125 8.609798 
L 500.298071 8.609798 
" style="fill: none; stroke: #000000; stroke-width: 0.8; stroke-linejoin: miter; stroke-linecap: square"/>
   </g>
   <g id="legend_1">
    <g id="patch_7">
     <path d="M 307.893774 25.618392 
L 495.048071 25.618392 
Q 496.548071 25.618392 496.548071 24.118392 
L 496.548071 13.859798 
Q 496.548071 12.359798 495.048071 12.359798 
L 307.893774 12.359798 
Q 306.393774 12.359798 306.393774 13.859798 
L 306.393774 24.118392 
Q 306.393774 25.618392 307.893774 25.618392 
z
" style="fill: #ffffff; opacity: 0.8; stroke: #cccccc; stroke-linejoin: miter"/>
    </g>
    <g id="line2d_23">
     <path d="M 309.393774 18.433626 
L 316.893774 18.433626 
L 324.393774 18.433626 
" style="fill: none; stroke: #1f77b4; stroke-width: 1.9; stroke-linecap: square"/>
    </g>
    <g id="text_13">
     <text style="font-size: 7.5px; font-family: 'DejaVu Serif', serif; text-anchor: start" x="330.393774" y="21.058626" transform="rotate(-0 330.393774 21.058626)">SPIDER-ADMM</text>
    </g>
    <g id="line2d_24">
     <path d="M 404.99768 18.433626 
L 412.49768 18.433626 
L 419.99768 18.433626 
" style="fill: none; stroke-dasharray: 7.03,3.04; stroke-dashoffset: 0; stroke: #ff7f0e; stroke-width: 1.9"/>
    </g>
    <g id="text_14">
     <text style="font-size: 7.5px; font-family: 'DejaVu Serif', serif; text-anchor: start" x="425.99768" y="21.058626" transform="rotate(-0 425.99768 21.058626)">AIL-SVRG-ADMM</text>
    </g>
   </g>
  </g>
 </g>
 <defs>
  <clipPath id="p6180521b12">
   <rect x="51.278125" y="8.609798" width="449.019946" height="289.885464"/>
  </clipPath>
 </defs>
</svg>
