<?xml version="1.0" encoding="utf-8" standalone="no"?>
<!DOCTYPE svg PUBLIC "-//W3C//DTD SVG 1.1//EN"
  "http://www.w3.org/Graphics/SVG/1.1/DTD/svg11.dtd">
<svg xmlns:xlink="http://www.w3.org/1999/xlink" width="507.498071pt" height="336.049326pt" viewBox="0 0 507.498071 336.049326" xmlns="http://www.w3.org/2000/svg" version="1.1">
 <metadata>
  <rdf:RDF xmlns:dc="http://purl.org/dc/elements/1.1/" xmlns:cc="http://creativecommons.org/ns#" xmlns:rdf="http://www.w3.org/1999/02/22-rdf-syntax-ns#">
   <cc:Work>
    <dc:type rdf:resource="http://purl.org/dc/dcmitype/StillImage"/>
    <dc:date>2026-07-14T16:30:19.454062</dc:date>
    <dc:format>image/svg+xml</dc:format>
    <dc:creator>
     <cc:Agent>
      <dc:title>Matplotlib v3.10.5, https://matplotlib.org/</dc:title>
     </cc:Agent>
    </dc:creator>
   </cc:Work>
  </rdf:RDF>
 </metadata>
 <defs>
  <style type="text/css">*{stroke-linejoin: round; stroke-linecap: butt}</style>
 </defs>
 <g id="figure_1">
  <g id="patch_1">
   <path d="M 0 336.049326 
L 507.498071 336.049326 
L 507.498071 0 
L 0 0 
z
" style="fill: #ffffff"/>
  </g>
  <g id="axes_1">
   <g id="patch_2">
    <path d="M 51.278125 298.493076 
L 500.298071 298.493076 
L 500.298071 8.585223 
L 51.278125 8.585223 
z
" style="fill: #ffffff"/>
   </g>
   <g id="matplotlib.axis_1">
    <g id="xtick_1">
     <g id="line2d_1">
      <path d="M 71.688123 298.493076 
L 71.688123 8.585223 
" clip-path="url(#p58b2ab4fdc)" style="fill: none; stroke: #b0b0b0; stroke-opacity: 0.25; stroke-width: 0.8; stroke-linecap: square"/>
     </g>
     <g id="line2d_2">
      <defs>
       <path id="md4de146d20" d="M 0 0 
L 0 3.5 
" style="stroke: #000000; stroke-width: 0.8"/>
      </defs>
      <g>
       <use xlink:href="#md4de146d20" x="71.688123" y="298.493076" style="stroke: #000000; stroke-width: 0.8"/>
      </g>
     </g>
     <g id="text_1">
      <text style="font-size: 10px; font-family: 'DejaVu Serif', serif; text-anchor: middle" x="71.688123" y="313.091514" transform="rotate(-0 71.688123 313.091514)">0</text>
     </g>
    </g>
    <g id="xtick_2">
     <g id="line2d_3">
      <path d="M 122.713116 298.493076 
L 122.713116 8.585223 
" clip-path="url(#p58b2ab4fdc)" style="fill: none; stroke: #b0b0b0; stroke-opacity: 0.25; stroke-width: 0.8; stroke-linecap: square"/>
     </g>
     <g id="line2d_4">
      <g>
       <use xlink:href="#md4de146d20" x="122.713116" y="298.493076" style="stroke: #000000; stroke-width: 0.8"/>
      </g>
     </g>
     <g id="text_2">
      <text style="font-size: 10px; font-family: 'DejaVu Serif', serif; text-anchor: middle" x="122.713116" y="313.091514" transform="rotate(-0 122.713116 313.091514)">250</text>
     </g>
    </g>
    <g id="xtick_3">
     <g id="line2d_5">
      <path d="M 173.73811 298.493076 
L 173.73811 8.585223 
" clip-path="url(#p58b2ab4fdc)" style="fill: none; stroke: #b0b0b0; stroke-opacity: 0.25; stroke-width: 0.8; stroke-linecap: square"/>
     </g>
     <g id="line2d_6">
      <g>
       <use xlink:href="#md4de146d20" x="173.73811" y="298.493076" style="stroke: #000000; stroke-width: 0.8"/>
      </g>
     </g>
     <g id="text_3">
      <text style="font-size: 10px; font-family: 'DejaVu Serif', serif; text-anchor: middle" x="173.73811" y="313.091514" transform="rotate(-0 173.73811 313.091514)">500</text>
     </g>
    </g>
    <g id="xtick_4">
     <g id="line2d_7">
      <path d="M 224.763104 298.493076 
L 224.763104 8.585223 
" clip-path="url(#p58b2ab4fdc)" style="fill: none; stroke: #b0b0b0; stroke-opacity: 0.25; stroke-width: 0.8; stroke-linecap: square"/>
     </g>
     <g id="line2d_8">
      <g>
       <use xlink:href="#md4de146d20" x="224.763104" y="298.493076" style="stroke: #000000; stroke-width: 0.8"/>
      </g>
     </g>
     <g id="text_4">
      <text style="font-size: 10px; font-family: 'DejaVu Serif', serif; text-anchor: middle" x="224.763104" y="313.091514" transform="rotate(-0 224.763104 313.091514)">750</text>
     </g>
    </g>
    <g id="xtick_5">
     <g id="line2d_9">
      <path d="M 275.788098 298.493076 
L 275.788098 8.585223 
" clip-path="url(#p58b2ab4fdc)" style="fill: none; stroke: #b0b0b0; stroke-opacity: 0.25; stroke-width: 0.8; stroke-linecap: square"/>
     </g>
     <g id="line2d_10">
      <g>
       <use xlink:href="#md4de146d20" x="275.788098" y="298.493076" style="stroke: #000000; stroke-width: 0.8"/>
      </g>
     </g>
     <g id="text_5">
      <text style="font-size: 10px; font-family: 'DejaVu Serif', serif; text-anchor: middle" x="275.788098" y="313.091514" transform="rotate(-0 275.788098 313.091514)">1000</text>
     </g>
    </g>
    <g id="xtick_6">
     <g id="line2d_11">
      <path d="M 326.813092 298.493076 
L 326.813092 8.585223 
" clip-path="url(#p58b2ab4fdc)" style="fill: none; stroke: #b0b0b0; stroke-opacity: 0.25; stroke-width: 0.8; stroke-linecap: square"/>
     </g>
     <g id="line2d_12">
      <g>
       <use xlink:href="#md4de146d20" x="326.813092" y="298.493076" style="stroke: #000000; stroke-width: 0.8"/>
      </g>
     </g>
     <g id="text_6">
      <text style="font-size: 10px; font-family: 'DejaVu Serif', serif; text-anchor: middle" x="326.813092" y="313.091514" transform="rotate(-0 326.813092 313.091514)">1250</text>
     </g>
    </g>
    <g id="xtick_7">
     <g id="line2d_13">
      <path d="M 377.838086 298.493076 
L 377.838086 8.585223 
" clip-path="url(#p58b2ab4fdc)" style="fill: none; stroke: #b0b0b0; stroke-opacity: 0.25; stroke-width: 0.8; stroke-linecap: square"/>
     </g>
     <g id="line2d_14">
      <g>
       <use xlink:href="#md4de146d20" x="377.838086" y="298.493076" style="stroke: #000000; stroke-width: 0.8"/>
      </g>
     </g>
     <g id="text_7">
      <text style="font-size: 10px; font-family: 'DejaVu Serif', serif; text-anchor: middle" x="377.838086" y="313.091514" transform="rotate(-0 377.838086 313.091514)">1500</text>
     </g>
    </g>
    <g id="xtick_8">
     <g id="line2d_15">
      <path d="M 428.86308 298.493076 
L 428.86308 8.585223 
" clip-path="url(#p58b2ab4fdc)" style="fill: none; stroke: #b0b0b0; stroke-opacity: 0.25; stroke-width: 0.8; stroke-linecap: square"/>
     </g>
     <g id="line2d_16">
      <g>
       <use xlink:href="#md4de146d20" x="428.86308" y="298.493076" style="stroke: #000000; stroke-width: 0.8"/>
      </g>
     </g>
     <g id="text_8">
      <text style="font-size: 10px; font-family: 'DejaVu Serif', serif; text-anchor: middle" x="428.86308" y="313.091514" transform="rotate(-0 428.86308 313.091514)">1750</text>
     </g>
    </g>
    <g id="xtick_9">
     <g id="line2d_17">
      <path d="M 479.888074 298.493076 
L 479.888074 8.585223 
" clip-path="url(#p58b2ab4fdc)" style="fill: none; stroke: #b0b0b0; stroke-opacity: 0.25; stroke-width: 0.8; stroke-linecap: square"/>
     </g>
     <g id="line2d_18">
      <g>
       <use xlink:href="#md4de146d20" x="479.888074" y="298.493076" style="stroke: #000000; stroke-width: 0.8"/>
      </g>
     </g>
     <g id="text_9">
      <text style="font-size: 10px; font-family: 'DejaVu Serif', serif; text-anchor: middle" x="479.888074" y="313.091514" transform="rotate(-0 479.888074 313.091514)">2000</text>
     </g>
    </g>
    <g id="text_10">
     <text style="font-size: 10px; font-family: 'DejaVu Serif', serif; text-anchor: middle" x="275.788098" y="326.769639" transform="rotate(-0 275.788098 326.769639)">Iterations</text>
    </g>
   </g>
   <g id="matplotlib.axis_2">
    <g id="ytick_1">
     <g id="line2d_19">
      <path d="M 51.278125 262.063225 
L 500.298071 262.063225 
" clip-path="url(#p58b2ab4fdc)" style="fill: none; stroke: #b0b0b0; stroke-opacity: 0.25; stroke-width: 0.8; stroke-linecap: square"/>
     </g>
     <g id="line2d_20">
      <defs>
       <path id="md165338a11" d="M 0 0 
L -3.5 0 
" style="stroke: #000000; stroke-width: 0.8"/>
      </defs>
      <g>
       <use xlink:href="#md165338a11" x="51.278125" y="262.063225" style="stroke: #000000; stroke-width: 0.8"/>
      </g>
     </g>
     <g id="text_11">
      <!-- $\mathdefault{10^{-8}}$ -->
      <g transform="translate(20.878125 265.862444)">
       <text>
        <tspan x="0" y="-0.173438" style="font-size: 10px; font-family: 'DejaVu Serif'">1</tspan>
        <tspan x="6.362305" y="-0.173438" style="font-size: 10px; font-family: 'DejaVu Serif'">0</tspan>
        <tspan x="12.815391" y="-3.804688" style="font-size: 7px; font-family: 'DejaVu Serif'">−</tspan>
        <tspan x="18.680625" y="-3.804688" style="font-size: 7px; font-family: 'DejaVu Serif'">8</tspan>
       </text>
      </g>
     </g>
    </g>
    <g id="ytick_2">
     <g id="line2d_21">
      <path d="M 51.278125 199.297224 
L 500.298071 199.297224 
" clip-path="url(#p58b2ab4fdc)" style="fill: none; stroke: #b0b0b0; stroke-opacity: 0.25; stroke-width: 0.8; stroke-linecap: square"/>
     </g>
     <g id="line2d_22">
      <g>
       <use xlink:href="#md165338a11" x="51.278125" y="199.297224" style="stroke: #000000; stroke-width: 0.8"/>
      </g>
     </g>
     <g id="text_12">
      <!-- $\mathdefault{10^{-6}}$ -->
      <g transform="translate(20.878125 203.096442)">
       <text>
        <tspan x="0" y="-0.173438" style="font-size: 10px; font-family: 'DejaVu Serif'">1</tspan>
        <tspan x="6.362305" y="-0.173438" style="font-size: 10px; font-family: 'DejaVu Serif'">0</tspan>
        <tspan x="12.815391" y="-3.804688" style="font-size: 7px; font-family: 'DejaVu Serif'">−</tspan>
        <tspan x="18.680625" y="-3.804688" style="font-size: 7px; font-family: 'DejaVu Serif'">6</tspan>
       </text>
      </g>
     </g>
    </g>
    <g id="ytick_3">
     <g id="line2d_23">
      <path d="M 51.278125 136.531222 
L 500.298071 136.531222 
" clip-path="url(#p58b2ab4fdc)" style="fill: none; stroke: #b0b0b0; stroke-opacity: 0.25; stroke-width: 0.8; stroke-linecap: square"/>
     </g>
     <g id="line2d_24">
      <g>
       <use xlink:href="#md165338a11" x="51.278125" y="136.531222" style="stroke: #000000; stroke-width: 0.8"/>
      </g>
     </g>
     <g id="text_13">
      <!-- $\mathdefault{10^{-4}}$ -->
      <g transform="translate(20.878125 140.330441)">
       <text>
        <tspan x="0" y="-0.173438" style="font-size: 10px; font-family: 'DejaVu Serif'">1</tspan>
        <tspan x="6.362305" y="-0.173438" style="font-size: 10px; font-family: 'DejaVu Serif'">0</tspan>
        <tspan x="12.815391" y="-3.804688" style="font-size: 7px; font-family: 'DejaVu Serif'">−</tspan>
        <tspan x="18.680625" y="-3.804688" style="font-size: 7px; font-family: 'DejaVu Serif'">4</tspan>
       </text>
      </g>
     </g>
    </g>
    <g id="ytick_4">
     <g id="line2d_25">
      <path d="M 51.278125 73.76522 
L 500.298071 73.76522 
" clip-path="url(#p58b2ab4fdc)" style="fill: none; stroke: #b0b0b0; stroke-opacity: 0.25; stroke-width: 0.8; stroke-linecap: square"/>
     </g>
     <g id="line2d_26">
      <g>
       <use xlink:href="#md165338a11" x="51.278125" y="73.76522" style="stroke: #000000; stroke-width: 0.8"/>
      </g>
     </g>
     <g id="text_14">
      <!-- $\mathdefault{10^{-2}}$ -->
      <g transform="translate(20.878125 77.564439)">
       <text>
        <tspan x="0" y="-0.173438" style="font-size: 10px; font-family: 'DejaVu Serif'">1</tspan>
        <tspan x="6.362305" y="-0.173438" style="font-size: 10px; font-family: 'DejaVu Serif'">0</tspan>
        <tspan x="12.815391" y="-3.804688" style="font-size: 7px; font-family: 'DejaVu Serif'">−</tspan>
        <tspan x="18.680625" y="-3.804688" style="font-size: 7px; font-family: 'DejaVu Serif'">2</tspan>
       </text>
      </g>
     </g>
    </g>
    <g id="ytick_5">
     <g id="line2d_27">
      <path d="M 51.278125 10.999219 
L 500.298071 10.999219 
" clip-path="url(#p58b2ab4fdc)" style="fill: none; stroke: #b0b0b0; stroke-opacity: 0.25; stroke-width: 0.8; stroke-linecap: square"/>
     </g>
     <g id="line2d_28">
      <g>
       <use xlink:href="#md165338a11" x="51.278125" y="10.999219" style="stroke: #000000; stroke-width: 0.8"/>
      </g>
     </g>
     <g id="text_15">
      <!-- $\mathdefault{10^{0}}$ -->
      <g transform="translate(26.678125 14.798437)">
       <text>
        <tspan x="0" y="-0.173438" style="font-size: 10px; font-family: 'DejaVu Serif'">1</tspan>
        <tspan x="6.362305" y="-0.173438" style="font-size: 10px; font-family: 'DejaVu Serif'">0</tspan>
        <tspan x="12.815391" y="-3.804688" style="font-size: 7px; font-family: 'DejaVu Serif'">0</tspan>
       </text>
      </g>
     </g>
    </g>
    <g id="text_16">
     <!-- KKT Residual $K_t$ -->
     <g transform="translate(14.798437 194.239149) rotate(-90)">
      <text>
       <tspan x="0" y="-0.40625" style="font-size: 10px; font-family: 'DejaVu Serif'">K</tspan>
       <tspan x="7.470703" y="-0.40625" style="font-size: 10px; font-family: 'DejaVu Serif'">K</tspan>
       <tspan x="14.941406" y="-0.40625" style="font-size: 10px; font-family: 'DejaVu Serif'">T</tspan>
       <tspan x="21.611328" y="-0.40625" style="font-size: 10px; font-family: 'DejaVu Serif'"> </tspan>
       <tspan x="24.790039" y="-0.40625" style="font-size: 10px; font-family: 'DejaVu Serif'">R</tspan>
       <tspan x="32.319336" y="-0.40625" style="font-size: 10px; font-family: 'DejaVu Serif'">e</tspan>
       <tspan x="38.237305" y="-0.40625" style="font-size: 10px; font-family: 'DejaVu Serif'">s</tspan>
       <tspan x="43.369141" y="-0.40625" style="font-size: 10px; font-family: 'DejaVu Serif'">i</tspan>
       <tspan x="46.567383" y="-0.40625" style="font-size: 10px; font-family: 'DejaVu Serif'">d</tspan>
       <tspan x="52.96875" y="-0.40625" style="font-size: 10px; font-family: 'DejaVu Serif'">u</tspan>
       <tspan x="59.40918" y="-0.40625" style="font-size: 10px; font-family: 'DejaVu Serif'">a</tspan>
       <tspan x="65.371094" y="-0.40625" style="font-size: 10px; font-family: 'DejaVu Serif'">l</tspan>
       <tspan x="68.569336" y="-0.40625" style="font-size: 10px; font-family: 'DejaVu Serif'"> </tspan>
       <tspan x="71.748047" y="-0.40625" style="font-style: oblique; font-size: 10px; font-family: 'DejaVu Sans'">K</tspan>
       <tspan x="78.305664" y="1.234375" style="font-style: oblique; font-size: 7px; font-family: 'DejaVu Sans'">t</tspan>
      </text>
     </g>
    </g>
   </g>
   <g id="line2d_29">
    <path d="M 71.688123 21.762852 
L 75.770122 44.322633 
L 79.852122 51.396612 
L 83.934121 57.656423 
L 88.016121 64.298624 
L 92.09812 70.337675 
L 96.18012 75.95 
L 100.262119 80.808881 
L 104.344119 85.028886 
L 108.426118 88.441239 
L 112.508118 91.217008 
L 116.590117 93.367475 
L 120.672117 94.973653 
L 124.754116 96.161852 
L 128.836116 97.021534 
L 132.918115 97.661602 
L 137.000115 98.12946 
L 141.082114 98.485 
L 145.164114 98.751345 
L 149.246113 98.962413 
L 153.328113 99.130328 
L 157.410112 99.267645 
L 161.492112 99.384829 
L 165.574111 99.487917 
L 169.656111 99.578103 
L 173.73811 99.661864 
L 177.82011 99.743232 
L 181.902109 105.444402 
L 185.984109 108.120126 
L 190.066108 109.882746 
L 194.148108 110.846917 
L 198.230107 111.589385 
L 202.312107 112.219034 
L 206.394106 112.752577 
L 210.476106 113.165819 
L 214.558105 113.525506 
L 218.640105 113.823397 
L 222.722104 114.084669 
L 226.804104 114.310505 
L 230.886103 114.513004 
L 234.968103 114.69773 
L 239.050102 114.870925 
L 243.132102 115.029194 
L 247.214101 115.178155 
L 251.296101 115.319577 
L 255.3781 115.454151 
L 259.4601 115.589607 
L 263.5421 115.715827 
L 267.624099 115.837615 
L 271.706099 123.454115 
L 275.788098 131.700715 
L 279.870098 135.336929 
L 283.952097 138.825892 
L 288.034097 141.907117 
L 292.116096 145.08391 
L 296.198096 148.13424 
L 300.280095 151.241942 
L 304.362095 154.317049 
L 308.444094 157.386487 
L 312.526094 160.458996 
L 316.608093 163.516651 
L 320.690093 166.603187 
L 324.772092 169.652327 
L 328.854092 172.718695 
L 332.936091 175.766197 
L 337.018091 178.820268 
L 341.10009 181.878874 
L 345.18209 184.928041 
L 349.264089 187.972966 
L 353.346089 191.01969 
L 357.428088 194.064887 
L 361.510088 197.120242 
L 365.592087 200.166702 
L 369.674087 203.208582 
L 373.756086 206.248372 
L 377.838086 209.284108 
L 381.920085 212.338338 
L 386.002085 215.382132 
L 390.084084 218.422494 
L 394.166084 221.463304 
L 398.248083 224.50246 
L 402.330083 227.553781 
L 406.412082 230.594362 
L 410.494082 233.636409 
L 414.576081 236.678836 
L 418.658081 239.718875 
L 422.74008 242.769014 
L 426.82208 245.805828 
L 430.904079 248.843984 
L 434.986079 251.877808 
L 439.068078 254.91237 
L 443.150078 257.962121 
L 447.232077 261.00167 
L 451.314077 264.037467 
L 455.396076 267.073785 
L 459.478076 270.108091 
L 463.560076 273.159196 
L 467.642075 276.200573 
L 471.724075 279.238796 
L 475.806074 282.278538 
L 479.888074 285.315446 
" clip-path="url(#p58b2ab4fdc)" style="fill: none; stroke: #1f77b4; stroke-width: 1.9; stroke-linecap: square"/>
   </g>
   <g id="line2d_30">
    <path d="M 71.688123 21.762852 
L 75.770122 43.174339 
L 79.852122 50.412796 
L 83.934121 57.037863 
L 88.016121 63.97783 
L 92.09812 70.222707 
L 96.18012 75.85786 
L 100.262119 80.853155 
L 104.344119 85.086215 
L 108.426118 88.497567 
L 112.508118 91.16109 
L 116.590117 93.106927 
L 120.672117 94.513852 
L 124.754116 95.440666 
L 128.836116 96.123874 
L 132.918115 96.49468 
L 137.000115 96.988431 
L 141.082114 97.227631 
L 145.164114 97.396513 
L 149.246113 97.527847 
L 153.328113 97.630337 
L 157.410112 97.716936 
L 161.492112 97.788472 
L 165.574111 97.859465 
L 169.656111 97.939184 
L 173.73811 98.002339 
L 177.82011 98.062809 
L 181.902109 104.376221 
L 185.984109 107.566751 
L 190.066108 108.975916 
L 194.148108 109.740123 
L 198.230107 110.344944 
L 202.312107 110.792069 
L 206.394106 111.160594 
L 210.476106 111.458539 
L 214.558105 111.652036 
L 218.640105 111.902938 
L 222.722104 111.903502 
L 226.804104 112.176291 
L 230.886103 112.090757 
L 234.968103 112.543932 
L 239.050102 112.651748 
L 243.132102 112.70601 
L 247.214101 112.740218 
L 251.296101 112.836845 
L 255.3781 112.973319 
L 259.4601 113.125403 
L 263.5421 112.790942 
L 267.624099 113.641051 
L 271.706099 113.781785 
L 275.788098 130.080152 
L 279.870098 134.585587 
L 283.952097 138.038956 
L 288.034097 141.239157 
L 292.116096 144.091013 
L 296.198096 147.108304 
L 300.280095 149.950475 
L 304.362095 153.001391 
L 308.444094 156.741535 
L 312.526094 159.93207 
L 316.608093 162.988611 
L 320.690093 166.007283 
L 324.772092 169.112708 
L 328.854092 172.22392 
L 332.936091 175.251296 
L 337.018091 178.274893 
L 341.10009 181.175732 
L 345.18209 183.915078 
L 349.264089 186.954199 
L 353.346089 189.741522 
L 357.428088 192.559492 
L 361.510088 195.314 
L 365.592087 196.699233 
L 369.674087 199.432575 
L 373.756086 202.188291 
L 377.838086 204.481127 
L 381.920085 205.789953 
L 386.002085 205.369857 
L 390.084084 206.689282 
L 394.166084 210.32451 
L 398.248083 212.332667 
L 402.330083 211.667621 
L 406.412082 221.627921 
L 410.494082 231.789053 
L 414.576081 235.671753 
L 418.658081 239.00544 
L 422.74008 242.132755 
L 426.82208 245.120744 
L 430.904079 247.859242 
L 434.986079 250.59339 
L 439.068078 254.001306 
L 443.150078 256.393979 
L 447.232077 258.161504 
L 451.314077 259.580244 
L 455.396076 262.171622 
L 459.478076 264.755629 
L 463.560076 264.941106 
L 467.642075 274.522917 
L 471.724075 278.545876 
L 475.806074 281.744165 
L 479.888074 284.719571 
" clip-path="url(#p58b2ab4fdc)" style="fill: none; stroke-dasharray: 7.03,3.04; stroke-dashoffset: 0; stroke: #ff7f0e; stroke-width: 1.9"/>
   </g>
   <g id="patch_3">
    <path d="M 51.278125 298.493076 
L 51.278125 8.585223 
" style="fill: none; stroke: #000000; stroke-width: 0.8; stroke-linejoin: miter; stroke-linecap: square"/>
   </g>
   <g id="patch_4">
    <path d="M 500.298071 298.493076 
L 500.298071 8.585223 
" style="fill: none; stroke: #000000; stroke-width: 0.8; stroke-linejoin: miter; stroke-linecap: square"/>
   </g>
   <g id="patch_5">
    <path d="M 51.278125 298.493076 
L 500.298071 298.493076 
" style="fill: none; stroke: #000000; stroke-width: 0.8; stroke-linejoin: miter; stroke-linecap: square"/>
   </g>
   <g id="patch_6">
    <path d="M 51.278125 8.585223 
L 500.298071 8.585223 
" style="fill: none; stroke: #000000; stroke-width: 0.8; stroke-linejoin: miter; stroke-linecap: square"/>
   </g>
   <g id="legend_1">
    <g id="patch_7">
     <path d="M 307.893774 25.593817 
L 495.048071 25.593817 
Q 496.548071 25.593817 496.548071 24.093817 
L 496.548071 13.835223 
Q 496.548071 12.335223 495.048071 12.335223 
L 307.893774 12.335223 
Q 306.393774 12.335223 306.393774 13.835223 
L 306.393774 24.093817 
Q 306.393774 25.593817 307.893774 25.593817 
z
" style="fill: #ffffff; opacity: 0.8; stroke: #cccccc; stroke-linejoin: miter"/>
    </g>
    <g id="line2d_31">
     <path d="M 309.393774 18.409051 
L 316.893774 18.409051 
L 324.393774 18.409051 
" style="fill: none; stroke: #1f77b4; stroke-width: 1.9; stroke-linecap: square"/>
    </g>
    <g id="text_17">
     <text style="font-size: 7.5px; font-family: 'DejaVu Serif', serif; text-anchor: start" x="330.393774" y="21.034051" transform="rotate(-0 330.393774 21.034051)">SPIDER-ADMM</text>
    </g>
    <g id="line2d_32">
     <path d="M 404.99768 18.409051 
L 412.49768 18.409051 
L 419.99768 18.409051 
" style="fill: none; stroke-dasharray: 7.03,3.04; stroke-dashoffset: 0; stroke: #ff7f0e; stroke-width: 1.9"/>
    </g>
    <g id="text_18">
     <text style="font-size: 7.5px; font-family: 'DejaVu Serif', serif; text-anchor: start" x="425.99768" y="21.034051" transform="rotate(-0 425.99768 21.034051)">AIL-SVRG-ADMM</text>
    </g>
   </g>
  </g>
 </g>
 <defs>
  <clipPath id="p58b2ab4fdc">
   <rect x="51.278125" y="8.585223" width="449.019946" height="289.907853"/>
  </clipPath>
 </defs>
</svg>
