<?xml version="1.0" encoding="utf-8" standalone="no"?>
<!DOCTYPE svg PUBLIC "-//W3C//DTD SVG 1.1//EN"
  "http://www.w3.org/Graphics/SVG/1.1/DTD/svg11.dtd">
<svg xmlns:xlink="http://www.w3.org/1999/xlink" width="507.718786pt" height="337.59625pt" viewBox="0 0 507.718786 337.59625" xmlns="http://www.w3.org/2000/svg" version="1.1">
 <metadata>
  <rdf:RDF xmlns:dc="http://purl.org/dc/elements/1.1/" xmlns:cc="http://creativecommons.org/ns#" xmlns:rdf="http://www.w3.org/1999/02/22-rdf-syntax-ns#">
   <cc:Work>
    <dc:type rdf:resource="http://purl.org/dc/dcmitype/StillImage"/>
    <dc:date>2026-07-14T16:30:18.958977</dc:date>
    <dc:format>image/svg+xml</dc:format>
    <dc:creator>
     <cc:Agent>
      <dc:title>Matplotlib v3.10.5, https://matplotlib.org/</dc:title>
     </cc:Agent>
    </dc:creator>
   </cc:Work>
  </rdf:RDF>
 </metadata>
 <defs>
  <style type="text/css">*{stroke-linejoin: round; stroke-linecap: butt}</style>
 </defs>
 <g id="figure_1">
  <g id="patch_1">
   <path d="M 0 337.59625 
L 507.718786 337.59625 
L 507.718786 0 
L 0 0 
z
" style="fill: #ffffff"/>
  </g>
  <g id="axes_1">
   <g id="patch_2">
    <path d="M 56.2 300.04 
L 500.518786 300.04 
L 500.518786 7.2 
L 56.2 7.2 
z
" style="fill: #ffffff"/>
   </g>
   <g id="matplotlib.axis_1">
    <g id="xtick_1">
     <g id="line2d_1">
      <path d="M 76.396308 300.04 
L 76.396308 7.2 
" clip-path="url(#p218666c17b)" style="fill: none; stroke: #b0b0b0; stroke-opacity: 0.25; stroke-width: 0.8; stroke-linecap: square"/>
     </g>
     <g id="line2d_2">
      <defs>
       <path id="m8eccd98bfa" d="M 0 0 
L 0 3.5 
" style="stroke: #000000; stroke-width: 0.8"/>
      </defs>
      <g>
       <use xlink:href="#m8eccd98bfa" x="76.396308" y="300.04" style="stroke: #000000; stroke-width: 0.8"/>
      </g>
     </g>
     <g id="text_1">
      <text style="font-size: 10px; font-family: 'DejaVu Serif', serif; text-anchor: middle" x="76.396308" y="314.638437" transform="rotate(-0 76.396308 314.638437)">0.0</text>
     </g>
    </g>
    <g id="xtick_2">
     <g id="line2d_3">
      <path d="M 171.244727 300.04 
L 171.244727 7.2 
" clip-path="url(#p218666c17b)" style="fill: none; stroke: #b0b0b0; stroke-opacity: 0.25; stroke-width: 0.8; stroke-linecap: square"/>
     </g>
     <g id="line2d_4">
      <g>
       <use xlink:href="#m8eccd98bfa" x="171.244727" y="300.04" style="stroke: #000000; stroke-width: 0.8"/>
      </g>
     </g>
     <g id="text_2">
      <text style="font-size: 10px; font-family: 'DejaVu Serif', serif; text-anchor: middle" x="171.244727" y="314.638437" transform="rotate(-0 171.244727 314.638437)">0.2</text>
     </g>
    </g>
    <g id="xtick_3">
     <g id="line2d_5">
      <path d="M 266.093145 300.04 
L 266.093145 7.2 
" clip-path="url(#p218666c17b)" style="fill: none; stroke: #b0b0b0; stroke-opacity: 0.25; stroke-width: 0.8; stroke-linecap: square"/>
     </g>
     <g id="line2d_6">
      <g>
       <use xlink:href="#m8eccd98bfa" x="266.093145" y="300.04" style="stroke: #000000; stroke-width: 0.8"/>
      </g>
     </g>
     <g id="text_3">
      <text style="font-size: 10px; font-family: 'DejaVu Serif', serif; text-anchor: middle" x="266.093145" y="314.638437" transform="rotate(-0 266.093145 314.638437)">0.4</text>
     </g>
    </g>
    <g id="xtick_4">
     <g id="line2d_7">
      <path d="M 360.941563 300.04 
L 360.941563 7.2 
" clip-path="url(#p218666c17b)" style="fill: none; stroke: #b0b0b0; stroke-opacity: 0.25; stroke-width: 0.8; stroke-linecap: square"/>
     </g>
     <g id="line2d_8">
      <g>
       <use xlink:href="#m8eccd98bfa" x="360.941563" y="300.04" style="stroke: #000000; stroke-width: 0.8"/>
      </g>
     </g>
     <g id="text_4">
      <text style="font-size: 10px; font-family: 'DejaVu Serif', serif; text-anchor: middle" x="360.941563" y="314.638437" transform="rotate(-0 360.941563 314.638437)">0.6</text>
     </g>
    </g>
    <g id="xtick_5">
     <g id="line2d_9">
      <path d="M 455.789982 300.04 
L 455.789982 7.2 
" clip-path="url(#p218666c17b)" style="fill: none; stroke: #b0b0b0; stroke-opacity: 0.25; stroke-width: 0.8; stroke-linecap: square"/>
     </g>
     <g id="line2d_10">
      <g>
       <use xlink:href="#m8eccd98bfa" x="455.789982" y="300.04" style="stroke: #000000; stroke-width: 0.8"/>
      </g>
     </g>
     <g id="text_5">
      <text style="font-size: 10px; font-family: 'DejaVu Serif', serif; text-anchor: middle" x="455.789982" y="314.638437" transform="rotate(-0 455.789982 314.638437)">0.8</text>
     </g>
    </g>
    <g id="text_6">
     <text style="font-size: 10px; font-family: 'DejaVu Serif', serif; text-anchor: middle" x="278.359393" y="328.316562" transform="rotate(-0 278.359393 328.316562)">Time (s)</text>
    </g>
   </g>
   <g id="matplotlib.axis_2">
    <g id="ytick_1">
     <g id="line2d_11">
      <path d="M 56.2 273.779469 
L 500.518786 273.779469 
" clip-path="url(#p218666c17b)" style="fill: none; stroke: #b0b0b0; stroke-opacity: 0.25; stroke-width: 0.8; stroke-linecap: square"/>
     </g>
     <g id="line2d_12">
      <defs>
       <path id="m7832650e0a" d="M 0 0 
L -3.5 0 
" style="stroke: #000000; stroke-width: 0.8"/>
      </defs>
      <g>
       <use xlink:href="#m7832650e0a" x="56.2" y="273.779469" style="stroke: #000000; stroke-width: 0.8"/>
      </g>
     </g>
     <g id="text_7">
      <!-- $\mathdefault{10^{-15}}$ -->
      <g transform="translate(21.3 277.578688)">
       <text>
        <tspan x="0" y="-0.173438" style="font-size: 10px; font-family: 'DejaVu Serif'">1</tspan>
        <tspan x="6.362305" y="-0.173438" style="font-size: 10px; font-family: 'DejaVu Serif'">0</tspan>
        <tspan x="12.815391" y="-3.804688" style="font-size: 7px; font-family: 'DejaVu Serif'">−</tspan>
        <tspan x="18.680625" y="-3.804688" style="font-size: 7px; font-family: 'DejaVu Serif'">1</tspan>
        <tspan x="23.134238" y="-3.804688" style="font-size: 7px; font-family: 'DejaVu Serif'">5</tspan>
       </text>
      </g>
     </g>
    </g>
    <g id="ytick_2">
     <g id="line2d_13">
      <path d="M 56.2 234.151504 
L 500.518786 234.151504 
" clip-path="url(#p218666c17b)" style="fill: none; stroke: #b0b0b0; stroke-opacity: 0.25; stroke-width: 0.8; stroke-linecap: square"/>
     </g>
     <g id="line2d_14">
      <g>
       <use xlink:href="#m7832650e0a" x="56.2" y="234.151504" style="stroke: #000000; stroke-width: 0.8"/>
      </g>
     </g>
     <g id="text_8">
      <!-- $\mathdefault{10^{-13}}$ -->
      <g transform="translate(21.3 237.950723)">
       <text>
        <tspan x="0" y="-0.173438" style="font-size: 10px; font-family: 'DejaVu Serif'">1</tspan>
        <tspan x="6.362305" y="-0.173438" style="font-size: 10px; font-family: 'DejaVu Serif'">0</tspan>
        <tspan x="12.815391" y="-3.804688" style="font-size: 7px; font-family: 'DejaVu Serif'">−</tspan>
        <tspan x="18.680625" y="-3.804688" style="font-size: 7px; font-family: 'DejaVu Serif'">1</tspan>
        <tspan x="23.134238" y="-3.804688" style="font-size: 7px; font-family: 'DejaVu Serif'">3</tspan>
       </text>
      </g>
     </g>
    </g>
    <g id="ytick_3">
     <g id="line2d_15">
      <path d="M 56.2 194.52354 
L 500.518786 194.52354 
" clip-path="url(#p218666c17b)" style="fill: none; stroke: #b0b0b0; stroke-opacity: 0.25; stroke-width: 0.8; stroke-linecap: square"/>
     </g>
     <g id="line2d_16">
      <g>
       <use xlink:href="#m7832650e0a" x="56.2" y="194.52354" style="stroke: #000000; stroke-width: 0.8"/>
      </g>
     </g>
     <g id="text_9">
      <!-- $\mathdefault{10^{-11}}$ -->
      <g transform="translate(21.3 198.322759)">
       <text>
        <tspan x="0" y="-0.173438" style="font-size: 10px; font-family: 'DejaVu Serif'">1</tspan>
        <tspan x="6.362305" y="-0.173438" style="font-size: 10px; font-family: 'DejaVu Serif'">0</tspan>
        <tspan x="12.815391" y="-3.804688" style="font-size: 7px; font-family: 'DejaVu Serif'">−</tspan>
        <tspan x="18.680625" y="-3.804688" style="font-size: 7px; font-family: 'DejaVu Serif'">1</tspan>
        <tspan x="23.134238" y="-3.804688" style="font-size: 7px; font-family: 'DejaVu Serif'">1</tspan>
       </text>
      </g>
     </g>
    </g>
    <g id="ytick_4">
     <g id="line2d_17">
      <path d="M 56.2 154.895575 
L 500.518786 154.895575 
" clip-path="url(#p218666c17b)" style="fill: none; stroke: #b0b0b0; stroke-opacity: 0.25; stroke-width: 0.8; stroke-linecap: square"/>
     </g>
     <g id="line2d_18">
      <g>
       <use xlink:href="#m7832650e0a" x="56.2" y="154.895575" style="stroke: #000000; stroke-width: 0.8"/>
      </g>
     </g>
     <g id="text_10">
      <!-- $\mathdefault{10^{-9}}$ -->
      <g transform="translate(25.8 158.694794)">
       <text>
        <tspan x="0" y="-0.173438" style="font-size: 10px; font-family: 'DejaVu Serif'">1</tspan>
        <tspan x="6.362305" y="-0.173438" style="font-size: 10px; font-family: 'DejaVu Serif'">0</tspan>
        <tspan x="12.815391" y="-3.804688" style="font-size: 7px; font-family: 'DejaVu Serif'">−</tspan>
        <tspan x="18.680625" y="-3.804688" style="font-size: 7px; font-family: 'DejaVu Serif'">9</tspan>
       </text>
      </g>
     </g>
    </g>
    <g id="ytick_5">
     <g id="line2d_19">
      <path d="M 56.2 115.267611 
L 500.518786 115.267611 
" clip-path="url(#p218666c17b)" style="fill: none; stroke: #b0b0b0; stroke-opacity: 0.25; stroke-width: 0.8; stroke-linecap: square"/>
     </g>
     <g id="line2d_20">
      <g>
       <use xlink:href="#m7832650e0a" x="56.2" y="115.267611" style="stroke: #000000; stroke-width: 0.8"/>
      </g>
     </g>
     <g id="text_11">
      <!-- $\mathdefault{10^{-7}}$ -->
      <g transform="translate(25.8 119.066829)">
       <text>
        <tspan x="0" y="-0.260938" style="font-size: 10px; font-family: 'DejaVu Serif'">1</tspan>
        <tspan x="6.362305" y="-0.260938" style="font-size: 10px; font-family: 'DejaVu Serif'">0</tspan>
        <tspan x="12.815391" y="-3.892188" style="font-size: 7px; font-family: 'DejaVu Serif'">−</tspan>
        <tspan x="18.680625" y="-3.892188" style="font-size: 7px; font-family: 'DejaVu Serif'">7</tspan>
       </text>
      </g>
     </g>
    </g>
    <g id="ytick_6">
     <g id="line2d_21">
      <path d="M 56.2 75.639646 
L 500.518786 75.639646 
" clip-path="url(#p218666c17b)" style="fill: none; stroke: #b0b0b0; stroke-opacity: 0.25; stroke-width: 0.8; stroke-linecap: square"/>
     </g>
     <g id="line2d_22">
      <g>
       <use xlink:href="#m7832650e0a" x="56.2" y="75.639646" style="stroke: #000000; stroke-width: 0.8"/>
      </g>
     </g>
     <g id="text_12">
      <!-- $\mathdefault{10^{-5}}$ -->
      <g transform="translate(25.8 79.438865)">
       <text>
        <tspan x="0" y="-0.260938" style="font-size: 10px; font-family: 'DejaVu Serif'">1</tspan>
        <tspan x="6.362305" y="-0.260938" style="font-size: 10px; font-family: 'DejaVu Serif'">0</tspan>
        <tspan x="12.815391" y="-3.892188" style="font-size: 7px; font-family: 'DejaVu Serif'">−</tspan>
        <tspan x="18.680625" y="-3.892188" style="font-size: 7px; font-family: 'DejaVu Serif'">5</tspan>
       </text>
      </g>
     </g>
    </g>
    <g id="ytick_7">
     <g id="line2d_23">
      <path d="M 56.2 36.011681 
L 500.518786 36.011681 
" clip-path="url(#p218666c17b)" style="fill: none; stroke: #b0b0b0; stroke-opacity: 0.25; stroke-width: 0.8; stroke-linecap: square"/>
     </g>
     <g id="line2d_24">
      <g>
       <use xlink:href="#m7832650e0a" x="56.2" y="36.011681" style="stroke: #000000; stroke-width: 0.8"/>
      </g>
     </g>
     <g id="text_13">
      <!-- $\mathdefault{10^{-3}}$ -->
      <g transform="translate(25.8 39.8109)">
       <text>
        <tspan x="0" y="-0.173438" style="font-size: 10px; font-family: 'DejaVu Serif'">1</tspan>
        <tspan x="6.362305" y="-0.173438" style="font-size: 10px; font-family: 'DejaVu Serif'">0</tspan>
        <tspan x="12.815391" y="-3.804688" style="font-size: 7px; font-family: 'DejaVu Serif'">−</tspan>
        <tspan x="18.680625" y="-3.804688" style="font-size: 7px; font-family: 'DejaVu Serif'">3</tspan>
       </text>
      </g>
     </g>
    </g>
    <g id="text_14">
     <!-- Primal Residual $\|D x-y\|$ -->
     <g transform="translate(14.9 216.27) rotate(-90)">
      <text>
       <tspan x="0" y="-0.359375" style="font-size: 10px; font-family: 'DejaVu Serif'">P</tspan>
       <tspan x="6.728516" y="-0.359375" style="font-size: 10px; font-family: 'DejaVu Serif'">r</tspan>
       <tspan x="11.508789" y="-0.359375" style="font-size: 10px; font-family: 'DejaVu Serif'">i</tspan>
       <tspan x="14.707031" y="-0.359375" style="font-size: 10px; font-family: 'DejaVu Serif'">m</tspan>
       <tspan x="24.189453" y="-0.359375" style="font-size: 10px; font-family: 'DejaVu Serif'">a</tspan>
       <tspan x="30.151367" y="-0.359375" style="font-size: 10px; font-family: 'DejaVu Serif'">l</tspan>
       <tspan x="33.349609" y="-0.359375" style="font-size: 10px; font-family: 'DejaVu Serif'"> </tspan>
       <tspan x="36.52832" y="-0.359375" style="font-size: 10px; font-family: 'DejaVu Serif'">R</tspan>
       <tspan x="44.057617" y="-0.359375" style="font-size: 10px; font-family: 'DejaVu Serif'">e</tspan>
       <tspan x="49.975586" y="-0.359375" style="font-size: 10px; font-family: 'DejaVu Serif'">s</tspan>
       <tspan x="55.107422" y="-0.359375" style="font-size: 10px; font-family: 'DejaVu Serif'">i</tspan>
       <tspan x="58.305664" y="-0.359375" style="font-size: 10px; font-family: 'DejaVu Serif'">d</tspan>
       <tspan x="64.707031" y="-0.359375" style="font-size: 10px; font-family: 'DejaVu Serif'">u</tspan>
       <tspan x="71.147461" y="-0.359375" style="font-size: 10px; font-family: 'DejaVu Serif'">a</tspan>
       <tspan x="77.109375" y="-0.359375" style="font-size: 10px; font-family: 'DejaVu Serif'">l</tspan>
       <tspan x="80.307617" y="-0.359375" style="font-size: 10px; font-family: 'DejaVu Serif'"> </tspan>
       <tspan x="83.486328" y="-0.359375" style="font-size: 10px; font-family: 'DejaVu Sans'">‖</tspan>
       <tspan x="104.052734" y="-0.359375" style="font-size: 10px; font-family: 'DejaVu Sans'">−</tspan>
       <tspan x="120.297852" y="-0.359375" style="font-size: 10px; font-family: 'DejaVu Sans'">‖</tspan>
       <tspan x="88.486328" y="-0.359375" style="font-style: oblique; font-size: 10px; font-family: 'DejaVu Sans'">D</tspan>
       <tspan x="96.186523" y="-0.359375" style="font-style: oblique; font-size: 10px; font-family: 'DejaVu Sans'">x</tspan>
       <tspan x="114.379883" y="-0.359375" style="font-style: oblique; font-size: 10px; font-family: 'DejaVu Sans'">y</tspan>
      </text>
     </g>
    </g>
   </g>
   <g id="line2d_25">
    <path d="M 76.396308 286.729091 
L 78.426088 26.475512 
L 80.455868 20.510909 
L 82.485648 21.340302 
L 84.515427 23.389917 
L 86.545207 24.81236 
L 88.574987 26.09569 
L 90.604767 27.641705 
L 92.634546 29.576038 
L 94.664326 32.075223 
L 96.694106 34.159322 
L 100.753665 37.37593 
L 102.783445 38.819583 
L 104.813225 39.404653 
L 106.843005 38.598696 
L 108.872784 38.362504 
L 110.902564 40.61667 
L 112.932344 43.046958 
L 114.962124 42.3177 
L 116.991903 42.245855 
L 121.051463 47.640578 
L 123.081243 47.62185 
L 125.111022 47.970232 
L 127.140802 50.793597 
L 129.170582 55.023582 
L 131.200362 55.16999 
L 133.230141 55.138021 
L 135.259921 57.287775 
L 137.289701 60.574973 
L 139.319481 62.098848 
L 141.34926 63.297155 
L 143.37904 62.823025 
L 145.40882 62.173585 
L 147.4386 63.667764 
L 149.468379 66.592234 
L 151.498159 66.692208 
L 153.527939 65.435247 
L 155.557719 66.831734 
L 157.587498 70.042343 
L 159.617278 70.446994 
L 161.647058 69.638325 
L 163.676838 70.457476 
L 165.706617 72.070556 
L 167.736397 74.057433 
L 169.766177 73.760989 
L 171.795957 72.992302 
L 173.825736 73.818373 
L 179.915076 77.361096 
L 183.974635 78.996292 
L 186.004415 77.413905 
L 188.034195 76.077799 
L 190.063974 36.965495 
L 192.093754 31.314118 
L 194.123534 35.571511 
L 196.153313 42.431455 
L 198.183093 42.796698 
L 200.212873 43.592168 
L 202.242653 46.719386 
L 204.272432 50.334526 
L 206.302212 51.712378 
L 208.331992 53.391525 
L 210.361772 55.704083 
L 214.421331 61.517246 
L 216.451111 64.514369 
L 218.480891 64.127447 
L 220.51067 64.262153 
L 222.54045 66.833102 
L 224.57023 70.139108 
L 226.60001 68.864556 
L 228.629789 67.754659 
L 230.659569 69.972817 
L 232.689349 72.645867 
L 234.719129 71.640683 
L 236.748908 71.092681 
L 238.778688 74.153666 
L 240.808468 77.981044 
L 242.838248 74.662508 
L 244.868027 72.625771 
L 246.897807 75.420292 
L 248.927587 79.495284 
L 250.957367 78.057026 
L 252.987146 77.01822 
L 257.046706 80.868554 
L 259.076486 80.227901 
L 261.106265 79.975763 
L 265.165825 83.068289 
L 267.195605 81.796485 
L 271.255164 79.57271 
L 273.284944 78.625459 
L 275.314724 78.94508 
L 277.344503 55.209467 
L 279.374283 37.697974 
L 281.404063 32.314833 
L 283.433843 35.245659 
L 285.463622 40.750077 
L 287.493402 43.919762 
L 289.523182 48.52974 
L 291.552962 50.423503 
L 293.582741 51.622285 
L 295.612521 53.234282 
L 297.642301 55.252053 
L 299.672081 57.668625 
L 301.70186 61.016797 
L 303.73164 61.449184 
L 305.76142 61.425664 
L 307.7912 63.731333 
L 309.820979 67.330006 
L 311.850759 68.38253 
L 313.880539 68.562296 
L 315.910319 69.328487 
L 317.940098 70.349948 
L 321.999658 71.946624 
L 326.059217 71.059262 
L 328.088997 72.693684 
L 330.118777 74.713092 
L 332.148556 73.792532 
L 334.178336 72.688518 
L 336.208116 74.673361 
L 338.237896 76.940369 
L 340.267675 76.146594 
L 342.297455 75.76779 
L 346.357015 78.239737 
L 350.416574 78.166539 
L 354.476134 79.617703 
L 356.505913 79.991097 
L 358.535693 80.208747 
L 360.565473 80.65441 
L 364.625032 81.865447 
L 366.654812 82.581588 
L 370.714372 82.920751 
L 372.744151 83.505635 
L 374.773931 84.320653 
L 376.803711 84.749409 
L 380.86327 85.276881 
L 386.95261 86.824095 
L 391.012169 87.352157 
L 395.071729 87.677052 
L 397.101508 88.262092 
L 399.131288 88.997041 
L 403.190848 89.930053 
L 407.250407 91.358488 
L 419.429086 93.674018 
L 425.518425 95.259519 
L 431.607764 96.175532 
L 437.697103 97.439482 
L 441.756663 98.433056 
L 451.905562 101.109181 
L 453.935341 101.626074 
L 457.994901 102.147879 
L 460.02468 102.814554 
L 462.05446 103.78832 
L 464.08424 104.150962 
L 466.11402 104.340158 
L 468.143799 104.921215 
L 470.173579 105.667462 
L 480.322478 107.854249 
L 480.322478 107.854249 
" clip-path="url(#p218666c17b)" style="fill: none; stroke: #1f77b4; stroke-width: 1.9; stroke-linecap: square"/>
   </g>
   <g id="line2d_26">
    <path d="M 76.396308 286.729091 
L 78.426088 30.494747 
L 80.455868 24.530144 
L 82.485648 21.041074 
L 84.515427 20.853927 
L 86.545207 22.011006 
L 88.574987 23.348204 
L 90.604767 24.390631 
L 96.694106 27.066007 
L 98.723886 28.446634 
L 100.753665 30.286009 
L 102.783445 32.628541 
L 104.813225 34.439074 
L 106.843005 34.692685 
L 108.872784 35.180664 
L 110.902564 36.541162 
L 112.932344 38.047053 
L 116.991903 39.623675 
L 119.021683 40.729364 
L 121.051463 41.998369 
L 123.081243 43.962656 
L 125.111022 46.648771 
L 127.140802 46.666262 
L 129.170582 45.116595 
L 131.200362 44.52234 
L 133.230141 44.219835 
L 135.259921 43.062299 
L 137.289701 41.758189 
L 139.319481 41.295116 
L 141.34926 41.033409 
L 145.40882 39.219647 
L 147.4386 42.413605 
L 149.468379 48.283517 
L 151.498159 52.346556 
L 153.527939 55.417774 
L 155.557719 56.647105 
L 157.587498 53.842163 
L 159.617278 52.444547 
L 161.647058 52.054999 
L 163.676838 51.902759 
L 165.706617 51.914376 
L 167.736397 51.684139 
L 169.766177 51.232473 
L 171.795957 50.55875 
L 173.825736 49.741748 
L 175.855516 49.806749 
L 177.885296 50.478286 
L 179.915076 52.256348 
L 181.944855 56.492338 
L 183.974635 59.576634 
L 186.004415 59.981674 
L 188.034195 59.285713 
L 190.063974 58.124694 
L 192.093754 39.095641 
L 194.123534 32.29947 
L 196.153313 34.890031 
L 198.183093 40.866464 
L 202.242653 42.294909 
L 204.272432 44.037114 
L 206.302212 46.108555 
L 210.361772 46.838707 
L 212.391551 46.904093 
L 214.421331 46.470623 
L 216.451111 45.03507 
L 218.480891 44.433133 
L 220.51067 44.708254 
L 222.54045 44.692772 
L 224.57023 44.429565 
L 226.60001 43.162145 
L 228.629789 41.357549 
L 230.659569 40.506049 
L 232.689349 40.114065 
L 234.719129 40.838571 
L 236.748908 42.025228 
L 238.778688 39.78353 
L 240.808468 37.968983 
L 244.868027 42.948461 
L 246.897807 42.378987 
L 248.927587 41.52284 
L 250.957367 40.334283 
L 252.987146 39.929778 
L 255.016926 40.111332 
L 257.046706 39.700504 
L 259.076486 39.051187 
L 261.106265 39.385627 
L 265.165825 40.835385 
L 267.195605 41.564381 
L 269.225384 40.822443 
L 271.255164 40.856365 
L 273.284944 44.699436 
L 275.314724 51.135964 
L 277.344503 54.146219 
L 279.374283 52.319591 
L 281.404063 44.378797 
L 283.433843 40.320419 
L 285.463622 42.705983 
L 287.493402 46.421264 
L 289.523182 48.451578 
L 291.552962 49.740265 
L 293.582741 50.106485 
L 295.612521 50.353022 
L 297.642301 50.30149 
L 299.672081 50.423917 
L 301.70186 50.864939 
L 303.73164 50.494752 
L 305.76142 49.172691 
L 307.7912 48.945023 
L 309.820979 49.539354 
L 311.850759 51.7556 
L 315.910319 59.987193 
L 317.940098 63.083389 
L 319.969878 64.441714 
L 321.999658 63.947119 
L 324.029438 63.908459 
L 328.088997 64.071796 
L 330.118777 64.105486 
L 332.148556 64.682144 
L 334.178336 67.559494 
L 336.208116 71.913281 
L 338.237896 69.622527 
L 340.267675 67.794362 
L 342.297455 67.940388 
L 344.327235 67.965688 
L 346.357015 64.999029 
L 348.386794 63.323334 
L 350.416574 64.133473 
L 352.446354 64.293648 
L 354.476134 63.249435 
L 356.505913 61.861532 
L 358.535693 60.295507 
L 360.565473 59.70154 
L 362.595253 59.476896 
L 366.654812 59.574589 
L 368.684592 59.848588 
L 370.714372 59.860901 
L 372.744151 58.725023 
L 374.773931 57.929479 
L 376.803711 57.519919 
L 378.833491 58.205202 
L 380.86327 59.879648 
L 382.89305 59.004513 
L 384.92283 57.467015 
L 386.95261 55.75974 
L 388.982389 54.452086 
L 393.041949 58.004474 
L 395.071729 57.422412 
L 397.101508 57.212448 
L 399.131288 58.298625 
L 401.161068 59.021303 
L 403.190848 57.664468 
L 405.220627 57.729348 
L 407.250407 60.79787 
L 409.280187 64.814272 
L 411.309967 68.374682 
L 413.339746 74.352683 
L 415.369526 77.625689 
L 417.399306 82.067911 
L 421.458865 81.787276 
L 423.488645 81.845995 
L 425.518425 82.119209 
L 427.548205 82.978198 
L 429.577984 83.247984 
L 431.607764 82.465527 
L 433.637544 81.886649 
L 435.667324 81.471713 
L 437.697103 81.178898 
L 439.726883 81.063026 
L 441.756663 80.748687 
L 445.816222 79.648818 
L 447.846002 79.022172 
L 449.875782 78.958724 
L 451.905562 79.160533 
L 453.935341 78.687906 
L 455.965121 78.093101 
L 460.02468 78.654775 
L 462.05446 77.751159 
L 464.08424 77.537273 
L 466.11402 81.494417 
L 468.143799 88.515132 
L 470.173579 91.241109 
L 472.203359 95.254052 
L 474.233139 97.001828 
L 476.262918 99.069111 
L 478.292698 98.67453 
L 480.322478 98.129736 
L 480.322478 98.129736 
" clip-path="url(#p218666c17b)" style="fill: none; stroke-dasharray: 7.03,3.04; stroke-dashoffset: 0; stroke: #ff7f0e; stroke-width: 1.9"/>
   </g>
   <g id="patch_3">
    <path d="M 56.2 300.04 
L 56.2 7.2 
" style="fill: none; stroke: #000000; stroke-width: 0.8; stroke-linejoin: miter; stroke-linecap: square"/>
   </g>
   <g id="patch_4">
    <path d="M 500.518786 300.04 
L 500.518786 7.2 
" style="fill: none; stroke: #000000; stroke-width: 0.8; stroke-linejoin: miter; stroke-linecap: square"/>
   </g>
   <g id="patch_5">
    <path d="M 56.2 300.04 
L 500.518786 300.04 
" style="fill: none; stroke: #000000; stroke-width: 0.8; stroke-linejoin: miter; stroke-linecap: square"/>
   </g>
   <g id="patch_6">
    <path d="M 56.2 7.2 
L 500.518786 7.2 
" style="fill: none; stroke: #000000; stroke-width: 0.8; stroke-linejoin: miter; stroke-linecap: square"/>
   </g>
   <g id="legend_1">
    <g id="patch_7">
     <path d="M 308.11449 24.208594 
L 495.268786 24.208594 
Q 496.768786 24.208594 496.768786 22.708594 
L 496.768786 12.45 
Q 496.768786 10.95 495.268786 10.95 
L 308.11449 10.95 
Q 306.61449 10.95 306.61449 12.45 
L 306.61449 22.708594 
Q 306.61449 24.208594 308.11449 24.208594 
z
" style="fill: #ffffff; opacity: 0.8; stroke: #cccccc; stroke-linejoin: miter"/>
    </g>
    <g id="line2d_27">
     <path d="M 309.61449 17.023828 
L 317.11449 17.023828 
L 324.61449 17.023828 
" style="fill: none; stroke: #1f77b4; stroke-width: 1.9; stroke-linecap: square"/>
    </g>
    <g id="text_15">
     <text style="font-size: 7.5px; font-family: 'DejaVu Serif', serif; text-anchor: start" x="330.61449" y="19.648828" transform="rotate(-0 330.61449 19.648828)">SPIDER-ADMM</text>
    </g>
    <g id="line2d_28">
     <path d="M 405.218396 17.023828 
L 412.718396 17.023828 
L 420.218396 17.023828 
" style="fill: none; stroke-dasharray: 7.03,3.04; stroke-dashoffset: 0; stroke: #ff7f0e; stroke-width: 1.9"/>
    </g>
    <g id="text_16">
     <text style="font-size: 7.5px; font-family: 'DejaVu Serif', serif; text-anchor: start" x="426.218396" y="19.648828" transform="rotate(-0 426.218396 19.648828)">AIL-SVRG-ADMM</text>
    </g>
   </g>
  </g>
 </g>
 <defs>
  <clipPath id="p218666c17b">
   <rect x="56.2" y="7.2" width="444.318786" height="292.84"/>
  </clipPath>
 </defs>
</svg>
