<?xml version="1.0" encoding="utf-8" standalone="no"?>
<!DOCTYPE svg PUBLIC "-//W3C//DTD SVG 1.1//EN"
  "http://www.w3.org/Graphics/SVG/1.1/DTD/svg11.dtd">
<svg xmlns:xlink="http://www.w3.org/1999/xlink" width="507.498071pt" height="336.051454pt" viewBox="0 0 507.498071 336.051454" xmlns="http://www.w3.org/2000/svg" version="1.1">
 <metadata>
  <rdf:RDF xmlns:dc="http://purl.org/dc/elements/1.1/" xmlns:cc="http://creativecommons.org/ns#" xmlns:rdf="http://www.w3.org/1999/02/22-rdf-syntax-ns#">
   <cc:Work>
    <dc:type rdf:resource="http://purl.org/dc/dcmitype/StillImage"/>
    <dc:date>2026-07-14T16:10:39.618750</dc:date>
    <dc:format>image/svg+xml</dc:format>
    <dc:creator>
     <cc:Agent>
      <dc:title>Matplotlib v3.10.5, https://matplotlib.org/</dc:title>
     </cc:Agent>
    </dc:creator>
   </cc:Work>
  </rdf:RDF>
 </metadata>
 <defs>
  <style type="text/css">*{stroke-linejoin: round; stroke-linecap: butt}</style>
 </defs>
 <g id="figure_1">
  <g id="patch_1">
   <path d="M 0 336.051454 
L 507.498071 336.051454 
L 507.498071 0 
L 0 0 
z
" style="fill: #ffffff"/>
  </g>
  <g id="axes_1">
   <g id="patch_2">
    <path d="M 51.278125 298.495204 
L 500.298071 298.495204 
L 500.298071 8.609141 
L 51.278125 8.609141 
z
" style="fill: #ffffff"/>
   </g>
   <g id="matplotlib.axis_1">
    <g id="xtick_1">
     <g id="line2d_1">
      <path d="M 71.688123 298.495204 
L 71.688123 8.609141 
" clip-path="url(#pef7fad8d47)" style="fill: none; stroke: #b0b0b0; stroke-opacity: 0.25; stroke-width: 0.8; stroke-linecap: square"/>
     </g>
     <g id="line2d_2">
      <defs>
       <path id="maccb274545" d="M 0 0 
L 0 3.5 
" style="stroke: #000000; stroke-width: 0.8"/>
      </defs>
      <g>
       <use xlink:href="#maccb274545" x="71.688123" y="298.495204" style="stroke: #000000; stroke-width: 0.8"/>
      </g>
     </g>
     <g id="text_1">
      <text style="font-size: 10px; font-family: 'DejaVu Serif', serif; text-anchor: middle" x="71.688123" y="313.093642" transform="rotate(-0 71.688123 313.093642)">0</text>
     </g>
    </g>
    <g id="xtick_2">
     <g id="line2d_3">
      <path d="M 122.713116 298.495204 
L 122.713116 8.609141 
" clip-path="url(#pef7fad8d47)" style="fill: none; stroke: #b0b0b0; stroke-opacity: 0.25; stroke-width: 0.8; stroke-linecap: square"/>
     </g>
     <g id="line2d_4">
      <g>
       <use xlink:href="#maccb274545" x="122.713116" y="298.495204" style="stroke: #000000; stroke-width: 0.8"/>
      </g>
     </g>
     <g id="text_2">
      <text style="font-size: 10px; font-family: 'DejaVu Serif', serif; text-anchor: middle" x="122.713116" y="313.093642" transform="rotate(-0 122.713116 313.093642)">250</text>
     </g>
    </g>
    <g id="xtick_3">
     <g id="line2d_5">
      <path d="M 173.73811 298.495204 
L 173.73811 8.609141 
" clip-path="url(#pef7fad8d47)" style="fill: none; stroke: #b0b0b0; stroke-opacity: 0.25; stroke-width: 0.8; stroke-linecap: square"/>
     </g>
     <g id="line2d_6">
      <g>
       <use xlink:href="#maccb274545" x="173.73811" y="298.495204" style="stroke: #000000; stroke-width: 0.8"/>
      </g>
     </g>
     <g id="text_3">
      <text style="font-size: 10px; font-family: 'DejaVu Serif', serif; text-anchor: middle" x="173.73811" y="313.093642" transform="rotate(-0 173.73811 313.093642)">500</text>
     </g>
    </g>
    <g id="xtick_4">
     <g id="line2d_7">
      <path d="M 224.763104 298.495204 
L 224.763104 8.609141 
" clip-path="url(#pef7fad8d47)" style="fill: none; stroke: #b0b0b0; stroke-opacity: 0.25; stroke-width: 0.8; stroke-linecap: square"/>
     </g>
     <g id="line2d_8">
      <g>
       <use xlink:href="#maccb274545" x="224.763104" y="298.495204" style="stroke: #000000; stroke-width: 0.8"/>
      </g>
     </g>
     <g id="text_4">
      <text style="font-size: 10px; font-family: 'DejaVu Serif', serif; text-anchor: middle" x="224.763104" y="313.093642" transform="rotate(-0 224.763104 313.093642)">750</text>
     </g>
    </g>
    <g id="xtick_5">
     <g id="line2d_9">
      <path d="M 275.788098 298.495204 
L 275.788098 8.609141 
" clip-path="url(#pef7fad8d47)" style="fill: none; stroke: #b0b0b0; stroke-opacity: 0.25; stroke-width: 0.8; stroke-linecap: square"/>
     </g>
     <g id="line2d_10">
      <g>
       <use xlink:href="#maccb274545" x="275.788098" y="298.495204" style="stroke: #000000; stroke-width: 0.8"/>
      </g>
     </g>
     <g id="text_5">
      <text style="font-size: 10px; font-family: 'DejaVu Serif', serif; text-anchor: middle" x="275.788098" y="313.093642" transform="rotate(-0 275.788098 313.093642)">1000</text>
     </g>
    </g>
    <g id="xtick_6">
     <g id="line2d_11">
      <path d="M 326.813092 298.495204 
L 326.813092 8.609141 
" clip-path="url(#pef7fad8d47)" style="fill: none; stroke: #b0b0b0; stroke-opacity: 0.25; stroke-width: 0.8; stroke-linecap: square"/>
     </g>
     <g id="line2d_12">
      <g>
       <use xlink:href="#maccb274545" x="326.813092" y="298.495204" style="stroke: #000000; stroke-width: 0.8"/>
      </g>
     </g>
     <g id="text_6">
      <text style="font-size: 10px; font-family: 'DejaVu Serif', serif; text-anchor: middle" x="326.813092" y="313.093642" transform="rotate(-0 326.813092 313.093642)">1250</text>
     </g>
    </g>
    <g id="xtick_7">
     <g id="line2d_13">
      <path d="M 377.838086 298.495204 
L 377.838086 8.609141 
" clip-path="url(#pef7fad8d47)" style="fill: none; stroke: #b0b0b0; stroke-opacity: 0.25; stroke-width: 0.8; stroke-linecap: square"/>
     </g>
     <g id="line2d_14">
      <g>
       <use xlink:href="#maccb274545" x="377.838086" y="298.495204" style="stroke: #000000; stroke-width: 0.8"/>
      </g>
     </g>
     <g id="text_7">
      <text style="font-size: 10px; font-family: 'DejaVu Serif', serif; text-anchor: middle" x="377.838086" y="313.093642" transform="rotate(-0 377.838086 313.093642)">1500</text>
     </g>
    </g>
    <g id="xtick_8">
     <g id="line2d_15">
      <path d="M 428.86308 298.495204 
L 428.86308 8.609141 
" clip-path="url(#pef7fad8d47)" style="fill: none; stroke: #b0b0b0; stroke-opacity: 0.25; stroke-width: 0.8; stroke-linecap: square"/>
     </g>
     <g id="line2d_16">
      <g>
       <use xlink:href="#maccb274545" x="428.86308" y="298.495204" style="stroke: #000000; stroke-width: 0.8"/>
      </g>
     </g>
     <g id="text_8">
      <text style="font-size: 10px; font-family: 'DejaVu Serif', serif; text-anchor: middle" x="428.86308" y="313.093642" transform="rotate(-0 428.86308 313.093642)">1750</text>
     </g>
    </g>
    <g id="xtick_9">
     <g id="line2d_17">
      <path d="M 479.888074 298.495204 
L 479.888074 8.609141 
" clip-path="url(#pef7fad8d47)" style="fill: none; stroke: #b0b0b0; stroke-opacity: 0.25; stroke-width: 0.8; stroke-linecap: square"/>
     </g>
     <g id="line2d_18">
      <g>
       <use xlink:href="#maccb274545" x="479.888074" y="298.495204" style="stroke: #000000; stroke-width: 0.8"/>
      </g>
     </g>
     <g id="text_9">
      <text style="font-size: 10px; font-family: 'DejaVu Serif', serif; text-anchor: middle" x="479.888074" y="313.093642" transform="rotate(-0 479.888074 313.093642)">2000</text>
     </g>
    </g>
    <g id="text_10">
     <text style="font-size: 10px; font-family: 'DejaVu Serif', serif; text-anchor: middle" x="275.788098" y="326.771767" transform="rotate(-0 275.788098 326.771767)">Iterations</text>
    </g>
   </g>
   <g id="matplotlib.axis_2">
    <g id="ytick_1">
     <g id="line2d_19">
      <path d="M 51.278125 262.598029 
L 500.298071 262.598029 
" clip-path="url(#pef7fad8d47)" style="fill: none; stroke: #b0b0b0; stroke-opacity: 0.25; stroke-width: 0.8; stroke-linecap: square"/>
     </g>
     <g id="line2d_20">
      <defs>
       <path id="m5732cf2548" d="M 0 0 
L -3.5 0 
" style="stroke: #000000; stroke-width: 0.8"/>
      </defs>
      <g>
       <use xlink:href="#m5732cf2548" x="51.278125" y="262.598029" style="stroke: #000000; stroke-width: 0.8"/>
      </g>
     </g>
     <g id="text_11">
      <!-- $\mathdefault{10^{-8}}$ -->
      <g transform="translate(20.878125 266.397248)">
       <text>
        <tspan x="0" y="-0.173438" style="font-size: 10px; font-family: 'DejaVu Serif'">1</tspan>
        <tspan x="6.362305" y="-0.173438" style="font-size: 10px; font-family: 'DejaVu Serif'">0</tspan>
        <tspan x="12.815391" y="-3.804688" style="font-size: 7px; font-family: 'DejaVu Serif'">−</tspan>
        <tspan x="18.680625" y="-3.804688" style="font-size: 7px; font-family: 'DejaVu Serif'">8</tspan>
       </text>
      </g>
     </g>
    </g>
    <g id="ytick_2">
     <g id="line2d_21">
      <path d="M 51.278125 199.698327 
L 500.298071 199.698327 
" clip-path="url(#pef7fad8d47)" style="fill: none; stroke: #b0b0b0; stroke-opacity: 0.25; stroke-width: 0.8; stroke-linecap: square"/>
     </g>
     <g id="line2d_22">
      <g>
       <use xlink:href="#m5732cf2548" x="51.278125" y="199.698327" style="stroke: #000000; stroke-width: 0.8"/>
      </g>
     </g>
     <g id="text_12">
      <!-- $\mathdefault{10^{-6}}$ -->
      <g transform="translate(20.878125 203.497545)">
       <text>
        <tspan x="0" y="-0.173438" style="font-size: 10px; font-family: 'DejaVu Serif'">1</tspan>
        <tspan x="6.362305" y="-0.173438" style="font-size: 10px; font-family: 'DejaVu Serif'">0</tspan>
        <tspan x="12.815391" y="-3.804688" style="font-size: 7px; font-family: 'DejaVu Serif'">−</tspan>
        <tspan x="18.680625" y="-3.804688" style="font-size: 7px; font-family: 'DejaVu Serif'">6</tspan>
       </text>
      </g>
     </g>
    </g>
    <g id="ytick_3">
     <g id="line2d_23">
      <path d="M 51.278125 136.798624 
L 500.298071 136.798624 
" clip-path="url(#pef7fad8d47)" style="fill: none; stroke: #b0b0b0; stroke-opacity: 0.25; stroke-width: 0.8; stroke-linecap: square"/>
     </g>
     <g id="line2d_24">
      <g>
       <use xlink:href="#m5732cf2548" x="51.278125" y="136.798624" style="stroke: #000000; stroke-width: 0.8"/>
      </g>
     </g>
     <g id="text_13">
      <!-- $\mathdefault{10^{-4}}$ -->
      <g transform="translate(20.878125 140.597843)">
       <text>
        <tspan x="0" y="-0.173438" style="font-size: 10px; font-family: 'DejaVu Serif'">1</tspan>
        <tspan x="6.362305" y="-0.173438" style="font-size: 10px; font-family: 'DejaVu Serif'">0</tspan>
        <tspan x="12.815391" y="-3.804688" style="font-size: 7px; font-family: 'DejaVu Serif'">−</tspan>
        <tspan x="18.680625" y="-3.804688" style="font-size: 7px; font-family: 'DejaVu Serif'">4</tspan>
       </text>
      </g>
     </g>
    </g>
    <g id="ytick_4">
     <g id="line2d_25">
      <path d="M 51.278125 73.898921 
L 500.298071 73.898921 
" clip-path="url(#pef7fad8d47)" style="fill: none; stroke: #b0b0b0; stroke-opacity: 0.25; stroke-width: 0.8; stroke-linecap: square"/>
     </g>
     <g id="line2d_26">
      <g>
       <use xlink:href="#m5732cf2548" x="51.278125" y="73.898921" style="stroke: #000000; stroke-width: 0.8"/>
      </g>
     </g>
     <g id="text_14">
      <!-- $\mathdefault{10^{-2}}$ -->
      <g transform="translate(20.878125 77.69814)">
       <text>
        <tspan x="0" y="-0.173438" style="font-size: 10px; font-family: 'DejaVu Serif'">1</tspan>
        <tspan x="6.362305" y="-0.173438" style="font-size: 10px; font-family: 'DejaVu Serif'">0</tspan>
        <tspan x="12.815391" y="-3.804688" style="font-size: 7px; font-family: 'DejaVu Serif'">−</tspan>
        <tspan x="18.680625" y="-3.804688" style="font-size: 7px; font-family: 'DejaVu Serif'">2</tspan>
       </text>
      </g>
     </g>
    </g>
    <g id="ytick_5">
     <g id="line2d_27">
      <path d="M 51.278125 10.999219 
L 500.298071 10.999219 
" clip-path="url(#pef7fad8d47)" style="fill: none; stroke: #b0b0b0; stroke-opacity: 0.25; stroke-width: 0.8; stroke-linecap: square"/>
     </g>
     <g id="line2d_28">
      <g>
       <use xlink:href="#m5732cf2548" x="51.278125" y="10.999219" style="stroke: #000000; stroke-width: 0.8"/>
      </g>
     </g>
     <g id="text_15">
      <!-- $\mathdefault{10^{0}}$ -->
      <g transform="translate(26.678125 14.798438)">
       <text>
        <tspan x="0" y="-0.173438" style="font-size: 10px; font-family: 'DejaVu Serif'">1</tspan>
        <tspan x="6.362305" y="-0.173438" style="font-size: 10px; font-family: 'DejaVu Serif'">0</tspan>
        <tspan x="12.815391" y="-3.804688" style="font-size: 7px; font-family: 'DejaVu Serif'">0</tspan>
       </text>
      </g>
     </g>
    </g>
    <g id="text_16">
     <!-- KKT Residual $\mathcal{K}_t$ -->
     <g transform="translate(14.798437 195.052173) rotate(-90)">
      <text>
       <tspan x="0" y="-0.40625" style="font-size: 10px; font-family: 'DejaVu Serif'">K</tspan>
       <tspan x="7.470703" y="-0.40625" style="font-size: 10px; font-family: 'DejaVu Serif'">K</tspan>
       <tspan x="14.941406" y="-0.40625" style="font-size: 10px; font-family: 'DejaVu Serif'">T</tspan>
       <tspan x="21.611328" y="-0.40625" style="font-size: 10px; font-family: 'DejaVu Serif'"> </tspan>
       <tspan x="24.790039" y="-0.40625" style="font-size: 10px; font-family: 'DejaVu Serif'">R</tspan>
       <tspan x="32.319336" y="-0.40625" style="font-size: 10px; font-family: 'DejaVu Serif'">e</tspan>
       <tspan x="38.237305" y="-0.40625" style="font-size: 10px; font-family: 'DejaVu Serif'">s</tspan>
       <tspan x="43.369141" y="-0.40625" style="font-size: 10px; font-family: 'DejaVu Serif'">i</tspan>
       <tspan x="46.567383" y="-0.40625" style="font-size: 10px; font-family: 'DejaVu Serif'">d</tspan>
       <tspan x="52.96875" y="-0.40625" style="font-size: 10px; font-family: 'DejaVu Serif'">u</tspan>
       <tspan x="59.40918" y="-0.40625" style="font-size: 10px; font-family: 'DejaVu Serif'">a</tspan>
       <tspan x="65.371094" y="-0.40625" style="font-size: 10px; font-family: 'DejaVu Serif'">l</tspan>
       <tspan x="68.569336" y="-0.40625" style="font-size: 10px; font-family: 'DejaVu Serif'"> </tspan>
       <tspan x="71.748047" y="-0.40625" style="font-style: italic; font-size: 10px; font-family: 'STIXNonUnicode'"></tspan>
       <tspan x="79.933731" y="1.234375" style="font-style: oblique; font-size: 7px; font-family: 'DejaVu Sans'">t</tspan>
      </text>
     </g>
    </g>
   </g>
   <g id="line2d_29">
    <path d="M 71.688123 21.785781 
L 75.770122 44.267084 
L 79.852122 51.216513 
L 83.934121 57.454861 
L 88.016121 62.654501 
L 92.09812 67.429758 
L 96.18012 70.941729 
L 100.262119 74.085824 
L 104.344119 73.123317 
L 108.426118 77.977512 
L 112.508118 77.926069 
L 116.590117 71.564326 
L 120.672117 77.909106 
L 124.754116 75.420876 
L 128.836116 77.821203 
L 132.918115 76.250248 
L 137.000115 73.792561 
L 141.082114 78.639642 
L 145.164114 80.757669 
L 149.246113 73.713687 
L 153.328113 78.187684 
L 157.410112 75.68055 
L 161.492112 74.19045 
L 165.574111 73.643756 
L 169.656111 78.70669 
L 173.73811 77.163187 
L 177.82011 76.344048 
L 181.902109 76.961662 
L 185.984109 81.534113 
L 190.066108 77.865743 
L 194.148108 77.778826 
L 198.230107 73.97295 
L 202.312107 76.851242 
L 206.394106 74.018538 
L 210.476106 76.621428 
L 214.558105 77.114469 
L 218.640105 78.908425 
L 222.722104 78.04015 
L 226.804104 73.810883 
L 230.886103 74.988613 
L 234.968103 79.56491 
L 239.050102 81.389914 
L 243.132102 76.069968 
L 247.214101 77.307986 
L 251.296101 81.956606 
L 255.3781 79.088252 
L 259.4601 74.398039 
L 263.5421 79.860563 
L 267.624099 72.709677 
L 271.706099 79.527221 
L 275.788098 72.441012 
L 279.870098 84.20306 
L 283.952097 123.160454 
L 288.034097 137.412752 
L 292.116096 145.038157 
L 296.198096 149.421774 
L 300.280095 153.285563 
L 304.362095 155.933109 
L 308.444094 159.387722 
L 312.526094 161.839685 
L 316.608093 163.900548 
L 320.690093 167.141855 
L 324.772092 167.576595 
L 328.854092 171.779815 
L 332.936091 170.885762 
L 337.018091 169.937513 
L 341.10009 171.055964 
L 345.18209 174.33987 
L 349.264089 175.517992 
L 353.346089 174.041959 
L 357.428088 172.746668 
L 361.510088 179.16285 
L 365.592087 174.79101 
L 369.674087 176.861357 
L 373.756086 175.168584 
L 377.838086 176.117318 
L 381.920085 177.776789 
L 386.002085 173.721768 
L 390.084084 170.557031 
L 394.166084 166.976532 
L 398.248083 166.502355 
L 402.330083 175.524025 
L 406.412082 172.026133 
L 410.494082 177.326036 
L 414.576081 168.506258 
L 418.658081 173.612235 
L 422.74008 168.514294 
L 426.82208 170.280127 
L 430.904079 170.388714 
L 434.986079 172.278833 
L 439.068078 176.330817 
L 443.150078 173.56742 
L 447.232077 165.92967 
L 451.314077 175.740636 
L 455.396076 170.966625 
L 459.478076 170.423069 
L 463.560076 170.354672 
L 467.642075 171.01858 
L 471.724075 168.897983 
L 475.806074 176.786558 
L 479.888074 173.007478 
" clip-path="url(#pef7fad8d47)" style="fill: none; stroke: #1f77b4; stroke-width: 1.9; stroke-linecap: square"/>
   </g>
   <g id="line2d_30">
    <path d="M 71.688123 21.785781 
L 75.770122 44.425924 
L 79.852122 51.584389 
L 83.934121 57.965561 
L 88.016121 64.703232 
L 92.09812 70.848086 
L 96.18012 76.396237 
L 100.262119 81.228431 
L 104.344119 85.43106 
L 108.426118 88.828019 
L 112.508118 91.581158 
L 116.590117 93.674941 
L 120.672117 95.247738 
L 124.754116 96.412664 
L 128.836116 97.255312 
L 132.918115 97.881216 
L 137.000115 98.337647 
L 141.082114 98.683114 
L 145.164114 98.94344 
L 149.246113 99.149836 
L 153.328113 99.317291 
L 157.410112 99.455067 
L 161.492112 99.573055 
L 165.574111 99.674499 
L 169.656111 99.766244 
L 173.73811 99.850185 
L 177.82011 99.926062 
L 181.902109 105.632146 
L 185.984109 108.337358 
L 190.066108 110.080874 
L 194.148108 111.040918 
L 198.230107 111.787315 
L 202.312107 112.41376 
L 206.394106 112.945577 
L 210.476106 113.358559 
L 214.558105 113.715637 
L 218.640105 114.01798 
L 222.722104 114.280728 
L 226.804104 114.507887 
L 230.886103 114.713774 
L 234.968103 114.899895 
L 239.050102 115.068523 
L 243.132102 115.227916 
L 247.214101 115.377514 
L 251.296101 115.519856 
L 255.3781 115.655139 
L 259.4601 115.78702 
L 263.5421 115.913204 
L 267.624099 116.036728 
L 271.706099 116.158027 
L 275.788098 130.382059 
L 279.870098 134.868501 
L 283.952097 138.344544 
L 288.034097 141.574576 
L 292.116096 144.729341 
L 296.198096 147.805543 
L 300.280095 150.929046 
L 304.362095 153.993452 
L 308.444094 157.083175 
L 312.526094 160.152494 
L 316.608093 163.231551 
L 320.690093 166.31051 
L 324.772092 169.373927 
L 328.854092 172.447012 
L 332.936091 175.505076 
L 337.018091 178.57108 
L 341.10009 181.63177 
L 345.18209 184.692151 
L 349.264089 187.745881 
L 353.346089 190.801273 
L 357.428088 193.853005 
L 361.510088 196.914498 
L 365.592087 199.968478 
L 369.674087 203.01972 
L 373.756086 206.071286 
L 377.838086 209.122861 
L 381.920085 212.179156 
L 386.002085 215.228767 
L 390.084084 218.276021 
L 394.166084 221.322529 
L 398.248083 224.367367 
L 402.330083 227.421074 
L 406.412082 230.470342 
L 410.494082 233.517786 
L 414.576081 236.565417 
L 418.658081 239.611196 
L 422.74008 242.66304 
L 426.82208 245.708943 
L 430.904079 248.757499 
L 434.986079 251.805372 
L 439.068078 254.853629 
L 443.150078 257.905476 
L 447.232077 260.950921 
L 451.314077 263.995954 
L 455.396076 267.039262 
L 459.478076 270.084334 
L 463.560076 273.134676 
L 467.642075 276.18302 
L 471.724075 279.228004 
L 475.806074 282.273251 
L 479.888074 285.318565 
" clip-path="url(#pef7fad8d47)" style="fill: none; stroke-dasharray: 7.03,3.04; stroke-dashoffset: 0; stroke: #ff7f0e; stroke-width: 1.9"/>
   </g>
   <g id="line2d_31">
    <path d="M 71.688123 21.785781 
L 75.770122 43.242877 
L 79.852122 50.496752 
L 83.934121 57.135932 
L 88.016121 64.090683 
L 92.09812 70.348862 
L 96.18012 75.996019 
L 100.262119 81.001955 
L 104.344119 85.244031 
L 108.426118 88.66265 
L 112.508118 91.331847 
L 116.590117 93.281829 
L 120.672117 94.691751 
L 124.754116 95.620539 
L 128.836116 96.305203 
L 132.918115 96.676799 
L 137.000115 97.171601 
L 141.082114 97.411311 
L 145.164114 97.580552 
L 149.246113 97.712166 
L 153.328113 97.814875 
L 157.410112 97.901657 
L 161.492112 97.973346 
L 165.574111 98.04449 
L 169.656111 98.124379 
L 173.73811 98.187669 
L 177.82011 98.248268 
L 181.902109 104.575128 
L 185.984109 107.772455 
L 190.066108 109.184621 
L 194.148108 109.950456 
L 198.230107 110.556565 
L 202.312107 111.004643 
L 206.394106 111.373953 
L 210.476106 111.672532 
L 214.558105 111.866442 
L 218.640105 112.117878 
L 222.722104 112.118443 
L 226.804104 112.391813 
L 230.886103 112.306097 
L 234.968103 112.760238 
L 239.050102 112.868283 
L 243.132102 112.922661 
L 247.214101 112.956941 
L 251.296101 113.053774 
L 255.3781 113.190539 
L 259.4601 113.342947 
L 263.5421 113.007774 
L 267.624099 113.859693 
L 271.706099 114.000727 
L 275.788098 130.333812 
L 279.870098 134.848845 
L 283.952097 138.30957 
L 288.034097 141.516587 
L 292.116096 144.374518 
L 296.198096 147.398237 
L 300.280095 150.246462 
L 304.362095 153.303877 
L 308.444094 157.051988 
L 312.526094 160.249319 
L 316.608093 163.312371 
L 320.690093 166.337474 
L 324.772092 169.449513 
L 328.854092 172.567352 
L 332.936091 175.601178 
L 337.018091 178.631215 
L 341.10009 181.538234 
L 345.18209 184.283415 
L 349.264089 187.32901 
L 353.346089 190.12227 
L 357.428088 192.946243 
L 361.510088 195.706619 
L 365.592087 197.094802 
L 369.674087 199.833966 
L 373.756086 202.595552 
L 377.838086 204.893272 
L 381.920085 206.204887 
L 386.002085 205.783896 
L 390.084084 207.106132 
L 394.166084 210.749103 
L 398.248083 212.761538 
L 402.330083 212.095075 
L 406.412082 222.076591 
L 410.494082 232.259369 
L 414.576081 236.150339 
L 418.658081 239.491127 
L 422.74008 242.625104 
L 426.82208 245.619458 
L 430.904079 248.363789 
L 434.986079 251.103761 
L 439.068078 254.518937 
L 443.150078 256.916706 
L 447.232077 258.687997 
L 451.314077 260.109759 
L 455.396076 262.706656 
L 459.478076 265.296168 
L 463.560076 265.482041 
L 467.642075 275.084262 
L 471.724075 279.115791 
L 475.806074 282.320892 
L 479.888074 285.302637 
" clip-path="url(#pef7fad8d47)" style="fill: none; stroke-dasharray: 12.16,3.04,1.9,3.04; stroke-dashoffset: 0; stroke: #2ca02c; stroke-width: 1.9"/>
   </g>
   <g id="patch_3">
    <path d="M 51.278125 298.495204 
L 51.278125 8.609141 
" style="fill: none; stroke: #000000; stroke-width: 0.8; stroke-linejoin: miter; stroke-linecap: square"/>
   </g>
   <g id="patch_4">
    <path d="M 500.298071 298.495204 
L 500.298071 8.609141 
" style="fill: none; stroke: #000000; stroke-width: 0.8; stroke-linejoin: miter; stroke-linecap: square"/>
   </g>
   <g id="patch_5">
    <path d="M 51.278125 298.495204 
L 500.298071 298.495204 
" style="fill: none; stroke: #000000; stroke-width: 0.8; stroke-linejoin: miter; stroke-linecap: square"/>
   </g>
   <g id="patch_6">
    <path d="M 51.278125 8.609141 
L 500.298071 8.609141 
" style="fill: none; stroke: #000000; stroke-width: 0.8; stroke-linejoin: miter; stroke-linecap: square"/>
   </g>
   <g id="legend_1">
    <g id="patch_7">
     <path d="M 307.893774 36.626329 
L 495.048071 36.626329 
Q 496.548071 36.626329 496.548071 35.126329 
L 496.548071 13.859141 
Q 496.548071 12.359141 495.048071 12.359141 
L 307.893774 12.359141 
Q 306.393774 12.359141 306.393774 13.859141 
L 306.393774 35.126329 
Q 306.393774 36.626329 307.893774 36.626329 
z
" style="fill: #ffffff; opacity: 0.8; stroke: #cccccc; stroke-linejoin: miter"/>
    </g>
    <g id="line2d_32">
     <path d="M 309.393774 18.43297 
L 316.893774 18.43297 
L 324.393774 18.43297 
" style="fill: none; stroke: #1f77b4; stroke-width: 1.9; stroke-linecap: square"/>
    </g>
    <g id="text_17">
     <text style="font-size: 7.5px; font-family: 'DejaVu Serif', serif; text-anchor: start" x="330.393774" y="21.05797" transform="rotate(-0 330.393774 21.05797)">SVRG-ADMM</text>
    </g>
    <g id="line2d_33">
     <path d="M 309.393774 29.441563 
L 316.893774 29.441563 
L 324.393774 29.441563 
" style="fill: none; stroke-dasharray: 7.03,3.04; stroke-dashoffset: 0; stroke: #ff7f0e; stroke-width: 1.9"/>
    </g>
    <g id="text_18">
     <text style="font-size: 7.5px; font-family: 'DejaVu Serif', serif; text-anchor: start" x="330.393774" y="32.066563" transform="rotate(-0 330.393774 32.066563)">SPIDER-ADMM</text>
    </g>
    <g id="line2d_34">
     <path d="M 404.99768 18.43297 
L 412.49768 18.43297 
L 419.99768 18.43297 
" style="fill: none; stroke-dasharray: 12.16,3.04,1.9,3.04; stroke-dashoffset: 0; stroke: #2ca02c; stroke-width: 1.9"/>
    </g>
    <g id="text_19">
     <text style="font-size: 7.5px; font-family: 'DejaVu Serif', serif; text-anchor: start" x="425.99768" y="21.05797" transform="rotate(-0 425.99768 21.05797)">AIL-SVRG-ADMM</text>
    </g>
   </g>
  </g>
 </g>
 <defs>
  <clipPath id="pef7fad8d47">
   <rect x="51.278125" y="8.609141" width="449.019946" height="289.886063"/>
  </clipPath>
 </defs>
</svg>
