<?xml version="1.0" encoding="utf-8" standalone="no"?>
<!DOCTYPE svg PUBLIC "-//W3C//DTD SVG 1.1//EN"
  "http://www.w3.org/Graphics/SVG/1.1/DTD/svg11.dtd">
<svg xmlns:xlink="http://www.w3.org/1999/xlink" width="511.01375pt" height="337.343558pt" viewBox="0 0 511.01375 337.343558" xmlns="http://www.w3.org/2000/svg" version="1.1">
 <metadata>
  <rdf:RDF xmlns:dc="http://purl.org/dc/elements/1.1/" xmlns:cc="http://creativecommons.org/ns#" xmlns:rdf="http://www.w3.org/1999/02/22-rdf-syntax-ns#">
   <cc:Work>
    <dc:type rdf:resource="http://purl.org/dc/dcmitype/StillImage"/>
    <dc:date>2026-07-15T10:00:58.426296</dc:date>
    <dc:format>image/svg+xml</dc:format>
    <dc:creator>
     <cc:Agent>
      <dc:title>Matplotlib v3.10.5, https://matplotlib.org/</dc:title>
     </cc:Agent>
    </dc:creator>
   </cc:Work>
  </rdf:RDF>
 </metadata>
 <defs>
  <style type="text/css">*{stroke-linejoin: round; stroke-linecap: butt}</style>
 </defs>
 <g id="figure_1">
  <g id="patch_1">
   <path d="M 0 337.343558 
L 511.01375 337.343558 
L 511.01375 0 
L 0 0 
z
" style="fill: #ffffff"/>
  </g>
  <g id="axes_1">
   <g id="patch_2">
    <path d="M 50.14375 299.787308 
L 503.81375 299.787308 
L 503.81375 9.879457 
L 50.14375 9.879457 
z
" style="fill: #ffffff"/>
   </g>
   <g id="matplotlib.axis_1">
    <g id="xtick_1">
     <g id="line2d_1">
      <path d="M 70.765114 299.787308 
L 70.765114 9.879457 
" clip-path="url(#p3131153954)" style="fill: none; stroke: #b0b0b0; stroke-opacity: 0.25; stroke-width: 0.8; stroke-linecap: square"/>
     </g>
     <g id="line2d_2">
      <defs>
       <path id="m519e3085c4" d="M 0 0 
L 0 3.5 
" style="stroke: #000000; stroke-width: 0.8"/>
      </defs>
      <g>
       <use xlink:href="#m519e3085c4" x="70.765114" y="299.787308" style="stroke: #000000; stroke-width: 0.8"/>
      </g>
     </g>
     <g id="text_1">
      <text style="font-size: 10px; font-family: 'DejaVu Serif', serif; text-anchor: middle" x="70.765114" y="314.385745" transform="rotate(-0 70.765114 314.385745)">0.0</text>
     </g>
    </g>
    <g id="xtick_2">
     <g id="line2d_3">
      <path d="M 169.986836 299.787308 
L 169.986836 9.879457 
" clip-path="url(#p3131153954)" style="fill: none; stroke: #b0b0b0; stroke-opacity: 0.25; stroke-width: 0.8; stroke-linecap: square"/>
     </g>
     <g id="line2d_4">
      <g>
       <use xlink:href="#m519e3085c4" x="169.986836" y="299.787308" style="stroke: #000000; stroke-width: 0.8"/>
      </g>
     </g>
     <g id="text_2">
      <text style="font-size: 10px; font-family: 'DejaVu Serif', serif; text-anchor: middle" x="169.986836" y="314.385745" transform="rotate(-0 169.986836 314.385745)">0.5</text>
     </g>
    </g>
    <g id="xtick_3">
     <g id="line2d_5">
      <path d="M 269.208558 299.787308 
L 269.208558 9.879457 
" clip-path="url(#p3131153954)" style="fill: none; stroke: #b0b0b0; stroke-opacity: 0.25; stroke-width: 0.8; stroke-linecap: square"/>
     </g>
     <g id="line2d_6">
      <g>
       <use xlink:href="#m519e3085c4" x="269.208558" y="299.787308" style="stroke: #000000; stroke-width: 0.8"/>
      </g>
     </g>
     <g id="text_3">
      <text style="font-size: 10px; font-family: 'DejaVu Serif', serif; text-anchor: middle" x="269.208558" y="314.385745" transform="rotate(-0 269.208558 314.385745)">1.0</text>
     </g>
    </g>
    <g id="xtick_4">
     <g id="line2d_7">
      <path d="M 368.43028 299.787308 
L 368.43028 9.879457 
" clip-path="url(#p3131153954)" style="fill: none; stroke: #b0b0b0; stroke-opacity: 0.25; stroke-width: 0.8; stroke-linecap: square"/>
     </g>
     <g id="line2d_8">
      <g>
       <use xlink:href="#m519e3085c4" x="368.43028" y="299.787308" style="stroke: #000000; stroke-width: 0.8"/>
      </g>
     </g>
     <g id="text_4">
      <text style="font-size: 10px; font-family: 'DejaVu Serif', serif; text-anchor: middle" x="368.43028" y="314.385745" transform="rotate(-0 368.43028 314.385745)">1.5</text>
     </g>
    </g>
    <g id="xtick_5">
     <g id="line2d_9">
      <path d="M 467.652002 299.787308 
L 467.652002 9.879457 
" clip-path="url(#p3131153954)" style="fill: none; stroke: #b0b0b0; stroke-opacity: 0.25; stroke-width: 0.8; stroke-linecap: square"/>
     </g>
     <g id="line2d_10">
      <g>
       <use xlink:href="#m519e3085c4" x="467.652002" y="299.787308" style="stroke: #000000; stroke-width: 0.8"/>
      </g>
     </g>
     <g id="text_5">
      <text style="font-size: 10px; font-family: 'DejaVu Serif', serif; text-anchor: middle" x="467.652002" y="314.385745" transform="rotate(-0 467.652002 314.385745)">2.0</text>
     </g>
    </g>
    <g id="text_6">
     <text style="font-size: 10px; font-family: 'DejaVu Serif', serif; text-anchor: middle" x="276.97875" y="328.06387" transform="rotate(-0 276.97875 328.06387)">Time (s)</text>
    </g>
   </g>
   <g id="matplotlib.axis_2">
    <g id="ytick_1">
     <g id="line2d_11">
      <path d="M 50.14375 292.526981 
L 503.81375 292.526981 
" clip-path="url(#p3131153954)" style="fill: none; stroke: #b0b0b0; stroke-opacity: 0.25; stroke-width: 0.8; stroke-linecap: square"/>
     </g>
     <g id="line2d_12">
      <defs>
       <path id="m6526341d1b" d="M 0 0 
L -3.5 0 
" style="stroke: #000000; stroke-width: 0.8"/>
      </defs>
      <g>
       <use xlink:href="#m6526341d1b" x="50.14375" y="292.526981" style="stroke: #000000; stroke-width: 0.8"/>
      </g>
     </g>
     <g id="text_7">
      <text style="font-size: 10px; font-family: 'DejaVu Serif', serif; text-anchor: end" x="43.14375" y="296.3262" transform="rotate(-0 43.14375 296.3262)">0.54</text>
     </g>
    </g>
    <g id="ytick_2">
     <g id="line2d_13">
      <path d="M 50.14375 257.336011 
L 503.81375 257.336011 
" clip-path="url(#p3131153954)" style="fill: none; stroke: #b0b0b0; stroke-opacity: 0.25; stroke-width: 0.8; stroke-linecap: square"/>
     </g>
     <g id="line2d_14">
      <g>
       <use xlink:href="#m6526341d1b" x="50.14375" y="257.336011" style="stroke: #000000; stroke-width: 0.8"/>
      </g>
     </g>
     <g id="text_8">
      <text style="font-size: 10px; font-family: 'DejaVu Serif', serif; text-anchor: end" x="43.14375" y="261.135229" transform="rotate(-0 43.14375 261.135229)">0.56</text>
     </g>
    </g>
    <g id="ytick_3">
     <g id="line2d_15">
      <path d="M 50.14375 222.14504 
L 503.81375 222.14504 
" clip-path="url(#p3131153954)" style="fill: none; stroke: #b0b0b0; stroke-opacity: 0.25; stroke-width: 0.8; stroke-linecap: square"/>
     </g>
     <g id="line2d_16">
      <g>
       <use xlink:href="#m6526341d1b" x="50.14375" y="222.14504" style="stroke: #000000; stroke-width: 0.8"/>
      </g>
     </g>
     <g id="text_9">
      <text style="font-size: 10px; font-family: 'DejaVu Serif', serif; text-anchor: end" x="43.14375" y="225.944259" transform="rotate(-0 43.14375 225.944259)">0.58</text>
     </g>
    </g>
    <g id="ytick_4">
     <g id="line2d_17">
      <path d="M 50.14375 186.95407 
L 503.81375 186.95407 
" clip-path="url(#p3131153954)" style="fill: none; stroke: #b0b0b0; stroke-opacity: 0.25; stroke-width: 0.8; stroke-linecap: square"/>
     </g>
     <g id="line2d_18">
      <g>
       <use xlink:href="#m6526341d1b" x="50.14375" y="186.95407" style="stroke: #000000; stroke-width: 0.8"/>
      </g>
     </g>
     <g id="text_10">
      <text style="font-size: 10px; font-family: 'DejaVu Serif', serif; text-anchor: end" x="43.14375" y="190.753289" transform="rotate(-0 43.14375 190.753289)">0.60</text>
     </g>
    </g>
    <g id="ytick_5">
     <g id="line2d_19">
      <path d="M 50.14375 151.7631 
L 503.81375 151.7631 
" clip-path="url(#p3131153954)" style="fill: none; stroke: #b0b0b0; stroke-opacity: 0.25; stroke-width: 0.8; stroke-linecap: square"/>
     </g>
     <g id="line2d_20">
      <g>
       <use xlink:href="#m6526341d1b" x="50.14375" y="151.7631" style="stroke: #000000; stroke-width: 0.8"/>
      </g>
     </g>
     <g id="text_11">
      <text style="font-size: 10px; font-family: 'DejaVu Serif', serif; text-anchor: end" x="43.14375" y="155.562319" transform="rotate(-0 43.14375 155.562319)">0.62</text>
     </g>
    </g>
    <g id="ytick_6">
     <g id="line2d_21">
      <path d="M 50.14375 116.57213 
L 503.81375 116.57213 
" clip-path="url(#p3131153954)" style="fill: none; stroke: #b0b0b0; stroke-opacity: 0.25; stroke-width: 0.8; stroke-linecap: square"/>
     </g>
     <g id="line2d_22">
      <g>
       <use xlink:href="#m6526341d1b" x="50.14375" y="116.57213" style="stroke: #000000; stroke-width: 0.8"/>
      </g>
     </g>
     <g id="text_12">
      <text style="font-size: 10px; font-family: 'DejaVu Serif', serif; text-anchor: end" x="43.14375" y="120.371348" transform="rotate(-0 43.14375 120.371348)">0.64</text>
     </g>
    </g>
    <g id="ytick_7">
     <g id="line2d_23">
      <path d="M 50.14375 81.381159 
L 503.81375 81.381159 
" clip-path="url(#p3131153954)" style="fill: none; stroke: #b0b0b0; stroke-opacity: 0.25; stroke-width: 0.8; stroke-linecap: square"/>
     </g>
     <g id="line2d_24">
      <g>
       <use xlink:href="#m6526341d1b" x="50.14375" y="81.381159" style="stroke: #000000; stroke-width: 0.8"/>
      </g>
     </g>
     <g id="text_13">
      <text style="font-size: 10px; font-family: 'DejaVu Serif', serif; text-anchor: end" x="43.14375" y="85.180378" transform="rotate(-0 43.14375 85.180378)">0.66</text>
     </g>
    </g>
    <g id="ytick_8">
     <g id="line2d_25">
      <path d="M 50.14375 46.190189 
L 503.81375 46.190189 
" clip-path="url(#p3131153954)" style="fill: none; stroke: #b0b0b0; stroke-opacity: 0.25; stroke-width: 0.8; stroke-linecap: square"/>
     </g>
     <g id="line2d_26">
      <g>
       <use xlink:href="#m6526341d1b" x="50.14375" y="46.190189" style="stroke: #000000; stroke-width: 0.8"/>
      </g>
     </g>
     <g id="text_14">
      <text style="font-size: 10px; font-family: 'DejaVu Serif', serif; text-anchor: end" x="43.14375" y="49.989408" transform="rotate(-0 43.14375 49.989408)">0.68</text>
     </g>
    </g>
    <g id="ytick_9">
     <g id="line2d_27">
      <path d="M 50.14375 10.999219 
L 503.81375 10.999219 
" clip-path="url(#p3131153954)" style="fill: none; stroke: #b0b0b0; stroke-opacity: 0.25; stroke-width: 0.8; stroke-linecap: square"/>
     </g>
     <g id="line2d_28">
      <g>
       <use xlink:href="#m6526341d1b" x="50.14375" y="10.999219" style="stroke: #000000; stroke-width: 0.8"/>
      </g>
     </g>
     <g id="text_15">
      <text style="font-size: 10px; font-family: 'DejaVu Serif', serif; text-anchor: end" x="43.14375" y="14.798438" transform="rotate(-0 43.14375 14.798438)">0.70</text>
     </g>
    </g>
    <g id="text_16">
     <text style="font-size: 10px; font-family: 'DejaVu Serif', serif; text-anchor: middle" x="14.65625" y="154.833383" transform="rotate(-90 14.65625 154.833383)">Test Logistic Loss</text>
    </g>
   </g>
   <g id="line2d_29">
    <path d="M 70.765114 23.057087 
L 72.837612 94.892865 
L 74.910111 148.865584 
L 76.98261 187.594714 
L 79.055109 221.727379 
L 81.127608 240.818351 
L 83.200107 257.723283 
L 85.272606 267.512715 
L 87.345104 274.45089 
L 89.417603 278.935248 
L 91.490102 281.254031 
L 93.562601 283.299211 
L 95.6351 284.613888 
L 97.707599 285.535211 
L 99.780098 286.025464 
L 103.925095 286.609678 
L 108.070093 286.411033 
L 110.142592 286.503765 
L 112.215091 286.340471 
L 116.360089 285.665913 
L 126.722583 283.689749 
L 128.795082 283.230714 
L 141.230075 282.780026 
L 145.375073 282.288778 
L 168.17256 278.791237 
L 170.245059 278.357872 
L 174.390057 277.792411 
L 178.535054 277.026905 
L 182.680052 277.098205 
L 184.752551 277.153452 
L 186.82505 277.04927 
L 197.187544 277.385006 
L 209.622537 277.543255 
L 238.637521 277.638353 
L 346.407462 277.661624 
L 483.192386 277.661735 
L 483.192386 277.661735 
" clip-path="url(#p3131153954)" style="fill: none; stroke: #1f77b4; stroke-width: 1.9; stroke-linecap: square"/>
   </g>
   <g id="line2d_30">
    <path d="M 70.765114 23.057087 
L 74.910111 152.878172 
L 76.98261 195.213451 
L 79.055109 227.48673 
L 81.127608 250.118934 
L 83.200107 265.600975 
L 85.272606 273.950994 
L 87.345104 278.225703 
L 89.417603 281.571506 
L 91.490102 283.824664 
L 93.562601 285.148576 
L 95.6351 285.957181 
L 97.707599 286.414342 
L 99.780098 286.6019 
L 103.925095 286.515238 
L 105.997594 286.231692 
L 116.360089 283.923851 
L 118.432587 283.4174 
L 120.505086 283.135367 
L 126.722583 282.93857 
L 132.940079 282.33453 
L 137.085077 281.633418 
L 159.882565 277.264027 
L 161.955063 277.149054 
L 164.027562 276.881177 
L 180.607553 277.50086 
L 197.187544 277.618889 
L 222.05753 277.652664 
L 373.349947 277.661735 
L 483.192386 277.661735 
L 483.192386 277.661735 
" clip-path="url(#p3131153954)" style="fill: none; stroke-dasharray: 7.03,3.04; stroke-dashoffset: 0; stroke: #ff7f0e; stroke-width: 1.9"/>
   </g>
   <g id="patch_3">
    <path d="M 50.14375 299.787308 
L 50.14375 9.879457 
" style="fill: none; stroke: #000000; stroke-width: 0.8; stroke-linejoin: miter; stroke-linecap: square"/>
   </g>
   <g id="patch_4">
    <path d="M 503.81375 299.787308 
L 503.81375 9.879457 
" style="fill: none; stroke: #000000; stroke-width: 0.8; stroke-linejoin: miter; stroke-linecap: square"/>
   </g>
   <g id="patch_5">
    <path d="M 50.14375 299.787308 
L 503.81375 299.787308 
" style="fill: none; stroke: #000000; stroke-width: 0.8; stroke-linejoin: miter; stroke-linecap: square"/>
   </g>
   <g id="patch_6">
    <path d="M 50.14375 9.879457 
L 503.81375 9.879457 
" style="fill: none; stroke: #000000; stroke-width: 0.8; stroke-linejoin: miter; stroke-linecap: square"/>
   </g>
   <g id="legend_1">
    <g id="patch_7">
     <path d="M 311.409453 26.888051 
L 498.56375 26.888051 
Q 500.06375 26.888051 500.06375 25.388051 
L 500.06375 15.129457 
Q 500.06375 13.629457 498.56375 13.629457 
L 311.409453 13.629457 
Q 309.909453 13.629457 309.909453 15.129457 
L 309.909453 25.388051 
Q 309.909453 26.888051 311.409453 26.888051 
z
" style="fill: #ffffff; opacity: 0.8; stroke: #cccccc; stroke-linejoin: miter"/>
    </g>
    <g id="line2d_31">
     <path d="M 312.909453 19.703286 
L 320.409453 19.703286 
L 327.909453 19.703286 
" style="fill: none; stroke: #1f77b4; stroke-width: 1.9; stroke-linecap: square"/>
    </g>
    <g id="text_17">
     <text style="font-size: 7.5px; font-family: 'DejaVu Serif', serif; text-anchor: start" x="333.909453" y="22.328286" transform="rotate(-0 333.909453 22.328286)">SPIDER-ADMM</text>
    </g>
    <g id="line2d_32">
     <path d="M 408.513359 19.703286 
L 416.013359 19.703286 
L 423.513359 19.703286 
" style="fill: none; stroke-dasharray: 7.03,3.04; stroke-dashoffset: 0; stroke: #ff7f0e; stroke-width: 1.9"/>
    </g>
    <g id="text_18">
     <text style="font-size: 7.5px; font-family: 'DejaVu Serif', serif; text-anchor: start" x="429.513359" y="22.328286" transform="rotate(-0 429.513359 22.328286)">AIL-SVRG-ADMM</text>
    </g>
   </g>
  </g>
 </g>
 <defs>
  <clipPath id="p3131153954">
   <rect x="50.14375" y="9.879457" width="453.67" height="289.90785"/>
  </clipPath>
 </defs>
</svg>
